<svg viewBox="0 0 192 192" xmlns="http://www.w3.org/2000/svg" width="192" height="192">














<g transform="rotate(0 3.14 2.18) translate(18.59372137866326 25.79883410568077) scale(0.7789311056235143)"><defs>
<style>.cls-1,.cls-2{fill:none;stroke:#231f20;}.cls-1{stroke-linejoin:bevel;}.cls-2{stroke-miterlimit:10;}</style>
</defs><title>1</title><path class="cls-1" d="M129.54,163.21c21.4-9.49,47.33,7.47,47.33,7.47l-22.31-64.6a73.27,73.27,0,0,0-8.65-11.86l-.1,18.63-.94,15.2s-.83,4.86-2.46,10.77c-1.82,6.58-4.64,14.46-8.42,18.38l-5.09,5.26Z"></path><path class="cls-2" d="m72 166.6z"></path><path class="cls-2" d="M90,11.6C37.29,16.9,43.42,60.26,43.42,73.94c0,14.58-3,18.33-3,18.33s-16.21,32.75-26,54.57S22,170.68,22,170.68l22.15-64.35a73.5,73.5,0,0,1,8.66-12,18.52,18.52,0,0,1,3.87-3.25s11.46-8,21.93-2.8c9.81,4.92,12.32,8.92,19.85,9.4l1.7,0c8.8,0,9.47-4.25,19.93-9.5S142,91,142,91a18.7,18.7,0,0,1,3.87,3.24,73.27,73.27,0,0,1,8.65,11.86l22.31,64.6s17.47-2,7.7-23.85-25.88-54.49-25.88-54.49-3.15-3.79-3.15-18.37c0-13.72,4.45-57.31-47.17-62.41"></path><path class="cls-1" d="M128.75,162.19c1.06-1,2.7-2.69,5.24-5.31,7.18-7.43,10.88-29,10.88-29l.94-15.12.1-18.59A18.42,18.42,0,0,0,142,91s-11.46-8-21.92-2.73-11.13,9.5-19.93,9.5l-1.7,0c-7.53-.48-10-4.48-19.85-9.4-10.46-5.25-21.93,2.8-21.93,2.8a18.52,18.52,0,0,0-3.87,3.25l.09,18.53.94,15.36s3.7,21.58,10.89,29c2.45,2.54,4.07,4.15,5.13,5.18l-1,1.22c-7.17-1.8-25.88-4.51-46.75,7.17l22.06-64.5a73.5,73.5,0,0,1,8.66-12l.09,18.53.94,15.36s.88,5.09,2.6,11.18c1.82,6.45,4.59,14,8.29,17.83m9-40.25c-20.22-4.72-7.1-21.4-7.1-21.4,5.11-6.79,22.44,6.16,22.44,6.16S94,121.73,73.75,117Zm54,0c-20.22,4.72-15.34-15.23-15.34-15.23s17.33-12.95,22.44-6.16C134.89,95.62,148,112.29,127.79,117Z"></path><path class="cls-2" d="M74.94,164.1a3.31,3.31,0,1,0,3.31,3.31A3.31,3.31,0,0,0,74.94,164.1Zm49.59,0a3.31,3.31,0,1,0,3.31,3.31A3.31,3.31,0,0,0,124.53,164.1ZM99.73,131a3.31,3.31,0,0,0-3.31,3.31v3.31H103v-3.31A3.31,3.31,0,0,0,99.73,131Z"></path><path class="cls-2" d="m127.4 161.6l-7.68-7.46-13.08-18.51v-1.32c0-3.65-3.4-6.61-7-6.61s-7.21 3-7.21 6.61v1.32l-12.81 18.52-8.13 7.46a6.59 6.59 0 0 0 -3.45 5.77 6.74 6.74 0 0 0 6.61 6.75c2.44 0 4.54-1.76 5.69-3.17h38.21c1.15 1.41 3.25 3.17 5.69 3.17a6.68 6.68 0 0 0 3.17 -12.52z"></path><polygon class="cls-2" points="86.51 164.1 93.12 164.1 93.12 146.7 86.51 155.8"></polygon><polygon class="cls-2" points="106.4 146.7 106.4 164.1 113 164.1 113 155.8"></polygon><rect class="cls-2" x="96.43" y="144.3" width="6.61" height="19.84"></rect><path class="cls-2" d="m74.94 164.1a3.31 3.31 0 1 0 3.31 3.31 3.31 3.31 0 0 0 -3.31 -3.31zm49.59 0a3.31 3.31 0 1 0 3.31 3.31 3.31 3.31 0 0 0 -3.31 -3.31z"></path><polyline class="cls-2" points="92.36 96.13 92.36 140.2 106.6 140.2 106.6 96.13"></polyline><polyline class="cls-2" points="108.6 95.16 108.6 6.16 90.31 6.16 90.31 94.98"></polyline></g></svg>