<svg viewBox="0 0 192 192" xmlns="http://www.w3.org/2000/svg" xmlns:xlink="http://www.w3.org/1999/xlink" width="192" height="192"><g transform="rotate(0 3.14 2.18) translate(11.291928364136325 45.079441683300026) scale(0.7657226814541349)"><defs><style>.cls-1,.cls-2{fill:none;}.cls-12,.cls-2{stroke:#231f20;stroke-miterlimit:10;}.cls-3{isolation:isolate;}.cls-4{fill:#efdebf;}.cls-5{opacity:0.4;}.cls-6{fill:#939598;}.cls-7{fill:#fff;}.cls-8{fill:#9b8579;}.cls-9{clip-path:url(#f);}.cls-10{fill:#414042;}.cls-11{clip-path:url(#e);}.cls-12{fill:#231f20;}.cls-13{clip-path:url(#d);}.cls-14{clip-path:url(#c);}.cls-15,.cls-16{mix-blend-mode:multiply;}.cls-15{fill:url(#a);}.cls-16{fill:url(#b);}</style><clipPath id="f"><path class="cls-1" d="M97.39,69c-.79-4.7-3.32-12.47-13-15.84A22.71,22.71,0,0,0,62.5,57.31a12.28,12.28,0,0,0,4.84,7.26C71.6,67.83,82,69,87.42,68.62s5.77-1.18,7.78-.51,1.65.83,1.65.83Z"></path></clipPath><clipPath id="e"><path class="cls-2" d="M97.39,69c-.79-4.7-3.32-12.47-13-15.84A22.71,22.71,0,0,0,62.5,57.31a12.28,12.28,0,0,0,4.84,7.26C71.6,67.83,82,69,87.42,68.62s5.44-1.14,7.48-.55A26.12,26.12,0,0,1,97.39,69Z"></path></clipPath><clipPath id="d"><path class="cls-1" d="M120.78,69c.79-4.7,3.32-12.47,13-15.84a22.71,22.71,0,0,1,21.86,4.13,12.28,12.28,0,0,1-4.84,7.26c-4.26,3.26-14.67,4.4-20.08,4.06S125,67.45,123,68.11s-1.65.83-1.65.83Z"></path></clipPath><clipPath id="c"><path class="cls-2" d="M120.78,69c.79-4.7,3.32-12.47,13-15.84a22.71,22.71,0,0,1,21.86,4.13,12.28,12.28,0,0,1-4.84,7.26c-4.26,3.26-14.67,4.4-20.08,4.06s-5.44-1.14-7.48-.55A26.12,26.12,0,0,0,120.78,69Z"></path></clipPath><linearGradient id="a" x1="100.4" x2="100.5" y1="94.44" y2="73.58" gradientUnits="userSpaceOnUse"><stop stop-color="#fff" offset="0"></stop><stop stop-color="#f5f6f6" offset=".13"></stop><stop stop-color="#dcdcdd" offset=".34"></stop><stop stop-color="#b2b2b4" offset=".62"></stop><stop stop-color="#78797b" offset=".94"></stop><stop stop-color="#6d6e71" offset="1"></stop></linearGradient><linearGradient id="b" x1="119.6" x2="119.7" y1="94.53" y2="73.67" xlink:href="#a"></linearGradient></defs><title>17</title><g class="cls-3"><g data-name="Layer 2"><path class="cls-4" d="M167,49.25c-4.78-8-12.53-14.67-22.13-19.6a61.16,61.16,0,0,0-25.66-8s4.22-6.42-.58-14.92c0,0,.74,6.23-3.05,8.92C113,9.88,114.65.29,114.65.29c-7.79,7-6.56,21.41-6.56,21.41-.71-8.58-9.17-10.84-9.17-10.84,4.24,3.86,2.41,10.61,2.41,10.61a61,61,0,0,0-25.79,8.16c-9.6,4.93-17.36,11.65-22.13,19.6a30.83,30.83,0,0,0-4.89,13c-.79,7.25,1.18,17.2,10.21,22.8s10.8,5.8,17.47,7.67,66.16,0,66.16,0l1.56-.1c6.67-1.87,8.44-2.07,17.47-7.67s11-15.54,10.21-22.8c0,0-1.23-7.86-4.61-12.92"></path><g class="cls-5"><path class="cls-6" d="M48.71,62.17a23.58,23.58,0,0,0,1.58,9.46,24.08,24.08,0,0,0,2.08,4.26,20.45,20.45,0,0,0,2.94,3.64A28.88,28.88,0,0,0,63,84.89a50.74,50.74,0,0,0,8.86,3.34A81.62,81.62,0,0,0,90.65,91c6.47,0,13,.3,19.5.42s13,.41,19.44.44h1.72l.54,0c.74-.07,1.52-.18,2.3-.31,1.56-.26,3.12-.57,4.68-.92,3.11-.72,6.22-1.54,9.26-2.51a66.1,66.1,0,0,0,8.86-3.52A33.15,33.15,0,0,0,161,82.23a30.7,30.7,0,0,0,3.65-3,21.93,21.93,0,0,0,3.1-3.53A19.8,19.8,0,0,0,170,71.6a21.86,21.86,0,0,0,1.51-9.44,22.54,22.54,0,0,1,.37,4.9A20.93,20.93,0,0,1,171.1,72a19.41,19.41,0,0,1-2,4.61,23.69,23.69,0,0,1-3,4.07,32.24,32.24,0,0,1-3.7,3.44,35.57,35.57,0,0,1-4.21,2.8A63.21,63.21,0,0,1,149.11,91a88.39,88.39,0,0,1-9.47,3c-1.6.41-3.22.78-4.87,1.1-.83.16-1.65.3-2.53.41l-.68.07-.7,0-1.24,0c-6.58.1-13.07-.09-19.59-.22l-19.53-.67a77.21,77.21,0,0,1-19.59-3.57,48.6,48.6,0,0,1-9.19-4,30.59,30.59,0,0,1-7.86-6.33A22,22,0,0,1,49.24,72,22.33,22.33,0,0,1,48.71,62.17Z"></path></g><path class="cls-4" d="m149.8 98.73c0 15.16-18.42 18.49-40.38 18.49s-39.16-3.32-39.16-18.49 17.8-27.46 39.77-27.46 39.77 12.3 39.77 27.46z"></path><path class="cls-7" d="M149.88,98.73a15.42,15.42,0,0,1-1.24,6.24,14.61,14.61,0,0,1-3.89,5c-3.3,2.78-7.43,4.32-11.56,5.38-8.33,2.07-16.95,2.3-25.45,2.21-4.26-.09-8.52-.3-12.76-.8a58.05,58.05,0,0,1-12.49-2.67,26.81,26.81,0,0,1-5.76-2.8,15.32,15.32,0,0,1-4.5-4.55,14.13,14.13,0,0,1-2.08-6.07,19.08,19.08,0,0,1,.35-6.43,23.92,23.92,0,0,1,6.26-11.16,36.15,36.15,0,0,1,10.49-7.41A55.29,55.29,0,0,1,125,72.8,44,44,0,0,1,136.7,78,32,32,0,0,1,146,86.73,21.17,21.17,0,0,1,149.88,98.73Zm-.1,0a20.73,20.73,0,0,0-4-11.85,31.33,31.33,0,0,0-9.41-8.36,51.57,51.57,0,0,0-24.13-6.69,56.75,56.75,0,0,0-12.58.94,48.78,48.78,0,0,0-12,3.81A36.45,36.45,0,0,0,77.35,83.7a23.2,23.2,0,0,0-6.25,10.72,18.72,18.72,0,0,0-.44,6.24,13.68,13.68,0,0,0,1.9,5.93,14.77,14.77,0,0,0,4.36,4.48,24.41,24.41,0,0,0,5.68,2.78A53.07,53.07,0,0,0,95,116.32c4.22.4,8.47.51,12.71.49s8.49-.09,12.72-.38A82.35,82.35,0,0,0,133,114.77c4.1-.93,8.21-2.32,11.53-5a13.62,13.62,0,0,0,3.91-4.91A15.29,15.29,0,0,0,149.78,98.73Z"></path><path class="cls-4" d="M146.39,28.12c-5.18-2.7,7,.72,10.85-2.42,0,0,1.59,2.66-.64,3.62,0,0,2.55-2.42,10.53-1.69s9.89,4.35,13.4,5.8a19.06,19.06,0,0,0-6.06-.24s3.83-2.17,11.8,2.9,5.1,12.08,13.08,14.74c0,0-9.57-.72-11.48-3.87,0,0,1,4.59,6.38,7.49s12.12,6.28,15,9.18S214,74.26,214,74.26s-1.59-4.83-6.06-6.52c0,0,4.78,6.52,2.23,13.77s1,12.08,2.87,15c0,0-7.34-3.62-8.29-6,0,0,10.85,11.84,9.89,21.26,0,0-.64-2.9-4.47-4.59,0,0,2.23,6.76.64,13.29s3.19,10.87,4.78,11.84c0,0-15,2.66-21.69-7.73,0,0-1,3.86.32,5.07-2.36-2.24-7.73-2.37-10.64-4.38-11-7.55-12.23-21.94-11.35-34.67,1.05-15.34,4.62-28.43-3.72-42.52C163.75,39.95,156,33.12,146.39,28.12Z"></path><path class="cls-4" d="M74.13,28.12c5.18-2.7-7,.72-10.85-2.42,0,0-1.59,2.66.64,3.62,0,0-2.55-2.42-10.53-1.69S43.51,32,40,33.43a19.06,19.06,0,0,1,6.06-.24s-3.83-2.17-11.8,2.9-5.1,12.08-13.08,14.74c0,0,9.57-.72,11.48-3.87,0,0-1,4.59-6.38,7.49s-12.12,6.28-15,9.18S6.51,74.26,6.51,74.26s1.59-4.83,6.06-6.52c0,0-4.78,6.52-2.23,13.77s-1,12.08-2.87,15c0,0,7.34-3.62,8.29-6,0,0-10.85,11.84-9.89,21.26,0,0,.64-2.9,4.47-4.59,0,0-2.23,6.76-.64,13.29s-3.19,10.87-4.78,11.84c0,0,15,2.66,21.69-7.73,0,0,1,3.86-.32,5.07,2.36-2.24,7.73-2.37,10.64-4.38,11-7.55,12.23-21.94,11.35-34.67C47.23,75.2,43.66,62.11,52,48,56.77,39.95,64.53,33.12,74.13,28.12Z"></path><path class="cls-4" d="M121,86.79c3.91-.84,11.21-1.71,10.87-7.3-.16-2.61-1.13-5.1-3.68-6.18a20.54,20.54,0,0,0-5.48-1.17c-2.34-.29-3.7-.65-5.25-2.46-1.14-1.33-2.48-3.41-4.22-4a8,8,0,0,0-3.15-.37,8,8,0,0,0-3.15.37c-1.74.58-3.08,2.66-4.22,4-1.55,1.81-2.91,2.17-5.25,2.46A20.54,20.54,0,0,0,92,73.31c-2.55,1.08-3.53,3.57-3.68,6.18-.34,5.59,7,6.46,10.87,7.3"></path><path class="cls-7" d="M121,86.74c1.73-.45,3.47-.83,5.14-1.39a9.6,9.6,0,0,0,4.35-2.62,4.47,4.47,0,0,0,.95-2.22,8.41,8.41,0,0,0-.19-2.51,5.83,5.83,0,0,0-2.65-4,14.68,14.68,0,0,0-5-1.44c-.87-.14-1.77-.25-2.65-.47a6.23,6.23,0,0,1-2.48-1.14,11.78,11.78,0,0,1-1.84-2,19.2,19.2,0,0,0-1.76-2,5.81,5.81,0,0,0-4.79-1.38H110a7.82,7.82,0,0,0-2.53.28,4.57,4.57,0,0,0-2.1,1.26c-1.24,1.18-2,2.81-3.57,4a6.45,6.45,0,0,1-2.6,1.19c-.91.21-1.81.3-2.68.43a14.88,14.88,0,0,0-4.94,1.28A5.72,5.72,0,0,0,89,78a8.39,8.39,0,0,0-.21,2.5,4.45,4.45,0,0,0,.93,2.21A9.53,9.53,0,0,0,94,85.36c1.67.56,3.41,1,5.14,1.38l0,.1a52,52,0,0,1-5.27-1,9.82,9.82,0,0,1-4.79-2.62,5.28,5.28,0,0,1-1.2-2.6A9.24,9.24,0,0,1,88,77.82a6.56,6.56,0,0,1,3.09-4.65,14.74,14.74,0,0,1,5.32-1.42c1.78-.21,3.54-.31,4.84-1.33s2.22-2.62,3.6-3.86a6.45,6.45,0,0,1,1.14-.85,4.77,4.77,0,0,1,1.34-.5,8.39,8.39,0,0,1,2.77-.16H110a8.3,8.3,0,0,1,2.73.28,5.23,5.23,0,0,1,2.36,1.38c1.32,1.24,2.17,2.89,3.57,3.93s3.23,1.16,5,1.33a14.77,14.77,0,0,1,5.3,1.27,6.46,6.46,0,0,1,3.09,4.57,9.2,9.2,0,0,1,.15,2.8,5.27,5.27,0,0,1-1.18,2.6,9.77,9.77,0,0,1-4.78,2.63,45.9,45.9,0,0,1-5.27,1Z"></path><path class="cls-8" d="M122,54.33a17.94,17.94,0,0,1,1.65-3.75,22,22,0,0,1,2.33-3.4A18.81,18.81,0,0,1,132.43,42a25.38,25.38,0,0,1,7.88-2.21c.68,0,1.36-.11,2.05-.16s1.37,0,2.06.06c.34,0,.69,0,1,0l1,.16,2,.33.6.1-.33.56-3.09,5.2-.64-.78a15.66,15.66,0,0,1,4.14-.79,13.59,13.59,0,0,1,4.18.39,9.62,9.62,0,0,1,3.75,1.86A10.18,10.18,0,0,1,159.74,50l-.09.05a11.64,11.64,0,0,0-2.86-2.78,10.17,10.17,0,0,0-3.61-1.48,14.39,14.39,0,0,0-3.91-.19,17.52,17.52,0,0,0-3.84.76L144,46.8l.8-1.25,3.25-5.1.27.66-2-.42-1-.22c-.33-.06-.66-.08-1-.12-.67-.07-1.33-.16-2-.2s-1.34,0-2,0a13.6,13.6,0,0,0-2,.26l-1,.18-1,.31a11,11,0,0,0-1.88.73,16.39,16.39,0,0,0-1.78.94,27.23,27.23,0,0,0-6.1,5.12,30.29,30.29,0,0,0-4.52,6.65Z"></path><path class="cls-8" d="M95.57,54.37A30.29,30.29,0,0,0,91,47.72a27.23,27.23,0,0,0-6.1-5.12,16.39,16.39,0,0,0-1.78-.94,11,11,0,0,0-1.88-.73l-1-.31-1-.18a13.6,13.6,0,0,0-2-.26c-.67,0-1.35,0-2,0s-1.34.14-2,.2c-.33,0-.67.06-1,.12l-1,.22-2,.42.27-.66,3.25,5.1.8,1.25-1.43-.47a17.52,17.52,0,0,0-3.84-.76,14.39,14.39,0,0,0-3.91.19,10.17,10.17,0,0,0-3.61,1.48A11.64,11.64,0,0,0,58,50L57.93,50a10.18,10.18,0,0,1,2.62-3.18,9.62,9.62,0,0,1,3.75-1.86,13.59,13.59,0,0,1,4.18-.39,15.66,15.66,0,0,1,4.14.79l-.64.78-3.09-5.2-.33-.56.6-.1,2-.33,1-.16c.34,0,.69,0,1,0,.69,0,1.37-.05,2.06-.06s1.37.13,2.05.16A25.38,25.38,0,0,1,85.24,42a18.81,18.81,0,0,1,6.44,5.13A22,22,0,0,1,94,50.57a17.94,17.94,0,0,1,1.65,3.75Z"></path><path class="cls-7" d="M97.39,69c-.79-4.7-3.32-12.47-13-15.84A22.71,22.71,0,0,0,62.5,57.31a12.28,12.28,0,0,0,4.84,7.26C71.6,67.83,82,69,87.42,68.62s5.77-1.18,7.78-.51S97.39,69,97.39,69Z"></path><g class="cls-9"><ellipse class="cls-10" transform="translate(5.36 130.5) rotate(-80.73)" cx="79.42" cy="62.08" rx="12.44" ry="13.29"></ellipse></g><g class="cls-11"><path class="cls-12" d="m72.28 63.69c-0.5 3.09 2 5.23 5.36 5.79s6.41-0.69 6.92-3.78-0.71-6.58-5.09-7.42c-4.17-0.8-6.69 2.31-7.19 5.41z"></path></g><path class="cls-2" d="M97.39,69c-.79-4.7-3.32-12.47-13-15.84A22.71,22.71,0,0,0,62.5,57.31a12.28,12.28,0,0,0,4.84,7.26C71.6,67.83,82,69,87.42,68.62s5.44-1.14,7.48-.55A26.12,26.12,0,0,1,97.39,69Z"></path><ellipse class="cls-7" transform="translate(5.2 123.7) rotate(-80.73)" cx="75.35" cy="58.78" rx="1.17" ry="1.27"></ellipse><circle class="cls-7" transform="translate(5.19 127.8) rotate(-80.73)" cx="77.8" cy="60.87" r=".72"></circle><circle class="cls-7" transform="translate(2.16 125.8) rotate(-80.73)" cx="75.1" cy="61.65" r=".61"></circle><path class="cls-7" d="M120.78,69c.79-4.7,3.32-12.47,13-15.84a22.71,22.71,0,0,1,21.86,4.13,12.28,12.28,0,0,1-4.84,7.26c-4.26,3.26-14.67,4.4-20.08,4.06S125,67.45,123,68.11,120.78,69,120.78,69Z"></path><g class="cls-13"><ellipse class="cls-10" transform="translate(-8.19 23.16) rotate(-9.27)" cx="138.7" cy="62.08" rx="13.29" ry="12.44"></ellipse></g><g class="cls-14"><path class="cls-12" d="m145.9 63.69c0.5 3.09-2 5.23-5.36 5.79s-6.41-0.69-6.92-3.78 0.71-6.58 5.09-7.42c4.16-0.8 6.68 2.31 7.19 5.41z"></path></g><path class="cls-2" d="M120.78,69c.79-4.7,3.32-12.47,13-15.84a22.71,22.71,0,0,1,21.86,4.13,12.28,12.28,0,0,1-4.84,7.26c-4.26,3.26-14.67,4.4-20.08,4.06s-5.44-1.14-7.48-.55A26.12,26.12,0,0,0,120.78,69Z"></path><ellipse class="cls-7" transform="translate(-7.6 23.78) rotate(-9.27)" cx="142.8" cy="58.78" rx="1.27" ry="1.17"></ellipse><circle class="cls-7" transform="translate(-7.97 23.41) rotate(-9.27)" cx="140.4" cy="60.87" r=".72"></circle><circle class="cls-7" transform="translate(-8.06 23.85) rotate(-9.27)" cx="143.1" cy="61.65" r=".61"></circle><path class="cls-15" d="M105.11,93.45c.09-3.56.64-14.16-1.74-16s-6-1.83-7.13-.46-.46,2.38.82,3,3.47,0,4.57,1.55S105.11,93.45,105.11,93.45Z"></path><path class="cls-16" d="M115,93.45c-.09-3.56-.64-14.16,1.74-16s6-1.83,7.13-.46.46,2.38-.82,3-3.47,0-4.57,1.55S115,93.45,115,93.45Z"></path><path class="cls-4" d="m148.8 98.47c-3.4-0.77-6.77 0.81-9.7 2s-11.35 2.84-17.75-0.61-8.8-5.48-11.18-5.48-4.77 2-11.18 5.48-14.83 1.83-17.75 0.61-6.39-3.19-9.7-2c-1.16 0.41-2.5 3.93 0 4.5 3.41 0.78 6.77 2.93 9.7 3.67s11.35 4.17 17.75 2.07 8.8-3.34 11.18-3.34 4.77 1.24 11.18 3.34 14.95-0.88 17.75-2.07c3-1.27 6.31-3 9.7-3.67 2.24-0.42 1.19-4.23 0-4.5z"></path><path class="cls-8" d="M148.75,98.52a10.48,10.48,0,0,0-5.32.39c-1.73.52-3.35,1.31-5,2a24.75,24.75,0,0,1-5.33,1.17,25.41,25.41,0,0,1-5.47.05,18.07,18.07,0,0,1-5.35-1.34c-1.7-.77-3.23-1.69-4.83-2.57s-3.12-1.85-4.7-2.63a6.35,6.35,0,0,0-2.42-.72,5.4,5.4,0,0,0-2.43.56c-1.6.72-3.16,1.67-4.74,2.55s-3.14,1.78-4.81,2.56A22,22,0,0,1,87.56,102a27,27,0,0,1-5.36-1c-1.75-.56-3.34-1.44-5-2a8.47,8.47,0,0,0-5.2-.45,2.42,2.42,0,0,0-.57.21,2,2,0,0,0-.42.43,3.59,3.59,0,0,0-.54,1.14,1.83,1.83,0,0,0,.56,2.13,2,2,0,0,0,.54.22l.67.16q.67.18,1.32.41c.87.3,1.71.65,2.55,1a39.29,39.29,0,0,0,5,1.95,67.67,67.67,0,0,0,10.47,2.52,19.3,19.3,0,0,0,5.27,0,32.48,32.48,0,0,0,5.1-1.54c1.7-.6,3.39-1.24,5.15-1.78a11.2,11.2,0,0,1,2.79-.51,9.4,9.4,0,0,1,2.83.39c1.79.51,3.47,1.16,5.17,1.76l2.56.89a21.55,21.55,0,0,0,2.54.75,25.43,25.43,0,0,0,10.57-.52,38.72,38.72,0,0,0,5.15-1.58c1.67-.66,3.32-1.42,5-2.09a29.56,29.56,0,0,1,5.19-1.61,1.36,1.36,0,0,0,.93-.81,2.63,2.63,0,0,0,.16-1.3,4,4,0,0,0-.35-1.28A1.67,1.67,0,0,0,148.75,98.52Zm0-.1a1.75,1.75,0,0,1,1,1,4.17,4.17,0,0,1,.38,1.32,2.77,2.77,0,0,1-.15,1.37,1.53,1.53,0,0,1-1,.92,25.88,25.88,0,0,0-5.13,1.7c-1.65.72-3.27,1.54-4.94,2.26a40.12,40.12,0,0,1-5.16,1.79,25,25,0,0,1-10.92.82,42.77,42.77,0,0,1-5.25-1.62c-1.71-.59-3.41-1.24-5.11-1.72a8.37,8.37,0,0,0-2.53-.34,10.2,10.2,0,0,0-2.53.48c-1.69.52-3.39,1.18-5.11,1.75A33.2,33.2,0,0,1,97,109.67a20.26,20.26,0,0,1-5.54,0A62.08,62.08,0,0,1,80.87,107a39.69,39.69,0,0,1-5.06-2.09c-.82-.37-1.64-.73-2.48-1q-.63-.23-1.27-.42l-.64-.17a2.57,2.57,0,0,1-.7-.3,1.89,1.89,0,0,1-.84-1.27,3.2,3.2,0,0,1,.1-1.46,4.05,4.05,0,0,1,.64-1.29,2.45,2.45,0,0,1,.54-.53,2.66,2.66,0,0,1,.7-.26,9.15,9.15,0,0,1,5.43.53c1.72.6,3.32,1.5,5,2.05a24.58,24.58,0,0,0,5.29,1A20.49,20.49,0,0,0,98.06,100c1.59-.79,3.15-1.75,4.7-2.66s3.07-1.91,4.75-2.7a6.22,6.22,0,0,1,2.8-.65,7.17,7.17,0,0,1,2.76.78c1.67.81,3.2,1.76,4.76,2.67s3.13,1.86,4.71,2.6a18.92,18.92,0,0,0,5.11,1.43,25.79,25.79,0,0,0,10.64-.84c1.69-.58,3.34-1.4,5.09-1.89A10.61,10.61,0,0,1,148.77,98.42Z"></path><path class="cls-10" d="M120.12,100.58c-5.74-3.19-7.88-5.05-10-5.08s-4.32,1.77-10.14,4.8l3-1.42c2.32-.7,4.47.17,6.78.2s4.95-1.14,7.41-.19Z"></path></g></g></g></svg>