<svg viewBox="0 0 192 192" xmlns="http://www.w3.org/2000/svg" width="192" height="192">



<g transform="rotate(0 3.14 2.18) translate(11.948930650569537 45.09449359175736) scale(0.7597836777349647)"><defs>
<style>.cls-1{isolation:isolate;}.cls-2,.cls-3{fill:none;stroke:#231f20;stroke-miterlimit:10;}.cls-3{mix-blend-mode:multiply;}</style>
</defs><title>17</title><g class="cls-1">
<g data-name="Layer 2">
<path class="cls-2" d="M144.18,30.82c-4.14-3.53,9.23-.39,13.06-3.53,0,0,1.59,2.66-.64,3.62,0,0,2.55-2.42,10.53-1.69s9.89,4.35,13.4,5.8a19.06,19.06,0,0,0-6.06-.24s3.83-2.17,11.8,2.9,5.1,12.08,13.08,14.74c0,0-9.57-.72-11.48-3.87,0,0,1,4.59,6.38,7.49s12.12,6.28,15,9.18S214,75.84,214,75.84,212.42,71,208,69.32c0,0,4.78,6.52,2.23,13.77s1,12.08,2.87,15c0,0-6.62-3.88-8.29-6,0,0,10.85,11.84,9.89,21.26,0,0-.64-2.9-4.47-4.59,0,0,2.23,6.76.64,13.29s3.19,10.87,4.78,11.84c0,0-15,2.66-21.69-7.73,0,0-1,3.86.32,5.07-2.36-2.24-7.73-2.37-10.64-4.38-11-7.55-14.23-21.94-13.35-34.67.54-7.87,1.69-15.39,1.6-22.52"></path>
<path class="cls-2" d="M77,30.39c5-3.3-9.87,0-13.7-3.1,0,0-1.59,2.66.64,3.62,0,0-2.55-2.42-10.53-1.69S43.51,33.57,40,35a19.06,19.06,0,0,1,6.06-.24s-3.83-2.17-11.8,2.9-5.1,12.08-13.08,14.74c0,0,9.57-.72,11.48-3.87,0,0-1,4.59-6.38,7.49s-12.12,6.28-15,9.18S6.51,75.84,6.51,75.84,8.1,71,12.57,69.32c0,0-4.78,6.52-2.23,13.77s-1,12.08-2.87,15c0,0,6.87-3.86,8.29-6,0,0-10.85,11.84-9.89,21.26,0,0,.64-2.9,4.47-4.59,0,0-2.23,6.76-.64,13.29s-3.19,10.87-4.78,11.84c0,0,15,2.66,21.69-7.73,0,0,1,3.86-.32,5.07,2.36-2.24,7.73-2.37,10.64-4.38,11-7.55,14.23-21.94,13.35-34.67-.44-6.5-1.16-14.22-1.42-20.16"></path>
<path class="cls-2" d="M171.66,64.48c0-.24,0-.49-.06-.73,0,0-1.23-7.86-4.61-12.92-4.78-8-12.53-14.67-22.13-19.6a61.16,61.16,0,0,0-25.66-8s4.22-6.42-.58-14.92c0,0,.74,6.23-3.05,8.92-2.52-5.77-.91-15.36-.91-15.36-7.79,7-6.56,21.41-6.56,21.41-.71-8.58-9.17-10.84-9.17-10.84,4.24,3.86,2.41,10.61,2.41,10.61a61,61,0,0,0-25.79,8.16c-9.6,4.93-17.36,11.65-22.13,19.6a30.83,30.83,0,0,0-4.89,13,27.66,27.66,0,0,0-.1,4.62c0,.34,0,.67.08,1,0,.08,0,.17,0,.25,0,.44.1.87.18,1.31a21.94,21.94,0,0,0,8.42,14.51,34.76,34.76,0,0,0,4.61,3.2,42.55,42.55,0,0,0,5.64,2.71,33.66,33.66,0,0,0,4,1.5,20.59,20.59,0,0,0-.9,2.91,19.08,19.08,0,0,0-.35,6.43,14.13,14.13,0,0,0,2.08,6.07,15.32,15.32,0,0,0,4.5,4.55,26.81,26.81,0,0,0,5.76,2.8A58.05,58.05,0,0,0,95,118.4c4.24.5,8.5.71,12.76.8,8.5.08,17.12-.15,25.45-2.21,4.12-1.07,8.25-2.61,11.56-5.38a14.61,14.61,0,0,0,3.89-5,15.42,15.42,0,0,0,1.24-6.24,19.88,19.88,0,0,0-1.43-7.38c3.61-1.09,6.33-2.29,12.94-6.39a20.9,20.9,0,0,0,7.89-8.73,19.25,19.25,0,0,0,1.81-4.26,20.93,20.93,0,0,0,.82-4.91A22.31,22.31,0,0,0,171.66,64.48Z"></path>
<path class="cls-2" d="M97.39,70.61c-.79-4.7-3.32-12.47-13-15.84A22.71,22.71,0,0,0,62.5,58.89a12.28,12.28,0,0,0,4.84,7.26c4.26,3.26,14.67,4.4,20.08,4.06s5.44-1.14,7.48-.55A26.12,26.12,0,0,1,97.39,70.61Z"></path>
<path class="cls-2" d="m120.8 70.61c0.79-4.7 3.32-12.47 13-15.84a22.71 22.71 0 0 1 21.86 4.13 12.28 12.28 0 0 1 -4.84 7.26c-4.26 3.26-14.67 4.4-20.08 4.06s-5.44-1.14-7.48-0.55a26.12 26.12 0 0 0 -2.46 0.94z"></path>
<path class="cls-3" d="M104.37,88.38a17.91,17.91,0,0,0-2.73-5.21c-1.1-1.55-3.29-.91-4.57-1.55s-1.92-1.64-.82-3,4.75-1.37,7.13.46c1.42,1.09,1.79,5.33,1.85,9.33Z"></path>
<path class="cls-3" d="M114.9,88.38c.05-4,.42-8.23,1.85-9.33,2.38-1.83,6-1.83,7.13-.46s.46,2.38-.82,3-3.47,0-4.57,1.55a16.91,16.91,0,0,0-2.81,5.13Z"></path>
<path class="cls-3" d="M81.08,99c2.93.74,11.35,4.17,17.75,2.07s8.8-3.34,11.18-3.34,4.77,1.24,11.18,3.34,14.95-.88,17.75-2.07"></path>
</g>
</g></g></svg>