<svg viewBox="0 0 192 192" xmlns="http://www.w3.org/2000/svg" width="192" height="192">











<g transform="rotate(0 3.14 2.18) translate(43.4126700949768 16.579647912670083) scale(1.0787144595902196)"><defs>
<style>.cls-1{fill:none;stroke:#231f20;stroke-miterlimit:10;}</style>
</defs><title>19</title><path class="cls-1" d="M73.29,124.08a98,98,0,0,1,13.61-22.86l.84-1.23a77,77,0,0,0,9.47-37.7c0-23.9-10.07-44.7-24.95-55.51-3.25-.38-3,3.23-3,3.23L71.9,26.86s.15,3.55-2.78,3.43-3.86-3.12-3.86-3.12L59.38,4.52S59,1.31,57,.77h-.08c-2-.44-2.63,2.69-2.63,2.69l-2.41,22.8s-1,4.33-3.77,4-3.25-4.19-3.25-4.19L43.31,5.36S43,.68,40.69.68h0a2.47,2.47,0,0,0-2.47,1.68S33,21.1,32.49,24.19s-1.24,6.44-5,6.13-2.55-10.38-1.16-14.25,1.7-6.35,0-7.74a3.36,3.36,0,0,0-2-.62C10.08,18.75.55,39.06.55,62.3A77.07,77.07,0,0,0,9.89,99.78l2.83,4.58c3.16,4.92,7.93,11.83,11.57,19.72"></path><rect class="cls-1" x="10.08" y="124.1" width="79.53" height="23.6" rx="2.86" ry="2.86"></rect><line class="cls-1" x1="18.4" x2="18.4" y1="124.1" y2="147.7"></line><line class="cls-1" x1="28.77" x2="28.77" y1="124.1" y2="147.7"></line><line class="cls-1" x1="39.14" x2="39.14" y1="124.1" y2="147.7"></line><line class="cls-1" x1="49.5" x2="49.5" y1="124.1" y2="147.7"></line><line class="cls-1" x1="59.87" x2="59.87" y1="124.1" y2="147.7"></line><line class="cls-1" x1="70.23" x2="70.23" y1="124.1" y2="147.7"></line><line class="cls-1" x1="80.6" x2="80.6" y1="124.1" y2="147.7"></line></g></svg>