<svg viewBox="0 0 192 192" xmlns="http://www.w3.org/2000/svg" width="192" height="192"><g transform="rotate(0 3.14 2.18) translate(43.81826893804751 16.311620006165583) scale(1.078692114975762)"><defs><style>.cls-1{fill:#d0d2d3;}.cls-2{fill:#e6e7e8;}.cls-3{fill:#a6a8ab;}.cls-4{fill:none;stroke:#929497;stroke-miterlimit:10;stroke-width:1.46px;}</style></defs><title>-</title><path class="cls-1" d="M71.7,7.07c-3.25-.38-3,3.23-3,3.23l2.63,16.85s.15,3.55-2.78,3.43-3.86-3.12-3.86-3.12L58.83,3.81S58.46.6,56.44.06h-.08c-2-.44-2.63,2.69-2.63,2.69l-2.41,23.8s-1,4.33-3.77,4-3.25-4.19-3.25-4.19L42.76,5.65S42.4,1,40.14,1h0s0-.44,0-.44a2.72,2.72,0,0,0-2.43,2.11S32.4,21.39,31.94,24.48s-1.24,6.44-5,6.13-2.55-10.38-1.16-14.25,1.7-6.35,0-7.74a3.36,3.36,0,0,0-2-.62C9.52,19,0,39.35,0,62.59a77.07,77.07,0,0,0,9.34,37.48l2.83,4.58c5.73,8.92,16.77,24.4,16.77,40.42h39.2c0-21.83,18.2-43.56,18.2-43.56l.84-1.23a77,77,0,0,0,9.47-37.7C96.64,38.68,86.57,17.88,71.7,7.07Z"></path><path class="cls-2" d="M71.7,7.07c-3.25-.38-3,3.23-3,3.23l2.63,16.85s.15,3.55-2.78,3.43-3.86-3.12-3.86-3.12L58.83,3.81S58.46.6,56.44.06h-.08c-2-.44-2.63,2.69-2.63,2.69l-2.41,23.8s-1,4.33-3.77,4a2.73,2.73,0,0,1-1.17-.42A150.59,150.59,0,0,1,61,96c0,19.8-3.59,33.1-9.94,49.11h17c0-21.83,18.2-43.56,18.2-43.56l.84-1.23a77,77,0,0,0,9.47-37.7C96.64,38.68,86.57,17.88,71.7,7.07Z"></path><rect class="cls-3" x="9.53" y="124.4" width="79.53" height="23.6" rx="2.86" ry="2.86"></rect><line class="cls-4" x1="17.85" x2="17.85" y1="124.4" y2="148"></line><line class="cls-4" x1="28.22" x2="28.22" y1="124.4" y2="148"></line><line class="cls-4" x1="38.58" x2="38.58" y1="124.4" y2="148"></line><line class="cls-4" x1="48.95" x2="48.95" y1="124.4" y2="148"></line><line class="cls-4" x1="59.31" x2="59.31" y1="124.4" y2="148"></line><line class="cls-4" x1="69.68" x2="69.68" y1="124.4" y2="148"></line><line class="cls-4" x1="80.05" x2="80.05" y1="124.4" y2="148"></line></g></svg>