<svg viewBox="0 0 192 192" xmlns="http://www.w3.org/2000/svg" width="192" height="192"><g transform="rotate(0 3.14 2.18) translate(13.467650853096316 47.62513446535764) scale(0.7153399709374101)"><defs><style>.cls-1{fill:none;stroke:#323232;stroke-miterlimit:10;stroke-width:1.79px;}.cls-2{fill:#e42147;}.cls-3{fill:#e46586;}</style></defs><title>-</title><path class="cls-1" d="M30.43,30.24c2.43,1.77-1.81,7.55.56,9.31s6.68-4,9.07-2.15-2,7.51.36,9.32,6.76-3.83,9.11-2-2.13,7.47.17,9.32,6.83-3.69,9.15-1.78-2.29,7.42,0,9.32S65.73,58.07,68,60s-2.45,7.37-.23,9.32,7-3.4,9.21-1.39-2.6,7.31-.42,9.31,7-3.25,9.24-1.2-2.75,7.26-.62,9.3,7.11-3.11,9.26-1-2.91,7.2-.82,9.28,7.18-3,9.28-.81-3.06,7.13-1,9.26,7.24-2.8,9.3-.62"></path><path class="cls-1" d="M204.24,21.9c-2.18,2.07,2.77,7.26.64,9.31s-7.13-3.08-9.27-1,2.92,7.19.84,9.28-7.19-2.93-9.29-.78,3.07,7.13,1,9.27-7.25-2.78-9.3-.59,3.22,7.06,1.23,9.24-7.31-2.63-9.31-.39,3.37,7,1.43,9.21-7.36-2.47-9.32-.2,3.52,6.92,1.62,9.18-7.41-2.32-9.32,0,3.66,6.84,1.81,9.14-7.45-2.17-9.31.18,3.81,6.76,2,9.1-7.5-2-9.31.39,3.95,6.68,2.19,9.05-7.54-1.85-9.3.58"></path><path class="cls-2" d="m26.41 3.54c-11.86 7.77-5.77 18.66-5.19 19.64-1-0.58-11.85-6.69-19.62 5.18-8.14 12.41 16.03 33.64 44.55 19.71s0 0 0 0 0 0 0 0c14.1-28.7-7.32-52.67-19.74-44.53z"></path><path class="cls-3" d="m23.84 11.25c11-7.18 28.91 10.65 23.29 34.65 12-27.72-8.61-50.3-20.72-42.37-5.75 3.77-7.28 8.26-7.26 12a18.12 18.12 0 0 1 4.69 -4.28z"></path><path class="cls-2" d="M200.77,1c12.76,6.18,8.13,17.76,7.67,18.81.9-.7,10.89-8.15,20.12,2.61,9.67,11.27-11.57,35.42-41.64,25.29h0s0,0,0,0,0,0,0,0h0C169.25,21,187.4-5.49,200.77,1Z"></path><path class="cls-3" d="M204.31,8.31c-11.8-5.71-27.3,14.28-18.64,37.36-15.49-25.95,2.07-51,15.1-44.68C207,4,209,8.24,209.52,12A18.12,18.12,0,0,0,204.31,8.31Z"></path><path class="cls-2" d="m124.1 105.1c24 0 43.78 13.76 46.16 31.4a26.79 26.79 0 0 0 0.24 -3.59c0-19.32-20.78-35-46.4-35s-46.4 15.66-46.4 35a26.79 26.79 0 0 0 0.24 3.59c2.38-17.64 22.13-31.4 46.16-31.4z"></path></g></svg>