<svg viewBox="0 0 192 192" xmlns="http://www.w3.org/2000/svg" width="192" height="192">







<g transform="rotate(0 3.14 2.18) translate(13.311885511810985 47.40730934297983) scale(0.7159144111531517)"><defs>
<style>.cls-1,.cls-2{fill:none;stroke:#231f20;}.cls-1{stroke-miterlimit:10;}.cls-2{stroke-linejoin:bevel;}</style>
</defs><title>22</title><path class="cls-1" d="M48.77,44.75c2.35,1.87-2.13,7.47.17,9.32s6.83-3.69,9.15-1.78-2.29,7.42,0,9.32S65,58.07,67.24,60,64.79,67.4,67,69.35s7-3.4,9.21-1.39-2.6,7.31-.42,9.31,7-3.25,9.24-1.2-2.75,7.26-.62,9.3,7.11-3.11,9.26-1-2.91,7.2-.82,9.28,7.18-3,9.28-.81-3.06,7.13-1,9.26"></path><path class="cls-1" d="M185.65,48.55c-2.44-.23-5.95-2.83-7.54-1.12-2,2.2,3.22,7.06,1.23,9.24S172,54,170,56.27s3.37,7,1.43,9.21-7.36-2.47-9.32-.2,3.52,6.92,1.62,9.18-7.41-2.32-9.32,0,3.66,6.84,1.81,9.14-7.45-2.17-9.31.18,3.81,6.76,2,9.1-7.5-2-9.31.39c-1.53,2,2.42,5.46,2.53,7.89"></path><path class="cls-1" d="M27.27,2.73c-11.86,7.77-5.77,18.66-5.19,19.64-1-.58-11.85-6.69-19.62,5.18C-5.69,40,18.49,61.19,47,47.27h0C61.11,18.57,39.69-5.41,27.27,2.73Z"></path><path class="cls-1" d="M200,2.11c12.76,6.18,8.13,17.76,7.67,18.81.9-.7,10.89-8.15,20.12,2.61C237.47,34.8,216.22,59,186.15,48.82h0C168.48,22.17,186.63-4.36,200,2.11Z"></path><path class="cls-2" d="m123.3 105.1c24 0 43.78 13.76 46.16 31.4a26.79 26.79 0 0 0 0.24 -3.59c0-19.32-20.78-35-46.4-35s-46.4 15.66-46.4 35a26.79 26.79 0 0 0 0.24 3.59c2.38-17.64 22.13-31.4 46.16-31.4z"></path></g></svg>