<svg viewBox="0 0 192 192" xmlns="http://www.w3.org/2000/svg" width="192" height="192">









<g transform="rotate(0 3.14 2.18) translate(22.764851317697918 34.40242049089775) scale(0.592997155322284)"><defs>
<style>.cls-1{fill:none;stroke:#231f20;stroke-miterlimit:10;}</style>
</defs><title>23</title><path class="cls-1" d="M246.3,196.69c-.11-.91-.17-1.83-.31-2.74l-.5-2.72a22.39,22.39,0,0,0-.59-2.7l-.72-2.67c-.28-.88-.62-1.74-.93-2.61a21,21,0,0,0-1.07-2.55,22.19,22.19,0,0,0-1.25-2.47,25.85,25.85,0,0,0-1.44-2.37,24.82,24.82,0,0,0-1.66-2.22,25.37,25.37,0,0,0-3.95-3.88,21,21,0,0,0-2.29-1.56c-.35-.21-.73-.35-1.1-.54a3.75,3.75,0,0,0,.8-.2,8.29,8.29,0,0,0,2-1.17,20,20,0,0,0,3.22-3.26l.63-.79-1,.11a38.33,38.33,0,0,1-8.95-.11c-.74-.09-1.47-.22-2.2-.37s-1.45-.32-2.16-.53a21.73,21.73,0,0,1-2.1-.71,18.23,18.23,0,0,1-1.77-.77l-8.36-19.65,6.19,4.42,5,3.55-3.17-5.27-8.35-13.86-4.08-7c-.64-1.13-1.29-2.26-1.92-3.39l12.2,4.31L224,125.7l-5.8-5.66c-4.55-4.44-9-9-13.36-13.64-2.16-2.33-4.29-4.68-6.29-7.11-.26-.31-.51-.63-.76-.94.42.22.85.43,1.29.63s1,.46,1.61.66a7.86,7.86,0,0,0,.93.29,6,6,0,0,0,1.23.18l4.28.32-2.71-3.54c-2.5-3.26-4.93-6.64-7.22-10.05-1.13-1.71-2.24-3.44-3.23-5.19-.48-.87-1-1.75-1.35-2.62a10.36,10.36,0,0,1-.51-1.26,4.61,4.61,0,0,1-.26-.92,47.78,47.78,0,0,0,.31-4.78c0-1.7,0-3.39-.12-5.08s-.31-3.37-.54-5-.57-3.34-.94-5-.84-3.29-1.34-4.91l-.83-2.41-.94-2.37c-.68-1.56-1.38-3.11-2.19-4.61-.38-.76-.81-1.5-1.25-2.23s-.85-1.47-1.35-2.17c-.93-1.43-2-2.79-3-4.12s-2.18-2.62-3.4-3.8-2.44-2.36-3.72-3.48-2.63-2.15-4-3.12S165.77,21.8,164.3,21s-2.95-1.64-4.45-2.4-3-1.37-4.56-2.06c.46-.23.91-.48,1.35-.75a14.85,14.85,0,0,0,1.43-1,13.94,13.94,0,0,0,1.31-1.18,11.39,11.39,0,0,0,1.16-1.36,14.1,14.1,0,0,0,1-1.51l3.91-6.13-6.29,3.91c-.37.23-.85.51-1.3.74s-.92.47-1.39.71q-1.42.67-2.89,1.24a39.22,39.22,0,0,1-6,1.8c-1,.25-2.06.38-3.1.55s-2.08.25-3.13.27a30.92,30.92,0,0,1-3.14,0c-.35,0-.69,0-1-.07.17-.33.34-.66.5-1a16.25,16.25,0,0,0,1.11-3.27A11.31,11.31,0,0,0,139,7.69a8.42,8.42,0,0,0-.1-1.88,5.1,5.1,0,0,0-.24-.95,3.53,3.53,0,0,0-.38-.92,4.22,4.22,0,0,0-.52-.85l-.64-.76L135.85.83l-.8,1.91c-.23.56-.54,1.19-.86,1.77s-.66,1.17-1,1.73a23.44,23.44,0,0,1-2.44,3.16,18.11,18.11,0,0,1-1.44,1.35,6.8,6.8,0,0,1-.77.61c-.27.18-.52.39-.8.56l-.84.48a8.26,8.26,0,0,1-.87.41,9.38,9.38,0,0,1-1.59.55,9.17,9.17,0,0,1-1.59-.51,8.29,8.29,0,0,1-.89-.39l-.86-.47c-.28-.16-.54-.36-.82-.54a6.85,6.85,0,0,1-.79-.59A18.22,18.22,0,0,1,118,9.53a22.14,22.14,0,0,1-2.53-3.15c-.38-.56-.73-1.14-1.06-1.73s-.65-1.21-.9-1.79l-.62-1.4L112,2.56l-.6.73a3.91,3.91,0,0,0-.48.81,3.24,3.24,0,0,0-.35.87,4.72,4.72,0,0,0-.22.9,8,8,0,0,0-.07,1.79,10.88,10.88,0,0,0,.27,1.71,15.77,15.77,0,0,0,1.13,3.17c.28.58.58,1.14.9,1.69-.61.07-1.22.14-1.84.15a31.43,31.43,0,0,1-3.19,0c-1.07,0-2.13-.14-3.19-.22s-2.12-.28-3.16-.51A40,40,0,0,1,95,11.94q-1.51-.56-3-1.22a30.79,30.79,0,0,1-2.81-1.46L86.35,7.53l1.81,2.72a13.14,13.14,0,0,0,.92,1.38,10.42,10.42,0,0,0,1.09,1.24A12.91,12.91,0,0,0,91.41,14a13.8,13.8,0,0,0,1.35.92,18.17,18.17,0,0,0,2.92,1.4c.28.1.56.19.84.28-.83.31-1.65.62-2.47,1-1.5.7-3.05,1.28-4.51,2.07s-3,1.5-4.35,2.39S82.37,23.76,81,24.7s-2.65,2-3.92,3.06S74.6,30,73.46,31.18s-2.24,2.46-3.32,3.72-2,2.64-2.93,4c-.48.68-.89,1.4-1.32,2.12s-.85,1.43-1.23,2.17c-.8,1.46-1.49,3-2.15,4.5L61.58,50l-.83,2.35c-.51,1.59-1,3.18-1.35,4.8s-.7,3.25-1,4.9-.45,3.3-.57,5-.19,3.33-.18,5a46,46,0,0,0,.26,4.82,6.82,6.82,0,0,1-.34,1.19A11.3,11.3,0,0,1,57,79.4c-.41.9-.92,1.78-1.42,2.67-1,1.77-2.17,3.49-3.33,5.2-2.34,3.41-4.83,6.75-7.39,10l-1.95,2.47,3-.24a5.51,5.51,0,0,0,1.09-.15,7.37,7.37,0,0,0,.88-.26c.56-.19,1.06-.4,1.57-.62,1-.44,1.95-.93,2.89-1.43l.19-.11c-.67.86-1.36,1.71-2.08,2.54-2,2.4-4.21,4.72-6.4,7-4.4,4.58-8.94,9.08-13.54,13.46l-6.07,5.78,8-2.68,11.28-3.8-1.47,2.49-4.2,6.87-8.56,13.66L24,151.11l8.62-5.91,3.06-2.1-7,15.53a9.52,9.52,0,0,1-1.08.4,19.63,19.63,0,0,1-1.92.56c-.65.16-1.32.29-2,.4s-1.35.2-2,.25a35,35,0,0,1-4.13.12c-.69,0-1.38-.06-2.07-.12l-1-.11-1-.14L8,159.21l3.09,4.48c.28.4.51.71.78,1.06s.53.66.81,1a20.86,20.86,0,0,0,1.83,1.89l.1.08-.56.42a29.52,29.52,0,0,0-5.94,6.65,27.73,27.73,0,0,0-1.5,2.52L4.22,182.6c-.31.91-.65,1.82-.93,2.73l-.71,2.78a22.66,22.66,0,0,0-.58,2.8l-.47,2.81c-.13.94-.19,1.88-.28,2.82L1,199.35.89,205l-.05,2.51H3.43q30.3,0,60.6-.08l30.3-.12,30.3-.21,60.6-.46,61.24.49ZM80,78.92a12.3,12.3,0,0,0,2.86-2.74,21.44,21.44,0,0,0,2-3.3c1.08-2.28,1.88-4.62,2.71-6.89.41-1.14.84-2.25,1.3-3.31a16,16,0,0,1,1.67-3,21.16,21.16,0,0,1,2.19-2.53,26.55,26.55,0,0,1,2.6-2.24,29.16,29.16,0,0,1,5.86-3.51,24.14,24.14,0,0,1,3.17-1.16,19.78,19.78,0,0,1,3.26-.69c1.16-.17,2.38-.29,3.69-.52s2.5-.5,3.74-.85c.49-.14,1-.29,1.47-.44-.13.19-.25.38-.38.57-.43.61-.9,1.25-1.34,1.82l-5.06,6.52,7.79-2.82a24.73,24.73,0,0,0,5.26-2.57,16.59,16.59,0,0,0,2.2-1.73,12.37,12.37,0,0,0,1.18.73,27.07,27.07,0,0,0,3.69,1.65l6.17,2.33-3.06-6-.21-.4q1,.32,1.94.6c1.24.36,2.5.63,3.76.87.63.1,1.26.23,1.89.31l1.77.25.9.14c.28.05.51.12.76.17.49.1,1,.24,1.55.4a24,24,0,0,1,3.12,1.14,28.45,28.45,0,0,1,3,1.56,33.4,33.4,0,0,1,2.8,1.89,26.48,26.48,0,0,1,2.56,2.2,23.83,23.83,0,0,1,2.19,2.5,13,13,0,0,1,.88,1.34c.32.55.54,1,.78,1.51.47,1,.92,2.14,1.35,3.27.87,2.25,1.71,4.58,2.84,6.84a14.45,14.45,0,0,0,4.89,5.92l1.43.9-.28-1.63c-.15-.9-.27-1.84-.34-2.75,0-.4,0-.8,0-1.19.41.7.82,1.41,1.2,2.13a34.38,34.38,0,0,1,1.7,3.66,23.49,23.49,0,0,1,1.17,3.84,7.69,7.69,0,0,1,.17,1,8.12,8.12,0,0,1,.11,1,10.18,10.18,0,0,1-.06,2c-.5,2.76-.82,5.59-2,8.08a6.55,6.55,0,0,1-2.6,3,6.75,6.75,0,0,1-3.83.72l-1-.1-1-.23c-.66-.12-1.31-.36-2-.56-1.33-.42-2.61-.89-3.91-1.41-2.59-1-5.19-2.16-7.9-3.09a65.45,65.45,0,0,0-16.85-3.39c-1.43-.12-2.85-.18-4.28-.24l-4.22,0-4.22-.07c-1.44,0-2.89.06-4.32.14a63.88,63.88,0,0,0-17,3c-2.75.88-5.39,1.95-8,2.94-1.3.5-2.59,1-3.89,1.39-.63.18-1.36.43-1.9.55a12.68,12.68,0,0,1-2,.36,5.77,5.77,0,0,1-6.11-2.83c-1.3-2.21-1.8-5-2.29-7.74l-.09-.52-.05-.47a5.18,5.18,0,0,1-.06-1,13.26,13.26,0,0,1,.17-1.94,22.52,22.52,0,0,1,1.08-3.93,42.26,42.26,0,0,1,2.41-5.22c0,.07,0,.15,0,.22,0,.91-.13,1.85-.26,2.74L78.37,80Z"></path><path class="cls-1" d="m140.6 91.69c-3.25-4.48-9.1-9.79-15.81-9.79s-12.3 4.88-15.53 9.38"></path><ellipse class="cls-1" transform="translate(-25.46 119.7) rotate(-48.78)" cx="119.3" cy="87.94" rx="2.14" ry="1.62"></ellipse><ellipse class="cls-1" transform="translate(-25.81 107.2) rotate(-41.22)" cx="129.7" cy="87.94" rx="1.62" ry="2.14"></ellipse><path class="cls-1" d="m147.6 119.9a10.2 10.2 0 0 0 -8.51 -15.91h-30.4a10.2 10.2 0 0 0 -8.52 15.92 28.57 28.57 0 0 0 7.32 7.38 20.4 20.4 0 0 1 33.21 -0.3 28.61 28.61 0 0 0 6.9 -7.09z"></path><path class="cls-1" d="m124.3 118.6a20.45 20.45 0 0 0 -16.72 8.68 28.59 28.59 0 0 0 33.21 -0.31 20.44 20.44 0 0 0 -16.49 -8.37z"></path><path class="cls-1" d="m178.1 205.4c1-5.8-4.91-15.25-4.91-15.25a4 4 0 0 1 -1.57 2.49c-5.17-3.4-4.55-9.67-7.32-14.84s-10.52-11.45-19.3-12.58-16.8-2.09-16.8-2.09l3.88 4.44s-12.22-3.48-21-2.35-16.61 7.49-19.38 12.65-2.18 11.4-7.35 14.8a4.09 4.09 0 0 1 -1.58 -2.51s-5.92 9.44-4.91 15.24"></path></g></svg>