<svg viewBox="0 0 192 192" xmlns="http://www.w3.org/2000/svg" width="192" height="192"><g transform="rotate(0 3.14 2.18) translate(22.86035503156981 34.46746043856381) scale(0.5952361747176415)"><defs><style>.cls-1,.cls-3,.cls-8{fill:#a4c8e9;}.cls-2{fill:#fff;}.cls-3{opacity:0.34;}.cls-4{fill:#64a6da;}.cls-5{fill:#010202;}.cls-6{fill:#58595b;}.cls-7{fill:#e46586;}.cls-8{opacity:0.3;}</style></defs><title>-</title><path class="cls-1" d="M91,101.2a1.94,1.94,0,0,0-.44-.44c-.13-.09-.25-.13-.29-.17s0-.11,0-.21a.43.43,0,0,0-.26-.21l.36-.24c.27.09.34.13.32.29A1.39,1.39,0,0,0,91,101.2Zm0,.06a1.27,1.27,0,0,1-.53-.21,1.32,1.32,0,0,1-.53-.89l.36-.24a.65.65,0,0,0,.16.39,2.85,2.85,0,0,1,.42.38.88.88,0,0,1,.14.42C91.07,101.22,91.05,101.28,91,101.26Z"></path><path class="cls-1" d="M157.76,100.08a1.42,1.42,0,0,0-.22.5,1.36,1.36,0,0,0,0,.26s-.08,0-.15,0a.27.27,0,0,0-.06.25l-.35-.26c0-.23-.05-.27.08-.26A1,1,0,0,0,157.76,100.08Zm0-.07c0-.06.12.12.07.43a1,1,0,0,1-.57.67l-.35-.26a.44.44,0,0,0,.26-.21,2,2,0,0,1,.18-.45.57.57,0,0,1,.31-.2C157.78,100,157.83,100,157.8,100Z"></path><path class="cls-2" d="M228.18,166.38c2.81,1.51,7.17-4.44,7.17-4.44s-9.83,1.56-17.82-2.35l-10.45-23.52,9.58,6.69S203.05,121,200,115l16.13,5.52S192.47,97.8,191,91.75c0,0,8.57,5.54,11.09,5.54,0,0-12.6-16.13-13.11-21.18,0,0,6.55-44.36-39.82-60.49,0,0,7.06-1,10.08-6.55a40.47,40.47,0,0,1-25.2,5s5.42-7.69,1.39-11.72c0,0-3.93,9.55-11.78,11.26-7.85-1.71-11.78-11.26-11.78-11.26-4,4,1.39,11.72,1.39,11.72a40.47,40.47,0,0,1-25.2-5c3,5.55,10.08,6.55,10.08,6.55C51.7,31.75,58.25,76.1,58.25,76.1c-.5,5-13.11,21.17-13.11,21.17,2.52,0,11.09-5.55,11.09-5.55-1.51,6-25.2,28.72-25.2,28.72l16.13-5.56c-3,6-16.63,27.69-16.63,27.69L40.11,136,29.56,159.59c-7.89,3.62-17.33,1.92-17.33,1.92s4.36,6.38,7.17,4.87c-1,.42-17.19,6.37-16.8,37.74H245C245.37,172.75,229.21,166.8,228.18,166.38Zm-54.1-79.44c-1,5.8-1.46,14.24-11.41,11.85s-15.7-7.56-38.38-7.06c-22.68-.5-28.8,4.66-38.75,7.06s-10.78-6-11.78-11.85,4.91-15.25,4.91-15.25a20,20,0,0,1,0,5.67c5.17-3.4,6.16-12.85,8.94-18S98.16,47.75,107,46.62s13.25-4.16,13.25-4.16c.19,2.27-4.44,8.32-4.44,8.32,5.94-2.19,7.87-5.14,8.36-6.11a.69.69,0,0,1,.15-.32,3.27,3.27,0,0,1-.15.32c-.12.61.32,2.07,5.68,4,0,0-2.22-4-2-6.26,0,0,4.33,3,13.15,4.16s16.56,7.56,19.34,12.73S164,74,169.2,77.37c0,0-.52-3.78,0-5.67C169.18,71.69,175.09,81.15,174.08,86.94Z"></path><path class="cls-1" d="M245.95,204.13l-.2-5.52-.28-2.75c-.11-.91-.17-1.83-.31-2.74l-.5-2.72a22.39,22.39,0,0,0-.59-2.7l-.72-2.67c-.28-.88-.62-1.74-.93-2.61a21.06,21.06,0,0,0-1.07-2.55,22.22,22.22,0,0,0-1.25-2.47,25.85,25.85,0,0,0-1.44-2.37A24.81,24.81,0,0,0,237,172.8a25.37,25.37,0,0,0-3.95-3.88,20.94,20.94,0,0,0-2.29-1.56c-.35-.21-.74-.35-1.1-.54a3.75,3.75,0,0,0,.8-.2,8.28,8.28,0,0,0,2-1.17,20,20,0,0,0,3.22-3.26l.63-.79-1,.11a38.34,38.34,0,0,1-8.95-.11c-.74-.09-1.47-.22-2.2-.37s-1.45-.32-2.16-.53a21.72,21.72,0,0,1-2.1-.71,18.23,18.23,0,0,1-1.77-.77l-8.36-19.65,6.19,4.42,5,3.55-3.17-5.27-8.35-13.86-4.08-7c-.64-1.13-1.29-2.26-1.92-3.39l12.2,4.31,7.61,2.69-5.8-5.66c-4.55-4.44-9-9-13.36-13.64-2.16-2.33-4.29-4.68-6.29-7.11-.26-.31-.51-.63-.76-.94.42.22.85.43,1.29.63s1,.46,1.61.66a7.85,7.85,0,0,0,.93.29,6,6,0,0,0,1.23.18l4.28.32-2.71-3.54c-2.5-3.26-4.93-6.64-7.22-10.05-1.13-1.71-2.24-3.44-3.23-5.19-.48-.87-1-1.75-1.35-2.62a10.37,10.37,0,0,1-.51-1.26,4.61,4.61,0,0,1-.26-.92,47.79,47.79,0,0,0,.31-4.78c0-1.7,0-3.39-.12-5.08s-.31-3.37-.54-5-.57-3.34-.94-5-.84-3.29-1.34-4.91l-.83-2.41-.94-2.37c-.68-1.56-1.38-3.11-2.19-4.61-.38-.76-.81-1.5-1.25-2.23s-.85-1.47-1.35-2.17c-.93-1.43-2-2.79-3-4.12s-2.18-2.62-3.4-3.8S173,27.14,171.73,26s-2.63-2.15-4-3.12-2.78-1.93-4.26-2.76-2.95-1.64-4.45-2.4-3-1.37-4.56-2.06c.46-.23.91-.48,1.35-.75a14.83,14.83,0,0,0,1.43-1,13.94,13.94,0,0,0,1.31-1.18,11.39,11.39,0,0,0,1.16-1.36,14.09,14.09,0,0,0,1-1.51l3.91-6.13L158.3,7.65c-.37.23-.85.51-1.3.74s-.92.47-1.39.71q-1.42.67-2.89,1.24a39.23,39.23,0,0,1-6,1.8c-1,.25-2.06.38-3.1.55s-2.08.25-3.13.27a30.92,30.92,0,0,1-3.14,0c-.35,0-.69,0-1-.07.17-.33.34-.66.5-1a16.25,16.25,0,0,0,1.11-3.27,11.31,11.31,0,0,0,.26-1.78A8.42,8.42,0,0,0,138,5a5.1,5.1,0,0,0-.24-.95,3.53,3.53,0,0,0-.38-.92,4.22,4.22,0,0,0-.52-.85l-.64-.76L135,0l-.8,1.91c-.23.56-.54,1.19-.86,1.77s-.66,1.17-1,1.73a23.44,23.44,0,0,1-2.44,3.16,18.11,18.11,0,0,1-1.44,1.35,6.78,6.78,0,0,1-.77.61c-.27.18-.52.39-.8.56l-.84.48a8.26,8.26,0,0,1-.87.41,9.39,9.39,0,0,1-1.59.55A9.18,9.18,0,0,1,122,12a8.32,8.32,0,0,1-.89-.39l-.86-.47c-.28-.16-.54-.36-.82-.54a6.86,6.86,0,0,1-.79-.59,18.23,18.23,0,0,1-1.48-1.33,22.14,22.14,0,0,1-2.53-3.15c-.38-.56-.73-1.14-1.06-1.73s-.65-1.21-.9-1.79l-.62-1.4-.89,1.1-.6.73a3.91,3.91,0,0,0-.48.81,3.24,3.24,0,0,0-.35.87,4.72,4.72,0,0,0-.22.9,8,8,0,0,0-.07,1.79,10.87,10.87,0,0,0,.27,1.71,15.77,15.77,0,0,0,1.13,3.17c.28.58.58,1.14.9,1.69-.61.07-1.22.14-1.84.15a31.45,31.45,0,0,1-3.19,0c-1.07,0-2.13-.14-3.19-.22s-2.12-.28-3.16-.51a40,40,0,0,1-6.17-1.73q-1.51-.56-3-1.22A30.78,30.78,0,0,1,88.4,8.43L85.52,6.7l1.81,2.72a13.16,13.16,0,0,0,.92,1.38,10.43,10.43,0,0,0,1.09,1.25,12.92,12.92,0,0,0,1.24,1.08,13.8,13.8,0,0,0,1.35.92,18.16,18.16,0,0,0,2.92,1.4c.28.1.56.19.84.28-.83.31-1.65.62-2.47,1-1.5.7-3.05,1.28-4.51,2.07s-3,1.5-4.35,2.39-2.8,1.77-4.17,2.71-2.65,2-3.92,3.06-2.49,2.2-3.63,3.42-2.24,2.46-3.32,3.72-2,2.64-2.93,4c-.48.68-.89,1.4-1.32,2.12s-.85,1.43-1.23,2.17c-.8,1.46-1.49,3-2.15,4.5l-.93,2.32-.83,2.35c-.51,1.59-1,3.18-1.35,4.8s-.7,3.25-1,4.9-.45,3.3-.57,5-.19,3.33-.18,5A46,46,0,0,0,57.1,76a6.82,6.82,0,0,1-.34,1.19,11.3,11.3,0,0,1-.57,1.34c-.41.9-.92,1.78-1.42,2.67-1,1.77-2.17,3.49-3.33,5.2-2.34,3.41-4.83,6.75-7.39,10l-1.95,2.47,3-.24a5.51,5.51,0,0,0,1.09-.15,7.37,7.37,0,0,0,.88-.26c.56-.19,1.06-.4,1.57-.62,1-.44,1.95-.93,2.89-1.43l.19-.11c-.67.86-1.36,1.71-2.08,2.54-2,2.4-4.21,4.72-6.4,7-4.4,4.58-8.94,9.08-13.54,13.46l-6.07,5.78,8-2.68,11.28-3.8-1.47,2.49-4.2,6.87-8.56,13.66-5.55,8.85,8.62-5.91,3.06-2.1-7,15.53a9.55,9.55,0,0,1-1.08.4,19.63,19.63,0,0,1-1.92.56c-.65.16-1.32.29-2,.4s-1.35.2-2,.25a35,35,0,0,1-4.13.12c-.69,0-1.38-.06-2.07-.12l-1-.11-1-.14-5.49-.78,3.09,4.48c.28.4.51.71.78,1.06s.53.66.81,1a20.86,20.86,0,0,0,1.83,1.89l.1.08-.56.42a29.51,29.51,0,0,0-5.94,6.65,27.73,27.73,0,0,0-1.5,2.52l-2.38,5.31c-.31.91-.65,1.82-.93,2.73l-.71,2.78a22.66,22.66,0,0,0-.58,2.8l-.47,2.81c-.13.94-.19,1.88-.28,2.82l-.25,2.82-.12,5.62L0,206.65H2.59q30.3,0,60.6-.08l30.3-.12,30.3-.21,60.6-.46,60.6-.72h1Zm-240.81,0,.1-5.29.23-2.62c.09-.87.14-1.75.25-2.61L6.15,191a21.21,21.21,0,0,1,.51-2.55l.62-2.52c.25-.82.55-1.62.81-2.44A18.66,18.66,0,0,1,9,181.11a19.68,19.68,0,0,1,1.1-2.29,27.33,27.33,0,0,1,2.72-4.2,22.54,22.54,0,0,1,3.42-3.52,18.19,18.19,0,0,1,2-1.4,13.07,13.07,0,0,1,2.09-1.08v0l.23-.08-2-4.26c.91,0,1.82-.07,2.73-.16s1.57-.18,2.35-.31,1.56-.29,2.34-.49,1.55-.41,2.31-.69,1.51-.6,2.27-.9l.77-.31.38-.85,10.46-23.67,3.2-7.25-6.49,4.52-1.06.74c1-1.65,2-3.29,3-4.95l4.13-7c1.36-2.35,2.71-4.67,4-7.18l2.23-4.38L46.52,113l-8.39,3c2.58-2.63,5.14-5.28,7.64-8,2.17-2.38,4.33-4.77,6.38-7.29,1-1.25,2-2.53,3-3.89a21.89,21.89,0,0,0,1.38-2.13,10.2,10.2,0,0,0,.64-1.17l.54-1.39,1.6-4.17-3.88,2.54c-1.7,1.11-3.46,2.2-5.23,3.19l-1.13.61c1.53-2.12,3-4.25,4.47-6.43,1.15-1.77,2.29-3.54,3.33-5.41.51-.94,1-1.87,1.47-2.88A13.5,13.5,0,0,0,59,78a9.69,9.69,0,0,0,.44-1.77l0-.09,0-.19A43.16,43.16,0,0,1,59,71.19c0-1.6,0-3.22.09-4.82s.26-3.21.46-4.81.51-3.18.84-4.76.77-3.13,1.23-4.67,1-3.06,1.63-4.55,1.29-3,2.05-4.37c.35-.72.76-1.42,1.17-2.11s.8-1.4,1.27-2.06c.86-1.36,1.83-2.65,2.81-3.92s2-2.5,3.19-3.63,2.3-2.26,3.5-3.34,2.48-2.06,3.8-3,2.64-1.86,4-2.67,2.8-1.61,4.24-2.36,2.94-1.37,4.4-2.06,3-1.17,4.53-1.76l2.49-1-2.63-.43a13.12,13.12,0,0,1-1.42-.32c-.48-.13-1-.29-1.42-.46a15.39,15.39,0,0,1-2.66-1.3A12.32,12.32,0,0,1,91.47,12c-.23-.19-.45-.39-.67-.59.93.43,1.87.83,2.83,1.19A41.59,41.59,0,0,0,100,14.43c1.08.26,2.19.39,3.29.56s2.21.25,3.33.26a33.1,33.1,0,0,0,3.34,0c1.12,0,2.22-.2,3.33-.29l1.42-.12-.83-1.24A19.5,19.5,0,0,1,112.44,11a14,14,0,0,1-1-2.82,9.08,9.08,0,0,1-.22-1.43,6.19,6.19,0,0,1,.07-1.38,3,3,0,0,1,.16-.64,1.79,1.79,0,0,1,.19-.47l.26.5q.52,1,1.12,1.87a27.23,27.23,0,0,0,2.7,3.46,20.2,20.2,0,0,0,1.62,1.52,8.29,8.29,0,0,0,.88.69c.31.21.6.45.92.64l1,.57a10.27,10.27,0,0,0,1,.48,14.65,14.65,0,0,0,2.17.73l.22.07.24-.07A14.71,14.71,0,0,0,126,14a10.35,10.35,0,0,0,1-.46l1-.55c.33-.19.63-.42.94-.63a8.4,8.4,0,0,0,.9-.68,20.4,20.4,0,0,0,1.66-1.5,25.79,25.79,0,0,0,2.78-3.44c.38-.56.74-1.14,1.07-1.73a1.22,1.22,0,0,1,.08.38,5.83,5.83,0,0,1,0,1.29A8.71,8.71,0,0,1,135.31,8a13.59,13.59,0,0,1-1,2.72c-.21.44-.45.88-.69,1.31s-.52.87-.77,1.23l-1.39,2,2.34.23c1.13.11,2.25.31,3.38.35a33.67,33.67,0,0,0,3.4.06c1.14,0,2.26-.13,3.39-.22l.32,0,4.24,1.7c1.48.6,3,1.15,4.46,1.77s2.93,1.28,4.31,2.06,2.81,1.48,4.14,2.35,2.66,1.71,4,2.63,2.5,1.93,3.71,2.95,2.34,2.11,3.41,3.27,2.1,2.35,3.1,3.55,1.89,2.51,2.73,3.84c.45.64.84,1.33,1.24,2s.8,1.35,1.15,2.06c.75,1.38,1.39,2.82,2,4.26l.86,2.2.76,2.24c.46,1.51.88,3,1.24,4.57s.64,3.1.87,4.66.4,3.14.5,4.72.17,3.16.15,4.73a42.72,42.72,0,0,1-.27,4.62l0,.36,0,.16a10.47,10.47,0,0,0,.5,2,14.25,14.25,0,0,0,.68,1.63c.24.51.48,1,.75,1.5s.51,1,.79,1.43c1.08,1.88,2.25,3.65,3.43,5.41,1,1.42,2,2.8,3,4.18-1.33-.76-2.66-1.54-3.94-2.35l-4.85-3.06,1.91,5.17c.18.49.38,1,.58,1.47a10.42,10.42,0,0,0,.67,1.2A22.12,22.12,0,0,0,191.75,97c1,1.36,2,2.63,3.07,3.87,2.09,2.5,4.28,4.87,6.49,7.21,2.66,2.82,5.38,5.56,8.12,8.28l-8.88-2.93-3.8-1.26,1.85,3.49c1.31,2.48,2.7,4.78,4.1,7.11l4.25,6.92,5.38,8.53-4.57-3.12-3.46-2.36,1.75,3.77,10.82,23.35.13.28.22.09c.73.29,1.43.65,2.18.88a23.1,23.1,0,0,0,2.24.68c.75.19,1.51.35,2.28.48s1.53.24,2.3.31a37.21,37.21,0,0,0,8.15-.1,18.51,18.51,0,0,1-2.3,2.44,7.7,7.7,0,0,1-1.8,1.16,3.43,3.43,0,0,1-1,.26l-.47,0-.53-.18-.17.44a15.27,15.27,0,0,1,2.37,1.27,20.31,20.31,0,0,1,2.16,1.59,24.59,24.59,0,0,1,3.68,3.9,25.73,25.73,0,0,1,1.53,2.21,24.89,24.89,0,0,1,1.33,2.33,21.3,21.3,0,0,1,1.13,2.43,20.12,20.12,0,0,1,1,2.51c.27.85.57,1.7.82,2.56l.61,2.62a21.48,21.48,0,0,1,.5,2.64l.4,2.66c.11.89.15,1.79.22,2.69l.19,2.69,0,4.45Z"></path><path class="cls-1" d="M174.32,87c-.46,2.75-.73,5.6-1.9,8.26a7.44,7.44,0,0,1-2.73,3.39,7.64,7.64,0,0,1-4.28,1A34.31,34.31,0,0,1,157,98c-2.71-.8-5.38-1.64-8.06-2.3a62.94,62.94,0,0,0-8.11-1.42c-2.73-.26-5.47-.43-8.23-.49s-5.45,0-8.34.06l-4.21,0c-1.37,0-2.73,0-4.1.11-2.74.14-5.47.36-8.18.69a81.07,81.07,0,0,0-8,1.52c-2.66.65-5.29,1.51-8,2.34-1.35.42-2.74.81-4.13,1.15-.74.15-1.34.33-2.18.47a14.92,14.92,0,0,1-2.19.24,8.75,8.75,0,0,1-4.69-.93A8,8,0,0,1,75.27,96c-1.44-2.74-1.72-5.65-2.19-8.4L73,87.11l-.06-.58a6.41,6.41,0,0,1,0-1.1,14.28,14.28,0,0,1,.22-2.25A27.4,27.4,0,0,1,74.31,79,46.59,46.59,0,0,1,78,71.29l.94-1.59.46,1.8a11.81,11.81,0,0,1,.29,3.05c0,1-.07,1.94-.18,2.93l-1.33-.83A12.12,12.12,0,0,0,82,71.19c.89-2.17,1.53-4.48,2.24-6.82.35-1.17.72-2.36,1.15-3.55a19,19,0,0,1,1.68-3.51,23.67,23.67,0,0,1,2.37-3.16,29.87,29.87,0,0,1,2.75-2.71,29,29,0,0,1,3.07-2.34,33,33,0,0,1,3.36-1.93,28,28,0,0,1,3.6-1.5,23.77,23.77,0,0,1,3.82-1c1.24-.23,2.43-.41,3.51-.65s2.25-.51,3.34-.86A32.14,32.14,0,0,0,116.12,42a19.5,19.5,0,0,0,2.82-1.44l3.47-2.29.08,4a5.57,5.57,0,0,1-.06,1.17,6.71,6.71,0,0,1-.21.87,12.72,12.72,0,0,1-.53,1.4c-.38.84-.8,1.6-1.23,2.34s-.88,1.44-1.34,2.13-.92,1.36-1.44,2.06L115,48.53a19.92,19.92,0,0,0,4.16-2.15A11.32,11.32,0,0,0,120.79,45a6.29,6.29,0,0,0,1.11-1.47l-.23.66a3.34,3.34,0,0,1,.22-.71,3.24,3.24,0,0,1,.19-.36l.13-.19.08-.11.16-.19,11.09-13-6.87,15.59-.27.6.23-.66a1.36,1.36,0,0,0-.12-1c0-.06,0,0,.14.13a6.18,6.18,0,0,0,1.06.7,22.26,22.26,0,0,0,3,1.31L127.59,50l-.44-.84-.39-.82c-.25-.55-.49-1.12-.71-1.71a14.92,14.92,0,0,1-.58-1.9,9.6,9.6,0,0,1-.19-1.1,7.41,7.41,0,0,1,0-1.33L125.5,38l3.76,2.39c.26.16.8.49,1.26.71s1,.47,1.48.69a30.84,30.84,0,0,0,3.17,1.13c1.08.33,2.19.6,3.31.84.56.1,1.12.23,1.69.31l1.82.3.9.16,1,.24a16.47,16.47,0,0,1,2,.57,28.64,28.64,0,0,1,3.64,1.53,32.93,32.93,0,0,1,3.38,2,29.64,29.64,0,0,1,3.08,2.39A30.54,30.54,0,0,1,158.71,54,22,22,0,0,1,161,57.14a16.35,16.35,0,0,1,.94,1.8c.24.53.48,1.17.72,1.8.42,1.22.77,2.41,1.09,3.59.65,2.36,1.24,4.67,2.08,6.85a12.2,12.2,0,0,0,3.74,5.56l-1.15.73c-.09-1-.13-1.94-.12-2.92a12.18,12.18,0,0,1,.33-3l.33-1.25.63,1.1a47.39,47.39,0,0,1,3.44,7.47,24.1,24.1,0,0,1,1.12,4,8.1,8.1,0,0,1,.16,1,8.59,8.59,0,0,1,.09,1A10.65,10.65,0,0,1,174.32,87Zm-.47-.08a10.19,10.19,0,0,0,.06-2,8.13,8.13,0,0,0-.11-1,7.7,7.7,0,0,0-.17-1,23.5,23.5,0,0,0-1.17-3.84,34.38,34.38,0,0,0-1.7-3.66c-.63-1.19-1.3-2.37-2-3.48l1-.14a10.12,10.12,0,0,0-.09,2.68c.06.92.18,1.86.34,2.75l.28,1.63-1.43-.9a14.45,14.45,0,0,1-4.89-5.92c-1.13-2.25-2-4.59-2.84-6.84-.43-1.13-.88-2.23-1.35-3.27-.23-.48-.46-1-.78-1.51a13,13,0,0,0-.88-1.34,23.85,23.85,0,0,0-2.19-2.5,26.51,26.51,0,0,0-2.56-2.2,33.38,33.38,0,0,0-2.8-1.89,28.43,28.43,0,0,0-3-1.56,24,24,0,0,0-3.12-1.14c-.53-.16-1.05-.31-1.55-.4-.26-.06-.48-.12-.76-.17l-.9-.14-1.77-.25c-.63-.08-1.26-.21-1.89-.31-1.26-.24-2.51-.51-3.76-.87a35.82,35.82,0,0,1-3.71-1.24c-.61-.25-1.22-.51-1.83-.81a15.19,15.19,0,0,1-1.91-1.07l4-1.88a3,3,0,0,0,0,.33,4.56,4.56,0,0,0,.1.54,9.92,9.92,0,0,0,.39,1.28c.16.45.35.9.56,1.36l.32.68.33.63,3.06,6-6.17-2.33a27.06,27.06,0,0,1-3.69-1.65,11,11,0,0,1-2-1.34,5.74,5.74,0,0,1-1.07-1.23,3.72,3.72,0,0,1-.56-2.7l.23-.66a.07.07,0,0,1,0,0l4.22,2.6.13-.15.06-.07.08-.12a1.77,1.77,0,0,0,.1-.2,1.7,1.7,0,0,0,.12-.37l-.23.66a11.11,11.11,0,0,1-2.09,2.71,16.26,16.26,0,0,1-2.43,1.93A24.73,24.73,0,0,1,116.61,53l-7.79,2.82,5.06-6.52c.44-.57.91-1.2,1.34-1.82s.85-1.25,1.25-1.88.75-1.26,1-1.86a8.54,8.54,0,0,0,.34-.82,2.31,2.31,0,0,0,.08-.29c0-.11,0,0,0,0l3.55,1.69a22.75,22.75,0,0,1-3.7,1.81,36.52,36.52,0,0,1-3.68,1.22c-1.24.35-2.48.62-3.74.85s-2.53.36-3.69.52a19.76,19.76,0,0,0-3.26.69,24.12,24.12,0,0,0-3.17,1.16,29.17,29.17,0,0,0-5.86,3.51,26.56,26.56,0,0,0-2.6,2.24,21.17,21.17,0,0,0-2.19,2.53,16,16,0,0,0-1.67,3c-.47,1.07-.9,2.17-1.3,3.31C85.82,67.42,85,69.77,83.94,72a21.45,21.45,0,0,1-2,3.3,12.3,12.3,0,0,1-2.86,2.74l-1.6,1.07.27-1.9c.13-.9.22-1.83.26-2.74a10.53,10.53,0,0,0-.14-2.61l1.4.21a44.08,44.08,0,0,0-3.66,7.4,22.52,22.52,0,0,0-1.08,3.93,13.26,13.26,0,0,0-.17,1.94,5.17,5.17,0,0,0,.06,1l.05.47.09.52c.5,2.75,1,5.53,2.29,7.74A5.77,5.77,0,0,0,83,97.94a12.68,12.68,0,0,0,2-.36c.54-.12,1.28-.37,1.9-.55,1.3-.42,2.59-.89,3.89-1.39,2.6-1,5.24-2.06,8-2.94a63.88,63.88,0,0,1,17-3c1.43-.09,2.88-.09,4.32-.14l4.22.07,4.22,0c1.43.06,2.86.12,4.28.24a65.45,65.45,0,0,1,16.85,3.39c2.71.92,5.31,2,7.9,3.09,1.3.52,2.59,1,3.91,1.41.68.2,1.33.43,2,.56l1,.23,1,.11a6.75,6.75,0,0,0,3.83-.72,6.55,6.55,0,0,0,2.6-3C173,92.49,173.35,89.66,173.85,86.9Z"></path><path class="cls-1" d="M124.14,44.67a3.27,3.27,0,0,0,.15-.32A.69.69,0,0,0,124.14,44.67Z"></path><path class="cls-3" d="m169.2 77.37c-5.17-3.4-6.14-12.85-8.91-18s-10.52-11.59-19.34-12.73-13.15-4.16-13.15-4.16c-0.19 2.27 2 6.26 2 6.26-5.36-2-5.8-3.43-5.68-4-0.49 1-2.42 3.92-8.36 6.11 0 0 4.63-6 4.44-8.32 0 0-4.43 3-13.25 4.16s-16.58 7.49-19.36 12.65-3.77 14.62-8.94 18a20 20 0 0 0 0 -5.67s-5.92 9.45-4.91 15.25 1.83 14.24 11.78 11.85 16.07-7.56 38.75-7.06c22.68-0.5 28.43 4.66 38.38 7.06s10.4-6 11.41-11.85-4.91-15.25-4.91-15.25c-0.48 1.92 0.05 5.7 0.05 5.7z"></path><path class="cls-4" d="m123.9 81.07c-6.76 0-12.65 5.39-15.89 9.89a98.59 98.59 0 0 1 16.27 -0.82 99.38 99.38 0 0 1 15.43 0.71c-3.25-4.47-9.1-9.78-15.81-9.78z"></path><ellipse class="cls-5" transform="translate(-25.12 118.8) rotate(-48.78)" cx="118.4" cy="87.1" rx="2.14" ry="1.62"></ellipse><ellipse class="cls-5" transform="translate(-25.47 106.5) rotate(-41.22)" cx="128.8" cy="87.1" rx="1.62" ry="2.14"></ellipse><path class="cls-6" d="m146.8 119.1a10.2 10.2 0 0 0 -8.52 -15.92h-30.4a10.2 10.2 0 0 0 -8.52 15.92 28.57 28.57 0 0 0 7.32 7.38 20.4 20.4 0 0 1 33.21 -0.3 28.61 28.61 0 0 0 6.91 -7.08z"></path><path class="cls-7" d="m123.4 117.7a20.45 20.45 0 0 0 -16.72 8.68 28.59 28.59 0 0 0 33.21 -0.31 20.44 20.44 0 0 0 -16.49 -8.37z"></path><path class="cls-1" d="M52.78,203.87c.51-2.47,1.11-4.69,1.76-7s1.38-4.51,2.16-6.73,1.64-4.4,2.56-6.54,2-4.23,3-6.27c-.46,2.27-.86,4.52-1.12,6.79s-.47,4.53-.58,6.8-.17,4.53-.16,6.78.09,4.55.27,6.64Z"></path><path class="cls-1" d="M190.29,204.36c.18-2.09.25-4.41.27-6.64s0-4.51-.16-6.78-.31-4.53-.58-6.8-.66-4.52-1.12-6.79c1.08,2,2.12,4.12,3,6.27s1.79,4.32,2.56,6.54,1.51,4.46,2.16,6.73,1.25,4.52,1.76,7Z"></path><path class="cls-8" d="M177.26,204.59c1-5.8-4.91-15.25-4.91-15.25a4,4,0,0,1-1.57,2.49c-5.17-3.4-4.55-9.67-7.32-14.84s-10.52-11.45-19.34-12.58-16.8-2.09-16.8-2.09l3.88,4.44s-12.22-3.48-21-2.35-16.61,7.49-19.38,12.65-2.18,11.4-7.35,14.8a4.09,4.09,0,0,1-1.58-2.51s-5.92,9.44-4.91,15.24"></path><path class="cls-1" d="m69.19 134.9q-2.44 5.51-5.33 10.73c-1.91 3.49-3.94 6.91-6.1 10.24 1.78-3.54 3.4-7.16 4.91-10.81s2.87-7.35 4-11.09z"></path><path class="cls-1" d="m158.1 128c1.18 3.74 2.54 7.44 4 11.09s3.13 7.27 4.91 10.81c-2.16-3.33-4.18-6.75-6.1-10.24s-3.7-7.06-5.33-10.73z"></path><path class="cls-1" d="m183.8 144.9c0.75 2.59 1.62 5.16 2.59 7.7s2 5.07 3.2 7.54c-1.55-2.26-3-4.59-4.39-7s-2.68-4.83-3.87-7.35z"></path><path class="cls-1" d="m133.2 137.8a68.14 68.14 0 0 0 3.71 12 69.41 69.41 0 0 1 -6.22 -11.22z"></path><path class="cls-1" d="m173.3 108.4a68.14 68.14 0 0 0 7.62 10 69.41 69.41 0 0 1 -9.72 -8.38z"></path><path class="cls-1" d="M87.45,161.42A53.63,53.63,0,0,1,83,170.5a52.36,52.36,0,0,0,1.88-9.66Z"></path><path class="cls-1" d="M168.89,47.58a53.64,53.64,0,0,1,1.8,10,52.37,52.37,0,0,0-4.21-8.89Z"></path><path class="cls-1" d="M141.39,26.91a53.62,53.62,0,0,1,6.78,7.51,52.35,52.35,0,0,0-8.27-5.33Z"></path><path class="cls-1" d="M97,33.39a52.35,52.35,0,0,0-9.27,3.29A53.63,53.63,0,0,1,96,30.93Z"></path><path class="cls-1" d="M82.36,55.45a52.35,52.35,0,0,0-6.69,7.21,53.63,53.63,0,0,1,4.71-9Z"></path><path class="cls-1" d="M84.38,115.65,82.68,125.7c-.3,1.68-.61,3.36-1,5a17.14,17.14,0,0,1-1.75,4.81A16.84,16.84,0,0,0,81,130.61c.18-1.68.27-3.37.35-5.06l.4-10.2Z"></path></g></svg>