<svg viewBox="0 0 192 192" xmlns="http://www.w3.org/2000/svg" width="192" height="192"><g transform="rotate(0 3.14 2.18) translate(55.244121043439996 9.489224565802786) scale(0.5554463912308008)"><defs><style>.cls-1{fill:none;}.cls-2{isolation:isolate;}.cls-3{fill:#168843;}.cls-4{fill:#1eab4b;}.cls-11,.cls-5{fill:#111820;}.cls-6{fill:#fece05;}.cls-7{fill:#6cc04a;}.cls-14,.cls-8{fill:#ff6b00;}.cls-13,.cls-9{fill:#fff;}.cls-9{opacity:0.2;}.cls-10{clip-path:url(#b);}.cls-11{opacity:0.33;}.cls-11,.cls-14{mix-blend-mode:multiply;}.cls-12{clip-path:url(#a);}.cls-13{opacity:0.3;}.cls-14{opacity:0.6;}</style><clipPath id="b"><path class="cls-1" d="M107.5,97.83c.42,1.45,1.12,3.22,1.92,5.46,1.61,4.53,5.68,6.6,9.41,3.71a5.46,5.46,0,0,0,2.32-5.59,5.24,5.24,0,0,0,3.32-4.9c.3-4.86-3.68-7.09-8.35-6L114,91l1.75-.64c4.53-1.61,6.6-5.68,3.71-9.41a5.46,5.46,0,0,0-5.59-2.32,5.24,5.24,0,0,0-4.9-3.32c-4.86-.3-7.09,3.68-6,8.35l.52,2.19L103,84.37c-1.61-4.53-5.68-6.6-9.41-3.71a5.46,5.46,0,0,0-2.32,5.59,5.24,5.24,0,0,0-3.32,4.9c-.3,4.86,3.68,7.09,8.35,6A54.8,54.8,0,0,0,102,95.6l-4.54,9.1"></path></clipPath><clipPath id="a"><path class="cls-1" d="M116.89,293.82l-12.12-44,17.51,37.83a76,76,0,0,0,12.16-23.73l-17.14-82.42c-.78,15.7-10.15,67.08-44.69,67.08s-43.9-51.38-44.69-67.08L10.8,263.94a78.9,78.9,0,0,0,8.64,18.69l14.82-29.33L23.59,288.45c5.4,6.79,16.58,14.18,16.58,14.18l6.6-27.44L45,305.92a67.34,67.34,0,0,0,27.63,7.48,65.45,65.45,0,0,0,22.07-4.92L93,277.62l7.84,28A65.13,65.13,0,0,0,116.89,293.82Z"></path></clipPath></defs><title>-</title><g class="cls-2"><g data-name="Layer 2"><path class="cls-3" d="M74.44,164.6h-1c-18.32.09-51.56-3.64-68.29-24.43-5.46-6.78-5.45-13.24-4.9-15.66l1.61.74c-.21.93.69,6.29,5.93,12.8,15.84,19.68,47.91,22.46,65.59,22.33,17.79.12,49.84-2.64,65.68-22.33,5.24-6.51,6.14-11.86,5.93-12.8l1.61-.74c.55,2.42.55,8.88-4.9,15.66C125.25,160.58,92.93,164.6,74.44,164.6Z"></path><path class="cls-3" d="M136.2,12s-1.46,3.85-8.79,6.59c-13.43,5-48.66,5.91-58.08,6.07-9.42-.16-38.79-1.05-52.22-6.07-7.33-2.74-8.71-6.31-8.71-6.31S4.91,25.88,26.39,74c13.36,29.9,2.28,58.29-.65,65.45,0,0,13.3,9,46.52,8.52,33.22.44,46.52-8.52,46.52-8.52-2.93-7.16-16.36-25.63-.65-65.45C139.16,20.67,136.2,12,136.2,12Z"></path><path class="cls-4" d="m146.6 123.2c-1-4.37-7-10.71-13.38-10.85s-15.5 3.38-22.54 6.06l-37.31 14.78-37.3-14.78c-7-2.68-16.2-6.2-22.54-6.06s-12.39 6.48-13.38 10.85 9.43 37.59 73.19 37.19h0.06c63.76 0.4 74.18-32.83 73.2-37.19z"></path><path class="cls-5" d="m72.93 140.5c-30.17 0-41.79-10.17-41.06-10.74l0.46-32.22c-1.55 0.1 17.52 10.52 40.6 10.52a76 76 0 0 0 38.79 -10.42l0.63 33.68c-0.98 0.57-9.15 9.18-39.42 9.18z"></path><path class="cls-6" d="M83.76,100.78H61.32a6.42,6.42,0,0,0-6.41,6.41v35a6.42,6.42,0,0,0,6.41,6.41H83.76a6.42,6.42,0,0,0,6.41-6.41v-35A6.42,6.42,0,0,0,83.76,100.78ZM63.07,140.42V108.94H82V120.6H75.07c-2.25,0-3.42,1.83-3.42,4.08s1.17,4.08,3.42,4.08H82v11.66Z"></path><path class="cls-7" d="M69.36,29.93c-21.93,0-61.07-1.55-61.07-13.54l.06-3.91c0,.85,5.4,6.2,18.4,8.91,11.36,2.37,26.49,3.68,42.61,3.68a271,271,0,0,0,44.69-3.51c18.49-3.27,22.34-9,22.35-9.06v3.66C136.41,28.53,87.38,29.93,69.36,29.93Z"></path><path class="cls-4" d="M136.45,12.78c0,7.06-33.37,12.78-67.09,12.78s-61-5.72-61-12.78S35.64,0,69.36,0,136.45,5.72,136.45,12.78Z"></path><path class="cls-8" d="M116.89,292.82l-12.12-44,17.51,37.83a76,76,0,0,0,12.16-23.73l-17.14-82.42c-.78,15.7-10.15,67.08-44.69,67.08s-43.9-51.38-44.69-67.08L10.8,262.94a78.9,78.9,0,0,0,8.64,18.69l14.82-29.33L23.59,287.44c5.4,6.79,16.58,14.18,16.58,14.18l6.6-27.44L45,304.92a67.34,67.34,0,0,0,27.63,7.48,65.45,65.45,0,0,0,22.07-4.92L93,276.62l7.84,28A65.13,65.13,0,0,0,116.89,292.82Z"></path><path class="cls-9" d="M47.81,137.37l2.08.82,13,2.74C65.18,106.46,59,64.12,51.2,29.44a129.35,129.35,0,0,1-16.93-1.3c-5.18-.7-8.86-1.42-11.72-1.82C35,50.36,51.46,100,47.81,137.37Z"></path><path class="cls-7" d="M97.7,103.9l4.36-8.3a54.8,54.8,0,0,1-5.74,1.53c-4.68,1.11-8.65-1.12-8.35-6a5.24,5.24,0,0,1,3.32-4.9,5.46,5.46,0,0,1,2.32-5.59c3.73-2.89,7.8-.82,9.41,3.71l.55,1.51-.52-2.19c-1.11-4.68,1.12-8.65,6-8.35a5.24,5.24,0,0,1,4.9,3.32A5.46,5.46,0,0,1,119.52,81c2.89,3.73.82,7.8-3.71,9.41l-1.75.64,2.1-.5c4.68-1.11,8.65,1.12,8.35,6a5.24,5.24,0,0,1-3.32,4.9,5.46,5.46,0,0,1-2.32,5.59c-3.73,2.89-7.8.82-9.41-3.71-.79-2.23-1.5-4-1.92-5.46l-1.72,2.8Z"></path><g class="cls-10"><path class="cls-11" d="m109.7 86.84s4.08-9.45 3.44-9.68c0.25-0.49 0.4 1.16 0.85 1.39s1.89-0.61 1.64-0.12c-0.78-0.51-5.99 8.46-5.93 8.41z"></path><path class="cls-11" d="m112.9 97.21s9.45 4.08 9.68 3.44c0.49 0.25-1.16 0.4-1.39 0.85s0.61 1.89 0.12 1.64c0.5-0.77-8.46-5.98-8.41-5.93z"></path><path class="cls-11" d="M99.47,90.49S90,86.41,89.79,87.05c-.49-.25,1.16-.4,1.39-.85s-.61-1.89-.12-1.64C90.55,85.33,99.51,90.54,99.47,90.49Z"></path></g><g class="cls-12"><polygon class="cls-13" points="27.75 295.9 21.76 293.1 43.12 224.8 48.85 233.4"></polygon><polygon class="cls-13" points="13.51 280.8 10.9 276.4 22.37 245.7 24.19 249"></polygon><polygon class="cls-14" points="111.5 298.3 117.7 295.7 98.52 227.6 92.36 235.9"></polygon><polygon class="cls-14" points="80.28 287.1 84.92 285.7 83.88 246.1 76.16 247.9"></polygon><polygon class="cls-14" points="129.6 276.7 137.1 267.7 110.5 181.8 97.83 215.6"></polygon></g></g></g></g></svg>