<svg viewBox="0 0 192 192" xmlns="http://www.w3.org/2000/svg" width="192" height="192">



<g transform="rotate(0 3.14 2.18) translate(55.06874311091624 9.366782293881826) scale(0.5531250930957265)"><defs>
<style>.cls-1,.cls-2,.cls-4,.cls-6{fill:none;stroke:#231f20;}.cls-1,.cls-2,.cls-6{stroke-miterlimit:10;}.cls-2{clip-path:url(#b);}.cls-3{isolation:isolate;}.cls-4{stroke-linejoin:bevel;}.cls-5{clip-path:url(#a);}.cls-6{opacity:0.33;mix-blend-mode:multiply;}</style>
<clipPath id="b">
<path class="cls-1" d="M125.44,97.34c.3-4.86-3.68-7.09-8.35-6l-2.1.5,1.75-.64c4.53-1.61,6.6-5.68,3.71-9.41a5.46,5.46,0,0,0-5.59-2.32,5.24,5.24,0,0,0-4.9-3.32c-4.86-.3-7.09,3.68-6,8.35l.52,2.19-.55-1.51c-1.61-4.53-5.68-6.6-9.41-3.71a5.46,5.46,0,0,0-2.32,5.59A5.24,5.24,0,0,0,88.9,92c-.3,4.86,3.68,7.09,8.35,6A54.8,54.8,0,0,0,103,96.43l-4.54,9.1"></path>
</clipPath>
<clipPath id="a">
<path class="cls-2" d="m108.5 98.66c0.42 1.45 1.12 3.22 1.92 5.46 1.61 4.53 5.68 6.6 9.41 3.71"></path>
</clipPath>
</defs><title>24</title><g class="cls-3">
<g data-name="Layer 2">
<path class="cls-1" d="m9.36 13.12s-3.48 13.58 18 61.67a77.29 77.29 0 0 1 5.57 42.85"></path>
<path class="cls-1" d="m117.3 79.56q0.82-2.33 1.78-4.77c21-53.29 18.18-60.34 18.18-60.34"></path>
<path class="cls-1" d="m76.34 161.2z"></path>
<path class="cls-1" d="m73.58 161.2z"></path>
<path class="cls-1" d="m147.6 125.6c-1 7.8-14.23 35.36-71.25 35.62h-4.2c-56.8-0.34-70-27.83-71-35.62-0.48 2.58-0.32 8.84 4.96 15.41 16.73 20.79 50 24.52 68.29 24.43h1c18.5 0 50.81-4 67.24-24.44 5.3-6.56 5.45-12.82 4.96-15.4z"></path>
<path class="cls-1" d="m73.58 161.2z"></path>
<path class="cls-1" d="m33.17 117.8c-6.29-2.34-13.43-4.71-18.65-4.59-6.34 0.14-12.4 6.48-13.38 10.85a4.84 4.84 0 0 0 0 1.57c1 7.7 13.88 34.63 69 35.59h2 4.21 1.84c55.46-0.84 68.41-27.88 69.4-35.6a4.84 4.84 0 0 0 0 -1.57c-1-4.37-7-10.71-13.38-10.85-6.07-0.13-14.71 3.08-21.61 5.71"></path>
<path class="cls-1" d="m33.29 98.35c1 1.1 8.49 5.51 22.59 8.54"></path>
<path class="cls-1" d="m55.87 139.9c-16.86-2.8-23.6-8.92-23-9.35l0.48-15.38"></path>
<path class="cls-1" d="M112.86,107.83l.2,10.87.25,13.43c-.76.44-5.84,5.71-22.18,8.06"></path>
<path class="cls-1" d="m90.84 107.8a72.34 72.34 0 0 0 18.24 -7.13"></path>
<path class="cls-1" d="M84.72,101.62H62.28A6.42,6.42,0,0,0,55.87,108v35a6.42,6.42,0,0,0,6.41,6.41H84.72A6.42,6.42,0,0,0,91.14,143V108A6.42,6.42,0,0,0,84.72,101.62ZM64,141.25V109.78H83v11.66H76c-2.25,0-3.42,1.83-3.42,4.08s1.17,4.08,3.42,4.08H83v11.66Z"></path>
<path class="cls-1" d="m137.4 13.61c0 7.06-33.37 12.78-67.09 12.78s-61-5.72-61-12.78 27.29-12.78 61-12.78 67.09 5.72 67.09 12.78z"></path>
<path class="cls-4" d="M117.85,293.65l-12.12-44,17.51,37.83a76,76,0,0,0,12.16-23.73l-17.14-82.42c-.78,15.7-10.15,67.08-44.69,67.08S29.69,197,28.9,181.35L11.76,263.77a78.9,78.9,0,0,0,8.64,18.69l14.82-29.33L24.55,288.28c5.4,6.79,16.58,14.18,16.58,14.18L47.73,275,46,305.75a67.34,67.34,0,0,0,27.63,7.48,65.45,65.45,0,0,0,22.07-4.92l-1.74-30.86,7.84,28A65.13,65.13,0,0,0,117.85,293.65Z"></path>
<path class="cls-1" d="M98.66,104.73l4.36-8.3A54.8,54.8,0,0,1,97.28,98c-4.68,1.11-8.65-1.12-8.35-6a5.24,5.24,0,0,1,3.32-4.9,5.46,5.46,0,0,1,2.32-5.59c3.73-2.89,7.8-.82,9.41,3.71l.55,1.51L104,84.53c-1.11-4.68,1.12-8.65,6-8.35a5.24,5.24,0,0,1,4.9,3.32,5.46,5.46,0,0,1,5.59,2.32c2.89,3.73.82,7.8-3.71,9.41l-1.75.64,2.1-.5c4.68-1.11,8.65,1.12,8.35,6a5.24,5.24,0,0,1-3.32,4.9,5.46,5.46,0,0,1-2.32,5.59c-3.73,2.89-7.8.82-9.41-3.71-.79-2.23-1.5-4-1.92-5.46l-1.72,2.8"></path>
<g class="cls-5">
<path class="cls-6" d="M114.12,78c.25-.49.4,1.16.85,1.39s1.89-.61,1.64-.12c-.77-.52-6,8.45-5.93,8.4"></path>
<path class="cls-6" d="M113.89,98s9.45,4.08,9.68,3.44c.49.25-1.16.4-1.39.85s.61,1.89.12,1.64C122.8,103.2,113.84,98,113.89,98Z"></path>
<path class="cls-6" d="M90.75,87.88c-.49-.25,1.16-.4,1.39-.85s-.61-1.89-.12-1.64"></path>
</g>
<path class="cls-1" d="M125.44,97.34c.3-4.86-3.68-7.09-8.35-6l-2.1.5,1.75-.64c4.53-1.61,6.6-5.68,3.71-9.41a5.46,5.46,0,0,0-5.59-2.32,5.24,5.24,0,0,0-4.9-3.32c-4.86-.3-7.09,3.68-6,8.35l.52,2.19-.55-1.51c-1.61-4.53-5.68-6.6-9.41-3.71a5.46,5.46,0,0,0-2.32,5.59A5.24,5.24,0,0,0,88.9,92c-.3,4.86,3.68,7.09,8.35,6A54.8,54.8,0,0,0,103,96.43l-4.54,9.1"></path>
<path class="cls-1" d="m108.5 98.66c0.42 1.45 1.12 3.22 1.92 5.46 1.61 4.53 5.68 6.6 9.41 3.71"></path>
</g>
</g></g></svg>