<svg viewBox="0 0 192 192" xmlns="http://www.w3.org/2000/svg" width="192" height="192"><g transform="rotate(0 3.14 2.18) translate(35.10592542669574 22.777677200198568) scale(1.4943331183632946)"><defs><style>.cls-1{isolation:isolate;}.cls-2{fill:#ffd633;}.cls-3{fill:#d99f22;opacity:0.6;}.cls-4{fill:#fff;opacity:0.59;mix-blend-mode:overlay;}.cls-5{fill:#b5721c;}.cls-6{fill:#935512;}</style></defs><title>-</title><g class="cls-1"><g data-name="Layer 2"><path class="cls-2" d="M19.25,42.92C11.65,42.92,4.46,33,1,23.71-.36,20.09-.33,17.16,1.1,15a6.75,6.75,0,0,1,5.11-2.86h13v5H6.4a1.75,1.75,0,0,0-1.17.65c-.45.72-.3,2.29.42,4.2,2.94,7.85,8.83,16,13.59,16Z"></path><path class="cls-3" d="M2,21.72a11.12,11.12,0,0,1-.69-7L1.1,15C-.33,17.16-.36,20.09,1,23.71,4.46,33,11.65,42.92,19.25,42.92V40.86C12,40,5.31,30.57,2,21.72Z"></path><path class="cls-2" d="M16.26,4.18V34.57a24.39,24.39,0,0,0,48.77,0V4.18Z"></path><path class="cls-2" d="M63,42.92v-5c5,0,10.83-8.29,13.71-16,.73-1.93.9-3.51.43-4.22a1.74,1.74,0,0,0-1.13-.63H63v-5h13.2A6.75,6.75,0,0,1,81.35,15c1.43,2.16,1.42,5.09.06,8.72C78.93,30.36,72,42.92,63,42.92Z"></path><polygon class="cls-2" points="45.75 81.09 35.38 81.09 37.37 57.43 43.76 57.43"></polygon><polygon class="cls-3" points="44.1 61.31 37.08 61.31 37.32 58.48 40.65 58.69 43.86 58.48"></polygon><rect class="cls-2" x="12.7" width="55.74" height="6.17"></rect><polygon class="cls-3" points="65.03 10.15 16.26 6.17 16.26 6.17 65.03 6.17"></polygon><path class="cls-4" d="M24.23,34.57V6.82l-8-.65v28.4A24.36,24.36,0,0,0,44.63,58.36,24.31,24.31,0,0,1,24.23,34.57Z"></path><polygon class="cls-4" points="37.08 61.91 35.38 81.81 38.91 81.81 40.57 61.91"></polygon><path class="cls-5" d="M56.27,97.74H24.86a2.73,2.73,0,0,1-2.43-4l6.18-12.18A2.73,2.73,0,0,1,31,80.09h19a2.73,2.73,0,0,1,2.43,1.49L58.7,93.77A2.73,2.73,0,0,1,56.27,97.74Z"></path><path class="cls-6" d="M58.67,93.5a2.64,2.64,0,0,1-2.34,1.25H24.92a2.64,2.64,0,0,1-2.34-1.25l-.1.23a2.76,2.76,0,0,0,2.43,4H56.33a2.76,2.76,0,0,0,2.43-4Z"></path></g></g></g></svg>