<svg viewBox="0 0 192 192" xmlns="http://www.w3.org/2000/svg" width="192" height="192">






<g transform="rotate(0 3.14 2.18) translate(33.96479267230817 23.104029371614345) scale(1.4726458712805182)"><defs>
<style>.cls-1{fill:none;stroke:#231f20;stroke-miterlimit:10;}</style>
</defs><title>25</title><path class="cls-1" d="M77,18H66V35.48a23.78,23.78,0,0,1-.2,3c4.53-1.61,9.38-8.86,11.92-15.63.73-1.93.9-3.51.43-4.22A1.74,1.74,0,0,0,77,18Z"></path><path class="cls-1" d="M17.19,18H7.33a1.75,1.75,0,0,0-1.17.65c-.45.72-.3,2.29.42,4.2C9,29.22,13.25,35.73,17.32,38a23.8,23.8,0,0,1-.13-2.52Z"></path><path class="cls-1" d="M82.28,15.91a6.75,6.75,0,0,0-5.11-2.86H66v-6h3.4V.91H13.62V7.08h3.57v6H7.13A6.75,6.75,0,0,0,2,15.91C.59,18.07.56,21,1.92,24.63,5.16,33.26,11.63,42.5,18.66,43.7A24.51,24.51,0,0,0,38.21,59.36L36.39,81h10.2L44.77,59.38A24.51,24.51,0,0,0,64.45,43.81c8.72-.44,15.45-12.66,17.89-19.18C83.7,21,83.71,18.07,82.28,15.91Zm-75.7,7c-.72-1.91-.87-3.48-.42-4.2A1.75,1.75,0,0,1,7.33,18h9.86V35.48A23.8,23.8,0,0,0,17.32,38C13.25,35.73,9,29.22,6.58,22.88Zm71.1,0c-2.54,6.78-7.4,14-11.92,15.63a23.78,23.78,0,0,0,.2-3V18H77a1.74,1.74,0,0,1,1.13.63C78.58,19.37,78.41,20.95,77.68,22.88Z"></path><path class="cls-1" d="M59.63,94.68,53.45,82.5A2.73,2.73,0,0,0,51,81H32a2.73,2.73,0,0,0-2.43,1.49L23.35,94.68a2.73,2.73,0,0,0,2.43,4H57.2A2.73,2.73,0,0,0,59.63,94.68Z"></path></g></svg>