<svg viewBox="0 0 192 192" xmlns="http://www.w3.org/2000/svg" xmlns:xlink="http://www.w3.org/1999/xlink" width="192" height="192"><g transform="rotate(0 3.14 2.18) translate(8.802295320049325 57.25772868017381) scale(0.8830147309362094)"><defs><style>.cls-1{isolation:isolate;}.cls-2{fill:#a7c069;}.cls-3,.cls-4{opacity:0.57;mix-blend-mode:multiply;}.cls-3{fill:url(#a);}.cls-4{fill:url(#b);}.cls-5{fill:#88a23c;}</style><linearGradient id="a" x1="30.68" x2="32.34" y1="81.7" y2="55.06" gradientUnits="userSpaceOnUse"><stop stop-color="#fff" offset=".45"></stop><stop stop-color="#f6f5f5" offset=".5"></stop><stop stop-color="#dcdcdc" offset=".58"></stop><stop stop-color="#b3b1b2" offset=".7"></stop><stop stop-color="#797778" offset=".83"></stop><stop stop-color="#312d2e" offset=".97"></stop><stop stop-color="#231f20" offset="1"></stop></linearGradient><linearGradient id="b" x1="1779" x2="1781" y1="81.7" y2="55.06" gradientTransform="matrix(-1 0 0 1 1947 0)" xlink:href="#a"></linearGradient></defs><title>-</title><g class="cls-1"><g data-name="Layer 2"><path class="cls-2" d="M196.42,50.82c-5.78-2-11.41-4.72-17.8-2.28s-19,5.33-25.71-8.52-15.21-25.26-22.82-26.78c0,0,2.43-2.59,3.8-2.59,0,0-5.48-3-9.43-2.28,0,0-2-2.43-.3-4,0,0-9.43-1.22-12.32,1.07,0,0-1.46-3.78-9.73-5.06V0c-1.07,0-2,0-3,.11s-1.9-.11-3-.11V.43c-8.28,1.28-9.73,5.06-9.73,5.06C83.54,3.2,74.1,4.42,74.1,4.42c1.67,1.52-.3,4-.3,4-4-.76-9.43,2.28-9.43,2.28,1.37,0,3.8,2.59,3.8,2.59C60.56,14.76,52,26.18,45.35,40S26,51,19.64,48.54s-12,.3-17.8,2.28,4,6.54,4,6.54c2,0,7.15,7.61,20.54,16.89s24,5.48,24,5.48c17.45,17,31.85,3.75,36.31-.21S94,77,94,77a10.22,10.22,0,0,0,3,1.87,7.09,7.09,0,0,0,4.33,0,10.22,10.22,0,0,0,3-1.87s2.84-1.44,7.3,2.52,18.87,17.25,36.31.21c0,0,10.65,3.8,24-5.48s18.56-16.89,20.54-16.89C192.47,57.37,202.2,52.8,196.42,50.82ZM78.35,72.22a9.5,9.5,0,1,1,9.5-9.5A9.5,9.5,0,0,1,78.35,72.22Zm44.67,0a9.5,9.5,0,1,1,9.5-9.5A9.5,9.5,0,0,1,123,72.22Z"></path><path class="cls-3" d="M56.15,72.12c2.74-5.48-2.23-13.29-2.23-13.29-15.21,12-31.55-1.37-31.55-1.37S13,52.75,9.69,55.69a14.74,14.74,0,0,1-3,2c2.5,1.59,7.92,8.42,19.63,16.54,13.39,9.28,24,5.48,24,5.48l.16.15A25.7,25.7,0,0,0,56.15,72.12Z"></path><path class="cls-4" d="M142.63,72.12c-2.74-5.48,2.23-13.29,2.23-13.29,15.21,12,31.55-1.37,31.55-1.37s9.33-4.72,12.68-1.78a14.74,14.74,0,0,0,3,2c-2.5,1.59-7.92,8.42-19.63,16.54-13.39,9.28-24,5.48-24,5.48l-.16.15A25.7,25.7,0,0,1,142.63,72.12Z"></path><path class="cls-5" d="M65.35,35.41a21.17,21.17,0,0,1,9.32,1c3,1.09,5.65,2.62,8.51,3.14a27.88,27.88,0,0,0,8.76.25,21.79,21.79,0,0,0,8.23-2.74,24.07,24.07,0,0,1,9.27-2.88,22.75,22.75,0,0,1,2.42-.1c.8,0,1.61,0,2.41.08s1.61.17,2.41.26a24.09,24.09,0,0,1,2.38.56,21,21,0,0,1,4.47,1.85c1.39.76,2.69,1.55,4,2.2a24.92,24.92,0,0,0,8.76,2.34,21.16,21.16,0,0,1-9.32-1c-3-1.09-5.65-2.62-8.51-3.14a27.84,27.84,0,0,0-8.76-.25,21.75,21.75,0,0,0-8.23,2.74,24,24,0,0,1-9.27,2.88,22.71,22.71,0,0,1-2.42.1c-.8,0-1.61,0-2.41-.08s-1.61-.17-2.41-.27a24.06,24.06,0,0,1-2.38-.56,20.87,20.87,0,0,1-4.47-1.85c-1.39-.76-2.69-1.55-4-2.2A24.89,24.89,0,0,0,65.35,35.41Z"></path><path class="cls-5" d="M65.35,27.91a21.17,21.17,0,0,1,9.32,1c3,1.09,5.65,2.62,8.51,3.14a27.88,27.88,0,0,0,8.76.25,21.79,21.79,0,0,0,8.23-2.74,24.07,24.07,0,0,1,9.27-2.88,22.75,22.75,0,0,1,2.42-.1c.8,0,1.61,0,2.41.08s1.61.17,2.41.26a24.08,24.08,0,0,1,2.38.56,21,21,0,0,1,4.47,1.85c1.39.76,2.69,1.55,4,2.2a24.92,24.92,0,0,0,8.76,2.34,21.16,21.16,0,0,1-9.32-1c-3-1.09-5.65-2.62-8.51-3.14a27.84,27.84,0,0,0-8.76-.25,21.75,21.75,0,0,0-8.23,2.74,24,24,0,0,1-9.27,2.88,22.71,22.71,0,0,1-2.42.1c-.8,0-1.61,0-2.41-.08s-1.61-.17-2.41-.27a24.07,24.07,0,0,1-2.38-.56,20.87,20.87,0,0,1-4.47-1.85c-1.39-.76-2.69-1.55-4-2.2A24.89,24.89,0,0,0,65.35,27.91Z"></path></g></g></g></svg>