<svg viewBox="0 0 192 192" xmlns="http://www.w3.org/2000/svg" width="192" height="192">







<g transform="rotate(0 3.14 2.18) translate(8.972067280161852 56.431884493877114) scale(0.8768557452880418)"><defs>
<style>.cls-1{fill:none;stroke:#231f20;stroke-miterlimit:10;}</style>
</defs><title>27</title><path class="cls-1" d="M197.05,51.63c-5.78-2-11.41-4.72-17.8-2.28s-19,5.33-25.71-8.52-15.21-25.26-22.82-26.78c0,0,2.43-2.59,3.8-2.59,0,0-5.48-3-9.43-2.28,0,0-2-2.43-.3-4,0,0-9.43-1.22-12.32,1.07,0,0-1.46-3.78-9.73-5.06V.81c-1.07,0-2,0-3,.11s-1.9-.11-3-.11v.43c-8.28,1.28-9.73,5.06-9.73,5.06C84.17,4,74.74,5.23,74.74,5.23c1.67,1.52-.3,4-.3,4-4-.76-9.43,2.28-9.43,2.28,1.37,0,3.8,2.59,3.8,2.59C61.2,15.58,52.67,27,46,40.83s-19.32,11-25.71,8.52-12,.3-17.8,2.28,4,6.54,4,6.54c2,0,7.15,7.61,20.54,16.89s24,5.48,24,5.48c17.45,17,31.85,3.75,36.31-.21s7.3-2.52,7.3-2.52a10.22,10.22,0,0,0,3,1.87,7.09,7.09,0,0,0,4.33,0,10.22,10.22,0,0,0,3-1.87s2.84-1.44,7.3,2.52,18.87,17.25,36.31.21c0,0,10.65,3.8,24-5.48s18.56-16.89,20.54-16.89C193.1,58.18,202.84,53.61,197.05,51.63ZM79,73a9.5,9.5,0,1,1,9.5-9.5A9.5,9.5,0,0,1,79,73Zm44.67,0a9.5,9.5,0,1,1,9.5-9.5A9.5,9.5,0,0,1,123.65,73Z"></path><path class="cls-1" d="M56.78,72.93c2.74-5.48-2.23-13.29-2.23-13.29C39.34,71.62,23,58.28,23,58.28s-9.33-4.72-12.68-1.78a14.74,14.74,0,0,1-3,2c2.5,1.59,7.92,8.42,19.63,16.54,13.39,9.28,24,5.48,24,5.48l.16.15A25.7,25.7,0,0,0,56.78,72.93Z"></path><path class="cls-1" d="M149,80.54l-.16.15a25.7,25.7,0,0,1-5.63-7.75c-2.74-5.48,2.23-13.29,2.23-13.29,15.21,12,31.55-1.37,31.55-1.37s9.33-4.72,12.68-1.78a14.74,14.74,0,0,0,3,2"></path><path class="cls-1" d="m66 36.22c11.83 0 11.83 6 23.66 6s11.83-6 23.66-6 11.83 6 23.66 6"></path><path class="cls-1" d="m66 28.72c11.83 0 11.83 6 23.66 6s11.83-6 23.66-6 11.83 6 23.66 6"></path></g></svg>