<svg viewBox="0 0 192 192" xmlns="http://www.w3.org/2000/svg" width="192" height="192"><g transform="rotate(0 3.14 2.18) translate(14.906986582778032 46.26717536521934) scale(1.2670783346440933)"><defs><style>.cls-1{fill:#f77d10;}.cls-2{fill:#ffd633;opacity:0.62;}.cls-3{fill:#7f3a1f;}.cls-4{fill:#4c1d0c;}.cls-5{fill:#dd9a52;}.cls-6{fill:none;stroke:#c6824a;stroke-miterlimit:10;stroke-width:0.75px;}.cls-7{fill:#b66434;}.cls-8{fill:#984823;}.cls-9{fill:#f6c384;}</style></defs><title>-</title><path class="cls-1" d="M112.68,54.9s18.17-9.42,13.24-30.45S130.29,0,130.29,0s-13.2,6.85-13.2,18.58c0,0,.49-10.27-9.29-18.58,0,0,2,18.09,0,23.47,0,0-9.29-4.89-10.76-11.74S83.35,36.94,100,54.9"></path><path class="cls-2" d="M117.21,43.15A31.6,31.6,0,0,0,121.76,26s-1.75-6.86-1-10.69c0,0-4.39,5.46-3.54,10.83,0,0-1.68-12.95-6.4-17.47,0,0,1.39,15.78-1.79,21.52,0,0-10.27-3.8-13-11.13a43.68,43.68,0,0,0,5.35,25.19"></path><path class="cls-3" d="M110.41,24.71a131.44,131.44,0,0,1-17.54,4.1,5.92,5.92,0,0,1,2.45-6.23c-1.23-1.51-3.76-.26-4.76,1.41S89,27.8,87.31,28.73a6.67,6.67,0,0,1-2,.6C74.82,31.21,64.35,33.1,53.76,33.8c-3.66.24-7.32.34-11,.84a101.93,101.93,0,0,0-12.29,2.72l-10.19,2.7a4.85,4.85,0,0,0-1.92.82,4.47,4.47,0,0,0-1.24,2.4A27.44,27.44,0,0,0,19.4,62.74a3.2,3.2,0,0,0,1.11,1.37,3.4,3.4,0,0,0,2,.23Q58.24,61,93.49,54.16c7.6-1.47,14.53-1.42,20.6-1.86"></path><path class="cls-4" d="M93.49,54.16Q58.29,61,22.54,64.34a3.4,3.4,0,0,1-2-.23,3.2,3.2,0,0,1-1.11-1.37,27,27,0,0,1-2.57-7.31c9.81-1.46,15.88-.69,25.69-2.16,5.19-.77,13.88-5.38,19.07-6.15,15.85-2.34,32-3,47.82-5.32-.28-.2-.91-.18-.9-.53,1.6.18,3.07.38,4.53.62l1.7,10.3C108.54,52.92,100.29,52.84,93.49,54.16Z"></path><path class="cls-4" d="M63.25,42.21c-12,2.19-23,6.52-35.35,7.35-1.36.09-7.15,1.06-8-.07-1.63-2.18,2.48-2.39,3.42-2.46,6.3-.49,12.59-.92,18.88-1.66Q52.77,44.13,63.25,42.21Z"></path><path class="cls-4" d="M106.87,29.11q-5.08.7-10.12,1.67a6.32,6.32,0,0,0,4.52-.14L77.11,37.09c3.64.39,7.25-.69,10.82-1.52s7.4-1.41,10.81-.09a104.07,104.07,0,0,0-12.3,2.58c6.85.08,13.65-1,20.41-2.13"></path><ellipse class="cls-5" transform="translate(-4.62 18.01) rotate(-8.97)" cx="112.6" cy="38.45" rx="5.81" ry="13.91"></ellipse><path class="cls-6" d="M111,25.69c2.3.89,3.68,3.23,4.59,5.53a29.61,29.61,0,0,1,1.81,14.72c-.22,1.65-.74,3.5-2.24,4.23a3.61,3.61,0,0,1-3.27-.24c-2.66-1.49-3.34-4.95-3.74-8l-.77-5.86c-.27-2.08-.52-4.32.43-6.19A3.09,3.09,0,0,1,110.53,28c1.62.09,2.54,1.87,3,3.41a41.6,41.6,0,0,1,1.94,13.9c0,.88-.38,2-1.25,2a1.4,1.4,0,0,1-.81-.42c-1.4-1.27-1.76-3.29-2-5.16L110.05,33a5.74,5.74,0,0,1-.06-2.1,4.71,4.71,0,0,1,3.17,2.63,12.86,12.86,0,0,1,1.06,4.11q.27,2,.47,4a2.83,2.83,0,0,1-.51,2.4,4.38,4.38,0,0,1-1.39-3l-1.08-6.46a18.11,18.11,0,0,1,2,7"></path><path class="cls-1" d="M16.33,53.9s-12.39-6.42-9-20.76-3-16.67-3-16.67,9,4.67,9,12.67c0,0-.33-7,6.33-12.67,0,0-1.33,12.33,0,16,0,0,6.33-3.33,7.33-8s9.33,17.18-2,29.42"></path><path class="cls-2" d="M13.25,45.89a21.54,21.54,0,0,1-3.1-11.68s1.19-4.67.69-7.29c0,0,3,3.72,2.41,7.39,0,0,1.14-8.82,4.36-11.91,0,0-.94,10.76,1.22,14.67,0,0,7-2.59,8.83-7.59A29.78,29.78,0,0,1,24,46.65"></path><path class="cls-7" d="M7.17,45.14a162.19,162.19,0,0,0,22.17,1.63,7.31,7.31,0,0,0-4.18-7.13c1.2-2.08,4.53-1,6.08.81s2.61,4.35,4.87,5.16a8.23,8.23,0,0,0,2.6.34c13.1.28,26.22.57,39.27-.61,4.5-.41,9-1,13.51-1.08a125.77,125.77,0,0,1,15.5,1l12.94,1.33a6,6,0,0,1,2.49.63,5.52,5.52,0,0,1,2,2.69,33.86,33.86,0,0,1,1,24.14,4,4,0,0,1-1.09,1.89,4.19,4.19,0,0,1-2.42.67q-44.15,2.79-88.43,1.23c-9.54-.34-18,1.06-25.47,1.7"></path><path class="cls-8" d="M33.46,77.78q44.21,1.55,88.43-1.23a4.19,4.19,0,0,0,2.42-.67A4,4,0,0,0,125.4,74a33.32,33.32,0,0,0,1.72-9.41c-12.24.1-19.48,2.21-31.72,2.31C88.92,67,77.45,63,71,63.07c-19.77.19-39.54,2.45-59.31,2.71.3-.3,1.07-.4,1-.81C10.75,65.49,9,66,7.26,66.59l-.1,12.88C14.87,79.17,24.92,77.48,33.46,77.78Z"></path><path class="cls-8" d="M68,57.4c15,.37,29.34,3.51,44.49,2.16,1.67-.15,8.92-.09,9.73-1.63,1.57-3-3.49-2.44-4.65-2.34-7.78.61-15.53,1.3-23.33,1.61Q81.15,57.72,68,57.4Z"></path><path class="cls-8" d="M12.33,49.83q6.33-.12,12.65.1a7.8,7.8,0,0,1-5.53.7l30.69,3.21c-4.36,1.17-9,.56-13.48.23s-9.29-.29-13.2,2A128.41,128.41,0,0,1,39,56.8c-8.33,1.42-16.84,1.37-25.29,1.32"></path><ellipse class="cls-9" cx="7.17" cy="62.31" rx="7.17" ry="17.17"></ellipse><path class="cls-6" d="M6.62,46.45C4,48,2.76,51.1,2.09,54.07a36.54,36.54,0,0,0,.63,18.29c.59,2,1.58,4.12,3.54,4.72a4.45,4.45,0,0,0,3.93-.92c3-2.33,3.12-6.67,3-10.44L13,58.43c-.07-2.59-.19-5.36-1.71-7.46a3.82,3.82,0,0,0-3.66-1.76c-2,.42-2.73,2.76-3,4.74a51.33,51.33,0,0,0,.31,17.31c.2,1.06.85,2.41,1.91,2.17a1.73,1.73,0,0,0,.91-.67c1.46-1.82,1.52-4.35,1.5-6.68L9.2,55.19a7.09,7.09,0,0,0-.33-2.57,5.81,5.81,0,0,0-3.36,3.81A15.86,15.86,0,0,0,5,61.66q.06,2.5.2,5c.06,1,.22,2.25,1.09,2.83,1-1,1.09-2.55,1.11-4l.07-8.09a22.34,22.34,0,0,0-1.14,9"></path></g></svg>