<svg viewBox="0 0 192 192" xmlns="http://www.w3.org/2000/svg" width="192" height="192">











<g transform="rotate(0 3.14 2.18) translate(14.633685392584908 46.180701804672914) scale(1.2493867885975445)"><defs>
<style>.cls-1{fill:none;stroke:#231f20;stroke-miterlimit:10;}</style>
</defs><title>28</title><path class="cls-1" d="M122.69,46.6a27.43,27.43,0,0,0,4-22.15C121.8,3.42,130.09,1,130.09,1s-12.2,5.84-12.2,17.58c0,0,.49-9.27-9.29-17.58,0,0,2,17.09,0,22.47,0,0-9.29-4.89-10.76-11.74-.68-3.16-3.85,2.54-5.21,10.74"></path><path class="cls-1" d="M111.22,24.71a131.44,131.44,0,0,1-17.54,4.1,5.92,5.92,0,0,1,2.45-6.23c-1.23-1.51-3.76-.26-4.76,1.41s-1.54,3.81-3.25,4.75a6.67,6.67,0,0,1-2,.6C75.63,31.21,65.15,33.1,54.56,33.8c-3.66.24-7.32.34-11,.84a101.93,101.93,0,0,0-12.29,2.72"></path><path class="cls-1" d="M77.91,37.09c3.64.39,7.25-.69,10.82-1.52s7.4-1.41,10.81-.09c-4.15.61-8.26,2.47-12.3,3.58,6.85.08,13.65-1,20.41-2.13"></path><path class="cls-1" d="M118.21,45.94c0,.11,0,.22-.05.32l1,.11a27.94,27.94,0,0,0-.09-8.83c-1.2-7.59-4.74-13.34-7.91-12.84l-.6.18c-2.31,1-3.61,5.5-3.31,11.09l.35-.06-.35.06a32.53,32.53,0,0,0,.35,3.37c.15.94.33,1.85.55,2.73l.58-.08-.58.08a28.6,28.6,0,0,0,1,3.26l.41,0"></path><path class="cls-1" d="M9.13,45.47a21,21,0,0,1-1-12.33c3.36-14.33-3-16.67-3-16.67s9,4.67,9,12.67c0,0-.33-7,6.33-12.67,0,0-1.33,12.33,0,16,0,0,6.33-3.33,7.33-8,.65-3.05,4.3,5.65,3.68,15.17"></path><path class="cls-1" d="M8,45.14a162.19,162.19,0,0,0,22.17,1.63A7.31,7.31,0,0,0,26,39.64c1.2-2.08,4.53-1,6.08.81s2.61,4.35,4.87,5.16a8.23,8.23,0,0,0,2.6.34c13.1.28,26.22.57,39.27-.61,4.5-.41,9-1,13.51-1.08a125.77,125.77,0,0,1,15.5,1l12.94,1.33a6,6,0,0,1,2.49.63,5.52,5.52,0,0,1,2,2.69,33.86,33.86,0,0,1,1,24.14,4,4,0,0,1-1.09,1.89,4.19,4.19,0,0,1-2.42.67q-44.15,2.79-88.43,1.23c-9.54-.34-18,1.06-25.47,1.7"></path><path class="cls-1" d="M8,79.47c7.71-.31,17.75-2,26.29-1.7q44.21,1.55,88.43-1.23a4.19,4.19,0,0,0,2.42-.67A4,4,0,0,0,126.21,74a33.32,33.32,0,0,0,1.72-9.41c-12.24.1-19.48,2.21-31.72,2.31-6.48.05-18-3.89-24.43-3.83C52,63.26,35,65.52,15.23,65.78"></path><path class="cls-1" d="M68.82,57.4c15,.37,29.34,3.51,44.49,2.16,1.67-.15,8.92-.09,9.73-1.63,1.57-3-3.49-2.44-4.65-2.34-7.78.61-15.53,1.3-23.33,1.61Q82,57.72,68.82,57.4Z"></path><ellipse class="cls-1" cx="7.97" cy="62.31" rx="7.17" ry="17.17"></ellipse></g></svg>