<svg viewBox="0 0 192 192" xmlns="http://www.w3.org/2000/svg" width="192" height="192">

















<g transform="rotate(0 3.14 2.18) translate(42.459762114808385 16.825345187959073) scale(0.8652967739020867)"><defs>
<style>.cls-1{fill:none;stroke:#231f20;stroke-miterlimit:10;}.cls-2{isolation:isolate;}</style>
</defs><title>29</title><path class="cls-1" d="M14.46,129.63c0,.82-4.6,1.72-4.54,2.56s5.46,1.22,5.53,2.06-5.16,2.22-5.06,3,5.51,1,5.63,1.78-5,2.5-4.88,3.32,5.56.62,5.73,1.44-4.85,2.84-4.65,3.64,5.58.19,5.82,1c.19.64-4.7,2.91-4.48,3.52s5.46-.62,5.7,0-4.43,3.29-4.17,3.89,5.39-1.07,5.68-.49-4.14,3.65-3.83,4.22,5.28-1.51,5.62-1-3.83,4-3.48,4.52,5.15-1.93,5.52-1.41S21.1,166,21.5,166.5s5-2.33,5.39-1.84-3.16,4.53-2.73,5S29,167,29.4,167.42s-2.79,4.77-2.34,5.2,4.58-3,5-2.64-2.38,5-1.92,5.37,4.35-3.39,4.8-3.07c1,.73-2,5.27-1.08,5.69,1.14.53,2.8-4.65,4.3-4.19.68.21,0,5.59.93,5.83.75.2,2.86-4.78,3.73-4.58s.49,5.59,1.34,5.75,2.53-5,3.38-4.85,1,5.54,1.81,5.63,2.08-5.18,2.93-5.13,1.54,5.41,2.38,5.41,1.46-5.38,2.3-5.44,2.29,5.15,3.11,5,.56-5.53,1.36-5.74,3.27,4.61,4,4.3-.76-5.48,0-5.89,4.41,3.54,5.07,3-2.41-5-1.85-5.59,5.31,1.93,5.77,1.2c.22-.34-.76-1.32-1.74-2.31"></path><path class="cls-1" d="M45.25,32.9c-1.82.24-3.93-4.38-5.55-3.81s-1,6.17-2.5,7.08S31.1,33.9,29.78,35.1s1.41,6.12.29,7.52-6.47-.23-7.4,1.3,3,5.59,2.2,7.21-6.36,1.1-7,2.77,3.86,5.05,3.34,6.75-6.14,2-6.57,3.67S19,69,18.7,70.68s-5.93,2.54-6.2,4.27,4.76,4.29,4.55,6-5.73,3-5.89,4.69"></path><path class="cls-1" d="M116.78,17.79l-5.28-.68a6.87,6.87,0,0,1-3.23-1.3,7.11,7.11,0,0,1-2.88-5L105,7.49a7.38,7.38,0,0,0-5.77-6.4A7.34,7.34,0,0,0,97.92.76H95.29V15.48H69.88V.76H67.73a7.43,7.43,0,0,0-1.33.33,7.27,7.27,0,0,0-5.77,6.3l-.39,3.41A7.18,7.18,0,0,1,54,17.1l-5.38.68L41.79,47.65v8.51a7.35,7.35,0,0,0,7.06,7.47h68c4,0,6.58-3.52,6.58-7.47V47.65Z"></path><path class="cls-1" d="M94,41.53c6.72-4.52,7.15-12,.95-16.76m0,0C88.8,20,78.33,19.87,71.6,24.4s-7.14,12-.95,16.75,16.67,4.91,23.39.38"></path><path class="cls-1" d="M86.34,35.34c2.1-1.42,2.24-3.77.29-5.25m0,0A6.71,6.71,0,0,0,79.31,30c-2.1,1.42-2.24,3.77-.3,5.25a6.71,6.71,0,0,0,7.33.12"></path><path class="cls-1" d="M73.38,169.07l8-7.26a7.15,7.15,0,0,0-.16-10.72L69.7,141.25a7.15,7.15,0,0,0-8.82-.38l-2.75,2a7.15,7.15,0,0,1-9.46-1L28.35,119.52a7.15,7.15,0,0,1-.11-9.51l2.22-2.55a7.15,7.15,0,0,0,.44-8.82L22.18,86.28a7.15,7.15,0,0,0-10.66-1.16l-8,7.26c-5.49,5-6.16,19.72,21.73,50.35S68.33,173.67,73.38,169.07Z"></path><g class="cls-2">
<path class="cls-1" d="M84.13,24.37a1.12,1.12,0,0,0-.63-.2,1.19,1.19,0,0,0-.67.18.62.62,0,0,0-.3.47.57.57,0,0,0,.24.47,1.12,1.12,0,0,0,.64.21,1.19,1.19,0,0,0,.67-.18.62.62,0,0,0,.3-.47.58.58,0,0,0-.25-.47"></path>
</g><g class="cls-2">
<path class="cls-1" d="M84.13,39.35a1.08,1.08,0,0,0-.63-.2,1.17,1.17,0,0,0-.67.18.6.6,0,0,0-.29.46.55.55,0,0,0,.24.47,1.1,1.1,0,0,0,.65.2,1.15,1.15,0,0,0,.66-.18.61.61,0,0,0,.3-.47.56.56,0,0,0-.25-.47"></path>
</g><g class="cls-2">
<path class="cls-1" d="M74.18,31.65a1.13,1.13,0,0,0-.64-.21,1.19,1.19,0,0,0-.67.18.6.6,0,0,0-.29.46.56.56,0,0,0,.24.47,1.09,1.09,0,0,0,.64.2,1.15,1.15,0,0,0,.66-.18.62.62,0,0,0,.3-.47.57.57,0,0,0-.24-.47"></path>
</g><g class="cls-2">
<path class="cls-1" d="M94.08,31.65a1.1,1.1,0,0,0-.63-.2,1.19,1.19,0,0,0-.67.18.6.6,0,0,0-.29.46.54.54,0,0,0,.24.47,1.1,1.1,0,0,0,.65.2,1.13,1.13,0,0,0,.66-.18.62.62,0,0,0,.3-.46.58.58,0,0,0-.25-.47"></path>
</g><g class="cls-2">
<path class="cls-1" d="M91.17,27.29a1.11,1.11,0,0,0-.65-.2,1.2,1.2,0,0,0-.66.19.63.63,0,0,0-.3.46.57.57,0,0,0,.24.47,1.08,1.08,0,0,0,.64.2,1.17,1.17,0,0,0,.66-.18.61.61,0,0,0,.3-.47.54.54,0,0,0-.24-.47"></path>
</g><g class="cls-2">
<path class="cls-1" d="M77.09,37.35a1.11,1.11,0,0,0-.65-.2,1.18,1.18,0,0,0-.66.18.64.64,0,0,0-.3.46.56.56,0,0,0,.25.47,1.1,1.1,0,0,0,.64.21,1.2,1.2,0,0,0,.66-.19.62.62,0,0,0,.3-.46.57.57,0,0,0-.24-.47"></path>
</g><g class="cls-2">
<path class="cls-1" d="M77.09,27.29a1.11,1.11,0,0,0-.65-.2,1.2,1.2,0,0,0-.66.19.63.63,0,0,0-.3.46.57.57,0,0,0,.24.47,1.11,1.11,0,0,0,.65.2,1.2,1.2,0,0,0,.66-.18.64.64,0,0,0,.3-.46.57.57,0,0,0-.24-.47"></path>
</g><g class="cls-2">
<path class="cls-1" d="M91.17,37.35a1.11,1.11,0,0,0-.65-.2,1.18,1.18,0,0,0-.66.18.64.64,0,0,0-.3.46.56.56,0,0,0,.25.47,1.06,1.06,0,0,0,.63.2,1.17,1.17,0,0,0,.67-.18.6.6,0,0,0,.29-.46.54.54,0,0,0-.24-.47"></path>
</g><path class="cls-1" d="M116.8,50.25h-68a7.14,7.14,0,0,1-6.56-4.78l-.5,2.17v8.51a7.35,7.35,0,0,0,7.06,7.47h68c4,0,6.58-3.52,6.58-7.47V47.65l-.46-2.08A6.48,6.48,0,0,1,116.8,50.25Z"></path></g></svg>