<svg viewBox="0 0 192 192" xmlns="http://www.w3.org/2000/svg" width="192" height="192"><g transform="rotate(0 3.14 2.18) translate(42.14897592028873 16.309170011072425) scale(0.8685649045114722)"><defs><style>.cls-1{fill:#fff;}.cls-2{fill:none;stroke:#e42147;stroke-miterlimit:10;stroke-width:1.34px;}.cls-3{fill:#e42147;}.cls-4{isolation:isolate;}.cls-5{clip-path:url(#h);}.cls-6{clip-path:url(#g);}.cls-7{clip-path:url(#f);}.cls-8{clip-path:url(#e);}.cls-9{clip-path:url(#d);}.cls-10{clip-path:url(#c);}.cls-11{clip-path:url(#b);}.cls-12{clip-path:url(#a);}.cls-13{fill:#f5706e;}</style><clipPath id="h"><polygon class="cls-1" points="82.15 24.81 83.5 23.9 84.75 24.85 83.4 25.76"></polygon></clipPath><clipPath id="g"><polygon class="cls-1" points="82.15 39.79 83.5 38.88 84.75 39.83 83.4 40.74"></polygon></clipPath><clipPath id="f"><polygon class="cls-1" points="72.19 32.09 73.55 31.17 74.8 32.13 73.45 33.04"></polygon></clipPath><clipPath id="e"><polygon class="cls-1" points="92.1 32.09 93.45 31.18 94.7 32.13 93.35 33.04"></polygon></clipPath><clipPath id="d"><polygon class="cls-1" points="89.19 27.73 90.55 26.81 91.79 27.77 90.43 28.68"></polygon></clipPath><clipPath id="c"><polygon class="cls-1" points="75.11 37.78 76.47 36.87 77.72 37.83 76.36 38.73"></polygon></clipPath><clipPath id="b"><polygon class="cls-1" points="75.11 27.73 76.47 26.81 77.72 27.77 76.36 28.68"></polygon></clipPath><clipPath id="a"><polygon class="cls-1" points="89.19 37.78 90.54 36.87 91.79 37.83 90.44 38.73"></polygon></clipPath></defs><title>-</title><path class="cls-2" d="M46.09,33c-1.82.24-4.77-4.52-6.39-4s-1,6.17-2.5,7.08S31.1,33.9,29.78,35.1s1.41,6.12.29,7.52-6.47-.23-7.4,1.3,3,5.59,2.2,7.21-6.36,1.1-7,2.77,3.86,5.05,3.34,6.75-6.14,2-6.57,3.67S19,69,18.7,70.68s-5.93,2.54-6.2,4.27,4.76,4.29,4.55,6-5.73,3-5.89,4.69,5,4,4.92,5.7c-.12,1.89-5.55,3.4-5.6,5-.07,2,5.25,3.9,5.24,5.41,0,3.32-5.26,2.61-5.28,5.26,0,1.25,5.23,1.16,5.09,2.74-.06.7-5.46,1.12-5.53,2.07-.05.76,5.23,1.93,5.19,2.82s-5.43,1.38-5.46,2.25S15,118.72,15,119.59,9.61,121.15,9.61,122,15,123.63,15,124.48s-5.32,1.76-5.3,2.61,5.4,1.44,5.44,2.28-5.25,2-5.19,2.81,5.46,1.22,5.53,2.06-5.16,2.22-5.06,3,5.51,1,5.63,1.78-5,2.5-4.88,3.32,5.56.62,5.73,1.44-4.85,2.84-4.65,3.64,5.58.19,5.82,1c.19.64-4.7,2.91-4.48,3.52s5.46-.62,5.7,0-4.43,3.29-4.17,3.89,5.39-1.07,5.68-.49-4.14,3.65-3.83,4.22,5.28-1.51,5.62-1-3.83,4-3.48,4.52,5.15-1.93,5.52-1.41S21.1,166,21.5,166.5s5-2.33,5.39-1.84-3.16,4.53-2.73,5S29,167,29.4,167.42s-2.79,4.77-2.34,5.2,4.58-3,5-2.64-2.38,5-1.92,5.37,4.35-3.39,4.8-3.07c1,.73-2,5.27-1.08,5.69,1.14.53,2.8-4.65,4.3-4.19.68.21,0,5.59.93,5.83.75.2,2.86-4.78,3.73-4.58s.49,5.59,1.34,5.75,2.53-5,3.38-4.85,1,5.54,1.81,5.63,2.08-5.18,2.93-5.13,1.54,5.41,2.38,5.41,1.46-5.38,2.3-5.44,2.29,5.15,3.11,5,.56-5.53,1.36-5.74,3.27,4.61,4,4.3-.76-5.48,0-5.89,4.41,3.54,5.07,3-2.41-5-1.85-5.59,5.31,1.93,5.77,1.2-3.9-3.91-3.55-4.71"></path><path class="cls-3" d="M116.78,17.79l-5.28-.68a6.87,6.87,0,0,1-3.23-1.3,7.11,7.11,0,0,1-2.88-5L105,7.49a7.38,7.38,0,0,0-5.77-6.4A7.34,7.34,0,0,0,97.92.76H95.29V15.48H69.88V.76H67.73a7.43,7.43,0,0,0-1.33.33,7.27,7.27,0,0,0-5.77,6.3l-.39,3.41A7.18,7.18,0,0,1,54,17.1l-5.38.68L41.79,47.65v8.51a7.35,7.35,0,0,0,7.06,7.47h68c4,0,6.58-3.52,6.58-7.47V47.65Z"></path><path class="cls-1" d="M95,24.77C88.8,20,78.33,19.87,71.6,24.4s-7.14,12-.95,16.75,16.67,4.91,23.39.38l-.62-.48-.62-.48A18.64,18.64,0,0,1,82.23,43.5,17.43,17.43,0,0,1,72,40.24c-2.75-2.1-4-4.82-3.89-7.51s1.74-5.37,4.73-7.38a18.64,18.64,0,0,1,10.57-2.92,17.42,17.42,0,0,1,10.21,3.25c2.76,2.11,4,4.82,3.89,7.51s-1.74,5.37-4.73,7.38l.62.48.62.48c6.72-4.52,7.15-12,.95-16.76"></path><path class="cls-1" d="M86.63,30.4a6.71,6.71,0,0,0-7.32-.12c-2.1,1.42-2.24,3.77-.3,5.25a6.71,6.71,0,0,0,7.33.12l-.62-.48-.62-.48a4.23,4.23,0,0,1-2.41.66,4,4,0,0,1-2.32-.74,2,2,0,0,1-.88-1.71,2.21,2.21,0,0,1,1.07-1.68,4.21,4.21,0,0,1,2.4-.66,4,4,0,0,1,2.32.74A2,2,0,0,1,86.16,33,2.21,2.21,0,0,1,85.1,34.7l.62.48.62.48c2.1-1.42,2.24-3.77.29-5.25"></path><path class="cls-3" d="M73.38,169.07l8-7.26a7.15,7.15,0,0,0-.16-10.72L69.7,141.25a7.15,7.15,0,0,0-8.82-.38l-2.75,2a7.15,7.15,0,0,1-9.46-1L28.35,119.52a7.15,7.15,0,0,1-.11-9.51l2.22-2.55a7.15,7.15,0,0,0,.44-8.82L22.18,86.28a7.15,7.15,0,0,0-10.66-1.16l-8,7.26c-5.49,5-6.16,19.72,21.73,50.35S68.33,173.67,73.38,169.07Z"></path><g class="cls-4"><polygon class="cls-1" points="82.15 24.81 83.5 23.9 84.75 24.85 83.4 25.76"></polygon><g class="cls-5"><path class="cls-1" d="M84.13,24.37a1.12,1.12,0,0,0-.63-.2,1.19,1.19,0,0,0-.67.18.62.62,0,0,0-.3.47.57.57,0,0,0,.24.47,1.12,1.12,0,0,0,.64.21,1.19,1.19,0,0,0,.67-.18.62.62,0,0,0,.3-.47.58.58,0,0,0-.25-.47"></path></g></g><g class="cls-4"><polygon class="cls-1" points="82.15 39.79 83.5 38.88 84.75 39.83 83.4 40.74"></polygon><g class="cls-6"><path class="cls-1" d="M84.13,39.35a1.08,1.08,0,0,0-.63-.2,1.17,1.17,0,0,0-.67.18.6.6,0,0,0-.29.46.55.55,0,0,0,.24.47,1.1,1.1,0,0,0,.65.2,1.15,1.15,0,0,0,.66-.18.61.61,0,0,0,.3-.47.56.56,0,0,0-.25-.47"></path></g></g><g class="cls-4"><polygon class="cls-1" points="72.19 32.09 73.55 31.17 74.8 32.13 73.45 33.04"></polygon><g class="cls-7"><path class="cls-1" d="M74.18,31.65a1.13,1.13,0,0,0-.64-.21,1.19,1.19,0,0,0-.67.18.6.6,0,0,0-.29.46.56.56,0,0,0,.24.47,1.09,1.09,0,0,0,.64.2,1.15,1.15,0,0,0,.66-.18.62.62,0,0,0,.3-.47.57.57,0,0,0-.24-.47"></path></g></g><g class="cls-4"><polygon class="cls-1" points="92.1 32.09 93.45 31.18 94.7 32.13 93.35 33.04"></polygon><g class="cls-8"><path class="cls-1" d="M94.08,31.65a1.1,1.1,0,0,0-.63-.2,1.19,1.19,0,0,0-.67.18.6.6,0,0,0-.29.46.54.54,0,0,0,.24.47,1.1,1.1,0,0,0,.65.2,1.13,1.13,0,0,0,.66-.18.62.62,0,0,0,.3-.46.58.58,0,0,0-.25-.47"></path></g></g><g class="cls-4"><polygon class="cls-1" points="89.19 27.73 90.55 26.81 91.79 27.77 90.43 28.68"></polygon><g class="cls-9"><path class="cls-1" d="M91.17,27.29a1.11,1.11,0,0,0-.65-.2,1.2,1.2,0,0,0-.66.19.63.63,0,0,0-.3.46.57.57,0,0,0,.24.47,1.08,1.08,0,0,0,.64.2,1.17,1.17,0,0,0,.66-.18.61.61,0,0,0,.3-.47.54.54,0,0,0-.24-.47"></path></g></g><g class="cls-4"><polygon class="cls-1" points="75.11 37.78 76.47 36.87 77.72 37.83 76.36 38.73"></polygon><g class="cls-10"><path class="cls-1" d="M77.09,37.35a1.11,1.11,0,0,0-.65-.2,1.18,1.18,0,0,0-.66.18.64.64,0,0,0-.3.46.56.56,0,0,0,.25.47,1.1,1.1,0,0,0,.64.21,1.2,1.2,0,0,0,.66-.19.62.62,0,0,0,.3-.46.57.57,0,0,0-.24-.47"></path></g></g><g class="cls-4"><polygon class="cls-1" points="75.11 27.73 76.47 26.81 77.72 27.77 76.36 28.68"></polygon><g class="cls-11"><path class="cls-1" d="M77.09,27.29a1.11,1.11,0,0,0-.65-.2,1.2,1.2,0,0,0-.66.19.63.63,0,0,0-.3.46.57.57,0,0,0,.24.47,1.11,1.11,0,0,0,.65.2,1.2,1.2,0,0,0,.66-.18.64.64,0,0,0,.3-.46.57.57,0,0,0-.24-.47"></path></g></g><g class="cls-4"><polygon class="cls-1" points="89.19 37.78 90.54 36.87 91.79 37.83 90.44 38.73"></polygon><g class="cls-12"><path class="cls-1" d="M91.17,37.35a1.11,1.11,0,0,0-.65-.2,1.18,1.18,0,0,0-.66.18.64.64,0,0,0-.3.46.56.56,0,0,0,.25.47,1.06,1.06,0,0,0,.63.2,1.17,1.17,0,0,0,.67-.18.6.6,0,0,0,.29-.46.54.54,0,0,0-.24-.47"></path></g></g><path class="cls-13" d="M116.8,50.25h-68a7.14,7.14,0,0,1-6.56-4.78l-.5,2.17v8.51a7.35,7.35,0,0,0,7.06,7.47h68c4,0,6.58-3.52,6.58-7.47V47.65l-.46-2.08A6.48,6.48,0,0,1,116.8,50.25Z"></path></g></svg>