<svg viewBox="0 0 192 192" xmlns="http://www.w3.org/2000/svg" width="192" height="192">







<g transform="rotate(0 3.14 2.18) translate(46.48740918368959 13.957806002325256) scale(0.6759398063660124)"><defs>
<style>.cls-1{fill:none;stroke:#231f20;stroke-miterlimit:10;}.cls-2{fill:#231f20;}</style>
</defs><title>30</title><path class="cls-1" d="M69.27,116.76c-3.07.59-17.09,10.49-22.08,6.44C35.35,113.58,39,93.11,37.5,86c0,0-.7-5.18-1.66-4.48a1.81,1.81,0,0,0-.35.37C37,90.61,33,109.78,30,124.49c-4.94,19.42-4.15,36.82-2.5,41.07S25,186.2,39.83,201.37s14.83,20.64,11.94,31c0,0,5.35,1.21,8.65-8.5,0,0,10.5,16.36,20.18,18.55C86,243.6,95.84,239,99.13,222.62c0,0,4.12,11.53,10.3,9.71,0,0-4.94-13.35,5.77-21.85s11.55-25.48,16.7-36.36c3-6.33,5.13-31.62,1.83-47.41-3.1-14.83-7.28-35-5.72-43.95a1.81,1.81,0,0,0-.35-.37c-1-.7-1.66,4.48-1.66,4.48-1.53,7.08,1.8,28.87-11.23,36.8-4.89,3-16.38-3.89-18-5.14"></path><path class="cls-1" d="M80.83,118.87c.12,3.73.6,7.34-5.42,9.63s-18.9,6.26-19,17,4.21,21.19,0,32.63c0,0-2.17-15.77-3.49-20.47S48.2,142,54.1,130.07,77.58,111.53,80.83,118.87Zm.18,0c-.12,3.73-.6,7.34,5.42,9.63s18.9,6.26,19,17-4.21,21.19,0,32.63c0,0,2.17-15.77,3.49-20.47s4.7-15.65-1.2-27.57S84.26,111.53,81,118.87Z"></path><path class="cls-2" d="m129.8 53.33z"></path><path class="cls-1" d="M129.93,53.47c-1.06-1.64,1.13-3.93,4.07-3.92s4.52-.08,8.42-2.55,6.3-11.54,2.39-20.25-9-9.07-16-10.15-8.47-5.3-12.17-8.51-8.27-5.29-15-6.74S88.3,1,80.1,3.2s-16.56,1-26.58,1.09S38.95,7.79,33.7,15.47,16.27,26,13.6,27.81-6.62,47.41,3.87,57.57C9.41,62.94,16.73,64.42,24,63.22c.57.69,3,3.83.38,6.23-2.94,2.74-8.49,7.74-10,13.13s-1.9,4.78-1.26,6.78,1.34,6.18,6,1.59S26.75,74.11,38,74.48c10.67.35,10-4.16,21-11.83s30.14-12.51,46.11-7.87,17,11.69,17,11.79c.6,3.81,2.12,6.19,5.85,8,4,2,7.19-1.06,11.27-.78,3.52.25,8.36-1.58,7.67-5.75s-7.47-8.37-11.24-10.6a65.17,65.17,0,0,1-5.91-4.13"></path><path class="cls-1" d="M130.28,53.9l-.6.15a12.66,12.66,0,0,1-1.86.18,25.49,25.49,0,0,1-3.69-.22A52,52,0,0,1,117,52.51a103.82,103.82,0,0,1-13.6-4.94c-4.37-1.89-8.66-4-13.3-5.08a29.66,29.66,0,0,0-14.05.2,103.82,103.82,0,0,0-13.4,4.64c-4.39,1.77-8.62,3.84-12.81,6-2.11,1.07-4.16,2.25-6.24,3.4-1,.57-2.09,1.22-3.19,1.77S38.14,59.61,37,60.08A48.75,48.75,0,0,1,24.3,63.45"></path></g></svg>