<svg viewBox="0 0 192 192" xmlns="http://www.w3.org/2000/svg" width="192" height="192">







<g transform="rotate(0 3.14 2.18) translate(29.430122416607517 27.103939643909314) scale(0.5473371229878108)"><defs>
<style>.cls-1{fill:none;stroke:#231f20;stroke-miterlimit:10;}</style>
</defs><title>3</title><path class="cls-1" d="M82.73,204.22c-7.27-5-5.87-13.43-7.51-20.89a80.71,80.71,0,0,0-1.92-11.6c-7.51-31.15-9.57-49.36-8.26-60.07a27.27,27.27,0,0,0-2.56,2.59s.73-14,3.9-18.81A2.15,2.15,0,0,1,64.17,94l-.4-1.19a2.1,2.1,0,0,1-.09-.89C55.9,90.65,39.84,90.23,29.21,105c-7.51,10.46-9,21-7.47,32,0,5.66-.9,11-6,15.28C7.55,159.17,3.2,155.5,1,155.06c-.15,0,.3.79.42.84C8.72,159.31,19.13,164,27,157.12c5.7,16.53,14,34.67,16.74,55.75,3,22.78-24.52,35.1-29.79,37.29-.37.15,1.77,1.25,2.1,1.2,21.07-3.29,48.55-17.13,57-44.29,6.53,7.07,15.68,1.32,21.35-2,.08,0,.36-.69.25-.66C93,204.88,89.33,208.75,82.73,204.22Z"></path><path class="cls-1" d="M178.31,90.91C183.93,89.55,194,79.83,194,79.83a27,27,0,0,1-11.38-1.2l-.1,0-.6-.26c-5.38-2.48-9.24-8.21-9.24-8.21s-.73,14.09,2,19.17a2.15,2.15,0,0,0-2.22,1.23l-.52,1.14a2.15,2.15,0,0,0,.53,2.48c-5.6,1.31-15.75,11.1-15.75,11.1s6.86-.85,12.26,1.58l.59.28.09.05a27,27,0,0,1,8.37,7.79s.73-14-1.93-19.11a2.15,2.15,0,0,0,2.35-1.21l.52-1.14A2.15,2.15,0,0,0,178.31,90.91Z"></path><path class="cls-1" d="M242.55,191.34c-3.54.06-13.3,5.87-24.18-7.24-10.71-12.9-4.23-26.81-2-41.19,3.12-13.48,2.75-26-5.76-37.88-9.52-13.25-23.39-14.31-31.77-13.48a2.13,2.13,0,0,1,.09,1.92l-.52,1.14a2.15,2.15,0,0,1-2.35,1.21c2.66,5.13,1.93,19.11,1.93,19.11a29,29,0,0,0-3.35-4c1.27,9.19,0,24.07-5.25,48.23-2.22,5.41-3.4,11.29-9.67,13.77s-8.55-1.38-9.77-2.08c-.09,0,0,.53.08.59,3.64,3.44,9.23,9,15.21,6.72-7.46,46.55,31,68.84,58.57,73.15.33.05,2.47-1,2.1-1.2-5.27-2.19-35.75-10.05-32.75-32.83a145.81,145.81,0,0,1,6.92-28c10.52,11.89,29.45,6.38,41.56,3.2C241.85,192.5,242.79,191.34,242.55,191.34Z"></path><path class="cls-1" d="M70.17,94.13A2.15,2.15,0,0,0,71,91.72l-.4-1.19a2.15,2.15,0,0,0-2.08-1.45c3.21-4.78,3.94-18.86,3.94-18.86s-4.43,5.3-10,7.21l-.62.19-.1,0a27,27,0,0,1-11.44,0s9,10.71,14.45,12.65a2.15,2.15,0,0,0-.89,2.49l.4,1.19a2.15,2.15,0,0,0,2.21,1.45c-3.17,4.83-3.9,18.81-3.9,18.81a27,27,0,0,1,9.14-6.88l.1,0,.61-.22c5.63-1.86,12.36-.3,12.36-.3S75.61,96,70.17,94.13Z"></path><path class="cls-1" d="m119.5 39.24c16.69 5.31 44.66 22.36 48.85 56.7a15.21 15.21 0 0 1 4 -1.81 2.15 2.15 0 0 1 -0.53 -2.48l0.52-1.14a2.1 2.1 0 0 1 1 -1c0.19-0.63 0.36-1.32 0.51-2.06-1.82-6-1.24-17.33-1.24-17.33s0.56 0.83 1.54 2a43.36 43.36 0 0 0 -14.32 -27 41.42 41.42 0 0 0 -14.78 -8c4.26-1 5.43-4.88 4.44-7.36-1.11-2.56-4.92-4.52-8.83-1.75a21.23 21.23 0 0 0 -2.58 2.16 3.79 3.79 0 0 0 -0.59 -1.6 30.38 30.38 0 0 0 2.93 -2.87c4.51-5.07 2.34-10.74-1.08-12.7a7.79 7.79 0 0 0 -10.24 3c1-9.32-5.78-15-11.8-15.3h-0.17c-6.17-0.08-13.59 5.46-12.72 15.3a6.33 6.33 0 0 0 -5.79 -0.57 6.36 6.36 0 0 0 -3.41 5 9 9 0 0 0 -10.06 3.21v0.05c-2.47 3.89-1.63 10.93 5.79 13.72 0.46 0.17 0.91 0.33 1.36 0.47a39.89 39.89 0 0 0 -12.34 7.22c-10.41 9-14.06 21.07-14.64 31a29 29 0 0 0 7.08 -5.86s-0.73 14.09-3.94 18.86a2.15 2.15 0 0 1 2.08 1.45l0.4 1.19a2.15 2.15 0 0 1 -0.78 2.41 9.63 9.63 0 0 1 1.39 0.63c4.66-33.51 31.47-50.3 48-55.51"></path></g></svg>