<svg viewBox="0 0 192 192" xmlns="http://www.w3.org/2000/svg" width="192" height="192"><g transform="rotate(0 3.14 2.18) translate(29.4963910142189 27.304716979672037) scale(0.5479185086367135)"><defs><style>.cls-1{fill:none;}.cls-2{isolation:isolate;}.cls-3{fill:#fb2d36;}.cls-4{clip-path:url(#c);}.cls-5{mix-blend-mode:multiply;}.cls-6{fill:#c33a32;}.cls-7{clip-path:url(#b);}.cls-8{clip-path:url(#a);}.cls-9{fill:#9edadf;}</style><clipPath id="c"><path class="cls-1" d="m149.5 29.07c-1.11-2.56-4.92-4.52-8.83-1.75a21.23 21.23 0 0 0 -2.58 2.16 3.78 3.78 0 0 0 -0.59 -1.6 30.41 30.41 0 0 0 2.93 -2.87c4.51-5.07 2.34-10.74-1.08-12.7a7.79 7.79 0 0 0 -10.11 3.11c1-9.32-5.78-15-11.8-15.3h-0.17c-6.2-0.1-13.59 5.45-12.72 15.33a6.33 6.33 0 0 0 -5.79 -0.57 6.36 6.36 0 0 0 -3.41 5 9 9 0 0 0 -10.25 3.12v0.05c-2.54 3.95-1.7 10.95 5.72 13.79 7.8 2.93 15.42 2.71 15-0.12a1.39 1.39 0 0 0 1 -1.23 36.47 36.47 0 0 0 12.62 2c6.53 0 5.47-0.38 15.36-2.74 0 0.39 0.35 0.07 0.67 0.22-0.59 1.63 4.08 2.39 9 1.53 4.75-0.76 6.05-4.84 5.03-7.43z"></path></clipPath><clipPath id="b"><path class="cls-1" d="M94.58,203.69c-1.59.48-5.26,4.35-11.85-.18-7.27-5-5.87-13.43-7.51-20.89A80.72,80.72,0,0,0,73.31,171c-12.3-51-9.93-67.51-2.14-72.91l-2.92-5.88s-24.57-8.05-39,12.1c-7.51,10.46-9,21-7.47,32,0,5.66-.9,11-6,15.28C7.55,158.47,2.2,153.8,0,153.36c-.15,0,.3.79.42.84,7.27,3.41,18.68,9.13,26.52,2.22,5.7,16.53,14,34.67,16.74,55.75,3,22.78-24.52,35.1-29.79,37.29-.37.15,1.77,1.25,2.1,1.2,21.07-3.29,48.55-17.13,57-44.29,6.53,7.07,15.68,1.32,21.35-2C94.41,204.3,94.69,203.66,94.58,203.69Z"></path></clipPath><clipPath id="a"><path class="cls-1" d="m242.6 190.6c-3.54 0.06-13.3 5.87-24.18-7.24-10.71-12.9-4.23-26.81-2-41.19 3.12-13.48 2.75-26-5.76-37.88-14.47-20.15-39-12.1-39-12.1l-2.92 5.88c7.12 4.93 9.7 19.15 0.74 60.4-2.22 5.41-3.4 11.29-9.67 13.77s-8.55-1.38-9.77-2.08c-0.09 0 0 0.53 0.08 0.59 3.64 3.44 9.23 9 15.21 6.72-7.46 46.55 31 68.84 58.57 73.15 0.33 0.05 2.47-1 2.1-1.2-5.27-2.19-35.75-10.05-32.75-32.83a145.8 145.8 0 0 1 6.92 -28c10.52 11.89 29.45 6.38 41.56 3.2 0.17-0.04 1.11-1.19 0.87-1.19z"></path></clipPath></defs><title>-</title><g class="cls-2"><g data-name="Layer 2"><path class="cls-3" d="M130.41,38.33C119.62,39.53,74.76,52,71.16,98.14A58.89,58.89,0,0,0,68,92.43c-3.63-5.65-6.82-31.74,12-48,17.59-15.27,48.64-10.27,48.64-10.27Z"></path><path class="cls-3" d="M94.58,203.69c-1.59.48-5.26,4.35-11.85-.18-7.27-5-5.87-13.43-7.51-20.89A80.72,80.72,0,0,0,73.31,171c-12.3-51-9.93-67.51-2.14-72.91l-2.92-5.88s-24.57-8.05-39,12.1c-7.51,10.46-9,21-7.47,32,0,5.66-.9,11-6,15.28C7.55,158.47,2.2,153.8,0,153.36c-.15,0,.3.79.42.84,7.27,3.41,18.68,9.13,26.52,2.22,5.7,16.53,14,34.67,16.74,55.75,3,22.78-24.52,35.1-29.79,37.29-.37.15,1.77,1.25,2.1,1.2,21.07-3.29,48.55-17.13,57-44.29,6.53,7.07,15.68,1.32,21.35-2C94.41,204.3,94.69,203.66,94.58,203.69Z"></path><path class="cls-3" d="M109.46,38.32c10.77,1.2,55.48,13.79,59.19,59.77,0,.07.06,0,.07.07a36.12,36.12,0,0,1,3.13-5.74c3.87-5.49,6.82-31.74-12-48-17.59-15.27-48.64-10.27-48.64-10.27Z"></path><path class="cls-3" d="m242.6 190.6c-3.54 0.06-13.3 5.87-24.18-7.24-10.71-12.9-4.23-26.81-2-41.19 3.12-13.48 2.75-26-5.76-37.88-14.47-20.15-39-12.1-39-12.1l-2.92 5.88c7.12 4.93 9.7 19.15 0.74 60.4-2.22 5.41-3.4 11.29-9.67 13.77s-8.55-1.38-9.77-2.08c-0.09 0 0 0.53 0.08 0.59 3.64 3.44 9.23 9 15.21 6.72-7.46 46.55 31 68.84 58.57 73.15 0.33 0.05 2.47-1 2.1-1.2-5.27-2.19-35.75-10.05-32.75-32.83a145.8 145.8 0 0 1 6.92 -28c10.52 11.89 29.45 6.38 41.56 3.2 0.17-0.04 1.11-1.19 0.87-1.19z"></path><path class="cls-3" d="m149.5 29.07c-1.11-2.56-4.92-4.52-8.83-1.75a21.23 21.23 0 0 0 -2.58 2.16 3.78 3.78 0 0 0 -0.59 -1.6 30.41 30.41 0 0 0 2.93 -2.87c4.51-5.07 2.34-10.74-1.08-12.7a7.79 7.79 0 0 0 -10.11 3.11c1-9.32-5.78-15-11.8-15.3h-0.17c-6.2-0.1-13.59 5.45-12.72 15.33a6.33 6.33 0 0 0 -5.79 -0.57 6.36 6.36 0 0 0 -3.41 5 9 9 0 0 0 -10.25 3.12v0.05c-2.54 3.95-1.7 10.95 5.72 13.79 7.8 2.93 15.42 2.71 15-0.12a1.39 1.39 0 0 0 1 -1.23 36.42 36.42 0 0 0 12.62 2c6.64 0 12.46-1.44 15.77-3.61a0.84 0.84 0 0 0 0.44 0.85c-0.59 1.63 3.91 2.63 8.87 1.77 4.7-0.76 6-4.84 4.98-7.43z"></path><g class="cls-4"><g class="cls-5"><path class="cls-6" d="M103.59,12.45a32.64,32.64,0,0,0,8.48,14.34l.88.53c-2.35-1.91-5.35-7.89-8.4-16Z"></path></g><g class="cls-5"><path class="cls-6" d="M92,15.24a32.64,32.64,0,0,0,11.73,11.83l1,.3c-2.75-1.27-7.12-6.34-12.07-13.49Z"></path></g><g class="cls-5"><path class="cls-6" d="M82.89,36.32a32.64,32.64,0,0,0,16.58-1.69l.85-.58c-2.72,1.33-9.4,1.55-18.07.91Z"></path></g><g class="cls-5"><path class="cls-6" d="M149.77,35.49a32.64,32.64,0,0,1-16.58-1.69l-.85-.58c2.72,1.33,9.4,1.55,18.07.91Z"></path></g><g class="cls-5"><path class="cls-6" d="M143.09,23.21A23.67,23.67,0,0,1,133,29.91l-.74.07c2.14-.51,6-3.47,10.53-7.83Z"></path></g><g class="cls-5"><path class="cls-6" d="M130.16,12.11a29.41,29.41,0,0,1-8.48,14.34l-.88.53c2.35-1.91,5.35-7.89,8.4-16Z"></path></g></g><g class="cls-7"><g class="cls-5"><path class="cls-6" d="M25.87,160a32.64,32.64,0,0,0,8.44-14.36l0-1c-.53,3-4.31,8.5-10,15.11Z"></path></g><g class="cls-5"><path class="cls-6" d="M74.91,210.83a32.64,32.64,0,0,1-8.44-14.36l0-1c.53,3,4.31,8.5,10,15.11Z"></path></g></g><g class="cls-8"><g class="cls-5"><path class="cls-6" d="M165.24,179.42a32.64,32.64,0,0,0,9.68-13.56l.13-1c-.79,2.92-5,8.09-11.25,14.17Z"></path></g><g class="cls-5"><path class="cls-6" d="M200.46,192.13a32.64,32.64,0,0,1-5.54-15.71l.16-1c0,3,2.61,9.17,6.88,16.74Z"></path></g></g><rect class="cls-9" transform="translate(19.11 213.4) rotate(-65.52)" x="172.6" y="88.29" width="5.54" height="7.15" rx="2.15" ry="2.15"></rect><path class="cls-9" d="M182.52,77.88l-.6-.26c-5.38-2.48-9.24-8.21-9.24-8.21s-.82,15.79,2.47,20a2.24,2.24,0,0,0,2.16,1C182.62,90.11,194,79.12,194,79.12a27,27,0,0,1-11.38-1.2Z"></path><path class="cls-9" d="M169.53,106.4l-.59-.28c-5.4-2.43-12.26-1.58-12.26-1.58s11.37-11,16.69-11.25a2.24,2.24,0,0,1,2.16,1c3.29,4.18,2.47,20,2.47,20a27,27,0,0,0-8.37-7.79Z"></path><g class="cls-5"><path class="cls-9" d="M175.62,102.29c.47-4.54.59-4.68-.21-7.79l-.77-.3c.72,2.58.11,1.71-.08,8.66Z"></path></g><g class="cls-5"><path class="cls-9" d="m167.9 99.41c2.63-3.73 2.45-4 5.1-5.81l1 0.35c-2.24 1.47-1.21 1.21-5.63 6.58z"></path></g><g class="cls-5"><path class="cls-9" d="M175.34,81c-.47,4.54-.59,4.68.21,7.79l.77.3c-.72-2.58-.11-1.71.08-8.66Z"></path></g><g class="cls-5"><path class="cls-9" d="m183.1 83.86c-2.63 3.73-2.45 4-5.1 5.81l-1-0.35c2.24-1.47 1.21-1.21 5.63-6.58z"></path></g><g class="cls-5"><path class="cls-9" d="m171.6 92.24c2.84 1.08 4 1.52 5.58 2.92h-0.8c-1.33-1.19 0 0.07-4.25-1.89z"></path></g><rect class="cls-9" transform="translate(1.98 184.5) rotate(251.5)" x="64.59" y="87.98" width="5.54" height="7.15" rx="2.15" ry="2.15"></rect><path class="cls-9" d="M61.75,76.92l.62-.19c5.61-1.91,10-7.21,10-7.21S71.6,85.3,67.89,89.12a2.24,2.24,0,0,1-2.25.75C60.38,89.06,50.21,77,50.21,77a27,27,0,0,0,11.44,0Z"></path><path class="cls-9" d="M71.72,106.62l.61-.22c5.63-1.86,12.36-.3,12.36-.3S74.52,94,69.26,93.18a2.24,2.24,0,0,0-2.25.75c-3.71,3.82-4.53,19.61-4.53,19.61a27,27,0,0,1,9.14-6.88Z"></path><g class="cls-5"><path class="cls-9" d="M68.63,81.07c0,4.56.1,4.72-1,7.73l-.8.21c1-2.49.29-1.69.82-8.62Z"></path></g><g class="cls-5"><path class="cls-9" d="M60.65,83.13c2.23,4,2,4.22,4.47,6.3l1-.25C64,87.49,65,87.85,61.19,82.06Z"></path></g><g class="cls-5"><path class="cls-9" d="M66,101.94c0-4.56-.1-4.72,1-7.73l.8-.21c-1,2.49-.29,1.69-.82,8.62Z"></path></g><g class="cls-5"><path class="cls-9" d="M74,99.88c-2.23-4-2-4.22-4.47-6.3l-1,.25c2.07,1.7,1.07,1.33,4.92,7.13Z"></path></g><g class="cls-5"><path class="cls-9" d="M71,92.36c-2.94.78-4.09,1.11-5.85,2.33l.8,0c1.45-1,0,.08,4.42-1.44Z"></path></g></g></g></g></svg>