<svg viewBox="0 0 192 192" xmlns="http://www.w3.org/2000/svg" xmlns:xlink="http://www.w3.org/1999/xlink" width="192" height="192"><g transform="rotate(0 3.14 2.18) translate(57.491203803780664 8.193951085663315) scale(0.5993586956610013)"><defs><style>.cls-1,.cls-12,.cls-13{fill:none;}.cls-2{isolation:isolate;}.cls-3{fill:#404041;}.cls-4,.cls-6,.cls-7,.cls-8{opacity:0.21;}.cls-4{fill:url(#a);}.cls-5{fill:#58595b;}.cls-6{fill:url(#e);}.cls-7{fill:url(#d);}.cls-9{fill:url(#c);}.cls-10{opacity:0.25;mix-blend-mode:color-burn;}.cls-11{clip-path:url(#b);}.cls-12,.cls-13{stroke:#231f20;stroke-miterlimit:10;}.cls-12{stroke-width:1.59px;}.cls-13{stroke-width:1.19px;}.cls-14{fill:#6d6e70;}</style><linearGradient id="a" x1="108.9" x2="99.41" y1="274.6" y2="180.5" gradientUnits="userSpaceOnUse"><stop stop-color="#fff" offset="0"></stop><stop stop-color="#231f20" offset="1"></stop></linearGradient><linearGradient id="e" x1="70.31" x2="72.79" y1="172.4" y2="186.6" xlink:href="#a"></linearGradient><linearGradient id="d" x1="69.19" x2="69.19" y1="126.6" y2="163.1" xlink:href="#a"></linearGradient><linearGradient id="c" x1="122.5" x2="20.71" y1="7.5" y2="139.1" xlink:href="#a"></linearGradient><clipPath id="b"><path class="cls-1" d="M121.94,31.37C113.46,20.81,99.87,11,92,7.59,85.21,4.64,72.58,3.27,72.58,3.27c-5.93-1.44-23.06-8.29-36,3.6S9.88,20.56,7.72,36.78-6.33,82.9,4.48,103.43C13.18,120,6,135.12,21,145.66c-2.67,3.29-6,9.62,2.12,14.71,1.45.91,2.8,1.68,4.05,2.35h0s-12.34,8.46-3.69,16.38,9.73,7.21,17.3,11.89S69.93,205,86.51,194.23h0a73.44,73.44,0,0,1-.55,33.7c-3.13,11.71,2.3,34.76,2.3,34.76h28.11c-3.91-9.52-1.68-22.45,4-49.55,3.4-16.17-.1-25.86-3.35-31.73,3.17-2.31,6-7.41-.12-18.59h0A16.41,16.41,0,0,0,120,155c1.8-13-3.24-15.17-3.24-15.17a8.9,8.9,0,0,0-8.34.15,52.71,52.71,0,0,1,9.89-4.23c6.49-1.44,9-24.82,9-24.82s0-26,1.44-32.52S129.12,40.32,121.94,31.37ZM64.09,141.55c-27.16,0-49.17-27-49.17-60.31s22-60.31,49.17-60.31,49.17,27,49.17,60.31S91.25,141.55,64.09,141.55Z"></path></clipPath></defs><title>-</title><g class="cls-2"><g data-name="Layer 2"><path class="cls-3" d="M88.22,262.68S82.84,240.57,86,228.85c4.72-17.65.54-34.51.54-34.51l3.57-10.5,22.8-8.51s13.23,11.66,7.53,38.76-8,37.49-4.08,48.59Z"></path><path class="cls-4" d="M88.22,262.68S82.84,240.57,86,228.85c4.72-17.65.54-34.51.54-34.51l3.57-10.5,22.8-8.51s13.23,11.66,7.53,38.76-8,37.49-4.08,48.59Z"></path><path class="cls-5" d="m27.15 162.7s-12.34 8.46-3.69 16.38 9.73 7.21 17.3 11.89 29.18 14.01 45.75 3.24 24.14-7.2 27-10.45 12.22-3.58 3.41-21.07"></path><path class="cls-6" d="m27.15 162.7s-12.34 8.46-3.69 16.38 9.73 7.21 17.3 11.89 29.18 14.01 45.75 3.24 24.14-7.2 27-10.45 12.22-3.58 3.41-21.07"></path><path class="cls-3" d="M23.09,143.43s-11.53,9.73,0,16.93,16.57,6.13,19.1,10.81S56.6,186.67,66,183.06s22.7-11.53,28.1-10.81,24.14-3.6,25.94-16.57-3.24-15.49-3.24-15.49a8.64,8.64,0,0,0-8.36,0"></path><path class="cls-7" d="M23.09,143.43s-11.53,9.73,0,16.93,16.57,6.13,19.1,10.81S56.6,186.67,66,183.06s22.7-11.53,28.1-10.81,24.14-3.6,25.94-16.57-3.24-15.49-3.24-15.49a8.64,8.64,0,0,0-8.36,0"></path><path d="m121.9 31.37c-8.48-10.56-22.07-20.37-29.94-23.78-6.79-2.95-19.42-4.32-19.42-4.32-5.93-1.44-23.06-8.29-36 3.6s-26.7 13.69-28.86 29.91-14.05 46.12-3.24 66.65-2.88 38.91 31.71 49 50.44 0 50.44 0 25.22-15.13 31.71-16.57 9-24.86 9-24.86 0-26.05 1.44-32.54 0.34-38.14-6.84-47.09zm-57.85 110.2c-27.16 0-49.17-27-49.17-60.31s22-60.31 49.17-60.31 49.17 27 49.17 60.31-22.01 60.31-49.17 60.31z"></path><g class="cls-8"><path class="cls-9" d="m121.9 31.37c-8.48-10.56-22.07-20.37-29.94-23.78-6.79-2.95-19.42-4.32-19.42-4.32-5.93-1.44-23.06-8.29-36 3.6s-26.7 13.69-28.86 29.91-14.05 46.12-3.24 66.65-2.88 38.91 31.71 49 50.44 0 50.44 0 25.22-15.13 31.71-16.57 9-24.86 9-24.86 0-26.05 1.44-32.54 0.34-38.14-6.84-47.09zm-57.85 110.2c-27.16 0-49.17-27-49.17-60.31s22-60.31 49.17-60.31 49.17 27 49.17 60.31-22.01 60.31-49.17 60.31z"></path></g><g class="cls-10"><g class="cls-11"><polyline class="cls-12" points="-4.96 -10.32 6.01 -0.81 16.98 -10.32 27.96 -0.81 38.93 -10.32 49.9 -0.81 60.87 -10.32 71.84 -0.81 82.81 -10.32 93.79 -0.81 104.8 -10.32 115.7 -0.81 126.7 -10.32 137.7 -0.81"></polyline><polyline class="cls-12" points="-4.96 -5.08 6.01 4.44 16.98 -5.08 27.96 4.44 38.93 -5.08 49.9 4.44 60.87 -5.08 71.84 4.44 82.81 -5.08 93.79 4.44 104.8 -5.08 115.7 4.44 126.7 -5.08 137.7 4.44"></polyline><polyline class="cls-12" points="-4.96 0.16 6.01 9.68 16.98 0.16 27.96 9.68 38.93 0.16 49.9 9.68 60.87 0.16 71.84 9.68 82.81 0.16 93.79 9.68 104.8 0.16 115.7 9.68 126.7 0.16 137.7 9.68"></polyline><polyline class="cls-12" points="-4.96 5.4 6.01 14.92 16.98 5.4 27.96 14.92 38.93 5.4 49.9 14.92 60.87 5.4 71.84 14.92 82.81 5.4 93.79 14.92 104.8 5.4 115.7 14.92 126.7 5.4 137.7 14.92"></polyline><polyline class="cls-12" points="-4.96 10.64 6.01 20.16 16.98 10.64 27.96 20.16 38.93 10.64 49.9 20.16 60.87 10.64 71.84 20.16 82.81 10.64 93.79 20.16 104.8 10.64 115.7 20.16 126.7 10.64 137.7 20.16"></polyline><polyline class="cls-12" points="-4.96 15.89 6.01 25.4 16.98 15.89 27.96 25.4 38.93 15.89 49.9 25.4 60.87 15.89 71.84 25.4 82.81 15.89 93.79 25.4 104.8 15.89 115.7 25.4 126.7 15.89 137.7 25.4"></polyline><polyline class="cls-12" points="-4.96 21.13 6.01 30.64 16.98 21.13 27.96 30.64 38.93 21.13 49.9 30.64 60.87 21.13 71.84 30.64 82.81 21.13 93.79 30.64 104.8 21.13 115.7 30.64 126.7 21.13 137.7 30.64"></polyline><polyline class="cls-12" points="-4.96 26.37 6.01 35.88 16.98 26.37 27.96 35.88 38.93 26.37 49.9 35.88 60.87 26.37 71.84 35.88 82.81 26.37 93.79 35.88 104.8 26.37 115.7 35.88 126.7 26.37 137.7 35.88"></polyline><polyline class="cls-12" points="-4.96 31.61 6.01 41.13 16.98 31.61 27.96 41.13 38.93 31.61 49.9 41.13 60.87 31.61 71.84 41.13 82.81 31.61 93.79 41.13 104.8 31.61 115.7 41.13 126.7 31.61 137.7 41.13"></polyline><polyline class="cls-12" points="-4.96 36.85 6.01 46.37 16.98 36.85 27.96 46.37 38.93 36.85 49.9 46.37 60.87 36.85 71.84 46.37 82.81 36.85 93.79 46.37 104.8 36.85 115.7 46.37 126.7 36.85 137.7 46.37"></polyline><polyline class="cls-12" points="-4.96 42.09 6.01 51.61 16.98 42.09 27.96 51.61 38.93 42.09 49.9 51.61 60.87 42.09 71.84 51.61 82.81 42.09 93.79 51.61 104.8 42.09 115.7 51.61 126.7 42.09 137.7 51.61"></polyline><polyline class="cls-12" points="-4.96 47.33 6.01 56.85 16.98 47.33 27.96 56.85 38.93 47.33 49.9 56.85 60.87 47.33 71.84 56.85 82.81 47.33 93.79 56.85 104.8 47.33 115.7 56.85 126.7 47.33 137.7 56.85"></polyline><polyline class="cls-12" points="-4.96 52.58 6.01 62.09 16.98 52.58 27.96 62.09 38.93 52.58 49.9 62.09 60.87 52.58 71.84 62.09 82.81 52.58 93.79 62.09 104.8 52.58 115.7 62.09 126.7 52.58 137.7 62.09"></polyline><polyline class="cls-12" points="-4.96 57.82 6.01 67.33 16.98 57.82 27.96 67.33 38.93 57.82 49.9 67.33 60.87 57.82 71.84 67.33 82.81 57.82 93.79 67.33 104.8 57.82 115.7 67.33 126.7 57.82 137.7 67.33"></polyline><polyline class="cls-12" points="-4.96 63.06 6.01 72.58 16.98 63.06 27.96 72.58 38.93 63.06 49.9 72.58 60.87 63.06 71.84 72.58 82.81 63.06 93.79 72.58 104.8 63.06 115.7 72.58 126.7 63.06 137.7 72.58"></polyline><polyline class="cls-12" points="-4.96 68.3 6.01 77.82 16.98 68.3 27.96 77.82 38.93 68.3 49.9 77.82 60.87 68.3 71.84 77.82 82.81 68.3 93.79 77.82 104.8 68.3 115.7 77.82 126.7 68.3 137.7 77.82"></polyline><polyline class="cls-12" points="-4.96 73.54 6.01 83.06 16.98 73.54 27.96 83.06 38.93 73.54 49.9 83.06 60.87 73.54 71.84 83.06 82.81 73.54 93.79 83.06 104.8 73.54 115.7 83.06 126.7 73.54 137.7 83.06"></polyline><polyline class="cls-12" points="-4.96 78.78 6.01 88.3 16.98 78.78 27.96 88.3 38.93 78.78 49.9 88.3 60.87 78.78 71.84 88.3 82.81 78.78 93.79 88.3 104.8 78.78 115.7 88.3 126.7 78.78 137.7 88.3"></polyline><polyline class="cls-12" points="-4.96 84.02 6.01 93.54 16.98 84.02 27.96 93.54 38.93 84.02 49.9 93.54 60.87 84.02 71.84 93.54 82.81 84.02 93.79 93.54 104.8 84.02 115.7 93.54 126.7 84.02 137.7 93.54"></polyline><polyline class="cls-12" points="-4.96 89.27 6.01 98.78 16.98 89.27 27.96 98.78 38.93 89.27 49.9 98.78 60.87 89.27 71.84 98.78 82.81 89.27 93.79 98.78 104.8 89.27 115.7 98.78 126.7 89.27 137.7 98.78"></polyline><polyline class="cls-12" points="-4.96 94.51 6.01 104 16.98 94.51 27.96 104 38.93 94.51 49.9 104 60.87 94.51 71.84 104 82.81 94.51 93.79 104 104.8 94.51 115.7 104 126.7 94.51 137.7 104"></polyline><polyline class="cls-12" points="-4.96 99.75 6.01 109.3 16.98 99.75 27.96 109.3 38.93 99.75 49.9 109.3 60.87 99.75 71.84 109.3 82.81 99.75 93.79 109.3 104.8 99.75 115.7 109.3 126.7 99.75 137.7 109.3"></polyline><polyline class="cls-12" points="-4.96 105 6.01 114.5 16.98 105 27.96 114.5 38.93 105 49.9 114.5 60.87 105 71.84 114.5 82.81 105 93.79 114.5 104.8 105 115.7 114.5 126.7 105 137.7 114.5"></polyline><polyline class="cls-12" points="-4.96 110.2 6.01 119.8 16.98 110.2 27.96 119.8 38.93 110.2 49.9 119.8 60.87 110.2 71.84 119.8 82.81 110.2 93.79 119.8 104.8 110.2 115.7 119.8 126.7 110.2 137.7 119.8"></polyline><polyline class="cls-12" points="-4.96 115.5 6.01 125 16.98 115.5 27.96 125 38.93 115.5 49.9 125 60.87 115.5 71.84 125 82.81 115.5 93.79 125 104.8 115.5 115.7 125 126.7 115.5 137.7 125"></polyline><polyline class="cls-12" points="-4.96 120.7 6.01 130.2 16.98 120.7 27.96 130.2 38.93 120.7 49.9 130.2 60.87 120.7 71.84 130.2 82.81 120.7 93.79 130.2 104.8 120.7 115.7 130.2 126.7 120.7 137.7 130.2"></polyline><polyline class="cls-12" points="-4.96 126 6.01 135.5 16.98 126 27.96 135.5 38.93 126 49.9 135.5 60.87 126 71.84 135.5 82.81 126 93.79 135.5 104.8 126 115.7 135.5 126.7 126 137.7 135.5"></polyline><polyline class="cls-12" points="-4.96 131.2 6.01 140.7 16.98 131.2 27.96 140.7 38.93 131.2 49.9 140.7 60.87 131.2 71.84 140.7 82.81 131.2 93.79 140.7 104.8 131.2 115.7 140.7 126.7 131.2 137.7 140.7"></polyline><polyline class="cls-12" points="-4.96 136.4 6.01 146 16.98 136.4 27.96 146 38.93 136.4 49.9 146 60.87 136.4 71.84 146 82.81 136.4 93.79 146 104.8 136.4 115.7 146 126.7 136.4 137.7 146"></polyline><polyline class="cls-12" points="-4.96 141.7 6.01 151.2 16.98 141.7 27.96 151.2 38.93 141.7 49.9 151.2 60.87 141.7 71.84 151.2 82.81 141.7 93.79 151.2 104.8 141.7 115.7 151.2 126.7 141.7 137.7 151.2"></polyline><polyline class="cls-12" points="-4.96 146.9 6.01 156.4 16.98 146.9 27.96 156.4 38.93 146.9 49.9 156.4 60.87 146.9 71.84 156.4 82.81 146.9 93.79 156.4 104.8 146.9 115.7 156.4 126.7 146.9 137.7 156.4"></polyline><polyline class="cls-12" points="-4.96 152.2 6.01 161.7 16.98 152.2 27.96 161.7 38.93 152.2 49.9 161.7 60.87 152.2 71.84 161.7 82.81 152.2 93.79 161.7 104.8 152.2 115.7 161.7 126.7 152.2 137.7 161.7"></polyline><polyline class="cls-12" points="-4.96 157.4 6.01 166.9 16.98 157.4 27.96 166.9 38.93 157.4 49.9 166.9 60.87 157.4 71.84 166.9 82.81 157.4 93.79 166.9 104.8 157.4 115.7 166.9 126.7 157.4 137.7 166.9"></polyline><polyline class="cls-12" points="-4.96 162.6 6.01 172.2 16.98 162.6 27.96 172.2 38.93 162.6 49.9 172.2 60.87 162.6 71.84 172.2 82.81 162.6 93.79 172.2 104.8 162.6 115.7 172.2 126.7 162.6 137.7 172.2"></polyline><polyline class="cls-12" points="-4.96 167.9 6.01 177.4 16.98 167.9 27.96 177.4 38.93 167.9 49.9 177.4 60.87 167.9 71.84 177.4 82.81 167.9 93.79 177.4 104.8 167.9 115.7 177.4 126.7 167.9 137.7 177.4"></polyline><polyline class="cls-12" points="-4.96 173.1 6.01 182.6 16.98 173.1 27.96 182.6 38.93 173.1 49.9 182.6 60.87 173.1 71.84 182.6 82.81 173.1 93.79 182.6 104.8 173.1 115.7 182.6 126.7 173.1 137.7 182.6"></polyline><polyline class="cls-12" points="-4.96 178.8 6.01 188.4 16.98 178.8 27.96 188.4 38.93 178.8 49.9 188.4 60.87 178.8 71.84 188.4 82.81 178.8 93.79 188.4 104.8 178.8 115.7 188.4 126.7 178.8 137.7 188.4"></polyline><polyline class="cls-12" points="-4.96 184.5 6.01 194 16.98 184.5 27.96 194 38.93 184.5 49.9 194 60.87 184.5 71.84 194 82.81 184.5 93.79 194 104.8 184.5 115.7 194 126.7 184.5 137.7 194"></polyline><polyline class="cls-12" points="-4.96 190.2 6.01 199.8 16.98 190.2 27.96 199.8 38.93 190.2 49.9 199.8 60.87 190.2 71.84 199.8 82.81 190.2 93.79 199.8 104.8 190.2 115.7 199.8 126.7 190.2 137.7 199.8"></polyline><polyline class="cls-12" points="-4.96 195.9 6.01 205.4 16.98 195.9 27.96 205.4 38.93 195.9 49.9 205.4 60.87 195.9 71.84 205.4 82.81 195.9 93.79 205.4 104.8 195.9 115.7 205.4 126.7 195.9 137.7 205.4"></polyline><polyline class="cls-12" points="-4.96 201.6 6.01 211.2 16.98 201.6 27.96 211.2 38.93 201.6 49.9 211.2 60.87 201.6 71.84 211.2 82.81 201.6 93.79 211.2 104.8 201.6 115.7 211.2 126.7 201.6 137.7 211.2"></polyline><polyline class="cls-12" points="-4.96 207.3 6.01 216.8 16.98 207.3 27.96 216.8 38.93 207.3 49.9 216.8 60.87 207.3 71.84 216.8 82.81 207.3 93.79 216.8 104.8 207.3 115.7 216.8 126.7 207.3 137.7 216.8"></polyline><polyline class="cls-12" points="-4.96 213 6.01 222.6 16.98 213 27.96 222.6 38.93 213 49.9 222.6 60.87 213 71.84 222.6 82.81 213 93.79 222.6 104.8 213 115.7 222.6 126.7 213 137.7 222.6"></polyline><polyline class="cls-12" points="-4.96 218.7 6.01 228.2 16.98 218.7 27.96 228.2 38.93 218.7 49.9 228.2 60.87 218.7 71.84 228.2 82.81 218.7 93.79 228.2 104.8 218.7 115.7 228.2 126.7 218.7 137.7 228.2"></polyline><polyline class="cls-12" points="-4.96 224.4 6.01 234 16.98 224.4 27.96 234 38.93 224.4 49.9 234 60.87 224.4 71.84 234 82.81 224.4 93.79 234 104.8 224.4 115.7 234 126.7 224.4 137.7 234"></polyline><polyline class="cls-12" points="-4.96 230.1 6.01 239.7 16.98 230.1 27.96 239.7 38.93 230.1 49.9 239.7 60.87 230.1 71.84 239.7 82.81 230.1 93.79 239.7 104.8 230.1 115.7 239.7 126.7 230.1 137.7 239.7"></polyline><polyline class="cls-12" points="-4.96 235.8 6.01 245.4 16.98 235.8 27.96 245.4 38.93 235.8 49.9 245.4 60.87 235.8 71.84 245.4 82.81 235.8 93.79 245.4 104.8 235.8 115.7 245.4 126.7 235.8 137.7 245.4"></polyline><polyline class="cls-12" points="-4.96 241.5 6.01 251.1 16.98 241.5 27.96 251.1 38.93 241.5 49.9 251.1 60.87 241.5 71.84 251.1 82.81 241.5 93.79 251.1 104.8 241.5 115.7 251.1 126.7 241.5 137.7 251.1"></polyline><polyline class="cls-12" points="-4.96 247.2 6.01 256.8 16.98 247.2 27.96 256.8 38.93 247.2 49.9 256.8 60.87 247.2 71.84 256.8 82.81 247.2 93.79 256.8 104.8 247.2 115.7 256.8 126.7 247.2 137.7 256.8"></polyline><polyline class="cls-12" points="-4.96 253 6.01 262.5 16.98 253 27.96 262.5 38.93 253 49.9 262.5 60.87 253 71.84 262.5 82.81 253 93.79 262.5 104.8 253 115.7 262.5 126.7 253 137.7 262.5"></polyline><polyline class="cls-12" points="-4.96 258.6 6.01 268.2 16.98 258.6 27.96 268.2 38.93 258.6 49.9 268.2 60.87 258.6 71.84 268.2 82.81 258.6 93.79 268.2 104.8 258.6 115.7 268.2 126.7 258.6 137.7 268.2"></polyline><polyline class="cls-12" points="-4.96 264.4 6.01 273.9 16.98 264.4 27.96 273.9 38.93 264.4 49.9 273.9 60.87 264.4 71.84 273.9 82.81 264.4 93.79 273.9 104.8 264.4 115.7 273.9 126.7 264.4 137.7 273.9"></polyline><polyline class="cls-12" points="-4.96 270 6.01 279.6 16.98 270 27.96 279.6 38.93 270 49.9 279.6 60.87 270 71.84 279.6 82.81 270 93.79 279.6 104.8 270 115.7 279.6 126.7 270 137.7 279.6"></polyline></g></g><path class="cls-13" d="m88.28 292.8c0-7.72 3.73-7.72 3.73-15.44s-3.73-7.72-3.73-15.44"></path><path class="cls-13" d="m99.24 292.8c0-7.72 3.73-7.72 3.73-15.44s-3.73-7.72-3.73-15.44"></path><path class="cls-13" d="m91.08 292.8c0-7.72 7.45-7.72 7.45-15.44s-7.45-7.72-7.45-15.44"></path><path class="cls-13" d="m109.8 261.9c0 7.72-7.45 7.72-7.45 15.45s7.45 7.72 7.45 15.45"></path><path class="cls-13" d="m115.7 261.9c0 7.72-7.45 7.72-7.45 15.45s7.45 7.72 7.45 15.45"></path><path class="cls-14" d="M83.64,25.89a41,41,0,0,0-39.08,0,47.17,47.17,0,0,0-7.83,5.24,52.31,52.31,0,0,0-5.48,5.24A56.79,56.79,0,0,0,27,41.61a60.58,60.58,0,0,0-3.34,5.24Q22.27,49.38,21,52.09q-1.15,2.55-2.1,5.24t-1.61,5.24q-.68,2.57-1.17,5.24t-.77,5.24c-.19,1.73-.33,3.47-.4,5.24,0,1-.06,2-.06,2.94,0,.77,0,1.54,0,2.3q.08,2.65.35,5.24T16,94c.31,1.78.68,3.53,1.12,5.24s1,3.53,1.56,5.24,1.29,3.54,2,5.24,1.65,3.55,2.58,5.24a60.94,60.94,0,0,0,3.26,5.24c.39.56.77,1.11,1.17,1.65C.53,3.82,92,31.59,92,31.59h0l-.54-.46A47.17,47.17,0,0,0,83.64,25.89Z"></path></g></g></g></svg>