<svg viewBox="0 0 192 192" xmlns="http://www.w3.org/2000/svg" width="192" height="192">















<g transform="rotate(0 3.14 2.18) translate(57.00381556455821 8.27715463189189) scale(0.5942275723495892)"><defs>
<style>.cls-1,.cls-2{fill:none;stroke:#231f20;stroke-miterlimit:10;}.cls-2,.cls-3{opacity:0.21;}</style>
</defs><title>31</title><path class="cls-1" d="M118.08,181.95c3.29,5.92,6.8,16.68,3.34,33.11-5.7,27.1-8,37.49-4.08,48.59H89.23S83.85,241.53,87,229.82c4.72-17.65.54-34.51.54-34.51"></path><path class="cls-1" d="m28.16 163.7s-12.34 8.46-3.69 16.38 9.73 7.21 17.3 11.89 29.18 14.04 45.75 3.24 24.14-7.2 27-10.45 12.22-3.58 3.41-21.07"></path><path class="cls-2" d="m28.16 163.7s-12.34 8.46-3.69 16.38 9.73 7.21 17.3 11.89 29.18 14.04 45.75 3.24 24.14-7.2 27-10.45 12.22-3.58 3.41-21.07"></path><path class="cls-1" d="M22,146.64c-2.67,3.3-6,9.62,2.13,14.7,11.53,7.21,16.57,6.13,19.1,10.81S57.62,187.64,67,184s22.7-11.53,28.1-10.81,24.14-3.6,25.94-16.57-3.24-15.49-3.24-15.49a8.64,8.64,0,0,0-8.36,0"></path><path class="cls-2" d="M22,146.64c-2.67,3.3-6,9.62,2.13,14.7,11.53,7.21,16.57,6.13,19.1,10.81S57.62,187.64,67,184s22.7-11.53,28.1-10.81,24.14-3.6,25.94-16.57-3.24-15.49-3.24-15.49a8.64,8.64,0,0,0-8.36,0"></path><path class="cls-1" d="M123,32.34C114.48,21.78,100.89,12,93,8.56,86.23,5.61,73.59,4.24,73.59,4.24c-5.93-1.44-23.06-8.29-36,3.6S10.89,21.53,8.73,37.75-5.32,83.87,5.49,104.4s-2.88,38.91,31.71,49,50.44,0,50.44,0,25.22-15.13,31.71-16.57,9-24.86,9-24.86,0-26.05,1.44-32.54S130.14,41.29,123,32.34ZM65.11,142.52c-27.16,0-49.17-27-49.17-60.31S38,21.89,65.11,21.89s49.17,27,49.17,60.31S92.26,142.52,65.11,142.52Z"></path><g class="cls-3">
<path class="cls-1" d="M123,32.34C114.48,21.78,100.89,12,93,8.56,86.23,5.61,73.59,4.24,73.59,4.24c-5.93-1.44-23.06-8.29-36,3.6S10.89,21.53,8.73,37.75-5.32,83.87,5.49,104.4s-2.88,38.91,31.71,49,50.44,0,50.44,0,25.22-15.13,31.71-16.57,9-24.86,9-24.86,0-26.05,1.44-32.54S130.14,41.29,123,32.34ZM65.11,142.52c-27.16,0-49.17-27-49.17-60.31S38,21.89,65.11,21.89s49.17,27,49.17,60.31S92.26,142.52,65.11,142.52Z"></path>
</g><path class="cls-1" d="m89.29 294.8c0-7.72 3.73-7.72 3.73-15.44s-3.73-7.72-3.73-15.44"></path><path class="cls-1" d="m100.2 294.8c0-7.72 3.73-7.72 3.73-15.44s-3.73-7.72-3.73-15.44"></path><path class="cls-1" d="m92.09 294.8c0-7.72 7.45-7.72 7.45-15.44s-7.45-7.72-7.45-15.44"></path><path class="cls-1" d="m113.6 263.9c0 7.72-7.45 7.72-7.45 15.45s7.45 7.72 7.45 15.45"></path><path class="cls-1" d="m117.7 263.9c0 7.72-7.45 7.72-7.45 15.45s7.45 7.72 7.45 15.45"></path><path class="cls-1" d="M84.65,26.85a41,41,0,0,0-39.08,0,47.17,47.17,0,0,0-7.83,5.24,52.31,52.31,0,0,0-5.48,5.24,56.79,56.79,0,0,0-4.2,5.24,60.58,60.58,0,0,0-3.34,5.24q-1.43,2.53-2.66,5.24Q20.91,55.61,20,58.3t-1.61,5.24q-.68,2.57-1.17,5.24T16.4,74c-.19,1.73-.33,3.47-.4,5.24,0,1-.06,2-.06,2.94,0,.77,0,1.54,0,2.3q.08,2.65.35,5.24T17.06,95c.31,1.78.68,3.53,1.12,5.24s1,3.53,1.56,5.24,1.29,3.54,2,5.24,1.65,3.55,2.58,5.24a60.94,60.94,0,0,0,3.26,5.24c.39.56.77,1.11,1.17,1.65C1.55,4.79,93,32.56,93,32.56h0l-.54-.46A47.17,47.17,0,0,0,84.65,26.85Z"></path></g></svg>