<svg viewBox="0 0 192 192" xmlns="http://www.w3.org/2000/svg" width="192" height="192">
















<g transform="rotate(0 3.14 2.18) translate(36.24965785332217 21.552226424959287) scale(0.7684931465810654)"><defs>
<style>.cls-1{fill:none;stroke:#231f20;stroke-miterlimit:10;}</style>
</defs><title>34</title><path class="cls-1" d="m136.6 159.8c-8.43-1.15-18.78-10.26-20.31-16.39a55.33 55.33 0 0 0 4 -20.39"></path><path class="cls-1" d="M117.84,89.87c0,1.49,0,2,.08,3.48q.17,6.62.62,13.24c.39,5.48.94,10.95,1.74,16.38a122.42,122.42,0,0,0,3.47,16.47,50.6,50.6,0,0,0,5.8,13.51c2.12,3.25,5,6.24,8.74,7.49a12.63,12.63,0,0,0,4,.63c1.34,0,3.31-.4,4.13-1.74,1.51-2.45-.39-5.4-2.1-7.09-.94-.93-1.89-1.84-2.77-2.82a38.29,38.29,0,0,1-7-11.7c-2.92-7.48-3.62-15.61-3.82-23.59"></path><path class="cls-1" d="M146.77,156.42a2.9,2.9,0,0,1,1.86,2,2.62,2.62,0,0,1-2.11,3.07,2.42,2.42,0,0,1-2.63-1"></path><path class="cls-1" d="m148.1 160.8c1.84 1.23 5.58 1.59 5.66 3.64 0.1 2.69-6.37 2.92-6.27 5.61s6.56 2.46 6.65 5.16-6.37 2.92-6.27 5.62 6.56 2.47 6.65 5.16-6.37 2.93-6.27 5.62"></path><path class="cls-1" d="m147.2 161.1c0.1 2.69 6.9 2.87 7 5.56s-6.37 2.92-6.27 5.61 6.56 2.46 6.65 5.16-6.37 2.92-6.27 5.62 6.56 2.47 6.65 5.16-6.37 2.93-6.27 5.62"></path><path class="cls-1" d="m58 16a19.84 19.84 0 0 1 39 1.65"></path><path class="cls-1" d="M22.92,70.66c.43-8.62,8.81-41.58,20-49.2s20.55-5.46,24.43-4a23.5,23.5,0,0,1,11.35-2.73c6.47.14,12.22,3.88,12.22,3.88a38.39,38.39,0,0,1,11.21-.72c6.9.43,26.44,10.25,30.75,55.66"></path><path class="cls-1" d="M23,70S39.42,35.67,76.35,36.68s51.16,25.44,56.19,36.5c0,0-1.72,39.66-1.87,41,0,0-14.8-47-51.88-45.7s-45.27,18.39-56,41.82C22.75,110.26,22,71.17,23,70Z"></path><path class="cls-1" d="M15.55,160.31C24,159.16,35.44,149.6,37,143.47a55.33,55.33,0,0,1-4-20.39"></path><path class="cls-1" d="M35.47,87c-.29.36,0,1.49,0,1.94q0,2.24-.08,4.48-.17,6.62-.62,13.24c-.39,5.48-.94,10.95-1.74,16.38a122.42,122.42,0,0,1-3.47,16.47,50.6,50.6,0,0,1-5.8,13.51c-2.12,3.25-5,6.24-8.74,7.49a12.63,12.63,0,0,1-4,.63c-1.34,0-3.31-.4-4.13-1.74C5.36,157,7.26,154,9,152.36c.94-.93,1.89-1.84,2.77-2.82a38.29,38.29,0,0,0,7-11.7c2.92-7.48,4-15.6,4.16-23.58q0-1.19,0-2.38a9,9,0,0,1,0-2.3"></path><path class="cls-1" d="M6.51,156.54a2.91,2.91,0,0,0-1.86,2,2.62,2.62,0,0,0,2.11,3.07,2.42,2.42,0,0,0,2.63-1"></path><path class="cls-1" d="m7.56 161.4c0.1 2.69-6.37 2.92-6.27 5.62s6.56 2.46 6.65 5.16-6.37 2.92-6.27 5.61 6.56 2.46 6.65 5.16-6.32 2.92-6.26 5.62 6.56 2.47 6.65 5.16"></path><path class="cls-1" d="M5.34,161.23c-1.88,1-4.62,1.74-4.56,3.5.1,2.69,6.56,2.46,6.65,5.16s-6.37,2.92-6.27,5.61,6.56,2.46,6.65,5.16-6.37,2.93-6.27,5.62,6.56,2.47,6.65,5.16"></path><path class="cls-1" d="m7.56 161.4c0.1 2.69-6.37 2.92-6.27 5.62s6.56 2.46 6.65 5.16-6.37 2.92-6.27 5.61 6.56 2.46 6.65 5.16-6.32 2.92-6.26 5.62 6.56 2.47 6.65 5.16"></path></g></svg>