<svg viewBox="0 0 192 192" xmlns="http://www.w3.org/2000/svg" width="192" height="192">













<g transform="rotate(0 3.14 2.18) translate(37.01032086293696 19.397860425286225) scale(0.9650663253507247)"><defs>
<style>.cls-1,.cls-3{fill:none;stroke:#231f20;}.cls-1{stroke-miterlimit:10;}.cls-2{fill:#231f20;}.cls-3{stroke-linejoin:bevel;}</style>
</defs><title>36</title><path class="cls-1" d="m34.83 85.52c-1.58 7.46 27.5 9 27.5 9"></path><path class="cls-1" d="M111.45,89.39s-8.93-2.36-30-3.75a172.8,172.8,0,0,1-35.26-5.79"></path><path class="cls-2" d="M85.32,64.2l.21,5.58c-1.88.86-9.12,3.72-26.67,6.24H58.8c-.06,0-6,1.24-12.34,3.17-2.61.8-8,2.64-11.12,5l.06-9.06a23.88,23.88,0,0,1,6.54-3.29c4.75-1.73,13.51-4,28.32-5.11,4.55-.49,11.69-1.4,15.05-2.57m.94-1.56c-1.31,1.54-16.1,3.13-16.1,3.13-29.27,2.16-35.75,8.93-35.75,8.93l-.08,12.06c1.28-2.41,7-5,12.43-6.61C53.09,78.23,59,77,59,77c21.41-3.08,27.55-6.62,27.55-6.62l-.29-7.75Z"></path><path class="cls-3" d="M86.27,63.14s-28-2-27.52-10.42c0,0-3.65,5.9,4.36,9.19S73.34,66,73.34,66"></path><path class="cls-1" d="m56.25 15.55v-11a4.18 4.18 0 0 1 4.17 -4.16 4.18 4.18 0 0 1 4.17 4.17v11"></path><path class="cls-1" d="m111.9 113l-0.08-23.65s-35.27 3.82-51.13 5.2-25.23 1.22-45.59 5.81v16.54"></path><path class="cls-2" d="M76,111.31a282.81,282.81,0,0,1,35.4,2.23h.08l.16,0a10.41,10.41,0,0,1,7,4,7.26,7.26,0,0,1,1.36,5.53l-1.64,9.69-2.13,12.62a8.67,8.67,0,0,1-8.66,7,9.13,9.13,0,0,1-1.14-.07A242.44,242.44,0,0,0,20.16,157a9.09,9.09,0,0,1-2.08.24,8.71,8.71,0,0,1-8.41-6.13L3.51,129.33a7.27,7.27,0,0,1,.81-5.73A10.44,10.44,0,0,1,11,118.88c1.27-.3,2.55-.58,3.83-.86l.49-.11A283,283,0,0,1,76,111.31m0-1a283.46,283.46,0,0,0-60.93,6.63c-1.44.32-2.89.63-4.33,1-6,1.42-9.65,6.78-8.21,11.71L8.7,151.4a9.68,9.68,0,0,0,9.37,6.85,10.07,10.07,0,0,0,2.31-.27,241.44,241.44,0,0,1,85.91-4.57,10.1,10.1,0,0,0,1.26.08,9.71,9.71,0,0,0,9.64-7.86L121,123.31c.88-5-3.2-9.84-9.17-10.72l-.26,0A282.81,282.81,0,0,0,76,110.31Z"></path><path class="cls-2" d="M76,15.91c2,0,4.25.76,4.25,2.91V39.23c0,1.2-1.41,2.55-2.79,3.35L59.23,52.67,42.6,42.59c-1-.57-1.06-1.65-1.06-3.36V18.82c0-1.93,1.21-2.91,3.6-2.91H76m0-1H45.14c-2.7,0-4.6,1.21-4.6,3.91V39.23c0,1.74,0,3.35,1.55,4.22L59.21,53.82,78,43.45c1.51-.87,3.3-2.48,3.3-4.22V18.82c0-2.7-2.55-3.91-5.25-3.91Z"></path><path class="cls-2" d="M26,133a3.61,3.61,0,1,1-3.61,3.61A3.61,3.61,0,0,1,26,133m0-1a4.61,4.61,0,1,0,4.61,4.61A4.61,4.61,0,0,0,26,132Z"></path><path class="cls-2" d="M64.55,127.37A3.61,3.61,0,1,1,60.94,131a3.61,3.61,0,0,1,3.61-3.61m0-1A4.61,4.61,0,1,0,69.16,131a4.61,4.61,0,0,0-4.61-4.61Z"></path><path class="cls-2" d="M100.64,130A3.61,3.61,0,1,1,97,133.58a3.61,3.61,0,0,1,3.61-3.61m0-1a4.61,4.61,0,1,0,4.61,4.61,4.61,4.61,0,0,0-4.61-4.61Z"></path></g></svg>