<svg viewBox="0 0 192 192" xmlns="http://www.w3.org/2000/svg" width="192" height="192"><g transform="rotate(0 3.14 2.18) translate(37.24881285659949 18.506102847661907) scale(0.9611646158429531)"><defs><style>.cls-1{fill:#222260;}.cls-2{fill:#090910;}.cls-3{fill:#c09c71;}.cls-4{fill:#fff;stroke:#bcbec0;stroke-miterlimit:10;stroke-width:2px;}.cls-5{fill:#ead6b5;}.cls-6{fill:#d5ba93;}.cls-7{fill:#c1b030;}</style></defs><title>-</title><path class="cls-1" d="M15.09,100v17.25s9.2,2.62,50.33,0c46.48-3,46.39-4,46.39-4V88.88s-35.27,3.85-51.13,5.24S35.45,95.35,15.09,100Z"></path><path class="cls-2" d="M81.42,85.64c-19.61-1.29-32.83-5-34.6-5.48C41.4,81.81,36,84,34.75,86.41c-.46,6,27.26,7.7,27.26,7.7l51.14-5.24S102.52,87,81.42,85.64Z"></path><path class="cls-1" d="M70.16,65.77c-29.27,2.16-35.75,8.93-35.75,8.93l.21,11.71c1.28-2.41,6.71-4.6,12.13-6.25C53.09,78.23,59,77,59,77c21.41-3.08,27.55-6.62,27.55-6.62l-.29-7.75C85,64.18,70.16,65.77,70.16,65.77Z"></path><path class="cls-2" d="m58.75 52.22s-3.65 5.9 4.36 9.19 10.23 4.05 10.23 4.05 13.08-0.82 12.93-2.82c0 0-27.98-2-27.52-10.42z"></path><path class="cls-3" d="m56.25 19.55v-14a4.18 4.18 0 0 1 4.17 -4.17 4.18 4.18 0 0 1 4.17 4.17v14"></path><path class="cls-4" d="M106.3,153.38A239.69,239.69,0,0,0,20.38,158,9.76,9.76,0,0,1,8.7,151.35L2.55,129.4c-1.43-5,2.22-10.37,8.21-11.79a281.2,281.2,0,0,1,100.79-5.4c6.11.78,10.32,5.76,9.43,10.85l-3.77,22.48A9.76,9.76,0,0,1,106.3,153.38Z"></path><path class="cls-5" d="M45.14,16.91c-2.7,0-4.6,1.21-4.6,3.91V41.23c0,1.74,0,3.35,1.55,4.22L59.21,55.82V16.91Z"></path><path class="cls-6" d="M76,16.91H59.21V55.82L78,45.45c1.51-.87,3.3-2.48,3.3-4.22V20.82C81.27,18.13,78.72,16.91,76,16.91Z"></path><circle class="cls-7" cx="25.97" cy="136.6" r="4.61"></circle><circle class="cls-7" cx="64.55" cy="131" r="4.61"></circle><circle class="cls-7" cx="100.6" cy="133.6" r="4.61"></circle></g></svg>