<svg viewBox="0 0 192 192" xmlns="http://www.w3.org/2000/svg" width="192" height="192"><g transform="rotate(0 3.14 2.18) translate(18.617481588199695 37.23487963490125) scale(1.0131917304327371)"><defs><style>.cls-1{fill:#3e6788;}.cls-2{fill:#223343;}.cls-3{fill:#fff;}.cls-4{fill:none;stroke:#fff;stroke-linecap:round;stroke-linejoin:round;stroke-width:2.18px;}.cls-5{fill:#5a839f;}.cls-6{opacity:0.75;}.cls-7{fill:#f9ec31;}</style></defs><title>-</title><ellipse class="cls-1" cx="76.5" cy="32.09" rx="75.33" ry="30.41"></ellipse><path class="cls-2" d="M24.53,46.67l0,19.28C29.37,68.71,50.43,80.5,76,80.5s47.14-11.75,52-13.43h.51l-.94-19.95"></path><circle class="cls-3" cx="76.5" cy="27.47" r="7.26"></circle><line class="cls-4" x1="47.3" x2="76.5" y1="22.98" y2="22.98"></line><line class="cls-4" x1="54.6" x2="76.5" y1="27.68" y2="27.68"></line><line class="cls-4" x1="61.66" x2="76.5" y1="32.39" y2="32.39"></line><line class="cls-4" x1="105.4" x2="76.21" y1="22.98" y2="22.98"></line><line class="cls-4" x1="98.11" x2="76.21" y1="27.68" y2="27.68"></line><line class="cls-4" x1="91.05" x2="76.21" y1="32.39" y2="32.39"></line><path class="cls-5" d="m151.8 32.09c0-16.79-33.72-30.41-75.33-30.41-21.91 0-41.63 3.78-55.39 9.81a233.9 233.9 0 0 1 26.19 -1.49c50.61 0 92.16 15.64 96.63 35.6 5.07-4.04 7.9-8.6 7.9-13.51z"></path><path class="cls-6" d="M105,83.86H48s-12.64.68-12.3,14.72,10.9,15.24,10.9,15.24,24.31,3.62,25.31-26.6h9.16c1,30.22,25.31,26.6,25.31,26.6s10.56-1.23,10.9-15.27S105,83.86,105,83.86Z"></path><path class="cls-3" d="M101.63,88.81s11,0,10.68,12.24c-.11,4.46-1.41,7.4-3,9.35,2.2-1.82,4.33-5,4.46-10.8.29-12.19-10.68-12.24-10.68-12.24"></path><rect class="cls-7" x="24.53" y="46.67" width="103.1" height="4.73"></rect></g></svg>