<svg viewBox="0 0 192 192" xmlns="http://www.w3.org/2000/svg" width="192" height="192">













<g transform="rotate(0 3.14 2.18) translate(19.18491620209454 37.665795610101256) scale(1.0057621446534266)"><defs>
<style>.cls-1{fill:none;stroke:#231f20;stroke-miterlimit:10;}</style>
</defs><title>37</title><path class="cls-1" d="m24.48 54.09c-14.36-5.54-23.31-13.34-23.31-22 0-16.79 33.73-30.4 75.33-30.4s75.33 13.61 75.33 30.41c0 8.77-9.2 16.67-23.91 22.22"></path><path class="cls-1" d="M24.53,46.67l0,19.28C29.37,68.71,50.43,80.5,76,80.5s47.14-11.75,52-13.43l-.43-19.95"></path><circle class="cls-1" cx="76.49" cy="27.46" r="7.27"></circle><line class="cls-1" x1="82.08" x2="105.5" y1="22.93" y2="22.93"></line><line class="cls-1" x1="84.04" x2="98.29" y1="27.68" y2="27.68"></line><line class="cls-1" x1="81.96" x2="91.52" y1="32.35" y2="32.35"></line><line class="cls-1" x1="70.85" x2="47.47" y1="22.93" y2="22.93"></line><line class="cls-1" x1="68.89" x2="54.64" y1="27.68" y2="27.68"></line><line class="cls-1" x1="70.97" x2="61.41" y1="32.35" y2="32.35"></line><path class="cls-1" d="M105,83.86H48s-12.64.68-12.3,14.72,10.9,15.24,10.9,15.24,24.31,3.62,25.31-26.6h9.16c1,30.22,25.31,26.6,25.31,26.6s10.56-1.23,10.9-15.27S105,83.86,105,83.86Z"></path><rect class="cls-1" x="24.53" y="46.67" width="103.1" height="4.73"></rect></g></svg>