<svg viewBox="0 0 192 192" xmlns="http://www.w3.org/2000/svg" width="192" height="192"><g transform="rotate(0 3.14 2.18) translate(31.145079485026343 26.175353775066668) scale(0.9939451419919335)"><defs><style>.cls-1,.cls-34{fill:none;}.cls-2{fill:#929497;}.cls-3{isolation:isolate;}.cls-4{clip-path:url(#e);}.cls-5{fill:#2a2a2a;}.cls-6{fill:#2c2c2c;}.cls-7{fill:#2d2d2d;}.cls-8{fill:#2f2f2f;}.cls-9{fill:#313131;}.cls-10{fill:#323232;}.cls-11{fill:#343434;}.cls-12{fill:#353535;}.cls-13{fill:#373737;}.cls-14{fill:#393939;}.cls-15{fill:#3a3a3a;}.cls-16{clip-path:url(#d);}.cls-17{fill:#3e3e3e;}.cls-18{fill:#3f3f3f;}.cls-19{fill:#1e1e1e;}.cls-20{clip-path:url(#c);}.cls-21{fill:#3c3c3c;}.cls-22{fill:#414141;}.cls-23{fill:#424242;}.cls-24{fill:#444;}.cls-25{fill:#464646;}.cls-26{fill:#474747;}.cls-27{fill:#494949;}.cls-28{fill:#4b4b4b;}.cls-29{clip-path:url(#b);}.cls-30{fill:#fff;}.cls-31{clip-path:url(#a);}.cls-32{fill:#404041;}.cls-33{fill:#e4b14a;}.cls-34{stroke:#e4b14a;stroke-miterlimit:10;stroke-width:0.73px;}</style><clipPath id="e"><path class="cls-1" d="M22.13,4.52,26,1.6A3.52,3.52,0,0,1,28.85,1l-3.9,2.92A3.52,3.52,0,0,0,22.13,4.52Z"></path></clipPath><clipPath id="d"><path class="cls-1" d="m91.8 48.19l-3.9 2.92a3.61 3.61 0 0 0 1.38 -3l3.9-2.92a3.61 3.61 0 0 1 -1.38 3z"></path></clipPath><clipPath id="c"><path class="cls-1" d="M85,15.6l3.9-2.92a5.51,5.51,0,0,1,4.23,5.2l-3.9,2.92A5.51,5.51,0,0,0,85,15.6Z"></path></clipPath><clipPath id="b"><polygon class="cls-1" points="27.1 8.88 32 11.31 30.6 16.48 25.7 14.06"></polygon></clipPath><clipPath id="a"><polygon class="cls-1" points="46.6 45.6 46.5 6.61 61.64 9.55 61.74 48.54"></polygon></clipPath></defs><title>-</title><path class="cls-2" d="M130.85,140h0a2.55,2.55,0,0,1-3.48.93L53.09,47.21a2.55,2.55,0,0,1-.93-3.48h0a2.55,2.55,0,0,1,3.48-.93l74.27,93.76A2.55,2.55,0,0,1,130.85,140Z"></path><g class="cls-3"><g class="cls-3"><g class="cls-4"><g class="cls-3"><path class="cls-5" d="M22.13,4.52,26,1.6a3.25,3.25,0,0,1,.63-.37l-3.9,2.92a3.25,3.25,0,0,0-.63.37"></path><path class="cls-6" d="M22.76,4.15l3.9-2.92L27,1.1,23.1,4l-.35.13"></path><path class="cls-7" d="M23.1,4,27,1.1,27.29,1l-3.9,2.92L23.1,4"></path><path class="cls-8" d="m23.39 3.94 3.9-2.94h0.26l-3.9 2.9h-0.26"></path><path class="cls-9" d="m23.65 3.9 3.9-2.9h0.23l-3.9 2.92h-0.23"></path><path class="cls-10" d="M23.88,3.87,27.78,1H28L24.1,3.86h-.22"></path><path class="cls-11" d="M24.1,3.86,28,.94h.22l-3.9,2.92H24.1"></path><path class="cls-12" d="M24.32,3.86,28.22.94h.21l-3.9,2.92h-.21"></path><path class="cls-13" d="m24.52 3.87 3.9-2.87h0.21l-3.9 2.9h-0.21"></path><path class="cls-14" d="m24.73 3.9 3.9-2.9h0.21l-3.9 2.92h-0.21"></path><path class="cls-15" d="m24.93 3.93 3.91-2.93l-3.9 2.92"></path></g></g></g><g class="cls-3"><g class="cls-16"><g class="cls-3"><path class="cls-15" d="M89.28,48.14l3.9-2.92q0,.08,0,.15l-3.9,2.92s0-.1,0-.15"></path><path class="cls-14" d="M89.28,48.29l3.9-2.92q0,.11,0,.21l-3.9,2.92q0-.1,0-.21"></path><path class="cls-13" d="M89.27,48.5l3.9-2.92q0,.11,0,.21l-3.9,2.92q0-.1,0-.21"></path><path class="cls-12" d="M89.24,48.71l3.9-2.92q0,.11,0,.21l-3.9,2.92q0-.1,0-.21"></path><path class="cls-11" d="m89.21 48.92 3.9-2.92v0.21l-3.9 2.92v-0.21"></path><path class="cls-10" d="M89.17,49.13l3.9-2.92-.06.22-3.9,2.92.06-.22"></path><path class="cls-9" d="M89.11,49.35,93,46.43l-.08.23L89,49.57l.08-.23"></path><path class="cls-8" d="M89,49.57l3.9-2.92-.1.24-3.9,2.92.1-.24"></path><path class="cls-7" d="M88.93,49.81l3.9-2.92-.13.27-3.9,2.92.13-.27"></path><path class="cls-6" d="M88.8,50.08l3.9-2.92a3.42,3.42,0,0,1-.21.32l-3.9,2.92a3.42,3.42,0,0,0,.21-.32"></path><path class="cls-5" d="M88.59,50.4l3.9-2.92a3.28,3.28,0,0,1-.7.71l-3.9,2.92a3.28,3.28,0,0,0,.7-.71"></path></g></g></g><polygon class="cls-17" points="24.95 3.94 28.85 1.01 88.88 12.68 84.98 15.6"></polygon><polygon class="cls-18" points="89.21 20.8 93.11 17.88 93.18 45.22 89.28 48.14"></polygon><path class="cls-19" d="M85,15.6a5.51,5.51,0,0,1,4.23,5.2l.07,27.34a3.44,3.44,0,0,1-4.2,3.56L25,40a5.51,5.51,0,0,1-4.23-5.2L20.74,7.49a3.44,3.44,0,0,1,4.2-3.56Z"></path><g class="cls-3"><g class="cls-20"><g class="cls-3"><path class="cls-15" d="M85,15.6l3.9-2.92.19,0-3.9,2.92-.19,0"></path><path class="cls-21" d="M85.17,15.65l3.9-2.92.2.05-3.9,2.92-.2-.05"></path><path class="cls-17" d="M85.37,15.7l3.9-2.92.2.07-3.9,2.92-.2-.07"></path><path class="cls-18" d="M85.58,15.76l3.9-2.92.21.08-3.9,2.92-.21-.08"></path><path class="cls-22" d="M85.79,15.84l3.9-2.92.21.09L86,15.93l-.21-.09"></path><path class="cls-23" d="M86,15.93,89.9,13l.23.11L86.22,16,86,15.93"></path><path class="cls-24" d="M86.22,16l3.9-2.92.24.13-3.9,2.92L86.22,16"></path><path class="cls-25" d="M86.46,16.17l3.9-2.92.26.16-3.9,2.92-.26-.16"></path><path class="cls-26" d="M86.72,16.33l3.9-2.92.29.21L87,16.54l-.29-.21"></path><path class="cls-27" d="M87,16.54l3.9-2.92.37.31-3.9,2.92L87,16.54"></path><path class="cls-28" d="M87.38,16.85l3.9-2.92a5.82,5.82,0,0,1,1.14,1.44l-3.9,2.92a5.82,5.82,0,0,0-1.14-1.44"></path><path class="cls-27" d="M88.52,18.29l3.9-2.92q.12.21.22.43l-3.9,2.92q-.1-.22-.22-.43"></path><path class="cls-26" d="M88.74,18.73l3.9-2.92q.07.16.14.33l-3.9,2.92q-.06-.17-.14-.33"></path><path class="cls-25" d="M88.88,19.06l3.9-2.92.1.29L89,19.35l-.1-.29"></path><path class="cls-24" d="M89,19.35l3.9-2.92.07.26-3.9,2.92L89,19.35"></path><path class="cls-23" d="M89.05,19.61,93,16.69l.06.24-3.9,2.92-.06-.24"></path><path class="cls-22" d="M89.11,19.85,93,16.93q0,.12,0,.23l-3.9,2.92q0-.12,0-.23"></path><path class="cls-18" d="M89.15,20.09l3.9-2.92q0,.11,0,.22l-3.9,2.92q0-.11,0-.22"></path><path class="cls-17" d="M89.18,20.31l3.9-2.92q0,.11,0,.22l-3.9,2.92q0-.11,0-.22"></path><path class="cls-21" d="M89.2,20.52l3.9-2.92q0,.11,0,.21l-3.9,2.92q0-.11,0-.21"></path><path class="cls-15" d="M89.21,20.74l3.9-2.92v.06l-3.9,2.92v-.06"></path></g></g></g></g><g class="cls-3"><g class="cls-29"><path class="cls-30" d="M31.3,13.9a3.43,3.43,0,0,0-1.75-3.8,2.14,2.14,0,0,0-3.15,1.37,3.43,3.43,0,0,0,1.75,3.8A2.14,2.14,0,0,0,31.3,13.9"></path></g></g><g class="cls-3"><g class="cls-31"><polyline class="cls-32" points="61.64 9.55 46.5 6.61 46.6 45.6 61.74 48.54 61.64 9.55"></polyline></g></g><circle class="cls-33" cx="107.3" cy="31.8" r="2.77"></circle><circle class="cls-34" cx="38.67" cy="60.34" r="2.77"></circle><path class="cls-34" d="m104.8 2.92a5 5 0 0 0 5 5"></path><path class="cls-34" d="m104.5 2.92a5 5 0 0 1 -5 5"></path><path class="cls-34" d="m104.8 13.27a5 5 0 0 1 5 -5"></path><path class="cls-34" d="M104.46,13.27a5,5,0,0,0-5-5"></path><path class="cls-34" d="m14.05 17.47a2.58 2.58 0 0 0 2.58 2.58"></path><path class="cls-34" d="M13.9,17.47a2.58,2.58,0,0,1-2.58,2.58"></path><path class="cls-34" d="M14.05,22.79a2.58,2.58,0,0,1,2.58-2.58"></path><path class="cls-34" d="M13.9,22.79a2.58,2.58,0,0,0-2.58-2.58"></path><path class="cls-34" d="m6.31 0a6 6 0 0 0 6 6"></path><path class="cls-34" d="M6,0A6,6,0,0,1,0,6"></path><path class="cls-34" d="M6.31,12.28a6,6,0,0,1,6-6"></path><path class="cls-34" d="M6,12.28a6,6,0,0,0-6-6"></path></g></svg>