<svg viewBox="0 0 192 192" xmlns="http://www.w3.org/2000/svg" width="192" height="192">






















<g transform="rotate(0 3.14 2.18) translate(31.07806332724833 26.23684816427067) scale(0.9930697770210581)"><defs>
<style>.cls-1{fill:none;stroke:#231f20;stroke-miterlimit:10;}</style>
</defs><title>38</title><path class="cls-1" d="M59.78,48.19l70.14,88.38a2.55,2.55,0,0,1,.93,3.48h0a2.55,2.55,0,0,1-3.48.93L52.57,46.77"></path><path class="cls-1" d="M61.81,47.18,85.07,51.7a3.44,3.44,0,0,0,4.2-3.56L89.21,20.8A5.51,5.51,0,0,0,85,15.6l-60-11.67a3.44,3.44,0,0,0-4.2,3.56l.07,27.34A5.51,5.51,0,0,0,25,40l21.8,4.24"></path><line class="cls-1" x1="22.19" x2="26.52" y1="4.5" y2="1.4"></line><path class="cls-1" d="M88.27,50.81l4-2.84a3.84,3.84,0,0,0,1.07-2.7l-.07-27.34A5.51,5.51,0,0,0,89,12.73L49.63,5.07l-.21,0L29,1.06a3.59,3.59,0,0,0-2.47.34"></path><path class="cls-1" d="M31.3,13.9a3.43,3.43,0,0,0-1.75-3.8,2.14,2.14,0,0,0-3.15,1.37,3.43,3.43,0,0,0,1.75,3.8A2.14,2.14,0,0,0,31.3,13.9"></path><circle class="cls-1" cx="107.3" cy="31.8" r="2.77"></circle><circle class="cls-1" cx="38.67" cy="60.34" r="2.77"></circle><path class="cls-1" d="m104.8 2.92a5 5 0 0 0 5 5"></path><path class="cls-1" d="m104.5 2.92a5 5 0 0 1 -5 5"></path><path class="cls-1" d="m104.8 13.27a5 5 0 0 1 5 -5"></path><path class="cls-1" d="M104.46,13.27a5,5,0,0,0-5-5"></path><path class="cls-1" d="m14.05 17.47a2.58 2.58 0 0 0 2.58 2.58"></path><path class="cls-1" d="M13.9,17.47a2.58,2.58,0,0,1-2.58,2.58"></path><path class="cls-1" d="M14.05,22.79a2.58,2.58,0,0,1,2.58-2.58"></path><path class="cls-1" d="M13.9,22.79a2.58,2.58,0,0,0-2.58-2.58"></path><path class="cls-1" d="m6.31 0a6 6 0 0 0 6 6"></path><path class="cls-1" d="M6,0A6,6,0,0,1,0,6"></path><path class="cls-1" d="M6.31,12.28a6,6,0,0,1,6-6"></path><path class="cls-1" d="M6,12.28a6,6,0,0,0-6-6"></path><polyline class="cls-1" points="46.94 8.63 46.94 45.59 61.73 48.53 61.73 11.25"></polyline></g></svg>