<svg viewBox="0 0 192 192" xmlns="http://www.w3.org/2000/svg" width="192" height="192">







<g transform="rotate(0 3.14 2.18) translate(33.599926045979544 23.60301497324241) scale(1.2899240093854358)"><defs>
<style>.cls-1{fill:none;stroke:#231f20;stroke-miterlimit:10;}</style>
</defs><title>40</title><path class="cls-1" d="m56.62 89.75c-7.06 0-12.8-8.8-12.8-21.29s5.45-21.16 12.5-21.16c0 0 0.13 0 0 0 2.8 0.11 5.59 2.13 7.77 6.11v0.06c2 3.8 3.15 9.15 3.21 14.9 0.16 11.5-4.58 21-10.68 21.38zm27.83-17.92-13.33 2.77v-16.93l13.33 2.13zm6.92 2.82c-2.37 0-4.37-3.56-4.37-8.65s1.84-8.56 4.23-8.56c0.95 0 1.89 0.86 2.63 2.47a15.79 15.79 0 0 1 1.14 6.09c0 4.66-1.57 8.5-3.63 8.65z"></path><ellipse class="cls-1" cx="76.68" cy="66.14" rx="1.13" ry="1.74"></ellipse><ellipse class="cls-1" cx="81.47" cy="65.85" rx=".85" ry="1.32"></ellipse><line class="cls-1" x1="36.25" x2="36.25" y1="21.54" y2="111.2"></line><path class="cls-1" d="M74.28,32.73l0,5.14-38-16.57L25.61,23,25.47,5.33,29.2,7.42c-.42,1.88.13,3.63,1.42,4.13C30.74,11.59,73,32.43,73,32.43s1.21.52,1.75-.37a1.3,1.3,0,0,0-.37-1.78h0l-39.91-26s-2.81-1.34-4.28.9L23,1.21l.17,22.18L.63,27v77.63l35.88,6.14L96.71,82.13l-.17-34.89-20.84-9V32.18l-.55-.3"></path></g></svg>