<svg viewBox="0 0 192 192" xmlns="http://www.w3.org/2000/svg" width="192" height="192"><g transform="rotate(0 3.14 2.18) translate(33.494150601163355 24.354914135537115) scale(1.305605209375178)"><defs><style>.cls-1,.cls-14,.cls-16,.cls-2,.cls-6{fill:none;}.cls-2{stroke:#fb2e36;stroke-width:0.9px;}.cls-14,.cls-16,.cls-2,.cls-6,.cls-9{stroke-miterlimit:10;}.cls-3{fill:#e40b36;}.cls-4{fill:#fb2d36;}.cls-10,.cls-5{fill:#fff;}.cls-5{opacity:0.4;}.cls-6{stroke:#fb2d36;stroke-width:2.41px;}.cls-7{fill:#230073;}.cls-8{fill:#44469e;}.cls-12,.cls-9{fill:#414042;}.cls-9{stroke:#eedc00;stroke-width:0.99px;}.cls-11{fill:#eedc00;}.cls-13{clip-path:url(#c);}.cls-14,.cls-16{stroke:#fff;}.cls-14{stroke-width:0.92px;}.cls-15{clip-path:url(#b);}.cls-16{stroke-width:0.36px;}.cls-17{clip-path:url(#a);}</style><clipPath id="c"><ellipse class="cls-1" transform="translate(-.65 .54) rotate(-.56)" cx="55.18" cy="67.27" rx="9.04" ry="16.95"></ellipse></clipPath><clipPath id="b"><path class="cls-1" d="m94.36 64.8c0 4-1.38 7.19-3.14 7.21s-3.22-3.17-3.22-7.13 1.38-7.19 3.14-7.21 3.19 3.17 3.22 7.13z"></path></clipPath><clipPath id="a"><polygon class="cls-1" points="72.95 31.18 34.19 6.77 33.75 2.17 74.89 28.1"></polygon></clipPath></defs><title>-</title><polyline class="cls-2" points="73.55 30.72 74.25 30.92 74.3 35.38"></polyline><path class="cls-3" d="M73.8,29.07h-.06l0-.08L33,2.35l-2.81,8,42.71,21,0-.06a1.12,1.12,0,0,0,1.1-.76C74.34,29.9,74.22,29.26,73.8,29.07Z"></path><ellipse class="cls-4" transform="translate(14.16 33.44) rotate(-68.68)" cx="31.55" cy="6.36" rx="4.27" ry="2.9"></ellipse><ellipse class="cls-5" transform="translate(14.16 33.44) rotate(-68.68)" cx="31.55" cy="6.36" rx="4.27" ry="2.9"></ellipse><polyline class="cls-6" points="23.79 23.13 23.63 2.06 30.84 6.09"></polyline><polygon class="cls-7" points="36.21 109.8 0.53 103.4 0 25.77 35.67 20.1"></polygon><path class="cls-8" d="M35.67,20.1,95.92,46l.17,34.89L36.21,109.76Z"></path><polygon class="cls-9" points="83.82 70.62 70.49 73.39 70.49 56.46 83.82 58.59"></polygon><ellipse class="cls-10" cx="76.05" cy="64.93" rx="1.13" ry="1.74"></ellipse><ellipse class="cls-10" cx="80.85" cy="64.64" rx=".85" ry="1.32"></ellipse><polygon class="cls-7" points="60.69 36.05 60.26 31.62 62.23 31.43"></polygon><polygon class="cls-7" points="74.28 40.33 73.96 36.99 75.45 36.84"></polygon><polygon class="cls-7" points="83.2 43.14 82.94 40.47 84.13 40.36"></polygon><polygon class="cls-11" points="81.26 42.04 74.33 40.25 75.44 36.87 82.02 39.32"></polygon><polygon class="cls-11" points="88.56 44.42 83.24 43.02 84.17 40.38 89.13 42.33"></polygon><polygon class="cls-11" points="71.43 39.13 60.79 35.99 62.27 31.36 72.53 35.7"></polygon><ellipse class="cls-4" transform="translate(12.87 31.98) rotate(-66.33)" cx="30.9" cy="6.14" rx="1.23" ry=".75"></ellipse><ellipse class="cls-12" transform="translate(-.65 .54) rotate(-.56)" cx="55.07" cy="67.28" rx="11.3" ry="21.19"></ellipse><ellipse class="cls-4" transform="translate(-.65 .54) rotate(-.56)" cx="55.07" cy="67.28" rx="9.04" ry="16.95"></ellipse><g class="cls-13"><line class="cls-14" x1="50.5" x2="65.57" y1="50.15" y2="77.66"></line><line class="cls-14" x1="48.4" x2="63.47" y1="54.89" y2="82.4"></line><line class="cls-14" x1="46.3" x2="61.37" y1="59.63" y2="87.14"></line><line class="cls-14" x1="44.2" x2="59.27" y1="64.37" y2="91.89"></line><line class="cls-14" x1="53.44" x2="67.83" y1="46.97" y2="73.32"></line><line class="cls-14" x1="59.37" x2="45" y1="50.35" y2="77.86"></line><line class="cls-14" x1="61.56" x2="47.19" y1="55.05" y2="82.56"></line><line class="cls-14" x1="56.53" x2="42.65" y1="46.94" y2="73.57"></line><line class="cls-14" x1="63.75" x2="49.38" y1="59.75" y2="87.26"></line><line class="cls-14" x1="65.95" x2="51.57" y1="64.46" y2="91.96"></line></g><path class="cls-5" d="M47.45,82.33c-4.49-8.23-4.62-21.65-.29-30s11.49-8.39,16-.16C63.14,52.21,47.58,82.58,47.45,82.33Z"></path><path d="M55.63,88.54c-7.06,0-12.8-8.8-12.8-21.28s5.74-21.35,12.8-21.35v.18c-6.25,0-11.34,9.5-11.34,21.17s5.09,21.17,11.34,21.17Z"></path><path class="cls-12" d="m95.12 64.79c0 5-1.72 9-3.93 9s-4-4-4.08-8.92 1.72-9 3.93-9 4.04 3.97 4.08 8.92z"></path><path class="cls-4" d="m94.32 64.8c0 4-1.38 7.19-3.14 7.21s-3.23-3.17-3.26-7.14 1.38-7.19 3.14-7.21 3.23 3.18 3.26 7.14z"></path><g class="cls-15"><line class="cls-16" x1="89.5" x2="94.83" y1="57.59" y2="69.23"></line><line class="cls-16" x1="88.75" x2="94.09" y1="59.6" y2="71.24"></line><line class="cls-16" x1="88.01" x2="93.35" y1="61.6" y2="73.25"></line><line class="cls-16" x1="87.27" x2="92.6" y1="63.61" y2="75.26"></line><line class="cls-16" x1="90.54" x2="95.63" y1="56.24" y2="67.4"></line><line class="cls-16" x1="92.64" x2="87.55" y1="57.68" y2="69.32"></line><line class="cls-16" x1="93.42" x2="88.32" y1="59.67" y2="71.31"></line><line class="cls-16" x1="91.63" x2="86.72" y1="56.23" y2="67.5"></line><line class="cls-16" x1="94.19" x2="89.1" y1="61.66" y2="73.3"></line><line class="cls-16" x1="94.97" x2="89.88" y1="63.65" y2="75.29"></line></g><path class="cls-5" d="m88.42 71.21a17.74 17.74 0 0 1 -0.1 -12.68c1.53-3.53 4.06-3.53 5.68-0.07 0 0-5.54 12.86-5.58 12.75z"></path><path d="M91.31,73.84c-2.5,0-4.53-3.72-4.53-9s2-9,4.53-9v.08c-2.21,0-4,4-4,9s1.8,9,4,9Z"></path><polygon points="68.89 74.23 68.79 56.47 70.04 55.98 70.09 73.96 84.28 71.12 83.69 71.21"></polygon><g class="cls-17"><polygon class="cls-5" points="74.78 29.99 35 5.29 33.75 1.04 76.46 27.32"></polygon></g></g></svg>