<svg viewBox="0 0 192 192" xmlns="http://www.w3.org/2000/svg" width="192" height="192">























<g transform="rotate(0 3.14 2.18) translate(31.08538425973154 26.192922411659836) scale(0.9546267020627714)"><defs>
<style>.cls-1{fill:none;stroke:#231f20;stroke-miterlimit:10;}</style>
</defs><title>43</title><path class="cls-1" d="M28.09,4.74c-2.12,1.5-.65,4.53,0,5.88.9,1.8,1.11,9.23,3.36,22.93s0,54.62,0,54.62c11.9,6.85,39.69,7.07,39.69,7.07s28-.22,39.89-7.07c0,0-2.17-40.92.07-54.62s2.51-21.13,3.4-22.93c.69-1.38,2.1-4.49-.24-6"></path><path class="cls-1" d="M123.3,68.69c-2.91,3.24-12.64,5.55-12.72,5.57.28,8,.45,13.91.45,13.91C99.13,95,71.14,95.24,71.14,95.24S43.34,95,31.44,88.16c0,0,.37-5.87.65-13.91-.08,0-9.82-2.33-12.72-5.57S5.85,67,15.28,80.45s24.11,20.63,55.86,20.63c33.42,0,46.62-7.16,56.05-20.63S126.22,65.43,123.3,68.69Z"></path><path class="cls-1" d="m110.2 66.86c-12.29 6.43-39.1 6.65-39.1 6.65s-26.56-0.22-38.86-6.63"></path><circle class="cls-1" cx="51.83" cy="131.6" r="14.73"></circle><circle class="cls-1" cx="93.26" cy="131.6" r="14.73"></circle><path class="cls-1" d="m78.17 130.8a8.38 8.38 0 0 0 -11.86 0"></path><circle class="cls-1" cx="133.2" cy="31.84" r="3.19"></circle><circle class="cls-1" cx="21.85" cy="54.82" r="3.19"></circle><path class="cls-1" d="m123.6 42.93a5.77 5.77 0 0 0 5.77 5.77"></path><path class="cls-1" d="m123.3 42.93a5.77 5.77 0 0 1 -5.77 5.77"></path><path class="cls-1" d="m123.6 54.82a5.77 5.77 0 0 1 5.77 -5.82"></path><path class="cls-1" d="M123.28,54.82A5.77,5.77,0,0,0,117.51,49"></path><path class="cls-1" d="m16.13 29.57a3 3 0 0 0 3 3"></path><path class="cls-1" d="M16,29.57a3,3,0,0,1-3,3"></path><path class="cls-1" d="M16.13,35.67a3,3,0,0,1,3-3"></path><path class="cls-1" d="M16,35.67a3,3,0,0,0-3-3"></path><ellipse class="cls-1" cx="71.08" cy="4.94" rx="43.21" ry="4.4"></ellipse><path class="cls-1" d="m7.25 9.5a6.85 6.85 0 0 0 6.85 6.85"></path><path class="cls-1" d="M6.85,9.5A6.85,6.85,0,0,1,0,16.35"></path><path class="cls-1" d="M7.25,23.6a6.85,6.85,0,0,1,6.85-6.85"></path><path class="cls-1" d="M6.85,23.6A6.85,6.85,0,0,0,0,16.75"></path></g></svg>