<svg viewBox="0 0 192 192" xmlns="http://www.w3.org/2000/svg" width="192" height="192"><g transform="rotate(0 3.14 2.18) translate(30.77973212098948 26.24059259827446) scale(0.9556083205715827)"><defs><style>.cls-1{fill:#e4b14a;}.cls-2{fill:#231f20;}.cls-3{fill:#d2edf3;stroke:#00adee;opacity:0.47;}.cls-3,.cls-4,.cls-5{stroke-miterlimit:10;}.cls-3,.cls-4{stroke-width:1.67px;}.cls-4,.cls-5{fill:none;}.cls-4{stroke:#3ec5f0;}.cls-5{stroke:#e4b14a;stroke-width:0.84px;}.cls-6{fill:#fff;opacity:0.3;}.cls-7{fill:#cb8d38;}</style></defs><title>-</title><path class="cls-1" d="m32.09 72.7c-0.08 0-9.82-2.33-12.72-5.57s-13.52-1.71-4.09 11.76 24.11 20.63 55.86 20.63v-5.83s-27.8-0.22-39.69-7.07c-0.01-0.01 0.36-5.88 0.64-13.92z"></path><path class="cls-1" d="M111,2.32c-6.51-.22-39.87,0-39.87,0s-33.19-.21-39.7,0-4.23,5-3.33,6.75S29.22,18.3,31.47,32s0,54.62,0,54.62c11.9,6.85,39.69,7.07,39.69,7.07s28-.22,39.89-7.07c0,0-2.17-40.92.07-54.62s2.51-21.13,3.4-22.93S117.52,2.54,111,2.32Z"></path><path class="cls-1" d="m110.6 72.7c0.08 0 9.82-2.33 12.72-5.57s13.32-1.71 3.89 11.76-22.62 20.63-56.04 20.63v-5.83s28-0.22 39.89-7.07c-0.03-0.01-0.18-5.88-0.46-13.92z"></path><path class="cls-2" d="M32.27,65.33c-.29,11.55-.83,21.28-.83,21.28,11.9,6.85,39.69,7.07,39.69,7.07s28-.22,39.89-7.07c0,0-.52-9.74-.78-21.3C97.95,71.74,71.14,72,71.14,72S44.58,71.74,32.27,65.33Z"></path><circle class="cls-3" cx="51.83" cy="130" r="14.73"></circle><circle class="cls-3" cx="93.26" cy="130" r="14.73"></circle><path class="cls-4" d="m77.92 129.3a8.21 8.21 0 0 0 -11.61 0"></path><circle class="cls-1" cx="134.2" cy="30.29" r="3.19"></circle><circle class="cls-5" cx="21.85" cy="53.26" r="3.19"></circle><path class="cls-5" d="m123.6 41.38a5.77 5.77 0 0 0 5.77 5.77"></path><path class="cls-5" d="m123.3 41.38a5.77 5.77 0 0 1 -5.77 5.77"></path><path class="cls-5" d="m123.6 53.26a5.77 5.77 0 0 1 5.77 -5.77"></path><path class="cls-5" d="M123.28,53.26a5.77,5.77,0,0,0-5.77-5.77"></path><path class="cls-5" d="m16.13 28a3 3 0 0 0 3 3"></path><path class="cls-5" d="M16,28a3,3,0,0,1-3,3"></path><path class="cls-5" d="M16.13,34.12a3,3,0,0,1,3-3"></path><path class="cls-5" d="M16,34.12a3,3,0,0,0-3-3"></path><path class="cls-6" d="m47.35 91.55l17.76 2.14c1-14.45 3.64-61.49-2.63-89.3a122.7 122.7 0 0 0 -17.67 2.88c4.81 19.96 4.46 56.91 2.54 84.28z"></path><ellipse class="cls-7" cx="71.41" cy="4.39" rx="43.04" ry="4.39"></ellipse><path class="cls-5" d="m7.25 8a6.85 6.85 0 0 0 6.85 6.8"></path><path class="cls-5" d="M6.85,8A6.85,6.85,0,0,1,0,14.8"></path><path class="cls-5" d="M7.25,22.05A6.85,6.85,0,0,1,14.1,15.2"></path><path class="cls-5" d="M6.85,22.05A6.85,6.85,0,0,0,0,15.2"></path></g></svg>