<svg viewBox="0 0 192 192" xmlns="http://www.w3.org/2000/svg" width="192" height="192">
















































































<g transform="rotate(0 3.14 2.18) translate(25.978664306869987 31.336818690344288) scale(0.9742098879044175)"><defs>
<style>.cls-1{fill:none;stroke:#231f20;stroke-miterlimit:10;}</style>
</defs><title>46</title><path class="cls-1" d="M86.55,113.81A5.09,5.09,0,0,1,83.41,115l-.63.05-.49,0h0c-3.6.32-3.78.62-4.55,1.83s-1,2-3.36,2.31l-.67.07-.67-.07c-2.35-.3-2.63-1.17-3.36-2.31-.84-1.32-1-1.57-5.66-1.93a4.84,4.84,0,0,1-3.45-1.5c-4.08,1.2-9.38,3.81-9.48,9.33-.16,9,9.15,2.57,9.15,2.57s1,6.26,5,5.94,4.17-3.53,4.17-3.53,1.93,4.33,6.1,4.33,4.33-4.33,4.33-4.33a6.92,6.92,0,0,0,5.46,2.41c3.69,0,2.57-4.66,2.57-4.66s3.69,5.94,7.71,3.05C99.22,126,95.09,118.14,86.55,113.81Z"></path><path class="cls-1" d="m73.69 93.09z"></path><path class="cls-1" d="M83.41,115l-.63.05Z"></path><path class="cls-1" d="M70.13,95.28a5,5,0,0,1,3.54-2.19c-.58.06-3.7.54-4.57,4.69-1,4.58-2,6.38-6,8.31s-3.49,4.58-3.49,4.58a4.31,4.31,0,0,0,1,2.83A4.84,4.84,0,0,0,64,115c4.7.36,4.82.6,5.66,1.93.72,1.14,1,2,3.36,2.31l.67.07.67-.07c2.35-.3,2.63-1.17,3.36-2.31"></path><path class="cls-1" d="m11.36 86.05c0.45-0.2 0.91-0.38 1.38-0.56-0.47 0.18-0.93 0.36-1.38 0.56z"></path><path class="cls-1" d="M14.45,84.86c.26-.09.53-.17.79-.24C15,84.7,14.72,84.77,14.45,84.86Z"></path><path class="cls-1" d="m0.88 105.1v-0.66c0.03 0.17 0.01 0.39 0 0.66z"></path><path class="cls-1" d="m0.92 104.3z"></path><path class="cls-1" d="M3,94.6c.18-.45.37-.87.56-1.28C3.35,93.73,3.16,94.15,3,94.6Z"></path><path class="cls-1" d="M10.2,86.59c.38-.19.76-.37,1.16-.54Q10.77,86.31,10.2,86.59Z"></path><path class="cls-1" d="m0.94 104.2z"></path><path class="cls-1" d="M9.44,87l.76-.41Z"></path><path class="cls-1" d="m6.55 89.09q0.47-0.45 1-0.84-0.55 0.4-1 0.84z"></path><path class="cls-1" d="M.88,105.12c-.09,2.81.29,10.64,6.81,14.81C1.17,115.77.79,107.94.88,105.12Z"></path><path class="cls-1" d="M6.55,89.09a13,13,0,0,0-1.15,1.25A13,13,0,0,1,6.55,89.09Z"></path><path class="cls-1" d="M2.39,96.31q.28-.91.6-1.71Q2.67,95.4,2.39,96.31Z"></path><path class="cls-1" d="M24.75,94.39c2.73-4.64-.51-8.85-5.06-9.84a7.62,7.62,0,0,1,5.75,4.67A9.57,9.57,0,0,0,18.61,89c-6.87,2.41-12.12,5-13.5,19.22,0,0-.78,6.41,2.59,11.69a19.39,19.39,0,0,0,10.66,2.68c17.31,0,7.1-11.86,7.1-11.86S21,100.7,24.75,94.39Z"></path><path class="cls-1" d="M15.46,84.57l.65-.13Z"></path><path class="cls-1" d="M16.27,84.42q.4-.06.79-.08C16.8,84.35,16.53,84.38,16.27,84.42Z"></path><path class="cls-1" d="M18,84.33a9.55,9.55,0,0,1,1.6.2A9.58,9.58,0,0,0,18,84.33Z"></path><path class="cls-1" d="m17.22 84.33z"></path><path class="cls-1" d="m0.92 104.4z"></path><path class="cls-1" d="m4.4 91.75a13.93 13.93 0 0 1 1 -1.41 13.91 13.91 0 0 0 -1 1.41z"></path><path class="cls-1" d="M7.53,88.26q.5-.39,1-.73Q8,87.87,7.53,88.26Z"></path><path class="cls-1" d="m0.88 105.1z"></path><path class="cls-1" d="m0.93 104.2z"></path><path class="cls-1" d="m17.06 84.34z"></path><path class="cls-1" d="M12.73,85.49l1.08-.4Z"></path><path class="cls-1" d="m16.11 84.45h0.15z"></path><path class="cls-1" d="M15.24,84.63l.22-.05Z"></path><path class="cls-1" d="m19.64 84.53z"></path><path class="cls-1" d="M8.55,87.53c.29-.19.58-.36.89-.53C9.14,87.17,8.84,87.34,8.55,87.53Z"></path><path class="cls-1" d="m17.89 84.32z"></path><path class="cls-1" d="m0.94 104.1z"></path><path class="cls-1" d="M3.54,93.32a16.33,16.33,0,0,1,.85-1.57A16.34,16.34,0,0,0,3.54,93.32Z"></path><path class="cls-1" d="M25.45,89.21a7.62,7.62,0,0,0-5.75-4.67h-.05a9.55,9.55,0,0,0-1.6-.2h-1q-.39,0-.79.08l-.15,0-.65.13-.22.05c-.26.07-.53.14-.79.24l-.64.23-1.08.4c-.47.18-.93.36-1.38.56s-.78.35-1.16.54L9.44,87c-.3.17-.6.34-.89.53s-.7.47-1,.73-.66.54-1,.84a13,13,0,0,0-1.15,1.25,13.93,13.93,0,0,0-1,1.41,16.33,16.33,0,0,0-.85,1.57c-.2.41-.38.83-.56,1.28s-.41,1.11-.6,1.71a39.8,39.8,0,0,0-1.44,7.77v.33c0,.17,0,.39,0,.66v0c-.09,2.81.29,10.65,6.81,14.81h0"></path><path class="cls-1" d="m140.7 93.32c0.2 0.41 0.38 0.83 0.56 1.28-0.17-0.45-0.36-0.87-0.56-1.28z"></path><path class="cls-1" d="m136.7 88.26q0.5 0.39 1 0.84-0.5-0.45-1-0.84z"></path><path class="cls-1" d="m141.3 94.6q0.32 0.8 0.6 1.71-0.28-0.91-0.6-1.71z"></path><path class="cls-1" d="M132.91,86.05c.39.17.78.35,1.16.54Q133.5,86.31,132.91,86.05Z"></path><path class="cls-1" d="M134.07,86.59l.76.41Z"></path><path class="cls-1" d="m138.9 90.34a13 13 0 0 0 -1.15 -1.25 13 13 0 0 1 1.15 1.25z"></path><path class="cls-1" d="m143.4 105.1c0.09 2.81-0.29 10.65-6.81 14.81 6.52-4.17 6.9-12 6.81-14.81z"></path><path class="cls-1" d="m139.2 108.2c-1.39-14.24-6.64-16.81-13.51-19.24a9.57 9.57 0 0 0 -6.84 0.19 7.62 7.62 0 0 1 5.75 -4.67c-4.55 1-7.79 5.21-5.06 9.84 3.72 6.32-0.69 16.36-0.69 16.36s-10.21 11.87 7.1 11.86a19.39 19.39 0 0 0 10.66 -2.68c3.36-5.25 2.59-11.66 2.59-11.66z"></path><path class="cls-1" d="m143.4 104.4v0.66c0.03-0.27 0.01-0.49 0-0.66z"></path><path class="cls-1" d="m143.3 104.2z"></path><path class="cls-1" d="m143.3 104.1z"></path><path class="cls-1" d="M131.53,85.49c.47.18.93.36,1.38.56C132.46,85.85,132,85.67,131.53,85.49Z"></path><path class="cls-1" d="m126.4 84.32z"></path><path class="cls-1" d="m124.6 84.53a9.55 9.55 0 0 1 1.6 -0.2 9.58 9.58 0 0 0 -1.6 0.2z"></path><path class="cls-1" d="m127.2 84.34q0.39 0 0.79 0.08c-0.26-0.04-0.53-0.07-0.79-0.08z"></path><path class="cls-1" d="M128.15,84.45l.65.13Z"></path><path class="cls-1" d="M129,84.63c.26.07.53.14.79.24C129.55,84.77,129.29,84.7,129,84.63Z"></path><path class="cls-1" d="m124.6 84.54z"></path><path class="cls-1" d="m143.3 104.3z"></path><path class="cls-1" d="m143.4 105.1z"></path><path class="cls-1" d="m127 84.33z"></path><path class="cls-1" d="m126.2 84.33z"></path><path class="cls-1" d="m138.9 90.34a13.93 13.93 0 0 1 1 1.41 13.91 13.91 0 0 0 -1 -1.41z"></path><path class="cls-1" d="m143.3 104.2z"></path><path class="cls-1" d="m135.7 87.53q0.53 0.34 1 0.73-0.47-0.39-1-0.73z"></path><path class="cls-1" d="M128.81,84.57l.22.05Z"></path><path class="cls-1" d="M134.83,87c.3.17.6.34.89.53C135.42,87.34,135.13,87.17,134.83,87Z"></path><path class="cls-1" d="M130.46,85.09l1.08.4Z"></path><path class="cls-1" d="m143.3 104.1z"></path><path class="cls-1" d="m139.9 91.75a16.33 16.33 0 0 1 0.85 1.57 16.34 16.34 0 0 0 -0.85 -1.57z"></path><path class="cls-1" d="m128 84.42h0.15z"></path><path class="cls-1" d="M136.58,119.93h0c6.52-4.16,6.9-12,6.81-14.81v0c0-.28,0-.5,0-.66v-.33a39.8,39.8,0,0,0-1.44-7.77q-.28-.91-.6-1.71c-.18-.45-.37-.87-.56-1.28a16.33,16.33,0,0,0-.85-1.57,13.93,13.93,0,0,0-1-1.41,13,13,0,0,0-1.15-1.25q-.47-.45-1-.84t-1-.73c-.29-.19-.58-.36-.89-.53l-.76-.41c-.38-.19-.76-.37-1.16-.54s-.91-.38-1.38-.56l-1.08-.4-.64-.23c-.26-.09-.53-.17-.79-.24l-.22-.05-.65-.13-.15,0q-.4-.06-.79-.08h-1a9.55,9.55,0,0,0-1.6.2h-.05a7.62,7.62,0,0,0-5.75,4.67"></path><path class="cls-1" d="M37.4,35.22c-1.31-1.09-2.59-2.22-3.81-3.43A6.52,6.52,0,0,0,24.37,41,68.7,68.7,0,0,0,45.91,55.61a68.49,68.49,0,0,0,27,5.53,68.34,68.34,0,0,0,31.21-7.49A68.93,68.93,0,0,0,121.54,41a6.52,6.52,0,0,0-9.21-9.21c-.91.91-1.86,1.77-2.82,2.62q-.91.8-1.86,1.55"></path><path class="cls-1" d="M71.8.51q1.06,0,2.14,0C73.22.49,72.51.49,71.8.51Z"></path><path class="cls-1" d="m65.49 1.24a36.1 36.1 0 0 1 6.24 -0.73 35.15 35.15 0 0 0 -34.33 33.73v1c0.63 0.53 1.26 1.06 1.91 1.56a55.23 55.23 0 0 0 33.69 11.31 55.54 55.54 0 0 0 18.67 -3.22"></path><path class="cls-1" d="m73.67 93.1z"></path><path class="cls-1" d="m82.3 115.1h0.49-0.49z"></path><path class="cls-1" d="M83.41,115a5.09,5.09,0,0,0,3.14-1.19,4.25,4.25,0,0,0,1.32-3.14s.48-2.65-3.49-4.58-5.06-3.73-6-8.31-4.58-4.7-4.58-4.7h-.1a5,5,0,0,0-3.54,2.19"></path><path class="cls-1" d="m82.3 115.1h0.49"></path><path class="cls-1" d="m71.73 0.51z"></path><path class="cls-1" d="M107.65,35.95A35.13,35.13,0,0,0,73.94.52q-1.08,0-2.14,0h-.07a36.1,36.1,0,0,0-6.24.73"></path><path class="cls-1" d="M91.62,44.89a55.31,55.31,0,0,0,16-8.94"></path></g></svg>