<svg viewBox="0 0 192 192" xmlns="http://www.w3.org/2000/svg" width="192" height="192"><g transform="rotate(0 3.14 2.18) translate(25.963601094413562 31.360451447908844) scale(0.981245518817323)"><defs><style>.cls-1{fill:#e42147;}.cls-2{fill:#f1afcb;}.cls-3{fill:#f198c0;}.cls-4{fill:#404041;}.cls-5{fill:#e46586;}.cls-6{fill:#fff;opacity:0.2;}</style></defs><title>-</title><path d="m64.38 112.1s-14 1.28-14.13 10.27 9.15 2.57 9.15 2.57 1 6.26 5 5.94 4.17-3.53 4.17-3.53 1.93 4.33 6.1 4.33 4.33-4.33 4.33-4.33a6.92 6.92 0 0 0 5.46 2.41c3.69 0 2.57-4.66 2.57-4.66s3.69 5.94 7.71 3.05-1.44-12.2-11.88-16.05c-0.02 0-8.69 7.22-18.48 0z"></path><path class="cls-1" d="M83.51,105.6c-4-1.93-5.06-3.73-6-8.31s-4.58-4.7-4.58-4.7-3.71.12-4.67,4.7-2,6.38-6,8.31-3.49,4.58-3.49,4.58-.24,4,4.45,4.33,4.82.6,5.66,1.93c.72,1.14,1,2,3.36,2.31l.67.07.67-.07c2.35-.3,2.63-1.17,3.36-2.31.84-1.32,1-1.57,5.66-1.93S87,110.17,87,110.17,87.48,107.52,83.51,105.6Z"></path><path class="cls-2" d="M.08,103.59s-2.25,18.52,17.4,18.53c17.31,0,7.1-11.86,7.1-11.86s-4.41-10-.69-16.36S20.25,82,13.58,84.37C6.71,86.78,1.46,89.39.08,103.59Z"></path><path class="cls-3" d="m4.23 107.7c1.39-14.2 6.63-16.81 13.5-19.22a9.57 9.57 0 0 1 6.84 0.19c-1.25-3.71-6.28-6-11-4.35-6.87 2.41-12.12 5-13.5 19.22 0 0-1.29 10.72 6.74 15.85-3.35-5.28-2.58-11.69-2.58-11.69z"></path><path class="cls-2" d="m142.4 103.6s2.25 18.52-17.4 18.53c-17.31 0-7.1-11.86-7.1-11.86s4.41-10 0.69-16.36 3.64-11.86 10.3-9.52c6.88 2.4 12.13 5.01 13.51 19.21z"></path><path class="cls-3" d="m138.3 107.7c-1.39-14.2-6.63-16.81-13.5-19.22a9.57 9.57 0 0 0 -6.84 0.19c1.25-3.71 6.28-6 11-4.35 6.87 2.41 12.12 5 13.5 19.22 0 0 1.29 10.72-6.74 15.85 3.35-5.28 2.58-11.69 2.58-11.69z"></path><path class="cls-4" d="M120.67,31.29a6.51,6.51,0,0,0-9.21,0c-.91.91-1.86,1.77-2.82,2.62A55.26,55.26,0,0,1,72.08,47.61,55.23,55.23,0,0,1,38.44,36.28a56.62,56.62,0,0,1-5.73-5,6.52,6.52,0,1,0-9.21,9.21A68.7,68.7,0,0,0,45,55.12a68.49,68.49,0,0,0,27,5.53,68.34,68.34,0,0,0,31.21-7.49,68.93,68.93,0,0,0,17.37-12.65A6.51,6.51,0,0,0,120.67,31.29Z"></path><path d="m106.8 35.94a35.14 35.14 0 0 0 -70.25 -2.19v1.74a55.23 55.23 0 0 0 33.18 12.67 55.26 55.26 0 0 0 37.07 -12.22z"></path><path class="cls-5" d="m83.51 105.6c-4-1.93-5.06-3.73-6-8.31s-4.58-4.7-4.58-4.7a5 5 0 0 0 -3.65 2.2 5.55 5.55 0 0 1 3.41 4.42c1 4.58 2 6.38 6 8.31s3.49 4.58 3.49 4.58a4.38 4.38 0 0 1 -0.75 2.5l1.11-0.09c4.7-0.36 4.45-4.33 4.45-4.33s0.49-2.66-3.48-4.58z"></path><path class="cls-6" d="M90.72,45a55.52,55.52,0,0,0,16.06-9A35,35,0,0,0,64.62.75,45,45,0,0,1,90.72,45Z"></path></g></svg>