<svg viewBox="0 0 192 192" xmlns="http://www.w3.org/2000/svg" width="192" height="192">













<g transform="rotate(0 3.14 2.18) translate(37.0100196055588 20.475757469684694) scale(0.8533812715289866)"><defs>
<style>.cls-1{fill:none;stroke:#231f20;stroke-miterlimit:10;}.cls-2{fill:#231f20;}</style>
</defs><title>47</title><path class="cls-1" d="M82.67,13.94l-.54-2.23S49.25-11.83,9.42,10c0,0-3.92,1.36-3.92,7.69S7.61,36.45,8.82,43.08,6.4,64.2,3.08,70.24,6.4,90.68,6.4,90.68s3,4.3,4.83-4.75S17,71.45,15.76,59.08,13,23.47,26.32,23.47c0,0,9.35-1.88,6.64,22.75l6.34,5.92"></path><path class="cls-2" d="M117.86,101.83a18.37,18.37,0,0,1,11.54,4c3.59,2.91,6,7.15,7.18,12.65l-.75-.52-2.76-1.9,1.27,3.1a19.59,19.59,0,0,1,.78,10.21,4,4,0,0,0-1.64-1.32l-1.35-.58,0,1.47c0,.08-.45,8.16-17.84,13.88-1.74.57-3.31,1.06-4.83,1.53C94.8,148.9,91.9,150.6,91.82,175.57H73c0-13.12-1-19.26-3.48-23.23-2.73-4.34-7.36-5.77-14.35-7.93-1.5-.46-3.2-1-5-1.58-17.22-5.66-17.84-13.95-17.84-14l0-1.47-1.35.58a4,4,0,0,0-1.65,1.35A19.47,19.47,0,0,1,30,119.14L31.34,116l-2.8,1.94-.77.53c1.18-5.49,3.59-9.74,7.16-12.64a18.3,18.3,0,0,1,11.52-4,14.5,14.5,0,0,1,6.65,1.44c4.17,2.26,7.94,4.13,11.9,4.13A13.35,13.35,0,0,0,70.83,106a29.08,29.08,0,0,1,10.88-2.65A31.29,31.29,0,0,1,93.08,106,13.55,13.55,0,0,0,99,107.39c3.81,0,7.49-1.58,12.2-4.13a14.52,14.52,0,0,1,6.65-1.44m0-1a15.43,15.43,0,0,0-7.13,1.56c-4.38,2.37-8.05,4-11.72,4a12.58,12.58,0,0,1-5.5-1.3,32,32,0,0,0-11.8-2.75A30.23,30.23,0,0,0,70.4,105.1a12.35,12.35,0,0,1-5.4,1.3c-3.55,0-7-1.63-11.42-4a15.41,15.41,0,0,0-7.12-1.56c-7.8,0-17.89,4.64-20.09,19.83l2.74-1.9a20,20,0,0,0,0,13.63s.28-2.72,2.18-3.54c0,0,.27,8.95,18.53,14.94S72,147.81,72,176.57H92.82c0-28.76,3.48-26.8,21.74-32.79S133.09,129,133.09,129c1.91.82,2.18,3.47,2.18,3.47a20.06,20.06,0,0,0,0-13.66l2.72,1.87c-2.2-15.18-12.31-19.83-20.13-19.83Zm-36.15,1.51s-.08,0,0,0Zm0,0h0c.08,0,0,0,0,0Zm0,0h0Z"></path><path class="cls-1" d="m34.36 119.3s6.93 3.89 11.21-1.71c0 0 4.36 4.83 8.41 0"></path><path class="cls-1" d="m130.5 119.3s-6.93 3.89-11.21-1.71c0 0-4.36 4.83-8.41 0"></path><path class="cls-1" d="m45.06 118.2s-1.78 8.47 7.76 12.28c0 0 11 4.77 13.49 7.09s5.32 6.54 15.54 6.54"></path><path class="cls-1" d="m118.6 118.2s1.78 8.47-7.76 12.28c0 0-11 4.77-13.49 7.09s-5.32 6.54-15.54 6.54"></path><path class="cls-1" d="m83.42 144.1s1.43-28.91 0-32.39"></path><path class="cls-1" d="m99 143.3s-4.44 6.69-15.48 6.69-15.43-6.72-15.43-6.72"></path><path class="cls-2" d="M86.31,13.76a11.76,11.76,0,0,1,10.61,6.61l.72,1.45,1-1.29a5.63,5.63,0,0,1,9.92,4.91l-.45,1.62,1.64-.38a3.5,3.5,0,0,1,4.13,4.49l-.44,1.35,1.42,0H115a5.94,5.94,0,0,1,3,11.07c-1.51-1.53-3.63-3.13-8-6.07S99.46,33,91.82,33a86.78,86.78,0,0,0-25.43,4.36c-6.84,2.21-9.28,6.81-11.64,11.26-2.22,4.19-4.32,8.15-10,10.44C35.06,63,33.91,72.66,33.94,77.28A4,4,0,0,1,32,73.86a3.94,3.94,0,0,1,.39-1.71l.76-1.6-1.76.17-.39,0a4,4,0,0,1-4-4,3.94,3.94,0,0,1,.79-2.37l.5-.67-.56-.61A7.84,7.84,0,0,1,38.77,52l2,1.85-.37-2.72a14.86,14.86,0,0,1-.14-2c0-5.69,3.17-10.32,7.07-10.32A6,6,0,0,1,52,41.31l2,2.5-.21-3.19v-.08c0-.1,0-.21,0-.32a5.93,5.93,0,0,1,9.37-4.85l1.81,1.28-.24-2.2a12.38,12.38,0,0,1-.08-1.32c0-4.28,2.24-7.9,4.88-7.9a4.1,4.1,0,0,1,3.25,2.05l2.15,3.12-.33-3.77c0-.37,0-.71,0-1A11.84,11.84,0,0,1,86.31,13.76m0-1A12.82,12.82,0,0,0,73.48,25.58c0,.38,0,.75.05,1.13a5.07,5.07,0,0,0-4.07-2.48c-3.25,0-5.88,4-5.88,8.9a13.39,13.39,0,0,0,.08,1.43,6.93,6.93,0,0,0-10.95,5.66c0,.16,0,.31,0,.47a7,7,0,0,0-5.38-2.88c-4.46,0-8.07,5.07-8.07,11.32a15.8,15.8,0,0,0,.15,2.15A8.84,8.84,0,0,0,27,63.8a5,5,0,0,0,4,7.95l.49,0a5,5,0,0,0,3.52,7c-.24-3.41-.2-14.59,10.14-18.77C57.4,55,54.06,42.39,66.69,38.3A85.78,85.78,0,0,1,91.82,34c6.67,0,13,1.18,17.62,4.31s6.82,4.77,8.36,6.47A6.94,6.94,0,0,0,115,31.47h-.22a4.5,4.5,0,0,0-5.31-5.77,6.63,6.63,0,0,0-11.68-5.78,12.82,12.82,0,0,0-11.51-7.17Z"></path><path class="cls-2" d="M83.42,108.68c2,0,3,.76,3,1s-1.08,1-3,1-3-.76-3-1,1.08-1,3-1m0-1c-2.23,0-4,.9-4,2s1.81,2,4,2,4-.9,4-2-1.81-2-4-2Z"></path><path class="cls-2" d="M8.18,92.7a6.46,6.46,0,1,1-6.46,6.46A6.47,6.47,0,0,1,8.18,92.7m0-1a7.46,7.46,0,1,0,7.46,7.46A7.46,7.46,0,0,0,8.18,91.7Z"></path></g></svg>