<svg viewBox="0 0 192 192" xmlns="http://www.w3.org/2000/svg" width="192" height="192"><g transform="rotate(0 3.14 2.18) translate(37.149383570099786 20.91473076185146) scale(0.8544554109604386)"><defs><style>.cls-1{fill:#e42147;}.cls-2{fill:#e46586;}.cls-3{fill:#b0d137;}.cls-4,.cls-6{fill:#6f8438;}.cls-5{fill:#fff;stroke:#e6e7e8;stroke-miterlimit:10;stroke-width:1.44px;}.cls-6{opacity:0.35;}</style></defs><title>-</title><path class="cls-1" d="M82.14,11S49.25-12.57,9.42,9.31c0,0-3.92,1.36-3.92,7.69S7.61,35.71,8.82,42.35,6.4,63.47,3.08,69.51,6.4,89.95,6.4,89.95s3,4.3,4.83-4.75S17,70.71,15.76,58.34,13,22.74,26.32,22.74c0,0,9.35-1.88,6.64,22.75l6.34,5.92L84.55,21Z"></path><path class="cls-2" d="m76.39 21l1.13 4.72 7-4.72-2.38-10s-32.89-23.57-72.72-1.69c0 0-3.92 1.36-3.92 7.69v1.4c39.02-20.15 70.89 2.6 70.89 2.6z"></path><path class="cls-3" d="M138,119.92c-3-20.71-20.72-21.81-27.26-18.27s-11.5,5.43-17.22,2.71a32,32,0,0,0-11.8-2.75h0s.08,0,0,0,0,0,0,0h0a30.23,30.23,0,0,0-11.31,2.75c-5.72,2.73-10.28.83-16.82-2.71s-24.22-2.44-27.21,18.27l2.74-1.9a20,20,0,0,0,0,13.63s.28-2.72,2.18-3.54c0,0,.27,8.95,18.53,14.94S72,147.08,72,175.84H92.82c0-28.76,3.48-26.8,21.74-32.79s18.53-14.79,18.53-14.79c1.91.82,2.18,3.47,2.18,3.47a20.06,20.06,0,0,0,0-13.66Z"></path><path class="cls-4" d="M34.36,118.53a14.22,14.22,0,0,0,5.9.46,6.64,6.64,0,0,0,2.53-1,8.14,8.14,0,0,0,2-1.8l.76-.85.72.79a8.26,8.26,0,0,0,1.63,1.33,5.36,5.36,0,0,0,1.93.73,3.9,3.9,0,0,0,2.09-.24,6.51,6.51,0,0,0,1-.5c.33-.21.66-.45,1-.68a10,10,0,0,1-.69,1,5.15,5.15,0,0,1-.94.89,4.35,4.35,0,0,1-2.56.9,5.71,5.71,0,0,1-2.69-.6,7.81,7.81,0,0,1-2.23-1.58l1.48-.06a8.42,8.42,0,0,1-2.59,2.28,7.38,7.38,0,0,1-3.32.92,9.18,9.18,0,0,1-3.27-.52A8.94,8.94,0,0,1,34.36,118.53Z"></path><path class="cls-4" d="M130.52,118.53a8.94,8.94,0,0,1-2.79,1.55,9.18,9.18,0,0,1-3.27.52,7.38,7.38,0,0,1-3.32-.92,8.42,8.42,0,0,1-2.59-2.28l1.48.06a7.81,7.81,0,0,1-2.23,1.58,5.71,5.71,0,0,1-2.69.6,4.35,4.35,0,0,1-2.56-.9,5.15,5.15,0,0,1-.94-.89,10,10,0,0,1-.69-1c.35.23.67.48,1,.68a6.51,6.51,0,0,0,1,.5,3.9,3.9,0,0,0,2.09.24,5.36,5.36,0,0,0,1.93-.73,8.26,8.26,0,0,0,1.63-1.33l.72-.79.76.85a8.14,8.14,0,0,0,2,1.8,6.64,6.64,0,0,0,2.53,1A14.22,14.22,0,0,0,130.52,118.53Z"></path><path class="cls-4" d="M45.06,117.46a11.47,11.47,0,0,0,1.18,5.74A10.88,10.88,0,0,0,50,127.38a16.55,16.55,0,0,0,2.55,1.31l2.79,1.18c1.86.81,3.69,1.67,5.52,2.57a40.56,40.56,0,0,1,5.35,3.14,22.43,22.43,0,0,1,2.24,2.22,19.39,19.39,0,0,0,2.13,1.95c3,2.35,7.09,3.19,11.09,3.62a23.72,23.72,0,0,1-6.11-.15A15.12,15.12,0,0,1,69.75,141a16.14,16.14,0,0,1-2.46-2,21.67,21.67,0,0,0-2.14-1.95A42.69,42.69,0,0,0,60,134.18c-1.78-.92-3.59-1.78-5.4-2.63l-2.73-1.3a14.55,14.55,0,0,1-2.72-1.63,11.21,11.21,0,0,1-3.79-5A10.42,10.42,0,0,1,45.06,117.46Z"></path><path class="cls-4" d="M118.64,117.46a10.41,10.41,0,0,1-.31,6.11,11.21,11.21,0,0,1-3.79,5,14.55,14.55,0,0,1-2.72,1.63l-2.73,1.3c-1.81.86-3.63,1.72-5.4,2.63a42.7,42.7,0,0,0-5.13,2.88A21.68,21.68,0,0,0,96.41,139,16.14,16.14,0,0,1,94,141a15.12,15.12,0,0,1-5.85,2.22,23.72,23.72,0,0,1-6.11.15c4-.42,8-1.27,11.09-3.62a19.38,19.38,0,0,0,2.13-1.95,22.43,22.43,0,0,1,2.24-2.22,40.56,40.56,0,0,1,5.35-3.14c1.83-.9,3.66-1.76,5.52-2.57l2.79-1.18a16.55,16.55,0,0,0,2.55-1.31,10.88,10.88,0,0,0,3.79-4.19A11.47,11.47,0,0,0,118.64,117.46Z"></path><path class="cls-4" d="M83.42,143.37c-.27-2.72-.37-5.43-.42-8.13s0-5.4,0-8.1.14-5.39.27-8.08l.17-4c0-.67.06-1.35.06-2v-1c0-.33-.06-.66-.1-1,.13.31.27.63.39,1l.24,1c.17.67.24,1.35.36,2,.17,1.35.32,2.71.39,4.07.18,2.72.19,5.43.15,8.14s-.19,5.42-.45,8.11A75.79,75.79,0,0,1,83.42,143.37Z"></path><path class="cls-4" d="M68.09,142.58a37.61,37.61,0,0,0,7.7,4.18,42,42,0,0,0,4.1,1.38c.7.23,1.42.36,2.14.57s1.46.33,2.21.58a15.54,15.54,0,0,1-2.29.37,15.11,15.11,0,0,1-2.33,0,15.8,15.8,0,0,1-4.55-1.07,15.26,15.26,0,0,1-4-2.39A10.48,10.48,0,0,1,68.09,142.58Z"></path><path class="cls-4" d="M99,142.58a10.48,10.48,0,0,1-2.94,3.6,15.26,15.26,0,0,1-4,2.39,15.8,15.8,0,0,1-4.55,1.07,15.11,15.11,0,0,1-2.33,0,15.54,15.54,0,0,1-2.29-.37c.75-.25,1.49-.38,2.21-.58s1.44-.35,2.14-.57a42,42,0,0,0,4.1-1.38A37.61,37.61,0,0,0,99,142.58Z"></path><path class="cls-5" d="M45.13,59.24c12.27-5,8.92-17.59,21.56-21.68s32-7.2,42.75,0c4.71,3.16,6.82,4.77,8.36,6.47A6.94,6.94,0,0,0,115,30.73h-.22A4.5,4.5,0,0,0,109.5,25a6.63,6.63,0,0,0-11.68-5.78,12.82,12.82,0,0,0-24.33,5.66c0,.38,0,.75.05,1.13a5.07,5.07,0,0,0-4.07-2.48c-3.25,0-5.88,4-5.88,8.9a13.39,13.39,0,0,0,.08,1.43,6.93,6.93,0,0,0-10.95,5.66c0,.16,0,.31,0,.47a7,7,0,0,0-5.38-2.88c-4.46,0-8.07,5.07-8.07,11.32a15.81,15.81,0,0,0,.15,2.15A8.84,8.84,0,0,0,27,63.07,5,5,0,0,0,31,71l.49,0A5,5,0,0,0,35,78C34.75,74.6,34.79,63.42,45.13,59.24Z"></path><path class="cls-4" d="M70,111a3.83,3.83,0,0,1,.49,1.95,3.78,3.78,0,0,1-.49,1.95,3.78,3.78,0,0,1-.49-1.95A3.83,3.83,0,0,1,70,111Z"></path><path class="cls-4" d="M77.82,117.46a1.92,1.92,0,0,1,.49,1.3,1.9,1.9,0,0,1-.49,1.3,1.9,1.9,0,0,1-.49-1.3A1.92,1.92,0,0,1,77.82,117.46Z"></path><path class="cls-4" d="M92.52,115.3a2.82,2.82,0,0,1,.73,1.54,2.79,2.79,0,0,1-.24,1.69,2.79,2.79,0,0,1-.73-1.54A2.82,2.82,0,0,1,92.52,115.3Z"></path><path class="cls-4" d="M90.79,127.84a3.83,3.83,0,0,1,.49,1.95,3.78,3.78,0,0,1-.49,1.95,3.78,3.78,0,0,1-.49-1.95A3.83,3.83,0,0,1,90.79,127.84Z"></path><path class="cls-4" d="m73.39 124.4a1.86 1.86 0 0 1 0.05 1.36 1.84 1.84 0 0 1 -0.87 1 1.84 1.84 0 0 1 -0.05 -1.36 1.86 1.86 0 0 1 0.87 -1z"></path><path class="cls-4" d="M96.42,123.51a1.34,1.34,0,0,1,.75.85,1.33,1.33,0,0,1-.18,1.12,1.33,1.33,0,0,1-.75-.85A1.34,1.34,0,0,1,96.42,123.51Z"></path><ellipse class="cls-4" cx="83.42" cy="109" rx="4.04" ry="2.02"></ellipse><path class="cls-6" d="M114.56,143c18.26-6,18.53-14.79,18.53-14.79,1.91.82,2.18,3.47,2.18,3.47a20.06,20.06,0,0,0,0-13.66l2.72,1.87c-2.13-14.7-11.67-19.51-19.37-19.81,5.17,3.18,9.54,8.84,10.76,13,2.84,9.65-5.91,17.69-30.43,29.49-4.25,2-14.7,16-15,33.26h8.92C92.82,147.08,96.3,149,114.56,143Z"></path><circle class="cls-5" cx="8.18" cy="98.43" r="7.46"></circle></g></svg>