<svg viewBox="0 0 192 192" xmlns="http://www.w3.org/2000/svg" width="192" height="192"><g transform="rotate(0 3.14 2.18) translate(37.134868082630724 20.75142577276152) scale(0.6586308466279079)"><defs><style>.cls-1{fill:#f59fad;}.cls-2{fill:none;stroke:#f7bac5;stroke-miterlimit:10;stroke-width:1.63px;}.cls-3{fill:#e5879e;}.cls-4{fill:#fff;}.cls-5{fill:#f7bac5;}.cls-6{fill:#faaf40;}.cls-7{fill:#3a80b3;}.cls-8{fill:#7eb9e4;}.cls-9{fill:#f6921e;}.cls-10{isolation:isolate;}.cls-11{fill:#e27c30;}.cls-12{fill:#1b648e;}</style></defs><title>-</title><polygon class="cls-1" points="145.7 229.1 31.25 229.1 49.14 205.2 136.5 202.5"></polygon><path class="cls-2" d="m49.14 203.6c2.16 0 2.16 3.27 4.31 3.27s2.15-3.27 4.31-3.27 2.16 3.27 4.31 3.27 2.15-3.27 4.3-3.27 2.15 3.27 4.31 3.27 2.15-3.27 4.31-3.27 2.16 3.27 4.31 3.27 2.15-3.27 4.31-3.27 2.16 3.27 4.31 3.27 2.16-3.27 4.31-3.27 2.16 3.27 4.31 3.27 2.16-3.27 4.31-3.27 2.16 3.27 4.31 3.27 2.16-3.27 4.31-3.27 2.16 3.27 4.32 3.27 2.16-3.27 4.32-3.27 2.16 3.27 4.32 3.27"></path><path class="cls-2" d="m49.14 208.8c2.16 0 2.16 3.27 4.31 3.27s2.15-3.27 4.31-3.27 2.16 3.25 4.31 3.25 2.15-3.27 4.3-3.27 2.16 3.27 4.32 3.27 2.15-3.27 4.31-3.27 2.15 3.27 4.3 3.27 2.15-3.27 4.31-3.27 2.16 3.27 4.31 3.27 2.16-3.27 4.31-3.27 2.16 3.27 4.32 3.27 2.16-3.27 4.31-3.27 2.14 3.27 4.32 3.27 2.16-3.27 4.31-3.27 2.16 3.27 4.32 3.27 2.16-3.27 4.32-3.27 2.16 3.27 4.32 3.27"></path><path class="cls-2" d="M49.14,214c2.16,0,2.16,3.27,4.31,3.27S55.61,214,57.76,214s2.16,3.27,4.31,3.27,2.15-3.27,4.3-3.27,2.15,3.27,4.31,3.27S72.84,214,75,214s2.16,3.27,4.31,3.27S81.46,214,83.61,214s2.16,3.27,4.31,3.27S90.08,214,92.24,214s2.16,3.27,4.31,3.27,2.16-3.27,4.31-3.27,2.16,3.27,4.31,3.27,2.16-3.27,4.31-3.27,2.16,3.27,4.32,3.27S116,214,118.12,214s2.16,3.27,4.32,3.27"></path><path class="cls-2" d="m49.14 219.2c2.16 0 2.16 3.27 4.31 3.27s2.15-3.27 4.31-3.27 2.16 3.27 4.31 3.27 2.15-3.27 4.3-3.27 2.15 3.27 4.31 3.27 2.15-3.27 4.31-3.27 2.16 3.27 4.31 3.27 2.15-3.27 4.31-3.27 2.16 3.27 4.31 3.27 2.16-3.27 4.31-3.27 2.16 3.27 4.31 3.27 2.16-3.27 4.31-3.27 2.16 3.27 4.31 3.27 2.16-3.27 4.31-3.27 2.16 3.27 4.32 3.27 2.16-3.27 4.32-3.27 2.16 3.27 4.32 3.27"></path><path class="cls-2" d="m49.14 224.4c2.16 0 2.16 3.27 4.31 3.27s2.15-3.27 4.31-3.27 2.16 3.27 4.31 3.27 2.15-3.27 4.3-3.27 2.15 3.27 4.31 3.27 2.15-3.27 4.31-3.27 2.16 3.27 4.31 3.27 2.15-3.27 4.31-3.27 2.16 3.27 4.31 3.27 2.16-3.27 4.31-3.27 2.16 3.27 4.31 3.27 2.16-3.27 4.31-3.27 2.16 3.27 4.31 3.27 2.16-3.27 4.31-3.27 2.16 3.27 4.32 3.27 2.16-3.27 4.32-3.27 2.16 3.27 4.32 3.27"></path><path class="cls-3" d="m35.28 222a34.62 34.62 0 0 0 19.92 6.39c15.7 0 29.18-10.81 35.11-26.29"></path><path class="cls-3" d="M152.79,215.63c-6.93,7.88-16.47,12.75-27,12.75-15.69,0-29.16-10.8-35.1-26.26.94.08,1.88.13,2.84.13"></path><path class="cls-4" d="m56.75 222.9a38.67 38.67 0 0 1 -19.15 -5 68.76 68.76 0 0 1 18.75 -50.94c0.31 18.19 15.19 33.55 34.23 35.34-6.05 12.53-19.26 20.6-33.83 20.6z"></path><path class="cls-5" d="m56 168a35.46 35.46 0 0 0 10.19 23.24 39 39 0 0 0 23.81 11.44c-6.1 12.1-19 19.86-33.2 19.86a38.27 38.27 0 0 1 -18.8 -4.87 68.51 68.51 0 0 1 18 -49.67m0.79-2c-4.14 4-21 22-19.56 52.15a38.94 38.94 0 0 0 19.55 5.2c15.4 0 28.64-8.79 34.45-21.38-19.29-1.52-34.45-16.86-34.45-35.56v-0.41z"></path><path class="cls-4" d="M126,222.94c-14.51,0-27.69-8-33.77-20.49.77,0,1.46.06,2.12.06,21,0,38-16.2,38-36.1v-.32c3.46,3.28,19.07,19.58,19.72,46.71A38,38,0,0,1,126,222.94Z"></path><path class="cls-5" d="M132.78,167.06a67.83,67.83,0,0,1,18.91,45.58,37.62,37.62,0,0,1-25.67,9.9c-14.12,0-27-7.66-33.09-19.64l1.44,0c21,0,38.06-16,38.42-35.87m-.81-1.89v1.24c0,19.71-16.84,35.7-37.61,35.7-.94,0-1.86,0-2.78-.11,5.82,12.57,19,21.35,34.44,21.35A38.53,38.53,0,0,0,152.51,213c-.66-31-20.54-47.81-20.54-47.81Z"></path><ellipse class="cls-6" cx="92.13" cy="64.5" rx="47.5" ry="13.32"></ellipse><rect class="cls-6" x="44.63" y="25.55" width="94.99" height="38.95"></rect><path class="cls-7" d="m0 228.9s9.51-33.84 35.5-46.83h18.9l20.48 47.21z"></path><path class="cls-7" d="m179 228.9s-7.88-33.84-33.87-46.83h-14l-27 47.21z"></path><path class="cls-4" d="M88.08,180h.18l-.1-.2Z"></path><path class="cls-8" d="M57.07,165.17s-12.45,21.22,28,64c0,0-3.94.15-10.31.15L52.9,186.7l-28.76-7.59S33.41,167.45,57.07,165.17Z"></path><path class="cls-8" d="m131.7 165.2s4 21.22-36.53 64c0 0 3.94 0.15 10.31 0.15l24.28-40.84 30.79-9.93s-5.19-11.1-28.85-13.38z"></path><path class="cls-9" d="M130.15,38.65H49.24L30.25,37l-.55,8.84c0,2.64,1.57,2.89,4.11,3.85l49.6,19c4.93,1.88,12.86,1.94,17.5.05l46.62-19.4c2.26-.92,3.37-1.09,3.34-3.73l0-8.08Z"></path><g class="cls-10"><path class="cls-6" d="M147.23,33.44,97.77,14.61c-4.93-1.88-12.78-1.87-17.42,0l-46.58,19c-4.64,1.89-4.41,5,.52,6.87L83.75,59.33c4.93,1.88,12.79,1.86,17.44,0l46.58-19c4.64-1.89,4.39-5-.54-6.86"></path></g><g class="cls-10"><path class="cls-9" d="M101.48,21,90.28,16.7a7.14,7.14,0,0,0-4.52,0L75.2,21c-1.21.49-1.14,1.3.14,1.79l11.19,4.26a7.18,7.18,0,0,0,4.54,0l10.56-4.31c1.21-.49,1.13-1.29-.15-1.78"></path><path class="cls-9" d="M121.82,28.71l-11.19-4.26a7.14,7.14,0,0,0-4.52,0L95.55,28.76c-1.21.49-1.14,1.3.14,1.79l11.19,4.26a7.18,7.18,0,0,0,4.54,0L122,30.49c1.21-.49,1.13-1.29-.15-1.78"></path><path class="cls-9" d="M142.17,36.46,131,32.2a7.14,7.14,0,0,0-4.52,0L115.9,36.51c-1.21.49-1.14,1.3.14,1.79l11.19,4.26a7.18,7.18,0,0,0,4.54,0l10.56-4.31c1.21-.49,1.13-1.29-.15-1.78"></path><path class="cls-9" d="M83.49,28.3,72.29,24a7.18,7.18,0,0,0-4.54,0l-10.54,4.3c-1.21.49-1.14,1.3.14,1.79L68.55,34.4a7.18,7.18,0,0,0,4.54,0l10.54-4.3c1.21-.49,1.14-1.3-.14-1.79"></path><path class="cls-9" d="M103.84,36,92.64,31.79a7.18,7.18,0,0,0-4.54,0l-10.54,4.3c-1.21.49-1.14,1.3.14,1.79l11.19,4.26a7.18,7.18,0,0,0,4.54,0L104,37.84c1.21-.49,1.14-1.3-.14-1.79"></path><path class="cls-9" d="M124.18,43.8,113,39.53a7.18,7.18,0,0,0-4.54,0l-10.54,4.3c-1.21.49-1.14,1.3.14,1.79l11.19,4.26a7.18,7.18,0,0,0,4.54,0l10.54-4.3c1.21-.49,1.14-1.3-.14-1.79"></path><path class="cls-9" d="M65.48,35.64,54.29,31.38a7.18,7.18,0,0,0-4.54,0l-10.54,4.3c-1.21.49-1.14,1.3.14,1.79l11.19,4.26a7.18,7.18,0,0,0,4.54,0l10.54-4.3c1.21-.49,1.14-1.3-.14-1.79"></path><path class="cls-9" d="M85.83,43.39,74.64,39.13a7.18,7.18,0,0,0-4.54,0l-10.54,4.3c-1.21.49-1.14,1.3.14,1.79l11.19,4.26a7.18,7.18,0,0,0,4.54,0L86,45.18c1.21-.49,1.14-1.3-.14-1.79"></path><path class="cls-9" d="M106.18,51.14,95,46.88a7.18,7.18,0,0,0-4.54,0l-10.54,4.3c-1.21.49-1.14,1.3.14,1.79l11.19,4.26a7.18,7.18,0,0,0,4.54,0l10.54-4.3c1.21-.49,1.14-1.3-.14-1.79"></path></g><path class="cls-11" d="M90.07,18.5l11.19,4.26,0,0,.11,0c1.21-.49,1.13-1.29-.15-1.78L90.07,16.7a7.13,7.13,0,0,0-4.52,0L75,21c-1.19.48-1.13,1.27.09,1.76l10.47-4.27A7.13,7.13,0,0,1,90.07,18.5Z"></path><path class="cls-11" d="m95.44 30.52l10.47-4.27a7.13 7.13 0 0 1 4.52 0l11.19 4.26h0.11c1.21-0.49 1.13-1.29-0.15-1.78l-11.19-4.26a7.13 7.13 0 0 0 -4.52 0l-10.53 4.29c-1.19 0.48-1.13 1.24 0.1 1.76z"></path><path class="cls-11" d="m130.8 34 11.23 4.26h0.11c1.21-0.49 1.13-1.29-0.15-1.78l-11.19-4.28a7.13 7.13 0 0 0 -4.52 0l-10.56 4.31c-1.19 0.48-1.13 1.27 0.09 1.76l10.47-4.27a7.13 7.13 0 0 1 4.52 0z"></path><path class="cls-11" d="M72.08,25.84,83.28,30.1l0,0,.09,0c1.21-.49,1.14-1.3-.14-1.79L72.08,24a7.18,7.18,0,0,0-4.54,0L57,28.35c-1.19.48-1.13,1.27.09,1.76l10.45-4.26A7.18,7.18,0,0,1,72.08,25.84Z"></path><path class="cls-11" d="m103.6 36-11.2-4.21a7.18 7.18 0 0 0 -4.54 0l-10.54 4.3c-1.19 0.48-1.13 1.27 0.09 1.76l10.46-4.26a7.18 7.18 0 0 1 4.54 0l11.19 4.26h0.09c1.28-0.51 1.19-1.31-0.09-1.85z"></path><path class="cls-11" d="m124 43.8l-11.19-4.26a7.18 7.18 0 0 0 -4.54 0l-10.57 4.3c-1.19 0.48-1.13 1.27 0.09 1.76l10.45-4.26a7.18 7.18 0 0 1 4.54 0l11.22 4.26h0.09c1.23-0.51 1.16-1.32-0.09-1.8z"></path><path class="cls-11" d="M54.08,33.18l11.19,4.26,0,0,.09,0c1.21-.49,1.14-1.3-.14-1.79L54.08,31.38a7.18,7.18,0,0,0-4.54,0L39,35.69c-1.19.48-1.13,1.27.09,1.76l10.45-4.26A7.18,7.18,0,0,1,54.08,33.18Z"></path><path class="cls-11" d="m74.43 40.93l11.19 4.26h0.09c1.21-0.49 1.14-1.3-0.14-1.79l-11.14-4.27a7.18 7.18 0 0 0 -4.54 0l-10.54 4.3c-1.19 0.48-1.13 1.27 0.09 1.76l10.45-4.26a7.18 7.18 0 0 1 4.54 0z"></path><path class="cls-11" d="m106 51.14-11.23-4.26a7.18 7.18 0 0 0 -4.54 0l-10.53 4.3c-1.19 0.48-1.13 1.27 0.09 1.76l10.45-4.26a7.18 7.18 0 0 1 4.54 0l11.22 4.26h0.09c1.22-0.51 1.16-1.31-0.09-1.8z"></path><path class="cls-9" d="M130.15,25.58H49.24l-19-1.69-.55,8.8c0,2.64,1.57,2.87,4.11,3.83l49.6,19c4.93,1.88,12.86,1.94,17.5,0l46.62-19.4c2.26-.92,3.37-1.09,3.34-3.73l0-8Z"></path><g class="cls-10"><path class="cls-6" d="M147.23,20.24,97.77,1.4C92.83-.47,85-.47,80.35,1.43l-46.58,19c-4.64,1.89-4.41,5,.52,6.87L83.75,46.12c4.93,1.88,12.79,1.86,17.44,0l46.58-19c4.64-1.89,4.39-5-.54-6.86"></path></g><g class="cls-10"><path class="cls-9" d="M101.48,7.76,90.28,3.5a7.14,7.14,0,0,0-4.52,0L75.2,7.81c-1.21.49-1.14,1.3.14,1.79l11.19,4.26a7.18,7.18,0,0,0,4.54,0l10.56-4.31c1.21-.49,1.13-1.29-.15-1.78"></path><path class="cls-9" d="M121.82,15.51l-11.19-4.26a7.14,7.14,0,0,0-4.52,0L95.55,15.55c-1.21.49-1.14,1.3.14,1.79l11.19,4.26a7.18,7.18,0,0,0,4.54,0L122,17.29c1.21-.49,1.13-1.29-.15-1.78"></path><path class="cls-9" d="M142.17,23.26,131,19a7.14,7.14,0,0,0-4.52,0L115.9,23.3c-1.21.49-1.14,1.3.14,1.79l11.19,4.26a7.18,7.18,0,0,0,4.54,0L142.32,25c1.21-.49,1.13-1.29-.15-1.78"></path><path class="cls-9" d="M83.49,15.1,72.29,10.84a7.18,7.18,0,0,0-4.54,0l-10.54,4.3c-1.21.49-1.14,1.3.14,1.79l11.19,4.26a7.18,7.18,0,0,0,4.54,0l10.54-4.3c1.21-.49,1.14-1.3-.14-1.79"></path><path class="cls-9" d="M103.84,22.84,92.64,18.58a7.18,7.18,0,0,0-4.54,0l-10.54,4.3c-1.21.49-1.14,1.3.14,1.79l11.19,4.26a7.18,7.18,0,0,0,4.54,0L104,24.63c1.21-.49,1.14-1.3-.14-1.79"></path><path class="cls-9" d="M124.18,30.59,113,26.33a7.18,7.18,0,0,0-4.54,0l-10.54,4.3c-1.21.49-1.14,1.3.14,1.79l11.19,4.26a7.18,7.18,0,0,0,4.54,0l10.54-4.3c1.21-.49,1.14-1.3-.14-1.79"></path><path class="cls-9" d="M65.48,22.44,54.29,18.18a7.18,7.18,0,0,0-4.54,0l-10.54,4.3c-1.21.49-1.14,1.3.14,1.79l11.19,4.26a7.18,7.18,0,0,0,4.54,0l10.54-4.3c1.21-.49,1.14-1.3-.14-1.79"></path><path class="cls-9" d="M85.83,30.19,74.64,25.92a7.18,7.18,0,0,0-4.54,0l-10.54,4.3c-1.21.49-1.14,1.3.14,1.79l11.19,4.26a7.18,7.18,0,0,0,4.54,0L86,32c1.21-.49,1.14-1.3-.14-1.79"></path><path class="cls-9" d="M106.18,37.93,95,33.67a7.18,7.18,0,0,0-4.54,0L79.91,38c-1.21.49-1.14,1.3.14,1.79L91.24,44a7.18,7.18,0,0,0,4.54,0l10.54-4.3c1.21-.49,1.14-1.3-.14-1.79"></path></g><path class="cls-11" d="M90.07,5.3l11.19,4.26,0,0,.11,0c1.21-.49,1.13-1.29-.15-1.78L90.07,3.5a7.13,7.13,0,0,0-4.52,0L75,7.81c-1.19.48-1.13,1.27.09,1.76L85.55,5.3A7.13,7.13,0,0,1,90.07,5.3Z"></path><path class="cls-11" d="m95.44 17.32 10.46-4.32a7.13 7.13 0 0 1 4.52 0l11.19 4.26h0.11c1.21-0.49 1.13-1.29-0.15-1.78l-11.19-4.26a7.13 7.13 0 0 0 -4.52 0l-10.52 4.33c-1.19 0.45-1.13 1.28 0.1 1.77z"></path><path class="cls-11" d="m130.8 20.79 11.23 4.27h0.11c1.21-0.49 1.13-1.29-0.15-1.78l-11.19-4.28a7.13 7.13 0 0 0 -4.52 0l-10.56 4.3c-1.19 0.48-1.13 1.27 0.09 1.76l10.47-4.27a7.13 7.13 0 0 1 4.52 0z"></path><path class="cls-11" d="m72.08 12.64 11.2 4.26h0.09c1.21-0.49 1.14-1.3-0.14-1.79l-11.15-4.27a7.18 7.18 0 0 0 -4.54 0l-10.54 4.3c-1.19 0.48-1.13 1.27 0.09 1.76l10.45-4.26a7.18 7.18 0 0 1 4.54 0z"></path><path class="cls-11" d="m103.6 22.84-11.2-4.26a7.18 7.18 0 0 0 -4.54 0l-10.54 4.3c-1.19 0.48-1.13 1.27 0.09 1.76l10.46-4.25a7.18 7.18 0 0 1 4.54 0l11.19 4.26h0.09c1.28-0.51 1.19-1.32-0.09-1.81z"></path><path class="cls-11" d="m124 30.59l-11.19-4.26a7.18 7.18 0 0 0 -4.54 0l-10.57 4.31c-1.19 0.48-1.13 1.27 0.09 1.76l10.45-4.26a7.18 7.18 0 0 1 4.54 0l11.22 4.25h0.09c1.23-0.5 1.16-1.31-0.09-1.8z"></path><path class="cls-11" d="M54.08,20l11.19,4.26,0,0,.09,0c1.21-.49,1.14-1.3-.14-1.79L54.08,18.18a7.18,7.18,0,0,0-4.54,0L39,22.48c-1.19.48-1.13,1.27.09,1.76L49.54,20A7.18,7.18,0,0,1,54.08,20Z"></path><path class="cls-11" d="m74.43 27.72 11.19 4.28h0.09c1.21-0.49 1.14-1.3-0.14-1.79l-11.14-4.29a7.18 7.18 0 0 0 -4.54 0l-10.54 4.3c-1.19 0.48-1.13 1.27 0.09 1.76l10.45-4.26a7.18 7.18 0 0 1 4.54 0z"></path><path class="cls-11" d="m106 37.93-11.23-4.26a7.18 7.18 0 0 0 -4.54 0l-10.53 4.33c-1.19 0.48-1.13 1.27 0.09 1.76l10.45-4.26a7.18 7.18 0 0 1 4.54 0l11.22 4.23h0.09c1.22-0.5 1.16-1.31-0.09-1.8z"></path><polygon class="cls-12" points="105.5 229.3 132 191.8 146.8 183 129.8 188.5"></polygon><polygon class="cls-12" points="74.88 229.3 51.11 192.8 35.25 182.1 52.9 186.7"></polygon></g></svg>