<svg viewBox="0 0 192 192" xmlns="http://www.w3.org/2000/svg" width="192" height="192">














<g transform="rotate(0 3.14 2.18) translate(37.049682613995024 20.651819641531887) scale(0.6559145188985255)"><defs>
<style>.cls-1{fill:none;stroke:#231f20;stroke-miterlimit:10;}.cls-2{isolation:isolate;}</style>
</defs><title>6</title><path class="cls-1" d="M45.09,54.41V65.34c0,7.36,21.26,13.32,47.5,13.32s47.5-6,47.5-13.32V53.41"></path><path class="cls-1" d="M30.71,37.86l.14,8.84c0,2.64,1.57,2.89,4.11,3.85l48.92,19c4.93,1.88,12.86,1.94,17.5.05L148,50.2c2.26-.92,3.37-1.09,3.34-3.73l0-8.08"></path><path class="cls-1" d="M30.71,24.61l.14,8.84c0,2.64,1.57,2.89,4.11,3.85l48.92,19c4.93,1.88,12.86,1.94,17.5.05L148,37c2.26-.92,3.37-1.09,3.34-3.73l0-8.08"></path><g class="cls-2">
<path class="cls-1" d="M31.65,36.07c-1.66,1.76-.6,3.85,3.09,5.26L84.21,60.16C89.14,62,97,62,101.65,60.13l46.58-19c3.48-1.42,4.21-3.51,2.29-5.26"></path>
</g><g class="cls-2">
<path class="cls-1" d="M147.69,21.07,98.23,2.24C93.29.36,85.45.37,80.8,2.26l-46.58,19c-4.64,1.89-4.41,5,.52,6.87L84.21,47c4.93,1.88,12.79,1.86,17.44,0l46.58-19c4.64-1.89,4.39-5-.54-6.86"></path>
</g><g class="cls-2">
<path class="cls-1" d="M101.94,8.6,90.74,4.33a7.14,7.14,0,0,0-4.52,0L75.66,8.64c-1.21.49-1.14,1.3.14,1.79L87,14.69a7.18,7.18,0,0,0,4.54,0l10.56-4.31c1.21-.49,1.13-1.29-.15-1.78"></path>
<path class="cls-1" d="M122.28,16.34l-11.19-4.26a7.14,7.14,0,0,0-4.52,0L96,16.39c-1.21.49-1.14,1.3.14,1.79l11.19,4.26a7.18,7.18,0,0,0,4.54,0l10.56-4.31c1.21-.49,1.13-1.29-.15-1.78"></path>
<path class="cls-1" d="M142.63,24.09l-11.19-4.26a7.14,7.14,0,0,0-4.52,0l-10.56,4.31c-1.21.49-1.14,1.3.14,1.79l11.19,4.26a7.18,7.18,0,0,0,4.54,0l10.56-4.31c1.21-.49,1.13-1.29-.15-1.78"></path>
<path class="cls-1" d="M83.95,15.93,72.75,11.67a7.18,7.18,0,0,0-4.54,0L57.67,16c-1.21.49-1.14,1.3.14,1.79L69,22a7.18,7.18,0,0,0,4.54,0l10.54-4.3c1.21-.49,1.14-1.3-.14-1.79"></path>
<path class="cls-1" d="M104.3,23.68,93.1,19.42a7.18,7.18,0,0,0-4.54,0L78,23.72c-1.21.49-1.14,1.3.14,1.79l11.19,4.26a7.18,7.18,0,0,0,4.54,0l10.54-4.3c1.21-.49,1.14-1.3-.14-1.79"></path>
<path class="cls-1" d="M124.64,31.43l-11.19-4.26a7.18,7.18,0,0,0-4.54,0l-10.54,4.3c-1.21.49-1.14,1.3.14,1.79l11.19,4.26a7.18,7.18,0,0,0,4.54,0l10.54-4.3c1.21-.49,1.14-1.3-.14-1.79"></path>
<path class="cls-1" d="M65.94,23.27,54.75,19a7.18,7.18,0,0,0-4.54,0l-10.54,4.3c-1.21.49-1.14,1.3.14,1.79L51,29.37a7.18,7.18,0,0,0,4.54,0l10.54-4.3c1.21-.49,1.14-1.3-.14-1.79"></path>
<path class="cls-1" d="M86.29,31,75.1,26.76a7.18,7.18,0,0,0-4.54,0L60,31.07c-1.21.49-1.14,1.3.14,1.79l11.19,4.26a7.18,7.18,0,0,0,4.54,0l10.54-4.3c1.21-.49,1.14-1.3-.14-1.79"></path>
<path class="cls-1" d="M106.64,38.77,95.44,34.51a7.18,7.18,0,0,0-4.54,0l-10.54,4.3c-1.21.49-1.14,1.3.14,1.79L91.7,44.86a7.18,7.18,0,0,0,4.54,0l10.54-4.3c1.21-.49,1.14-1.3-.14-1.79"></path>
</g><path class="cls-1" d="m76.42 219.2a36.53 36.53 0 0 0 15.24 -16.37c-19.29-1.52-34.45-16.81-34.45-35.56v-0.41"></path><path class="cls-1" d="M106.13,218.51A36.43,36.43,0,0,1,92,202.84c.92.06,1.85.11,2.78.11,20.77,0,37.61-16,37.61-35.7V166"></path><path class="cls-1" d="M75.34,230.13.46,229.75S10,195.91,36,182.92"></path><path class="cls-1" d="m104.6 230.1l74.88-0.38s-7.61-32.69-32.55-46.14"></path><path class="cls-1" d="M57.53,166s-12.45,21.22,28,64c0,0-3.94.15-10.31.15l-21.9-42.61L24.6,179.95S33.87,168.28,57.53,166Z"></path><path class="cls-1" d="M132.15,166s4,21.22-36.53,64c0,0,3.94.15,10.31.15l24.28-40.84L161,179.37S155.81,168.28,132.15,166Z"></path></g></svg>