<svg viewBox="0 0 192 192" xmlns="http://www.w3.org/2000/svg" width="192" height="192"><g transform="rotate(0 3.14 2.18) translate(50.972970724161556 12.092488301850253) scale(1.1435436006562145)"><defs><style>.cls-1,.cls-10{fill:#da767d;}.cls-2{fill:#43060b;}.cls-3{fill:#ffdb00;}.cls-4{fill:#00ce00;}.cls-5{fill:#f80300;}.cls-6{fill:#fa8500;}.cls-7{fill:#8d00a6;}.cls-8{fill:#00dfe0;}.cls-9{fill:#103ae3;}.cls-10{opacity:0.21;}.cls-11{fill:#fff;}.cls-12{fill:#232323;}.cls-13{fill:#3b2314;}</style></defs><title>WinterBash_Hats</title><path class="cls-1" d="M50.76,54s-6.41-5.62-11.07-.06C35,48.34,28.61,54,28.61,54l-8.38,8.47s11.58-6.52,19.31-6.11h.2c7.73-.4,19.4,6.11,19.4,6.11Z"></path><path class="cls-1" d="M28.61,69.07l-8.38-6.64s11.67,3,19.4,2.62h.11c7.73.4,19.4-2.62,19.4-2.62l-8.38,6.64a23.73,23.73,0,0,1-22.14,0"></path><path class="cls-2" d="M20.23,62.43s11.58-6.52,19.31-6.11h.2c7.73-.4,19.4,6.11,19.4,6.11S43.83,69,20.23,62.43Z"></path><path class="cls-3" d="m37.8 105.2c0-11.19-2.6-11.19-2.6-22.45 0-10.52 2.29-11.19 2.58-20.47h-4.57c-0.29 9.28-2.58 9.94-2.58 20.47 0 11.23 2.61 11.23 2.61 22.45s-2.61 11.24-2.61 22.47c0 10 2.06 11.12 2.51 19.15h4.56c-0.46-8-2.51-9.15-2.51-19.15 0.01-11.23 2.61-11.23 2.61-22.47z"></path><path class="cls-4" d="m42.36 105.2c0-11.19-2.61-11.19-2.61-22.45 0-10.52 2.29-11.19 2.58-20.47h-4.56c-0.29 9.28-2.58 9.94-2.58 20.47 0.01 11.26 2.61 11.26 2.61 22.45s-2.61 11.24-2.61 22.47c0 10 2.06 11.12 2.51 19.15h4.56c-0.46-8-2.51-9.15-2.51-19.15 0-11.23 2.61-11.23 2.61-22.47z"></path><path class="cls-5" d="m28.68 105.2c0-11.19-2.6-11.19-2.6-22.45 0-10.52 2.29-11.19 2.58-20.47h-4.57c-0.29 9.28-2.58 9.94-2.58 20.47 0 11.23 2.61 11.23 2.61 22.45s-2.61 11.24-2.61 22.47c0 10 2.06 11.12 2.51 19.15h4.56c-0.46-8-2.51-9.15-2.51-19.15 0.01-11.23 2.61-11.23 2.61-22.47z"></path><path class="cls-6" d="m33.24 105.2c0-11.19-2.6-11.19-2.6-22.45 0-10.52 2.29-11.19 2.58-20.47h-4.57c-0.29 9.28-2.58 9.94-2.58 20.47 0 11.23 2.61 11.23 2.61 22.45s-2.61 11.24-2.61 22.47c0 10 2.06 11.12 2.51 19.15h4.56c-0.46-8-2.51-9.15-2.51-19.15 0.01-11.23 2.61-11.23 2.61-22.47z"></path><path class="cls-7" d="M56,105.19C56,94,53.43,94,53.43,82.74c0-10.52,2.29-11.19,2.58-20.47H51.45c-.29,9.28-2.58,9.94-2.58,20.47,0,11.23,2.61,11.23,2.61,22.45s-2.61,11.24-2.61,22.47c0,10,2.06,11.12,2.51,19.15h4.56c-.46-8-2.51-9.15-2.51-19.15C53.43,116.43,56,116.43,56,105.19Z"></path><path class="cls-8" d="m46.92 105.2c0-11.19-2.61-11.19-2.61-22.45 0-10.52 2.29-11.19 2.58-20.47h-4.56c-0.29 9.28-2.58 9.94-2.58 20.47 0 11.23 2.61 11.23 2.61 22.45s-2.61 11.24-2.61 22.47c0 10 2.06 11.12 2.51 19.15h4.56c-0.46-8-2.51-9.15-2.51-19.15 0-11.23 2.61-11.23 2.61-22.47z"></path><path class="cls-9" d="m51.48 105.2c0-11.19-2.61-11.19-2.61-22.45 0-10.52 2.29-11.19 2.58-20.47h-4.56c-0.29 9.28-2.58 9.94-2.58 20.47 0 11.23 2.61 11.23 2.61 22.45s-2.61 11.24-2.61 22.47c0 10 2.06 11.12 2.51 19.15h4.56c-0.46-8-2.51-9.15-2.51-19.15 0-11.23 2.61-11.23 2.61-22.47z"></path><circle class="cls-10" cx="12.21" cy="36.63" r="12.21"></circle><circle class="cls-10" cx="66.3" cy="36.63" r="12.21"></circle><path class="cls-11" d="M54.09,97.83a6.32,6.32,0,0,1-6.19-6.19,6.32,6.32,0,0,1-6.19,6.19A6.32,6.32,0,0,1,47.9,104,6.32,6.32,0,0,1,54.09,97.83Z"></path><path class="cls-11" d="M46.73,76.16a4.46,4.46,0,0,1-4.37-4.37A4.46,4.46,0,0,1,38,76.16a4.46,4.46,0,0,1,4.37,4.37A4.46,4.46,0,0,1,46.73,76.16Z"></path><path class="cls-11" d="M35,93.46a4.46,4.46,0,0,1-4.37-4.37,4.46,4.46,0,0,1-4.37,4.37,4.46,4.46,0,0,1,4.37,4.37A4.46,4.46,0,0,1,35,93.46Z"></path><path class="cls-11" d="M39.55,56.32C35,56.09,29.24,58.2,25.17,60c.57.46,1.55.9,5.46.14,6.16-1.2,7.16-1.36,13.25-.65,5,.59,8.83,2.43,10.2.48-4.09-1.8-9.87-3.88-14.35-3.65Z"></path><path class="cls-12" d="M47.48,2.87V8.39s-.17,1.08,1.18.46S54.21,3.63,62.38,4,74,10,74.88,14s.69-1.79.69-1.79S74.67.95,61.83.12,47.48,2.87,47.48,2.87Z"></path><path class="cls-11" d="M47.48,2.87V8.39s-.17,1.08,1.18.46S54.21,3.63,62.38,4,74,10,74.88,14s.69-1.79.69-1.79S74.67.95,61.83.12,47.48,2.87,47.48,2.87Z"></path><path class="cls-11" d="M47.48,2.87V8.39s-.17,1.08,1.18.46S54.21,3.63,62.38,4,74,10,74.88,14s.69-1.79.69-1.79S74.67.95,61.83.12,47.48,2.87,47.48,2.87Z"></path><path class="cls-13" d="M47.48,2.87V8.39s-.17,1.08,1.18.46S54.21,3.63,62.38,4,74,10,74.88,14s.69-1.79.69-1.79S74.67.95,61.83.12,47.48,2.87,47.48,2.87Z"></path><path class="cls-12" d="M29.27,2.87V8.39s.17,1.08-1.18.46S22.54,3.63,14.36,4,2.76,10,1.87,14s-.69-1.79-.69-1.79S2.07.95,14.91.12,29.27,2.87,29.27,2.87Z"></path><path class="cls-11" d="M29.27,2.87V8.39s.17,1.08-1.18.46S22.54,3.63,14.36,4,2.76,10,1.87,14s-.69-1.79-.69-1.79S2.07.95,14.91.12,29.27,2.87,29.27,2.87Z"></path><path class="cls-11" d="M29.27,2.87V8.39s.17,1.08-1.18.46S22.54,3.63,14.36,4,2.76,10,1.87,14s-.69-1.79-.69-1.79S2.07.95,14.91.12,29.27,2.87,29.27,2.87Z"></path><path class="cls-13" d="M29.27,2.87V8.39s.17,1.08-1.18.46S22.54,3.63,14.36,4,2.76,10,1.87,14s-.69-1.79-.69-1.79S2.07.95,14.91.12,29.27,2.87,29.27,2.87Z"></path></g></svg>