<svg viewBox="0 0 192 192" xmlns="http://www.w3.org/2000/svg" width="192" height="192">








<g transform="rotate(0 3.14 2.18) translate(51.08418549501058 11.74708680433514) scale(1.1443519619105584)"><defs>
<style>.cls-1,.cls-2{fill:none;stroke:#231f20;}.cls-1{stroke-linecap:round;stroke-linejoin:round;}.cls-2{stroke-miterlimit:10;}</style>
</defs><title>8</title><path class="cls-1" d="m56.55 65.55l3-2.41-8.38-8.47s-6.36-5.67-11.03-0.06c-4.66-5.57-11.07 0.06-11.07 0.06l-8.38 8.47 3.51 2.75"></path><circle class="cls-1" cx="66.76" cy="37.34" r="12.21"></circle><path class="cls-2" d="M56.5,105.89c0-11.23-2.61-11.23-2.61-22.45,0-10.52,2.29-11.19,2.58-20.47H24.55C24.26,72.25,22,72.92,22,83.44c0,11.23,2.61,11.23,2.61,22.45S22,117.13,22,128.37c0,10,2.06,11.12,2.51,19.15H56.4c-.46-8-2.51-9.15-2.51-19.15C53.89,117.13,56.5,117.13,56.5,105.89Zm-25.4-7.37a4.46,4.46,0,0,0-4.37-4.37,4.46,4.46,0,0,0,4.37-4.37,4.46,4.46,0,0,0,4.37,4.37A4.46,4.46,0,0,0,31.09,98.53Zm7.35-21.67a4.46,4.46,0,0,0,4.37-4.37,4.46,4.46,0,0,0,4.37,4.37,4.46,4.46,0,0,0-4.37,4.37A4.46,4.46,0,0,0,38.45,76.86Zm9.91,27.86a6.32,6.32,0,0,0-6.19-6.19,6.32,6.32,0,0,0,6.19-6.19,6.32,6.32,0,0,0,6.19,6.19A6.32,6.32,0,0,0,48.35,104.72Z"></path><path class="cls-1" d="M28.54,9.56C27.18,8.93,23,4.33,14.82,4.74s-11.61,6-12.5,9.93-.69-1.79-.69-1.79S2.53,1.65,15.37.83,29.73,3.57,29.73,3.57V9.1S29.9,10.18,28.54,9.56Z"></path><path class="cls-1" d="M75.33,14.67c-.89-3.94-4.33-9.52-12.5-9.93S50.47,8.93,49.12,9.56s-1.18-.46-1.18-.46V3.57S49.44,0,62.29.83,76,12.88,76,12.88,76.23,18.61,75.33,14.67Z"></path><circle class="cls-1" cx="12.67" cy="37.34" r="12.21"></circle></g></svg>