<svg viewBox="0 0 192 192" xmlns="http://www.w3.org/2000/svg" width="192" height="192"><g transform="rotate(0 3.14 2.18) translate(25.354641025359584 31.8239962428175) scale(1.035096834793266)"><defs><style>.cls-1{fill:#231f20;}.cls-2,.cls-3{fill:#e4b14a;}.cls-3{font-size:34.52px;font-family:Phosphate-Inline, Phosphate;letter-spacing:-0.01em;}.cls-4{letter-spacing:-0.01em;}.cls-5{letter-spacing:0em;}.cls-6{fill:#58595b;}.cls-7{fill:#b9802b;}.cls-8{fill:#c89954;}.cls-9{fill:#fff;opacity:0.3;}</style></defs><title>-</title><path class="cls-1" d="m111.1 97.91c-1.06-32 11.73-89.06 11.73-89.06-64.67-17.85-101.2 0-101.2 0 8.17 24.15 4.57 79.72 3.81 89.15-15.51 2.68-25.43 6.69-25.43 11.19 0 6.54 20.95 12 49.59 13.78a156 156 0 0 0 16.75 0.55h2.37c37.95 0 68.71-6.42 68.71-14.35 0-4.56-10.29-8.64-26.3-11.26z"></path><path class="cls-2" d="M71.1,76.62H68.72A156,156,0,0,1,52,76.05a225.61,225.61,0,0,1-25.26-2.83C26.41,85,25.71,94.47,25.43,98h0a229.5,229.5,0,0,0,24.2,2.65,156,156,0,0,0,16.75.55h2.37A267.37,267.37,0,0,0,112,98.06l-.9-.15a183.62,183.62,0,0,1,1.11-24.14A273.88,273.88,0,0,1,71.1,76.62Z"></path><text class="cls-3" transform="translate(38.64 61.03)">2 <tspan class="cls-4" x="14.33" y="0">0</tspan><tspan class="cls-5" x="33.94" y="0">17</tspan></text><path class="cls-6" d="m129.5 102.5a3.46 3.46 0 0 1 0.52 1.75c0 7.92-30.76 14.35-68.71 14.35h-2.35a156 156 0 0 1 -16.75 -0.55c-18-1.09-33-3.68-41.64-7.08 3.43 5.74 23 10.42 49 12a156 156 0 0 0 16.75 0.55h2.37c37.95 0 68.71-6.42 68.71-14.35-0.02-2.42-2.88-4.68-7.9-6.67z"></path><path class="cls-7" d="M111.06,99.67s-8.66-13.21-6.53-16.8a17.52,17.52,0,0,0,3.9,7s-4.31-8.9-1.85-12.51a14.69,14.69,0,0,0,1.19,2.54s2.62-20.39,8.73-26.66c0,0-1.92,5.3-1,7.44,0,0,4.35-13.31,11.87-16.71,0,0-3.13,4.38-3.31,6.56,0,0,5-7.83,9.74-10.05,0,0-.29,13.71-3.42,18.39,0,0,4.57-3.88,4.48-6.09,0,0-.89,7.62-5.07,11.67a3.12,3.12,0,0,0,2.94-.72S127.46,94.12,111.06,99.67Z"></path><path class="cls-8" d="M111,99.42s9.59-.27,10.64-2.58a10.64,10.64,0,0,1-4.82.47s5.93-.95,6.88-3.42a8.92,8.92,0,0,1-1.68.29s9.25-8.39,10.25-13.61c0,0-2,2.8-3.38,3.06,0,0,5.12-6.79,4.21-11.72,0,0-1.1,3.08-2.12,3.93,0,0,2.15-5.23,1.63-8.35,0,0-6.73,4.91-8,8.1,0,0,.35-3.63,1.48-4.35,0,0-3.49,3.09-4.06,6.58a1.89,1.89,0,0,1-.66-1.72S108.05,89.32,111,99.42Z"></path><path class="cls-9" d="m34.8 99.4l20.93 1.87c1.19-17 4.2-67.18-3.17-99.88a144.3 144.3 0 0 0 -20.78 3.39c5.66 23.47 5.28 62.43 3.02 94.62z"></path><ellipse class="cls-6" cx="72.24" cy="8.85" rx="50.62" ry="8.85"></ellipse></g></svg>