<svg viewBox="0 0 192 192" xmlns="http://www.w3.org/2000/svg" width="192" height="192">












<g transform="rotate(0 3.14 2.18) translate(24.913331955749314 31.481121938098553) scale(1.0302415658587056)"><defs>
<style>.cls-1{fill:none;stroke:#231f20;stroke-miterlimit:10;}.cls-2{fill:#231f20;}</style>
</defs><title>10</title><path class="cls-1" d="M22.64,9.68c8.17,24.18,4.56,79.72,3.8,89.2C10.93,101.51,1,105.52,1,110c0,6.54,20.95,12,49.59,13.78a156,156,0,0,0,16.75.55h2.37c37.95,0,68.71-6.42,68.71-14.35,0-4.58-10.29-8.66-26.3-11.28"></path><path class="cls-1" d="m115.2 56.92c3.48-24.26 8.62-47.23 8.62-47.23"></path><path class="cls-1" d="M109.66,75.12a283.48,283.48,0,0,1-37.55,2.33H69.74A156,156,0,0,1,53,76.89a225.61,225.61,0,0,1-25.26-2.83c-.31,11.74-1,21.25-1.29,24.83h0a229.5,229.5,0,0,0,24.2,2.65,156,156,0,0,0,16.75.55h2.37A267.37,267.37,0,0,0,113,98.89l-.9-.15"></path><path class="cls-1" d="M44.59,50.82a13.13,13.13,0,0,0,.93-2.07,4.58,4.58,0,0,0,.21-1.31q0-2.31-2.83-2.31l-.52,0-.45.05a2.37,2.37,0,0,1-.45,0V38.84l.86-.17q.38-.07.74-.1l.76-.05.92,0a14.77,14.77,0,0,1,3.26.36A8.82,8.82,0,0,1,50.91,40,6.39,6.39,0,0,1,53,42.26a6.69,6.69,0,0,1,.79,3.38,8.36,8.36,0,0,1-.21,1.85,13.21,13.21,0,0,1-.64,2q-.43,1.07-1.1,2.4L50.25,55l-.45.86h4.35l-2,6H38.79Zm5.73,8.29.31-.83H45l3.9-7.39a18.41,18.41,0,0,0,1-2.35,7,7,0,0,0,.4-2.31,4.16,4.16,0,0,0-1.47-3.45A5.87,5.87,0,0,0,45,41.6l-.19,0-.16,0h-.1v.83h.1l.16,0,.19,0a4.8,4.8,0,0,1,3.16,1,3.48,3.48,0,0,1,1.19,2.85,6.49,6.49,0,0,1-.34,2,15.72,15.72,0,0,1-1,2.26L43.56,59.1Z"></path><path class="cls-1" d="M73.25,50.37q0,5.87-2.45,9A8.22,8.22,0,0,1,64,62.45a8.21,8.21,0,0,1-6.83-3.11q-2.45-3.11-2.45-9t2.45-9A8.21,8.21,0,0,1,64,38.29a8.22,8.22,0,0,1,6.84,3.11Q73.24,44.5,73.25,50.37Zm-15.36,0a17.48,17.48,0,0,0,.29,3.16,10.14,10.14,0,0,0,1,2.92A6,6,0,0,0,61,58.59a5.61,5.61,0,0,0,5.87,0,6,6,0,0,0,1.86-2.14,10.17,10.17,0,0,0,1-2.92,17.17,17.17,0,0,0,0-6.32,10.16,10.16,0,0,0-1-2.92,6,6,0,0,0-1.86-2.14,5.61,5.61,0,0,0-5.87,0,6,6,0,0,0-1.86,2.14,10.13,10.13,0,0,0-1,2.92A17.48,17.48,0,0,0,57.88,50.37Zm11.25,0A18.4,18.4,0,0,1,68.93,53a9.74,9.74,0,0,1-.78,2.68,5.83,5.83,0,0,1-1.59,2.09,4.46,4.46,0,0,1-5.23,0,5.92,5.92,0,0,1-1.57-2.09A9.7,9.7,0,0,1,59,53a16.51,16.51,0,0,1,0-5.21,9.71,9.71,0,0,1,.78-2.68A5.93,5.93,0,0,1,61.33,43a4.46,4.46,0,0,1,5.23,0,5.83,5.83,0,0,1,1.59,2.09,9.75,9.75,0,0,1,.78,2.68A18.42,18.42,0,0,1,69.14,50.37Zm-3,0q0-5.42-2.21-5.42t-2.21,5.42q0,5.42,2.21,5.42T66.17,50.37Z"></path><path class="cls-1" d="M75.83,47.81l-3.11-3.62,5-5.35h5.52v23H75.83ZM79.94,59.1V41.6H79l-2.66,2.83.52.59L79,42.77V59.1Z"></path><path class="cls-1" d="M90.54,45.26H84.22l2.55-6.42h14.05l-9.08,23H84ZM89.37,59.1l6.9-17.5H88.54l-.31.83H95L88.4,59.1Z"></path><path class="cls-1" d="M112.08,98.5s-8.66-11.21-6.53-14.8a17.52,17.52,0,0,0,3.9,7s-4.31-8.9-1.85-12.51a14.69,14.69,0,0,0,1.19,2.54s2.62-20.39,8.73-26.66c0,0-1.92,5.3-1,7.44,0,0,4.35-13.31,11.87-16.71,0,0-3.13,4.38-3.31,6.56,0,0,5-7.83,9.74-10.05,0,0-.29,13.71-3.42,18.39,0,0,4.57-3.88,4.48-6.09,0,0-.89,7.62-5.07,11.67a3.12,3.12,0,0,0,2.94-.72s-.37,2.12-1.22,5.35"></path><path class="cls-2" d="M132.63,70.33a24.75,24.75,0,0,1-1.58,6L129.53,80l3-2.47a27.36,27.36,0,0,1-3.43,6.34l-1.55,2.06,2.53-.47h0a49.16,49.16,0,0,1-7.71,7.79L120.18,95h3a39.63,39.63,0,0,1-10.43,3.09c-1.42-7.47,6.13-16.16,9.12-19.27a2.45,2.45,0,0,0,.59.63l1.31.92.26-1.58a6.84,6.84,0,0,1,.51-1.66l-.6,6.28,2.61-6.65c.73-1.87,3.88-4.68,6.08-6.45m1-2s-6.73,4.91-8,8.1c0,0,.28-2.91,1.15-4-.88.87-3.26,3.44-3.73,6.27a1.89,1.89,0,0,1-.66-1.72S109.07,89.15,112,99.26c0,0,12.5-2.09,13.58-5.09,0,0-2-.15-2.57-.15,0,0,9.25-7.39,10.25-12.61,0,0-2,2.8-3.38,3.06,0,0,5.12-6.79,4.21-11.72,0,0-1.1,3.08-2.12,3.93,0,0,2.15-5.23,1.63-8.35Zm-6.5,3.75a1.32,1.32,0,0,0-.33.31l.33-.31Z"></path><ellipse class="cls-1" cx="73.25" cy="9.68" rx="50.62" ry="8.85"></ellipse></g></svg>