<svg viewBox="0 0 192 192" xmlns="http://www.w3.org/2000/svg" width="192" height="192"><g transform="rotate(0 3.14 2.18) translate(60.41258374729635 7.168334046135897) scale(0.5474987115800561)"><defs><style>.cls-1{fill:#a6a8ab;}.cls-2,.cls-4{fill:#fff;}.cls-2{stroke:#a6a8ab;stroke-miterlimit:10;stroke-width:0.66px;}.cls-3{fill:#f7bac5;}.cls-4{opacity:0.71;}.cls-5{fill:#f6921e;}</style></defs><title>-</title><polygon class="cls-1" points="117.1 325.4 100.1 325.4 102.5 287.3 114.7 287.3"></polygon><ellipse class="cls-2" cx="108.4" cy="287.3" rx="6.59" ry="2.92"></ellipse><path class="cls-2" d="m120.6 264.9s11.63-7.28 8.08-18.8c-2.22-7.19-8-3.55-8.29 4.74-0.35 9.26-4.94 8.74-4.94 8.74"></path><path class="cls-2" d="m104.5 278.1l-19.25-20.5c-1.94-0.42-8.46-1.5-8.46 2.73 0 5 6.16 5.45 6.16 5.45s7.82 1.66 9 9.24 8.29 11.13 8.29 11.13a5.85 5.85 0 0 0 5.68 0s11.61 5.45 12.55-7.82l-0.12-0.07c-5.03 6.06-13.85-0.16-13.85-0.16z"></path><path class="cls-1" d="M31.88,137.76S24.4,110.47,12.71,97.15-6.46,54,7.83,30.4,11.41-.31,21.15,0,28.3,39,28.3,39s-2.92,19.49,6.17,38.34C40.56,89.94,39.35,122.17,31.88,137.76Z"></path><path class="cls-3" d="M16,38s-.65,14.41,9.1,32.06S38.7,105.6,32.2,124.77c0,0-4-16.24-13.21-30.54S6.86,54.59,16,38Z"></path><path class="cls-4" d="M16.25,43.39A38,38,0,0,1,16,38c-9.1,16.57-6.17,41.91,3,56.21S32.2,124.77,32.2,124.77c.26-.77.5-1.54.73-2.3a112.44,112.44,0,0,0-12-26.29C12.35,82.83,9.23,59.87,16.25,43.39Z"></path><path class="cls-1" d="m55.22 137.8s7.47-27.29 19.17-40.61 19.16-43.15 4.87-66.75-3.57-30.71-13.32-30.4-7.15 39-7.15 39 2.92 19.49-6.17 38.34c-6.09 12.6-4.88 44.83 2.6 60.42z"></path><path class="cls-3" d="M71.14,38s.65,14.41-9.1,32.06-13.65,35.52-7.15,54.69c0,0,4-16.24,13.21-30.54S80.23,54.59,71.14,38Z"></path><path class="cls-4" d="M70.84,43.39a38,38,0,0,0,.3-5.37c9.1,16.57,6.17,41.91-3,56.21s-13.21,30.54-13.21,30.54c-.26-.77-.5-1.54-.73-2.3a112.44,112.44,0,0,1,12-26.29C74.75,82.83,77.86,59.87,70.84,43.39Z"></path><path class="cls-1" d="M45.26,136.79s-5.77-5.53-3.49-12c0,0-7.7,7.47-3.48,16.57a22.57,22.57,0,0,0-16.52-12.55,16.84,16.84,0,0,1,5,11c-5.61-.39-8.44-7.14-8.44-7.14,0,10,5.36,14.19,5.36,14.19H59.12Z"></path><path class="cls-1" d="M42.83,136.79s5.77-5.53,3.49-12c0,0,7.7,7.47,3.48,16.57a22.57,22.57,0,0,1,16.52-12.55,16.84,16.84,0,0,0-5,11c5.61-.39,8.44-7.14,8.44-7.14,0,10-5.36,14.19-5.36,14.19H29Z"></path><path class="cls-5" d="m112.8 257.6l-28-20.28s0.95 4.26-2.61 5c0 0-1.18 6.63-7.11 5l10.12 10.77 19.25 20.5s8.82 6.22 13.86 0.16a10.73 10.73 0 0 0 1.54 -2.53s9.53-7.1-7.05-18.62z"></path><path class="cls-2" d="m104.6 264.9s-7.11-4 0.47-15.41 12.65 4.47 9.68 9.54l-2.77-2.04s-0.12 9.65-7.38 7.91z"></path><path class="cls-2" d="m108.2 246.2s-4.38-6.39-9.32 1.36-1.9 14.15 2.7 13c0-0.04-0.75-6.97 6.62-14.36z"></path></g></svg>