<svg viewBox="0 0 192 192" xmlns="http://www.w3.org/2000/svg" width="192" height="192">












<g transform="rotate(0 3.14 2.18) translate(60.71296261208735 6.828702817031555) scale(0.5449735503924733)"><defs>
<style>.cls-1{fill:none;stroke:#231f20;stroke-miterlimit:10;}</style>
</defs><title>11</title><path class="cls-1" d="m121.2 265.7s11.63-7.28 8.08-18.8c-2.22-7.19-8-3.55-8.29 4.74-0.35 9.26-4.94 8.74-4.94 8.74"></path><path class="cls-1" d="M119,279l.12.07c-.3,4.15-1.94,6.73-3.63,8l-.08,2,2.3,37.15h-17L103,289.46l-.76-2.09s-8.48-4-9.67-11.61-9-9.24-9-9.24-6.16-.47-6.16-5.45c0-4.23,6.52-3.15,8.46-2.73"></path><path class="cls-1" d="M16.52,38.78s-.65,14.41,9.1,32.06,13.65,35.52,7.15,54.69c0,0-4-16.24-13.21-30.54S7.42,55.35,16.52,38.78Z"></path><path class="cls-1" d="M71.7,38.78s.65,14.41-9.1,32.06S49,106.36,55.46,125.53c0,0,4-16.24,13.21-30.54S80.8,55.35,71.7,38.78Z"></path><path class="cls-1" d="M35,78.1c-9.1-18.84-6.17-38.34-6.17-38.34s2.6-38.66-7.15-39,1,6.82-13.32,30.39S1.58,84.59,13.27,97.91c8.36,9.52,14.56,26.19,17.42,34.91a22.54,22.54,0,0,1,3.13,2.43C40,118.79,40.73,89.88,35,78.1Z"></path><path class="cls-1" d="M79.83,31.17C65.53,7.6,76.25.45,66.5.77s-7.15,39-7.15,39,2.92,19.49-6.17,38.34c-5.77,11.95-5,41.53,1.49,57.86a22.91,22.91,0,0,1,2.57-2.23c2.71-8.43,9.05-25.95,17.71-35.81C86.65,84.59,94.12,54.74,79.83,31.17Z"></path><path class="cls-1" d="m61.85 140.6a16.84 16.84 0 0 1 5 -11 22.59 22.59 0 0 0 -9.65 4.17 22.91 22.91 0 0 0 -2.53 2.26 22.6 22.6 0 0 0 -3.86 5.22c3.29-8.66-3.88-15.62-3.88-15.62 1.58 4.52-0.73 8.57-2.28 10.62-1.55-2-3.86-6.09-2.28-10.62 0 0-7.17 7-3.88 15.62a22.82 22.82 0 0 0 -4.58 -5.92 22.68 22.68 0 0 0 -11.5 -5.71 16.84 16.84 0 0 1 5 11c-5.61-0.39-8.44-7.14-8.44-7.14 0 10 5.36 14.19 5.36 14.19h40.59s5.34-4.16 5.36-14.19c0-0.02-2.83 6.73-8.43 7.12z"></path><path class="cls-1" d="M99.46,248.28l-14-10.17s.95,4.26-2.61,5c0,0-1.18,6.63-7.11,5l10.12,10.77,19.25,20.5s8.82,6.22,13.86.16A10.73,10.73,0,0,0,120.5,277s9.47-7-7.11-18.57"></path><path class="cls-1" d="m105.2 265.7s-7.11-4 0.47-15.41 12.65 4.47 9.68 9.54l-2.77-2s-0.12 9.62-7.38 7.87z"></path><path class="cls-1" d="m108.8 246.9s-4.38-6.39-9.32 1.36-1.9 14.15 2.7 13c-0.01-0.04-0.76-6.97 6.62-14.36z"></path></g></svg>