<svg viewBox="0 0 192 192" xmlns="http://www.w3.org/2000/svg" width="192" height="192"><g transform="rotate(0 3.14 2.18) translate(35.1438412488985 22.103235802233897) scale(0.8481694599456655)"><defs><style>.cls-1{fill:#f1e147;}.cls-2{fill:#a8592b;}.cls-3{opacity:0.65;}.cls-4{fill:#e42147;}.cls-5{fill:#cebc3f;}</style></defs><title>-</title><path class="cls-1" d="m17.17 20.92c-0.07-0.32-0.16-0.64-0.26-1 0 0.02 0.09 0.41 0.26 1z"></path><path class="cls-1" d="M1.39,92.26A4.61,4.61,0,0,0,3.53,92,3.15,3.15,0,0,0,1.39,92.26Z"></path><path class="cls-1" d="M57.93,2.87s0,.42.11,1.05A4.06,4.06,0,0,0,57.93,2.87Z"></path><path class="cls-1" d="M86.36,3.92c.09-.64.11-1.05.11-1.05A4.06,4.06,0,0,0,86.36,3.92Z"></path><path class="cls-1" d="M144.41,83s-7.48-.25-9.15-3.52c0,0,5.27-1.51,9.15-8.29,0,0-2.49,2-6.93-3.52,0,0,6.1-4,5.27-19.59,0,0-.28,5.27-3.6,7.53,0,0-3-13.06-.55-18.08,0,0-1.94,4.27-5.54,5.27,0,0,5-13.81-.55-18.58,0,0,.55,4.77-3,6.53a12.39,12.39,0,0,1-2.2-9.82c-.46,1.51-1.54,4.33-3.34,5.05,0,0-3.6-7.28-2.49-9.54,0,0-3.43,2.16-3.33,4.37,0-.9-.3-5.57-3-7.38,0,0,.55,5.52-4.43,7.53,0,0-4.16-7-1.39-12.3,0,0-5.82-1-6.93,2.51,0,0-3-4.77-2.22-7,0,0-3.88,2-4.71,4.27,0,0-3-3.26-3-5.52,0,0-.28,6.53-2.77,8.29,0,0-3.12-4-3.16-7.23-.25,1.69-1,5-3.21,6.23,0,0,1.94-7.53-3.33-9.54,0,0,1.11,6-2.49,7.53a4.08,4.08,0,0,1-1.11-4.46,5.67,5.67,0,0,0-4.07,4.18C71.14,6,72,0,72,0c-.86,6.16-5,8.14-5,8.14C63.47,6.64,64.58.61,64.58.61c-5.27,2-3.33,9.54-3.33,9.54C59,8.87,58.29,5.61,58,3.92c0,3.19-3.16,7.23-3.16,7.23-2.49-1.76-2.77-8.29-2.77-8.29,0,2.26-3,5.52-3,5.52-.83-2.26-4.71-4.27-4.71-4.27.83,2.26-2.22,7-2.22,7C41,7.64,35.2,8.64,35.2,8.64c2.77,5.27-1.39,12.3-1.39,12.3-5-2-4.43-7.53-4.43-7.53-2.75,1.81-3,6.48-3,7.38.1-2.21-3.33-4.37-3.33-4.37C24.11,18.69,20.51,26,20.51,26c-1.8-.72-2.88-3.54-3.34-5.05A12.39,12.39,0,0,1,15,30.74c-3.6-1.76-3-6.53-3-6.53C6.38,29,11.36,42.8,11.36,42.8c-3.6-1-5.54-5.27-5.54-5.27,2.49,5-.55,18.08-.55,18.08-3.33-2.26-3.6-7.53-3.6-7.53C.83,63.64,6.93,67.66,6.93,67.66,2.49,73.18,0,71.17,0,71.17,3.88,78,9.15,79.46,9.15,79.46,7.48,82.72,0,83,0,83c1.94,5.78,8.32,5,8.32,5a9.3,9.3,0,0,1-4.79,4c3.33.77,6.17,6.25,6.17,6.25,13.3-2.26,16.63,8,16.63,8s1.39-41.18.55-50.47S34.37,43.3,38.8,48.57c3.55,4.23,22.23,4.18,29.52,4,0,0,32.85,1.28,37.28-4s12.75-2,11.92,7.28.55,50.47.55,50.47,3.33-10.3,16.63-8c0,0,2.84-5.48,6.17-6.25a9.3,9.3,0,0,1-4.79-4S142.47,88.75,144.41,83Z"></path><path class="cls-1" d="M143,92.26a3.15,3.15,0,0,0-2.14-.23A4.61,4.61,0,0,0,143,92.26Z"></path><path class="cls-1" d="m127.2 20.92c0.18-0.58 0.26-1 0.26-1-0.11 0.35-0.19 0.68-0.26 1z"></path><path class="cls-2" d="M94.48,135.16c-.87-11.92-9.24-16.47-18.85-16.12a42.17,42.17,0,0,1-6.13,0c-8.68-1-16.24,4.16-18.09,12.62-2.1,9.64-.35,18.92,3.23,27.93,2.43,6.11,7.07,10.07,12.87,12.9,3.49,1.7,7.06,1.87,10.29-.07s6.7-4.1,9.11-7c6.19-7.36,7.26-16.52,7.6-25.75C94.5,138.18,94.59,136.66,94.48,135.16Zm-3.87,1.37c-.72,6.05-5.95,12-11.91,13.31-1.66.37-3.78,1.09-4.51-1.36-.67-2.22-.07-4.88,2.48-5.65.78-.24,1.5-.07,2.15-1.71H66.76c.16,0,.5,1.2.89,1.41a10.71,10.71,0,0,0,1.32.88c2.29.75,2.69,2.71,2.21,4.72s-2.28,2-3.9,1.8c-7.2-1-13.7-9.43-12.85-16.6.57-4.78,5.24-8.68,10.61-8.76q7.59-.11,15.19,0C87,124.71,91.41,129.84,90.61,136.53Z"></path><path class="cls-3" d="m113.1 74.49c-13.67 4.35-38.13 5.4-40.62 5.51-2.45-0.11-26.8-1.16-40.45-5.51 0 0-7.3-2-3.54 9.11 0 0 1.83 11 10.42 14.09s15.45 5.16 15.45 5.16 6.81 1.73 8.74-2.48 5.68-10.55 9.39-10.78c3.72 0.24 7.65 6.66 9.55 10.78s8.9 2.48 8.9 2.48 6.87-2.05 15.45-5.16 10.41-14.09 10.41-14.09c3.76-11.09-3.7-9.11-3.7-9.11z"></path><path class="cls-4" d="m116.4 72.54a148.9 148.9 0 0 1 -43.92 6.58 148 148 0 0 1 -43.82 -6.58c-4.71-1.46-2.13 6.7-2.13 6.7l2.13 6.63s0.18-6.52 1.15-8.45 5.74-1 5.74-1 17.08 3 22.11 4.07c4.4 0.94 12.4 1.87 14 2.09s0.69 0 0.82 0 0.82 0 0.82 0c1.65-0.22 9.71-1.16 14.11-2.09 5-1.07 22.28-4.07 22.28-4.07s4.72-1 5.69 1 1.13 8.45 1.13 8.45l2.11-6.63s2.49-8.16-2.22-6.7z"></path><path class="cls-4" d="M72.45,86.88c-3.78.24-7.63,6.78-9.56,11l.85,2.1c2.09-4.05,5.42-9,8.71-9.23,3.22.2,6.6,5,8.73,9l1-1.84C80.24,93.66,76.23,87.12,72.45,86.88Z"></path><path class="cls-5" d="m94.43 43.21s-2.55-8.93 3.78-13.67a62.25 62.25 0 0 0 -3.78 13.67z"></path><path class="cls-5" d="m94.41 43.21s2.59-8.92-3.78-13.67a62.25 62.25 0 0 1 3.78 13.67z"></path><path class="cls-5" d="m68.07 46.51s-2.55-8.93 3.78-13.67a62.25 62.25 0 0 0 -3.78 13.67z"></path><path class="cls-5" d="M78,25.09s-2.55-8.93,3.78-13.67A62.25,62.25,0,0,0,78,25.09Z"></path><path class="cls-5" d="M127.38,63s-2.55-8.93,3.78-13.67A62.25,62.25,0,0,0,127.38,63Z"></path><path class="cls-5" d="M44.88,22.6s7.93,8.87,3.3,17.88A79.8,79.8,0,0,0,44.88,22.6Z"></path><path class="cls-5" d="m15.23 45.66s7.93 8.87 3.3 17.88a79.8 79.8 0 0 0 -3.3 -17.88z"></path><path class="cls-5" d="M60.05,30s-1.59-5.56,2.35-8.51A38.76,38.76,0,0,0,60.05,30Z"></path><path class="cls-5" d="M60,30s1.59-5.56-2.35-8.51A38.76,38.76,0,0,1,60,30Z"></path><path class="cls-5" d="M116,39.92s-1.53-5.38,2.27-8.24A37.5,37.5,0,0,0,116,39.92Z"></path><path class="cls-5" d="m116 39.92s1.53-5.38-2.27-8.24a37.5 37.5 0 0 1 2.27 8.24z"></path><path class="cls-5" d="M27,39.92s-1.53-5.38,2.27-8.24A37.5,37.5,0,0,0,27,39.92Z"></path><path class="cls-5" d="M27,39.92s1.53-5.38-2.27-8.24A37.5,37.5,0,0,1,27,39.92Z"></path></g></svg>