<svg viewBox="0 0 192 192" xmlns="http://www.w3.org/2000/svg" width="192" height="192">












<g transform="rotate(0 3.14 2.18) translate(34.68411855225212 22.90473823982029) scale(0.8413843080308456)"><defs>
<style>.cls-1{fill:none;stroke:#231f20;stroke-miterlimit:10;}</style>
</defs><title>12</title><path class="cls-1" d="m17.87 20.92c-0.07-0.32-0.16-0.64-0.26-1 0 0.02 0.09 0.41 0.26 1z"></path><path class="cls-1" d="M58.63,2.87s0,.42.11,1.05A4.06,4.06,0,0,0,58.63,2.87Z"></path><path class="cls-1" d="M117.63,82.89c.24,12.1,1.15,23.43,1.15,23.43s3.33-10.3,16.63-8c0,0,2.84-5.48,6.17-6.25a9.3,9.3,0,0,1-4.79-4s6.38.75,8.32-5c0,0-7.48-.25-9.15-3.52,0,0,4.41-.91,8.29-7.69,0,0-1.78.09-6.07-4.11,0,0,6.1-4,5.27-19.59,0,0-.28,5.27-3.6,7.53,0,0-3-13.06-.55-18.08,0,0-1.94,4.27-5.54,5.27,0,0,5-13.81-.55-18.58,0,0,.55,4.77-3,6.53a12.39,12.39,0,0,1-2.2-9.82c-.46,1.51-1.54,4.33-3.34,5.05,0,0-3.6-7.28-2.49-9.54,0,0-3.43,2.16-3.33,4.37,0-.9-.3-5.57-3-7.38,0,0,.55,5.52-4.43,7.53,0,0-4.16-7-1.39-12.3,0,0-5.82-1-6.93,2.51,0,0-3-4.77-2.22-7,0,0-3.88,2-4.71,4.27,0,0-3-3.26-3-5.52,0,0-.28,6.53-2.77,8.29a17.92,17.92,0,0,1-3.1-6.43,7.36,7.36,0,0,1-3.27,5.43S85.79,2.62,80.53.61c0,0,1.11,6-2.49,7.53a4.08,4.08,0,0,1-1.11-4.46,5.67,5.67,0,0,0-4.07,4.18C71.84,6,72.75,0,72.75,0c-.86,6.16-5,8.14-5,8.14C64.17,6.64,65.28.61,65.28.61,60,2.62,62,10.15,62,10.15c-2.21-1.28-3-4.54-3.21-6.23,0,3.19-3.16,7.23-3.16,7.23-2.49-1.76-2.77-8.29-2.77-8.29,0,2.26-3,5.52-3,5.52C48.93,6.13,45,4.12,45,4.12c.83,2.26-2.22,7-2.22,7C41.72,7.64,35.9,8.64,35.9,8.64c2.77,5.27-1.39,12.3-1.39,12.3-5-2-4.43-7.53-4.43-7.53-2.75,1.81-3,6.48-3,7.38.1-2.21-3.33-4.37-3.33-4.37C24.82,18.69,21.21,26,21.21,26c-1.8-.72-2.88-3.54-3.34-5.05a12.39,12.39,0,0,1-2.2,9.82c-3.6-1.76-3-6.53-3-6.53C7.08,29,12.07,42.8,12.07,42.8c-3.6-1-5.54-5.27-5.54-5.27C9,42.54,6,55.6,6,55.6c-3.33-2.26-3.6-7.53-3.6-7.53C1.53,63.64,8.5,67.77,8.5,67.77c-4.43,5.52-7.25,4-7.25,4,3.88,6.78,8.6,7.69,8.6,7.69C8.18,82.72.7,83,.7,83,2.64,88.75,9,88,9,88a9.3,9.3,0,0,1-4.79,4c3.33.77,6.17,6.25,6.17,6.25,13.3-2.26,16.63,8,16.63,8s.49-12.68.73-25.29"></path><path class="cls-1" d="M28.06,72.36c.05-6.62-.22-13.7-.48-16.51-.83-9.29,7.48-12.56,11.92-7.28,3.55,4.23,22.23,4.18,29.52,4,0,0,32.85,1.28,37.28-4s12.75-2,11.92,7.28c-.26,3-.3,9.12-.24,16.16"></path><path class="cls-1" d="m127.9 20.92c0.18-0.58 0.26-1 0.26-1-0.1 0.35-0.2 0.68-0.26 1z"></path><path class="cls-1" d="m95.18 135.2c-0.87-11.92-9.24-16.47-18.85-16.12a42.17 42.17 0 0 1 -6.13 0c-8.68-1-16.24 4.16-18.09 12.62-2.1 9.64-0.35 18.92 3.23 27.93 2.43 6.11 7.07 9.07 12.87 11.9 3.49 1.7 7.06 1.87 10.29-0.07s6.7-3.1 9.11-6c6.19-7.36 7.26-16.52 7.6-25.75-0.01-1.49 0.08-3.01-0.03-4.51zm-3.87 1.37c-0.72 6.05-5.95 12-11.91 13.31-1.66 0.37-4 1.14-4.51-1.36-0.45-2.18-0.43-4.19 2.12-5a3.7 3.7 0 0 0 2.51 -2.39h-12a11.53 11.53 0 0 0 0.66 1.18c0.91 1.24 2.77 1.25 3.5 2.72a4.58 4.58 0 0 1 0.18 3.09c-0.51 2.14-2.28 2-3.9 1.8-7.2-1-13.7-9.43-12.85-16.6 0.57-4.78 5.24-8.68 10.61-8.76q7.59-0.11 15.19 0c6.81 0.19 11.2 5.32 10.41 12.01z"></path><path class="cls-1" d="M82.2,99.33c.18.36.35.71.5,1,1.93,4.2,8.9,2.48,8.9,2.48s6.87-2.05,15.45-5.16S117.47,83.6,117.47,83.6"></path><path class="cls-1" d="M29.14,83.6S31,94.59,39.56,97.7,55,102.85,55,102.85s6.81,1.73,8.74-2.48l.41-.86"></path><path class="cls-1" d="m117.1 72.54a148.9 148.9 0 0 1 -43.92 6.58 154.3 154.3 0 0 1 -43.82 -6.58c-4.75-1.3-2.13 6.7-2.13 6.7l2.44 6.16s-0.13-6 0.84-8 5.74-1 5.74-1c1.41 0.25 26.87 5 29.67 5.32a51.57 51.57 0 0 0 7.46 0.7c3.2 0 37.07-6 37.07-6s4.72-1 5.69 1 0.54 8.35 0.54 8.35l2.7-6.53s2.43-8.16-2.28-6.7z"></path><path class="cls-1" d="M73.15,86.88c-3.78.24-7.63,6.78-9.56,11l.83,1.39c2.09-4.05,5.42-9,8.71-9.23,3.22.2,6.6,5,8.73,9l1-1.13C80.94,93.66,76.94,87.12,73.15,86.88Z"></path></g></svg>