<svg viewBox="0 0 192 192" xmlns="http://www.w3.org/2000/svg" width="192" height="192"><g transform="rotate(0 3.14 2.18) translate(19.018616666037346 39.904000666208084) scale(1.071045333342089)"><defs><style>.cls-1,.cls-3,.cls-6{fill:none;}.cls-2{isolation:isolate;}.cls-3{stroke:#c33a32;stroke-width:2.08px;stroke-dasharray:4.16 2.08;}.cls-3,.cls-6{stroke-miterlimit:10;}.cls-4{fill:#c33a32;}.cls-5{fill:#fff;}.cls-6{stroke:#e6e7e8;stroke-width:3.12px;mix-blend-mode:multiply;}.cls-7{clip-path:url(#d);}.cls-8{clip-path:url(#c);}.cls-9{clip-path:url(#b);}.cls-10{clip-path:url(#a);}</style><clipPath id="d"><path class="cls-1" d="M42.85,31.49,24.31,13A56,56,0,0,0,11.62,25.59L30.14,44.11A30.21,30.21,0,0,1,42.85,31.49Z"></path></clipPath><clipPath id="c"><path class="cls-1" d="M29.8,62.63,11.26,81.17A56,56,0,0,0,23.9,93.86L42.42,75.34A30.21,30.21,0,0,1,29.8,62.63Z"></path></clipPath><clipPath id="b"><path class="cls-1" d="M60.94,75.67,79.48,94.21A56,56,0,0,0,92.17,81.58L73.65,63.06A30.21,30.21,0,0,1,60.94,75.67Z"></path></clipPath><clipPath id="a"><path class="cls-1" d="M74,44.54,92.52,26A56,56,0,0,0,79.89,13.31L61.37,31.83A30.21,30.21,0,0,1,74,44.54Z"></path></clipPath></defs><title>-</title><g class="cls-2"><g data-name="Layer 2"><path class="cls-3" d="M87,28.42C82.62,21.65,84.26,5.86,99.36,6.9c14.36,1,9.75,20.37,17,25.68s13.09,1,12.49-8.15c-.33-5-3-9.4-3.46-14.33-.27-3,.63-7.35,3.72-8.69,4.09-1.78,8.7,3,5.82,14.52-1.39,5.55,3.82,8.33,8.33,5.21"></path><rect class="cls-3" transform="translate(-22.07 52.43) rotate(-45)" x="8.05" y="8.65" width="88.41" height="88.41" rx="27.2" ry="27.2"></rect><path class="cls-1" d="M73.49,65.18a24.36,24.36,0,0,0,.39-22.65"></path><path class="cls-1" d="M40.65,75.07A24.35,24.35,0,0,0,63,75.31"></path><path class="cls-1" d="M30.47,42.08a24.35,24.35,0,0,0-.09,22.65"></path><path class="cls-4" d="M76.48,53.48a24.27,24.27,0,0,1-3,11.7l15,15A45.11,45.11,0,0,0,89,27.41L73.88,42.53A24.27,24.27,0,0,1,76.48,53.48Z"></path><path class="cls-4" d="M27.63,53.48a24.27,24.27,0,0,1,2.84-11.41L15.4,27a45.1,45.1,0,0,0-.1,52.81L30.38,64.73A24.27,24.27,0,0,1,27.63,53.48Z"></path><path class="cls-4" d="M52.06,29.06a24.27,24.27,0,0,1,11.7,3l15-15a45.11,45.11,0,0,0-53.06-.29L40.82,31.81A24.27,24.27,0,0,1,52.06,29.06Z"></path><path class="cls-4" d="M52.06,77.91a24.27,24.27,0,0,1-11.41-2.84L25.58,90.14a45.1,45.1,0,0,0,52.55.29L63,75.31A24.27,24.27,0,0,1,52.06,77.91Z"></path><path class="cls-5" d="M15.4,27A45.61,45.61,0,0,1,25.73,16.72"></path><path class="cls-5" d="M42.85,31.49,24.31,13A56,56,0,0,0,11.62,25.59L30.14,44.11A30.21,30.21,0,0,1,42.85,31.49Z"></path><path class="cls-5" d="M89,27.41l2.73-2.73L81.43,14.37,78.79,17A45.61,45.61,0,0,1,89,27.41Z"></path><path class="cls-6" d="M28.16,17a43.71,43.71,0,1,1-12.47,12.5"></path><g class="cls-7"><path class="cls-6" d="M12.57,27.46a47.81,47.81,0,0,1,13.56-13.6"></path><circle class="cls-6" cx="52.06" cy="53.27" r="24.89"></circle></g><path class="cls-5" d="M25.32,90.08A45.61,45.61,0,0,1,15,79.75"></path><path class="cls-5" d="M29.8,62.63,11.26,81.17A56,56,0,0,0,23.9,93.86L42.42,75.34A30.21,30.21,0,0,1,29.8,62.63Z"></path><g class="cls-8"><path class="cls-6" d="M25.77,92.91a47.81,47.81,0,0,1-13.6-13.56"></path><circle class="cls-6" cx="51.58" cy="53.42" r="24.89"></circle></g><path class="cls-5" d="M88.39,80.16A45.61,45.61,0,0,1,78.06,90.45"></path><path class="cls-5" d="M60.94,75.67,79.48,94.21A56,56,0,0,0,92.17,81.58L73.65,63.06A30.21,30.21,0,0,1,60.94,75.67Z"></path><g class="cls-9"><path class="cls-6" d="M91.22,79.71a47.81,47.81,0,0,1-13.56,13.6"></path><circle class="cls-6" cx="51.73" cy="53.9" r="24.89"></circle></g><path class="cls-5" d="m78.47 17.09a45.61 45.61 0 0 1 10.29 10.33"></path><path class="cls-5" d="M74,44.54,92.52,26A56,56,0,0,0,79.89,13.31L61.37,31.83A30.21,30.21,0,0,1,74,44.54Z"></path><g class="cls-10"><path class="cls-6" d="m78 14.26a47.81 47.81 0 0 1 13.6 13.56"></path><circle class="cls-6" cx="52.21" cy="53.75" r="24.89"></circle></g><circle class="cls-6" cx="52.06" cy="53.27" r="24.89"></circle></g></g></g></svg>