<svg viewBox="0 0 192 192" xmlns="http://www.w3.org/2000/svg" width="192" height="192">




















<g transform="rotate(0 3.14 2.18) translate(18.367164611438284 39.52750342394556) scale(1.078233824841135)"><defs>
<style>.cls-1,.cls-2{fill:none;stroke:#231f20;stroke-miterlimit:10;}.cls-1{stroke-dasharray:4.16 2.08;}</style>
</defs><title>14</title><path class="cls-1" d="M85.72,15.19c1.64-4.88,5.85-8.83,13.64-8.29,14.36,1,9.75,20.37,17,25.68s13.09,1,12.49-8.15c-.33-5-3-9.4-3.46-14.33-.27-3,.63-7.35,3.72-8.69,4.09-1.78,8.7,3,5.82,14.52-1.39,5.55,3.82,8.33,8.33,5.21"></path><path class="cls-1" d="M9,72.09A27.28,27.28,0,0,1,9,33.62l5.24-5.24"></path><path class="cls-1" d="M74.31,93.64l-2.82,2.5a27.28,27.28,0,0,1-38.46,0"></path><path class="cls-1" d="M90.69,28.77l4.86,4.86a27.28,27.28,0,0,1,0,38.46L93,74.67"></path><path class="cls-1" d="M28.45,14.15,33,9.57a27.28,27.28,0,0,1,38.46,0L76.31,14"></path><path class="cls-2" d="M89.37,79a45.1,45.1,0,0,0,.54-50.29"></path><path class="cls-2" d="M74.45,43.74a24.37,24.37,0,0,1-.14,19.83"></path><path class="cls-2" d="M29.39,62.57a24.36,24.36,0,0,1,.23-18.74"></path><path class="cls-2" d="M14.28,28.62a45.09,45.09,0,0,0-.14,49.51"></path><path class="cls-2" d="M26.62,90.87a45.09,45.09,0,0,0,50.19.46"></path><path class="cls-2" d="M61.2,76.13a24.36,24.36,0,0,1-19.36-.47"></path><path class="cls-2" d="M77.19,15.89a45.11,45.11,0,0,0-50.07-.12l15.3,15.3a24.33,24.33,0,0,1,19.67.16"></path><path class="cls-2" d="M27.12,15.76,24.31,13A56,56,0,0,0,11.62,25.59L30.14,44.11A30.21,30.21,0,0,1,42.85,31.49l-.44-.44"></path><path class="cls-2" d="M29.8,62.63,11.26,81.17A56,56,0,0,0,23.9,93.86L42.42,75.34A30.21,30.21,0,0,1,29.8,62.63Z"></path><path class="cls-2" d="M29.8,62.63,11.26,81.17A56,56,0,0,0,23.9,93.86L42.42,75.34A30.21,30.21,0,0,1,29.8,62.63Z"></path><path class="cls-2" d="M60.94,75.67,79.48,94.21A56,56,0,0,0,92.17,81.58L73.65,63.06A30.21,30.21,0,0,1,60.94,75.67Z"></path><path class="cls-2" d="M60.94,75.67,79.48,94.21A56,56,0,0,0,92.17,81.58L73.65,63.06A30.21,30.21,0,0,1,60.94,75.67Z"></path><path class="cls-2" d="M74,44.54,92.52,26A56,56,0,0,0,79.89,13.31L61.37,31.83A30.21,30.21,0,0,1,74,44.54Z"></path></g></svg>