<svg viewBox="0 0 192 192" xmlns="http://www.w3.org/2000/svg" width="192" height="192"><g transform="rotate(0 3.14 2.18) translate(53.40073282219726 9.730534346628545) scale(0.9519389313475471)"><defs><style>.cls-1{fill:#e6c3c7;}.cls-2{fill:#d44149;}.cls-3{fill:#df5962;}.cls-4{fill:#5b0a14;opacity:0.42;}.cls-5{fill:#fff;stroke:#e6e7e8;stroke-miterlimit:10;stroke-width:1.5px;}.cls-6{fill:#f9df41;}.cls-7{fill:#f4b545;}</style></defs><title>-</title><path class="cls-1" d="M64.31,134.36c0,11.75,3.31,11.75,3.31,23.51,0,11.19-3,11.75-3.28,21.91,4.34-1.23,7.67-2.78,14.41-3.24-1.5-7.2-6.15-8.81-6.15-18.68,0-11.76,6.63-11.76,6.63-23.51S72.6,122.6,72.6,110.85c0-11.41,6.22-11.78,6.59-22.53a46.72,46.72,0,0,0-10.2-1c-1.74,0-3.27.07-4.67.18,0,11.57,3.31,11.64,3.31,23.33S64.31,122.6,64.31,134.36Z"></path><path class="cls-2" d="m79.22 134.4c0 11.76-6.63 11.76-6.63 23.51 0 9.87 4.65 11.47 6.15 18.68 1.27-0.09 2.63-0.15 4.17-0.15h1.19c-1.53-7.1-6.13-8.75-6.13-18.55 0-11.76 6.63-11.76 6.63-23.51s-6.6-11.73-6.6-23.48c0-10.87 5.65-11.71 6.51-21.06-1.65-0.53-3.34-1-5.3-1.47-0.37 10.76-6.59 11.12-6.59 22.53-0.02 11.75 6.6 11.75 6.6 23.5z"></path><path class="cls-2" d="M56,134.36c0,11.75,6.63,11.75,6.63,23.51S56.1,169.63,56,181.21a40.33,40.33,0,0,0,8.3-1.43c.29-10.17,3.28-10.73,3.28-21.91,0-11.75-3.31-11.75-3.31-23.51s3.31-11.76,3.31-23.51-3.27-11.77-3.31-23.33A40.06,40.06,0,0,0,56.09,89c.6,10.11,6.57,10.69,6.57,21.86C62.66,122.6,56,122.6,56,134.36Z"></path><path class="cls-3" d="M56.09,110.85c0,11.76-3.31,11.76-3.31,23.51s3.31,11.75,3.31,23.51-3.31,11.75-3.31,23.48q1.75,0,3.26-.14c.06-11.58,6.62-11.65,6.62-23.34S56,146.11,56,134.36s6.63-11.76,6.63-23.51c0-11.17-6-11.75-6.57-21.86-1.12.32-2.18.66-3.24,1C53.31,99.15,56.09,100.06,56.09,110.85Z"></path><path class="cls-1" d="M43.4,95.24c-11.73,0-11.73,3.31-23.46,3.31-11.17,0-8.22-3-18.37-3.28,1.22,4.34,2.77,7.67,3.23,14.41,7.19-1.5,5.29-6.15,15.14-6.15,11.73,0,11.73,6.63,23.47,6.63s11.73-6.63,23.46-6.63c11.39,0,11.75,6.22,22.49,6.59a46.81,46.81,0,0,0,1-10.2c0-1.74-.07-3.27-.18-4.67-11.54,0-11.62,3.31-23.29,3.31S55.13,95.24,43.4,95.24Z"></path><path class="cls-2" d="m43.4 110.2c-11.73 0-11.73-6.63-23.47-6.63-9.85 0-7.95 4.65-15.14 6.15 0.09 1.27 0.15 2.63 0.15 4.17v1.19c7.09-1.53 5.22-6.13 15-6.13 11.73 0 11.73 6.63 23.47 6.63s11.73-6.63 23.46-6.63c10.85 0 11.68 5.65 21 6.51 0.53-1.65 1-3.34 1.47-5.3-10.73-0.37-11.1-6.59-22.49-6.59-11.72 0.01-11.72 6.63-23.45 6.63z"></path><path class="cls-2" d="M43.4,87c-11.73,0-11.73,6.63-23.46,6.63S11.7,87,.14,87a40.39,40.39,0,0,0,1.43,8.3c10.15.29,7.2,3.28,18.37,3.28,11.73,0,11.73-3.31,23.46-3.31s11.73,3.31,23.47,3.31,11.74-3.27,23.29-3.31A40.13,40.13,0,0,0,88.68,87c-10.1.6-10.67,6.57-21.82,6.57C55.13,93.59,55.13,87,43.4,87Z"></path><path class="cls-3" d="M66.86,87c-11.73,0-11.73-3.31-23.47-3.31S31.66,87,19.93,87,11.71,83.72,0,83.71Q0,85.47.14,87c11.56.06,8.12,6.62,19.79,6.62S31.66,87,43.4,87s11.73,6.63,23.47,6.63c11.15,0,11.72-6,21.82-6.57-.32-1.12-.66-2.18-1-3.24C78.54,84.24,77.63,87,66.86,87Z"></path><path class="cls-4" d="M78,111.88a20.09,20.09,0,0,0-10.4-3h-.73a24.36,24.36,0,0,0-4.25.34,19,19,0,0,0-6.37,2.35,45,45,0,0,1-.67,6.21,21.08,21.08,0,0,1,6.72-2.66,23.88,23.88,0,0,1,4.56-.41l.62,0a21.56,21.56,0,0,1,5.54.77,27.83,27.83,0,0,1,6.2,2.86A23.1,23.1,0,0,1,78,111.88Z"></path><path class="cls-5" d="M15.57,5.3A7.64,7.64,0,0,0,8.36,9.9a8.57,8.57,0,0,0,1.33,8.57c1,1.23,2.36,2.22,3.07,3.65,1.72,3.49-1.14,7.56-.78,11.43A6.91,6.91,0,0,0,22.7,38.68c1.77-1.18,3-3.18,5-3.93,1.48-.55,3.12-.32,4.69-.49,2.72-.3,5.14-1.81,7.3-3.49,2.67-2.08,5.32-5.07,4.74-8.41-.48-2.74-3-4.63-5.49-5.86A5.32,5.32,0,0,1,36.8,15c-1.06-1.51-.15-3.7-.89-5.39a4,4,0,0,0-4.3-2c-3.28.5-4,2.8-7.45,1.32C21.29,7.73,18.81,5.48,15.57,5.3Z"></path><circle class="cls-6" cx="27.19" cy="21.6" r="8.01"></circle><path class="cls-7" d="M20.64,19.95A8,8,0,0,1,22,15.54,8,8,0,1,0,33.87,26a8,8,0,0,1-13.23-6.06Z"></path><path class="cls-5" d="M83.77,28.11A7.64,7.64,0,0,0,86.46,20,8.57,8.57,0,0,0,80,14.17c-1.56-.32-3.23-.23-4.68-.9-3.53-1.62-3.89-6.59-6.61-9.36a6.91,6.91,0,0,0-11.54,2.8c-.63,2-.32,4.36-1.39,6.2-.8,1.36-2.22,2.22-3.33,3.34-1.92,1.95-2.85,4.65-3.46,7.32-.76,3.3-.93,7.29,1.63,9.51,2.1,1.82,5.25,1.69,8,1.08a5.32,5.32,0,0,1,2.6-.19c1.78.5,2.45,2.78,4.1,3.62a4,4,0,0,0,4.57-1.2c2.22-2.46,1.37-4.73,4.95-5.73C77.8,29.83,81.14,30,83.77,28.11Z"></path><circle class="cls-6" cx="65.76" cy="20.44" r="8.01"></circle><path class="cls-7" d="M59.21,18.78a8,8,0,0,1,1.32-4.41,8,8,0,1,0,11.9,10.47,8,8,0,0,1-13.23-6.06Z"></path></g></svg>