<svg viewBox="0 0 192 192" xmlns="http://www.w3.org/2000/svg" width="192" height="192">
















<g transform="rotate(0 3.14 2.18) translate(52.549642267743124 10.752287275300375) scale(0.9445729941794972)"><defs>
<style>.cls-1,.cls-2{fill:none;stroke:#231f20;}.cls-1{stroke-miterlimit:10;}.cls-2{stroke-linejoin:bevel;}</style>
</defs><title>15</title><path class="cls-1" d="M44.05,94.31c-11.73,0-11.73,3.31-23.46,3.31-11.17,0-8.22-3-18.37-3.28C3.45,98.68,5,102,5.46,108.74c7.19-1.5,5.29-6.15,15.14-6.15,11.73,0,11.73,6.63,23.47,6.63s11.73-6.63,23.46-6.63c11.39,0,11.75,6.22,22.49,6.59A46.81,46.81,0,0,0,91,99c0-1.74-.07-3.27-.18-4.67-11.54,0-11.62,3.31-23.29,3.31S55.79,94.31,44.05,94.31Z"></path><path class="cls-1" d="m44.06 109.2c-11.73 0-11.73-6.63-23.47-6.63-9.85 0-7.95 4.65-15.14 6.15 0.09 1.27 0.15 2.63 0.15 4.17v1.19c7.09-1.53 5.22-6.13 15-6.13 11.73 0 11.73 6.63 23.47 6.63s11.72-6.59 23.45-6.59c10.85 0 11.68 5.65 21 6.51 0.53-1.65 1-3.34 1.47-5.3-10.73-0.37-11.1-6.59-22.49-6.59-11.71-0.03-11.71 6.59-23.44 6.59z"></path><path class="cls-1" d="M44.05,86c-11.73,0-11.73,6.63-23.46,6.63S12.36,86.09.8,86a40.39,40.39,0,0,0,1.43,8.3c10.15.29,7.2,3.28,18.37,3.28,11.73,0,11.73-3.31,23.46-3.31s11.73,3.31,23.47,3.31,11.74-3.27,23.29-3.31a40.13,40.13,0,0,0-1.47-8.23c-10.1.6-10.67,6.57-21.82,6.57C55.79,92.65,55.79,86,44.05,86Z"></path><path class="cls-1" d="M67.52,86.09c-11.73,0-11.73-3.31-23.47-3.31s-11.73,3.31-23.46,3.31S12.36,82.78.66,82.77Q.69,84.53.8,86c11.56.06,8.12,6.62,19.79,6.62S32.32,86,44.05,86s11.73,6.63,23.47,6.63c11.15,0,11.72-6,21.82-6.57-.32-1.12-.66-2.18-1-3.24C79.2,83.3,78.29,86.09,67.52,86.09Z"></path><path class="cls-1" d="M16.23,4.36A7.64,7.64,0,0,0,9,9a8.57,8.57,0,0,0,1.33,8.57c1,1.23,2.36,2.22,3.07,3.65,1.72,3.49-1.14,7.56-.78,11.43a6.91,6.91,0,0,0,10.72,5.11c1.77-1.18,3-3.18,5-3.93,1.48-.55,3.12-.32,4.69-.49,2.72-.3,5.14-1.81,7.3-3.49,2.67-2.08,5.32-5.07,4.74-8.41-.48-2.74-3-4.63-5.49-5.86a5.32,5.32,0,0,1-2.13-1.49c-1.06-1.51-.15-3.7-.89-5.39a4,4,0,0,0-4.3-2c-3.28.5-4,2.8-7.45,1.32C21.95,6.8,19.47,4.54,16.23,4.36Z"></path><circle class="cls-1" cx="27.85" cy="20.67" r="8.01"></circle><path class="cls-2" d="M21.3,19a8,8,0,0,1,1.32-4.41,8,8,0,1,0,11.9,10.47A8,8,0,0,1,21.3,19Z"></path><path class="cls-1" d="M84.43,27.17A7.64,7.64,0,0,0,87.11,19a8.57,8.57,0,0,0-6.44-5.81c-1.56-.32-3.23-.23-4.68-.9C72.45,10.71,72.1,5.75,69.38,3a6.91,6.91,0,0,0-11.54,2.8c-.63,2-.32,4.36-1.39,6.2-.8,1.36-2.22,2.22-3.33,3.34-1.92,1.95-2.85,4.65-3.46,7.32-.76,3.3-.93,7.29,1.63,9.51,2.1,1.82,5.25,1.69,8,1.08a5.32,5.32,0,0,1,2.6-.19c1.78.5,2.45,2.78,4.1,3.62a4,4,0,0,0,4.57-1.2c2.22-2.46,1.37-4.73,4.95-5.73C78.45,28.89,81.8,29.08,84.43,27.17Z"></path><circle class="cls-1" cx="66.41" cy="19.5" r="8.01"></circle><path class="cls-2" d="M59.87,17.84a8,8,0,0,1,1.32-4.41A8,8,0,1,0,73.1,23.9a8,8,0,0,1-13.23-6.06Z"></path><path class="cls-1" d="m79.88 133.4c0-11.75-6.63-11.75-6.63-23.51v-1.26a21.82 21.82 0 0 0 -5 -0.66v1.93c0 11.76-3.31 11.76-3.31 23.51s3.31 11.75 3.31 23.51c0 11.19-3 11.75-3.28 21.91 4.34-1.23 7.67-2.78 14.41-3.24-1.5-7.2-6.15-8.81-6.15-18.68 0.02-11.75 6.65-11.75 6.65-23.51z"></path><path class="cls-1" d="m73.25 109.9c0 11.75 6.63 11.75 6.63 23.51s-6.63 11.76-6.63 23.51c0 9.87 4.65 11.47 6.15 18.68 1.27-0.09 2.63-0.15 4.17-0.15h1.19c-1.53-7.1-6.13-8.75-6.13-18.55 0-11.76 6.63-11.76 6.63-23.51 0-11.4-6.23-11.74-6.61-22.48a22 22 0 0 0 -5.37 -2.29c-0.01 0.42-0.03 0.84-0.03 1.28z"></path><path class="cls-1" d="m65 133.4c0-11.76 3.31-11.76 3.31-23.51v-1.93h-0.73a24.26 24.26 0 0 0 -4.25 0.35v1.59c0 11.76-6.63 11.76-6.63 23.51s6.63 11.75 6.63 23.51-6.56 11.76-6.62 23.34a40.32 40.32 0 0 0 8.3 -1.43c0.29-10.17 3.28-10.73 3.28-21.91-0.01-11.76-3.29-11.76-3.29-23.52z"></path><path class="cls-1" d="m56.69 133.4c0-11.76 6.63-11.76 6.63-23.51v-1.59a20 20 0 0 0 -6.52 2.43c-0.15 10.92-3.31 11.2-3.31 22.67 0 11.75 3.31 11.75 3.31 23.51s-3.31 11.75-3.31 23.48q1.75 0 3.26-0.14c0.06-11.58 6.62-11.65 6.62-23.34s-6.68-11.75-6.68-23.51z"></path></g></svg>