<svg viewBox="0 0 192 192" xmlns="http://www.w3.org/2000/svg" width="192" height="192">





<g transform="rotate(0 3.14 2.18) translate(32.78843260461272 24.338832225195475) scale(0.8556557346245317)"><defs>
<style>.cls-1{fill:none;stroke:#231f20;stroke-miterlimit:10;}</style>
</defs><title>62012326</title><path class="cls-1" d="M30,133.08l.13,23.11c7.19,5.65,24.76,10.23,46.43,10.23s39.24-4.58,46.43-10.23l-.06-27.44"></path><path class="cls-1" d="M74,35.51A23.79,23.79,0,0,0,50.23,59.27V83.83L40.38,74V88.43l17,17,17-17V74l-9.85,9.86V59.27a9.41,9.41,0,1,1,18.83,0v46.47H97.75V59.27A23.79,23.79,0,0,0,74,35.51Z"></path><path class="cls-1" d="M74,147.6a73.39,73.39,0,1,1,73.38-73.38A73.47,73.47,0,0,1,74,147.6ZM74,16.77a57.45,57.45,0,1,0,57.45,57.45A57.51,57.51,0,0,0,74,16.77Z"></path></g></svg>