<svg viewBox="0 0 192 192" xmlns="http://www.w3.org/2000/svg" width="192" height="192"><g transform="rotate(0 3.14 2.18) translate(32.773288350584274 24.357446185644974) scale(0.8631632989681328)"><defs><style>.cls-1{isolation:isolate;}.cls-2{fill:#231f20;}.cls-3,.cls-4{fill:#fff;}.cls-3{opacity:0.2;}.cls-4{stroke:#fb2d36;stroke-width:15.94px;}.cls-4,.cls-5{stroke-miterlimit:10;}.cls-5{fill:none;stroke:#231f20;stroke-width:14.34px;}.cls-6{opacity:0.3;mix-blend-mode:screen;fill:url(#a);}</style><linearGradient id="a" x1="32.09" x2="247.8" y1="23.15" y2="151.6" gradientUnits="userSpaceOnUse"><stop stop-color="#fff" offset="0"></stop><stop stop-color="#fff" stop-opacity="0" offset="1"></stop></linearGradient></defs><title>-</title><g class="cls-1"><g data-name="Layer 2"><path class="cls-2" d="m29.52 109.4v45.92c7.2 5.64 24.77 10.22 46.48 10.22s39.24-4.58 46.43-10.23v-45.91l-46 25.86z"></path><polygon class="cls-3" points="54.1 164.2 40.43 161.4 40.43 144.2 54.1 150.3"></polygon><circle class="cls-4" cx="73.39" cy="73.39" r="65.42"></circle><path class="cls-5" d="M90,104.92V58.44a16.59,16.59,0,0,0-33.17,0v34.7"></path><polygon class="cls-2" points="39.77 73.14 56.8 90.18 73.82 73.14 73.82 87.6 56.8 104.6 39.77 87.6"></polygon><path class="cls-6" d="m29.19 16a73.66 73.66 0 0 1 89 117.4"></path></g></g></g></svg>