<svg viewBox="0 0 192 192" xmlns="http://www.w3.org/2000/svg" width="192" height="192">







































<g transform="rotate(0 3.14 2.18) translate(36.93559171106298 20.72648367996247) scale(0.6325505573112398)"><defs>
<style>.cls-1{fill:none;stroke:#231f20;stroke-miterlimit:10;}.cls-2{fill:#231f20;}</style>
</defs><title>38546532</title><path class="cls-1" d="M135.45,178.85a6,6,0,0,0,1.26-2.51,4.2,4.2,0,0,0-.64-2.63,5,5,0,0,0-4.7-2.2,15.34,15.34,0,0,0-2.78.51l-2.84.67c-1.92.38-3.83.83-5.75,1.13-3.85.67-7.73,1.12-11.62,1.47-1.95.16-3.9.32-5.85.37s-3.91.06-5.86.09-3.91,0-5.86-.19-3.9-.28-5.84-.46-3.88-.42-5.81-.71-3.86-.58-5.78-.93-3.83-.71-5.74-1.09l-2.85-.64a10,10,0,0,0-2.82-.39,4.84,4.84,0,0,0-4.5,2.66,4.37,4.37,0,0,0-.4,2.65,5.54,5.54,0,0,0,1.25,2.43l.28.35-.42.2a5.63,5.63,0,0,0-.57,10.06,7.32,7.32,0,0,0,2.94,1l3.29.67c2.19.38,4.37.81,6.57,1.1s4.4.64,6.61.89,4.42.45,6.64.62,4.44.29,6.66.34,4.44.11,6.67.16,4.45,0,6.67-.14,4.44-.23,6.66-.38,4.44-.34,6.64-.6,4.42-.52,6.62-.86,4.39-.72,6.59-1.1l3.28-.64a6.64,6.64,0,0,0,2.91-1.13,6.44,6.44,0,0,0,2.65-5.46,6.65,6.65,0,0,0-3.51-5.17l-.09,0Z"></path><path class="cls-1" d="m140.8 78.85a4.85 4.85 0 0 1 -3.12 6.27 125.3 125.3 0 0 1 -86.06 0 4.85 4.85 0 0 1 -3.12 -6.27 5 5 0 0 1 6.35 -2.58 115.9 115.9 0 0 0 79.6 0 5 5 0 0 1 6.35 2.58z"></path><ellipse class="cls-1" cx="94.69" cy="115.8" rx="11.56" ry="16.92"></ellipse><path class="cls-1" d="m37.67 107.5v13a8.91 8.91 0 0 0 8.88 8.88v-30.76a8.91 8.91 0 0 0 -8.88 8.88z"></path><path class="cls-1" d="m136.7 98.59v30.73a8.91 8.91 0 0 0 8.88 -8.88v-13a8.91 8.91 0 0 0 -8.88 -8.85z"></path><path class="cls-1" d="M93,30s-4.91,3.43-13.9,2.22-9.92-3.08-13.25-1c0,0,4.26-8.29,14-7,0,0-6-.83-12.51-7a17.88,17.88,0,0,1,14.36.46,12.76,12.76,0,0,1-4.73-11.4s5.93,6.58,11.68,8.06c0,0-3.06-7.69,1.2-13.16,0,0,2.41,12,6.67,13.44,0,0,5.75-.56,13-8.8a10.32,10.32,0,0,1-4.26,11.49s10-3.24,14.55-1.48c0,0-5.89,6.3-13.42,7.32,0,0,14.06,3.43,14.06,9.92,0,0-8.9-3.06-15.2-.65S93,30,93,30Z"></path><path class="cls-1" d="m93.71 235.5-1.49-1.49-10.72-10.71v13.45h13.55v-0.35a4.22 4.22 0 0 1 -1.34 -0.9z"></path><polygon class="cls-1" points="95.06 224.7 81.5 211.1 81.5 211.2 95.06 224.7"></polygon><path class="cls-1" d="m40.85 203.4v33.35h13.55v-36.6c-5.08 0.93-8.47 2.01-13.55 3.25z"></path><path class="cls-1" d="m81.5 211.1-13.15-13.12l13.15 13.17z"></path><polygon class="cls-1" points="67.95 209.7 67.95 236.7 81.5 236.7 81.5 223.3"></polygon><path class="cls-1" d="M57.78,199.56l-3.38.58v36.59H68v-27Z"></path><path class="cls-1" d="m0.45 236.7h15v-21.37c-10.17 6.2-15 12.9-15 21.37z"></path><path class="cls-1" d="m15.44 215.4v21.37h11.86v-28.59a50.68 50.68 0 0 0 -11.86 7.22z"></path><path class="cls-1" d="m27.3 208.2v28.59h13.55v-33.35c-5.08 1.41-8.47 3-13.55 4.76z"></path><path class="cls-1" d="m161.1 209.2v27.48h13.55v-19.57c-3.39-2.87-8.47-5.52-13.55-7.91z"></path><path class="cls-1" d="M99.81,235.49a4.27,4.27,0,0,1-3.05,1.25,4.31,4.31,0,0,1-1.71-.35v.35h13.55v-10Z"></path><polygon class="cls-1" points="108.6 214.6 108.6 214.5 96.76 226.4 95.06 224.7 95.06 224.7 96.76 226.4"></polygon><path class="cls-1" d="m134.5 200.8l-0.53 0.53v35.45h13.55v-32.59a86.45 86.45 0 0 0 -13.02 -3.39z"></path><path class="cls-1" d="m174.7 217.2v19.57h11.85c0-6.73-5.07-13.73-11.85-19.57z"></path><path class="cls-1" d="m147.6 204.2v32.59h13.55v-27.49c-3.39-1.87-8.47-3.58-13.55-5.1z"></path><polygon class="cls-1" points="108.6 214.6 122.2 201 122.2 201 108.6 214.5"></polygon><polygon class="cls-1" points="108.6 226.7 108.6 236.7 122.2 236.7 122.2 213.2"></polygon><polygon class="cls-1" points="122.2 213.2 122.2 236.7 134 236.7 134 201.3"></polygon><path class="cls-1" d="m122.2 201l2.3-2.3-2.3 2.3z"></path><path class="cls-1" d="m122.2 201l2.26-2.26-2.26-0.4z"></path><path class="cls-1" d="m136.2 192.2a4.2 4.2 0 0 1 0.52 0.42 3.73 3.73 0 0 0 -0.52 -0.42z"></path><path class="cls-1" d="m56.43 193.1a4.2 4.2 0 0 1 0.42 -0.52 3.74 3.74 0 0 0 -0.42 0.52z"></path><path class="cls-1" d="M134.54,200.76l2.13-2.13a4.3,4.3,0,0,0,0-6.06,4.2,4.2,0,0,0-.52-.42l-.33-.22v0a4.27,4.27,0,0,0-5.22.61l-6.16,6.16-2.3,2.3-13.55,13.55L96.76,226.42l-1.71-1.71L81.5,211.17,68.31,198l-5.4-5.4a4.3,4.3,0,0,0-6.06,0,4.2,4.2,0,0,0-.42.52c-.08.11-.15.22-.22.33h0a4.27,4.27,0,0,0,.61,5.22l.93.93L68,209.73,81.5,223.29,92.22,234l1.49,1.49a4.22,4.22,0,0,0,1.35.9,4.31,4.31,0,0,0,1.71.35,4.27,4.27,0,0,0,3.05-1.25l8.79-8.79,13.55-13.55L134,201.29"></path><polyline class="cls-1" points="81.5 198.8 81.5 211.1 95.06 224.7 95.06 200.1"></polyline><polyline class="cls-1" points="68.35 198 81.5 211.1 81.5 197.8"></polyline><polyline class="cls-1" points="95.06 198.1 95.06 224.7 96.76 226.4 108.6 214.5 108.6 198"></polyline><polyline class="cls-1" points="108.6 199.4 108.6 214.5 122.2 201 122.2 198.3"></polyline><path class="cls-2" d="M58.61,179.37q4.86,1,9.76,1.77c1.64.23,3.28.39,4.9.65s3.24.52,4.89.83v.1a23.13,23.13,0,0,1-5,.06,40.09,40.09,0,0,1-4.92-.86q-4.88-1-9.65-2.47Z"></path><path class="cls-2" d="M134.07,179.47q-4.76,1.44-9.65,2.47a40.09,40.09,0,0,1-4.92.86,23.13,23.13,0,0,1-5-.06v-.1c1.65-.31,3.26-.57,4.89-.83s3.26-.42,4.9-.65q4.89-.75,9.76-1.77Z"></path><path class="cls-1" d="M141,79.5a4.08,4.08,0,0,0-.19-.64,5,5,0,0,0-6.35-2.58,115.89,115.89,0,0,1-79.6,0,5,5,0,0,0-6.35,2.58,4.08,4.08,0,0,0-.19.64A143,143,0,0,0,141,79.5Z"></path><line class="cls-1" x1="68.31" x2="122.2" y1="198" y2="198"></line></g></svg>