<svg viewBox="0 0 192 192" xmlns="http://www.w3.org/2000/svg" width="192" height="192"><g transform="rotate(0 3.14 2.18) translate(36.82497521471401 20.816657607927354) scale(0.6371469694243445)"><defs><style>.cls-1{fill:#fff;}.cls-2{fill:#a8c657;}.cls-3{fill:#2b59a7;}.cls-4{fill:#f26e45;}.cls-5{fill:#231f20;}.cls-6{fill:#f6921e;}.cls-7{fill:#ffdd15;}.cls-8{fill:#8ec641;}.cls-9{fill:#6da041;}.cls-10{fill:#bbdd72;}.cls-11{fill:#020202;opacity:0.46;}.cls-12{fill:#c2d3d0;}.cls-13{fill:#545454;}.cls-14{fill:#fcb06b;}</style></defs><title>-</title><path class="cls-1" d="M135,177.68a6,6,0,0,0,1.26-2.51,4.2,4.2,0,0,0-.64-2.63,5,5,0,0,0-4.7-2.2,15.34,15.34,0,0,0-2.78.51l-2.84.67c-1.92.38-3.83.83-5.75,1.13-3.85.67-7.73,1.12-11.62,1.47-1.95.16-3.9.32-5.85.37s-3.91.06-5.86.09-3.91,0-5.86-.19-3.9-.28-5.84-.46-3.88-.42-5.81-.71-3.86-.58-5.78-.93-3.83-.71-5.74-1.09l-2.85-.64a10,10,0,0,0-2.82-.39,4.84,4.84,0,0,0-4.5,2.66,4.37,4.37,0,0,0-.4,2.65,5.54,5.54,0,0,0,1.25,2.43l.28.35-.42.2a5.63,5.63,0,0,0-.57,10.06,7.32,7.32,0,0,0,2.94,1l3.29.67c2.19.38,4.37.81,6.57,1.1s4.4.64,6.61.89,4.42.45,6.64.62,4.44.29,6.66.34,4.44.11,6.67.16,4.45,0,6.67-.14,4.44-.23,6.66-.38,4.44-.34,6.64-.6,4.42-.52,6.62-.86,4.39-.72,6.59-1.1l3.28-.64a6.64,6.64,0,0,0,2.91-1.13,6.44,6.44,0,0,0,2.65-5.46,6.65,6.65,0,0,0-3.51-5.17l-.09,0Z"></path><path class="cls-2" d="M93.27,195.31c-4.11,0-8.83.13-12.21.35v39.91H94.61V195.32Z"></path><path class="cls-3" d="m40.4 202.2v33.35h13.6v-36.57c-5.13 0.91-8.52 2-13.6 3.22z"></path><path class="cls-3" d="m67.51 196.8v38.73h13.55v-39.92c-5.06 0.25-8.47 0.65-13.55 1.19z"></path><path class="cls-4" d="M54,199v36.59H67.51V196.85C62.42,197.41,59,198.13,54,199Z"></path><path class="cls-4" d="m0 235.6h15v-21.37c-10.17 6.2-15 12.9-15 21.37z"></path><path class="cls-3" d="M15,214.2v21.37H26.85V207A50.68,50.68,0,0,0,15,214.2Z"></path><path class="cls-2" d="m26.85 207v28.59h13.55v-33.37c-5.08 1.41-8.47 3-13.55 4.78z"></path><path class="cls-4" d="m160.7 208.1v27.48h13.55v-19.57c-3.38-2.87-8.47-5.53-13.55-7.91z"></path><path class="cls-3" d="m94.61 195.3v40.25h13.55v-39.77c-5.08-0.29-10.16-0.45-13.55-0.48z"></path><path class="cls-2" d="m133.6 199.5v36.09h13.55v-32.57a89.23 89.23 0 0 0 -13.55 -3.52z"></path><path class="cls-3" d="m174.2 216v19.57h11.85c0-6.77-5.07-13.77-11.85-19.57z"></path><path class="cls-3" d="m147.1 203v32.59h13.55v-27.5c-3.39-1.88-8.47-3.59-13.55-5.09z"></path><path class="cls-4" d="m108.2 195.8v39.77h13.55v-38.42c-5.08-0.58-10.16-1.04-13.55-1.35z"></path><path class="cls-3" d="m121.7 197.2v38.42h11.86v-36.09c-3.39-0.91-8.47-1.7-11.86-2.33z"></path><polygon class="cls-1" points="60.94 189.8 96.31 225.2 131.7 189.8"></polygon><path class="cls-5" d="m140.4 77.69a4.85 4.85 0 0 1 -3.12 6.31 125.3 125.3 0 0 1 -86.06 0 4.85 4.85 0 0 1 -3.12 -6.27 5 5 0 0 1 6.35 -2.58 115.9 115.9 0 0 0 79.6 0 5 5 0 0 1 6.35 2.54z"></path><ellipse class="cls-6" cx="94.25" cy="114.6" rx="11.56" ry="16.92"></ellipse><path class="cls-7" d="m46.1 128.2a8.91 8.91 0 0 1 -8.88 -8.88v-13a8.91 8.91 0 0 1 8.88 -8.88"></path><path class="cls-7" d="m136.3 128.2a8.91 8.91 0 0 0 8.88 -8.88v-13a8.91 8.91 0 0 0 -8.88 -8.88"></path><path class="cls-5" d="M92.53,28.82S87.62,32.25,78.63,31s-9.92-3.08-13.25-1c0,0,4.26-8.29,14-7,0,0-6-.83-12.51-7a17.88,17.88,0,0,1,14.36.46A12.76,12.76,0,0,1,76.49,5.1s5.93,6.58,11.68,8.06c0,0-3.06-7.69,1.2-13.16,0,0,2.41,12,6.67,13.44,0,0,5.75-.56,13-8.8a10.32,10.32,0,0,1-4.26,11.49s10-3.24,14.55-1.48c0,0-5.89,6.3-13.42,7.32,0,0,14.06,3.43,14.06,9.92,0,0-8.9-3.06-15.2-.65S92.53,28.82,92.53,28.82Z"></path><path class="cls-8" d="m136.2 191.4a4.3 4.3 0 0 0 -6.06 0l-33.86 33.85-33.85-33.85a4.28 4.28 0 0 0 -6.06 6.06l36.86 36.86a4.36 4.36 0 0 0 6.1 0l36.86-36.86a4.3 4.3 0 0 0 0.01 -6.06z"></path><path class="cls-9" d="m136.2 191.4a4.22 4.22 0 0 0 -0.85 -0.64 4.29 4.29 0 0 1 -0.64 5.21l-36.86 36.85a4.36 4.36 0 0 1 -6.1 0l1.49 1.49a4.36 4.36 0 0 0 6.1 0l36.86-36.86a4.3 4.3 0 0 0 0 -6.05z"></path><path class="cls-10" d="M61,192.9l33.85,33.85,1.49-1.49L62.46,191.41a4.3,4.3,0,0,0-6.06,0,4.22,4.22,0,0,0-.64.85A4.29,4.29,0,0,1,61,192.9Z"></path><path class="cls-11" d="m134.8 199.8l-1.18-0.3-10.61 10.58-13.41 13.44-12.07 12.07h8.08l4-4 13.4-13.43 11.76-11.76 5.44-5.44c-1.73-0.41-3.57-0.79-5.41-1.16z"></path><path class="cls-12" d="M135,177.68a6,6,0,0,0,1.26-2.51,4.2,4.2,0,0,0-.64-2.63,5,5,0,0,0-4.7-2.2,15.34,15.34,0,0,0-2.78.51l-2.84.67c-1.92.38-3.83.83-5.75,1.13-3.85.67-7.73,1.12-11.62,1.47-1.95.16-3.9.32-5.85.37s-3.91.06-5.86.09-3.91,0-5.86-.19-3.9-.28-5.84-.46-3.88-.42-5.81-.71-3.86-.58-5.78-.93-3.83-.71-5.74-1.09l-2.85-.64a10,10,0,0,0-2.82-.39,4.84,4.84,0,0,0-4.5,2.66,4.37,4.37,0,0,0-.4,2.65,5.54,5.54,0,0,0,1.25,2.43l.28.35-.42.2a5.63,5.63,0,0,0-.57,10.06,7.32,7.32,0,0,0,2.94,1l3.29.67c2.19.38,4.37.81,6.57,1.1s4.4.64,6.61.89,4.42.45,6.64.62,4.44.29,6.66.34,4.44.11,6.67.16,4.45,0,6.67-.14,4.44-.23,6.66-.38,4.44-.34,6.64-.6,4.42-.52,6.62-.86,4.39-.72,6.59-1.1l3.28-.64a6.64,6.64,0,0,0,2.91-1.13,6.44,6.44,0,0,0,2.65-5.46,6.65,6.65,0,0,0-3.51-5.17l-.09,0Zm.2,0a6.6,6.6,0,0,1,2.54,2.07,6.53,6.53,0,0,1,1.36,3.15,7,7,0,0,1-2.67,6.23,6.88,6.88,0,0,1-1.56.91,6,6,0,0,1-.82.29c-.32.1-.56.14-.84.21l-3.27.77c-2.19.48-4.39.94-6.6,1.31s-4.43.74-6.65,1-4.46.54-6.69.77-4.48.35-6.72.42-4.49.13-6.74.17-4.49,0-6.74-.13-4.49-.26-6.72-.44-4.47-.43-6.7-.72-4.45-.6-6.66-1-4.42-.84-6.62-1.28l-3.27-.74a16.42,16.42,0,0,1-1.69-.44,7.54,7.54,0,0,1-1.62-.84,7,7,0,0,1-3.11-6.19,6.8,6.8,0,0,1,4-5.49l-.14.54A6.42,6.42,0,0,1,56,175.59a5,5,0,0,1,.48-3,4.92,4.92,0,0,1,2.09-2.21,6.31,6.31,0,0,1,2.93-.72,12.52,12.52,0,0,1,2.94.4l2.85.59c1.91.34,3.81.72,5.74,1s3.85.52,5.77.71,3.86.34,5.79.48c3.87.24,7.74.29,11.61.31,1.93,0,3.87,0,5.8-.16s3.86-.17,5.8-.3c3.86-.29,7.71-.68,11.54-1.29,1.92-.25,3.82-.61,5.73-.92l2.86-.56a16.09,16.09,0,0,1,3-.42,5.61,5.61,0,0,1,5.2,2.79,4.63,4.63,0,0,1,.54,3A5.86,5.86,0,0,1,135.2,177.7Z"></path><path class="cls-12" d="M116.69,193.69c-2.22.32-4.46.54-6.69.77s-4.48.35-6.72.42-4.49.13-6.74.17-4.49,0-6.74-.13-4.48-.26-6.72-.44-4.47-.43-6.7-.72-4.45-.6-6.66-1c-1.94-.31-3.86-.72-5.79-1.11,7.28,4.42,19.13,7.3,32.51,7.3,13.56,0,25.54-3,32.8-7.48-2,.43-3.92.83-5.9,1.17C121.13,193.05,118.92,193.4,116.69,193.69Z"></path><path class="cls-12" d="M58.17,178.17c1.63.28,3.27.57,4.9.81s3.26.52,4.9.72,3.29.26,4.89.58a43.88,43.88,0,0,1,4.85,1.14v.17a16.8,16.8,0,0,1-5.05.37,29.31,29.31,0,0,1-4.93-.93,98.11,98.11,0,0,1-9.61-2.71Z"></path><path class="cls-12" d="M133.64,178.34A98.1,98.1,0,0,1,124,181a29.31,29.31,0,0,1-4.93.93,16.8,16.8,0,0,1-5.05-.37v-.17a43.89,43.89,0,0,1,4.85-1.14c1.61-.32,3.26-.37,4.89-.58s3.27-.45,4.9-.72,3.27-.53,4.9-.81Z"></path><path class="cls-13" d="M140.59,78.33a4.08,4.08,0,0,0-.19-.64A5,5,0,0,0,134,75.11a115.89,115.89,0,0,1-79.6,0,5,5,0,0,0-6.35,2.58,4.08,4.08,0,0,0-.19.64A143,143,0,0,0,140.59,78.33Z"></path><circle class="cls-14" cx="91.19" cy="104.9" r="3.6"></circle></g></svg>