<svg viewBox="0 0 192 192" xmlns="http://www.w3.org/2000/svg" width="192" height="192">













<g transform="rotate(0 3.14 2.18) translate(25.27832007756338 25.27832007756338) scale(0.59806917481976)"><defs>
<style>.cls-1{fill:none;stroke:#231f20;stroke-miterlimit:10;}</style>
</defs><title>73430116</title><path class="cls-1" d="M61.5,40.71c14.95,5.66,18.64,13.22,18.64,13.22s.43,0,1.15,0a72.54,72.54,0,0,1,38.1-10.37A72.67,72.67,0,0,1,157.07,53.7h1.45c1.92-6.25,19.41-10.07,19.41-10.07-8.08-6.07-19.21-1.42-19.21-1.42,2-8.41,11.45-17.22,11.45-17.22a18.59,18.59,0,0,0-16.49,7.18,26.06,26.06,0,0,0,.3-20.94C145.1,20.83,144,29.63,144,29.63,145.69,15.42,133.5,9.42,133.5,9.42c3.14,4.81-4.81,25.37-5,24.83-1.18-3.05-1.13-6.75-.67-10.58C129.56,9.19,125.66.81,125.66.81c-10.29,7.57-10.22,25.47-10.22,25.47.76-10.48-10-16.18-10-16.18,5.38,12.73-3.13,25.57-5.5,22.86-6.47-7.4-6.87-21.08-6.87-21.08-8.86,3.31-6.36,24.26-6.36,24.26-5.23-9.76-16.84-14.58-16.84-14.58-.09,7.1,9.45,19.11,9.45,19.11A15,15,0,0,0,61.5,40.71Z"></path><circle class="cls-1" cx="118.4" cy="115.8" r="16.45"></circle><path class="cls-1" d="M73.9,117.62A46.58,46.58,0,0,1,74.9,95a9.58,9.58,0,0,0-5.47-.52c-6.57,1.37-10.4,9.69-8.55,18.58s8.68,15,15.26,13.62c.2,0,.39-.11.59-.17A45.31,45.31,0,0,1,73.9,117.62Z"></path><path class="cls-1" d="M162.93,117.62a46.58,46.58,0,0,0-1-22.63,9.58,9.58,0,0,1,5.47-.52c6.57,1.37,10.4,9.69,8.55,18.58s-8.68,15-15.26,13.62c-.2,0-.39-.11-.59-.17A45.31,45.31,0,0,0,162.93,117.62Z"></path><rect class="cls-1" x="79.34" y="173.5" width="78.14" height="20.74"></rect><path class="cls-1" d="m157.1 194.1c40.12 6.72 68.58 23.59 68.58 43.35"></path><path class="cls-1" d="m11.18 237.5c0-19.83 28.69-36.77 69.07-43.43"></path><line class="cls-1" x1="50.09" x2="186.4" y1="201.6" y2="201.6"></line><line class="cls-1" x1="205.5" x2="31.21" y1="210.5" y2="210.5"></line><line class="cls-1" x1="223.7" x2="13.28" y1="228.7" y2="228.7"></line><line class="cls-1" x1="19.15" x2="217.6" y1="219.8" y2="219.8"></line></g></svg>