<svg viewBox="0 0 192 192" xmlns="http://www.w3.org/2000/svg" width="192" height="192"><g transform="rotate(0 3.14 2.18) translate(25.24503716956444 25.17024333993396) scale(0.5983506370438525)"><defs><style>.cls-1{fill:none;}.cls-2{fill:#231f20;}.cls-3{fill:#fb2d36;}.cls-4{fill:#ff7400;}.cls-5{fill:#2e3192;}.cls-6{clip-path:url(#a);}.cls-7{fill:#ba0e1b;}.cls-8{fill:#fdc12d;}</style><clipPath id="a"><path class="cls-1" d="m11.18 236.7c0-25.66 48-46.46 107.2-46.46s107.2 20.79 107.2 46.46"></path></clipPath></defs><title>-</title><path class="cls-2" d="M61.5,39.9c14.95,5.66,18.64,13.22,18.64,13.22s.43,0,1.15,0a72.54,72.54,0,0,1,38.1-10.37,72.67,72.67,0,0,1,37.68,10.11h1.45c1.92-6.25,19.41-10.07,19.41-10.07-8.08-6.07-19.21-1.42-19.21-1.42,2-8.41,11.45-17.22,11.45-17.22a18.59,18.59,0,0,0-16.49,7.18,26.06,26.06,0,0,0,.3-20.94C145.1,20,144,28.82,144,28.82,145.69,14.61,133.5,8.61,133.5,8.61c3.14,4.81-4.81,25.37-5,24.83-1.18-3.05-1.13-6.75-.67-10.58C129.56,8.39,125.66,0,125.66,0c-10.29,7.57-10.22,25.47-10.22,25.47.76-10.48-10-16.18-10-16.18,5.38,12.73-3.13,25.57-5.5,22.86-6.47-7.4-6.87-21.08-6.87-21.08-8.86,3.31-6.36,24.26-6.36,24.26-5.23-9.76-16.84-14.58-16.84-14.58-.09,7.1,9.45,19.11,9.45,19.11A15,15,0,0,0,61.5,39.9Z"></path><circle class="cls-3" cx="118.4" cy="115" r="16.45"></circle><path class="cls-4" d="M73.9,116.82a46.58,46.58,0,0,1,1-22.63,9.58,9.58,0,0,0-5.47-.52C62.87,95,59,103.35,60.89,112.24s8.68,15,15.26,13.62c.2,0,.39-.11.59-.17A45.31,45.31,0,0,1,73.9,116.82Z"></path><path class="cls-4" d="M162.93,116.82a46.58,46.58,0,0,0-1-22.63,9.58,9.58,0,0,1,5.47-.52c6.57,1.37,10.4,9.69,8.55,18.58s-8.68,15-15.26,13.62c-.2,0-.39-.11-.59-.17A45.31,45.31,0,0,0,162.93,116.82Z"></path><path class="cls-5" d="m11.18 236.7c0-25.66 48-46.46 107.2-46.46s107.2 20.79 107.2 46.46"></path><g class="cls-6"><polygon class="cls-7" points="231.7 209.6 0 209.6 0.33 200.8 232 200.8"></polygon><polygon class="cls-7" points="231.7 227.9 0 227.9 0.33 219 232 219"></polygon></g><rect class="cls-8" x="79.34" y="172.7" width="78.14" height="20.74"></rect></g></svg>