<svg viewBox="0 0 192 192" xmlns="http://www.w3.org/2000/svg" width="192" height="192">










<g transform="rotate(0 3.14 2.18) translate(29.959201457195192 26.089135758089427) scale(0.9987266320272938)"><defs>
<style>.cls-1{fill:none;stroke:#231f20;stroke-miterlimit:10;}</style>
</defs><title>22763002</title><path class="cls-1" d="M33,89c0,3.36-.22,8.75,0,10.32s.22,6.28-6.28,8.3S7.42,111.44,2,122.42c0,0,14.13-7.62,29.83,16.82,0,0,5.38-13.46,23.1-10.54,0,0-10.32-17.27,4-19.74,0,0-13.46-2.24-15.47-5.61s-2-10.54-3.81-12.56S33,89,33,89Z"></path><path class="cls-1" d="m100.4 89c0 3.36 0.22 8.75 0 10.32s-0.22 6.28 6.28 8.3 19.29 3.81 24.67 14.8c0 0-14.13-7.62-29.83 16.82 0 0-5.38-13.46-23.1-10.54 0 0 10.32-17.27-4-19.74 0 0 13.46-2.24 15.47-5.61s2-10.54 3.81-12.56 6.7-1.79 6.7-1.79z"></path><path class="cls-1" d="M96.41,8.1A17.17,17.17,0,0,0,82.54.91l-17.75,5L47,.91A17.19,17.19,0,0,0,32.55,9"></path><path class="cls-1" d="M37.52,37.45C45.15,55,60.21,88,60.7,89c2.12,4,5.07,2.18,5.58,1.35C67.63,88.1,86,51,90.08,41.77c.63-1.43,1.29-2.86,1.94-4.3"></path><circle class="cls-1" cx="34.2" cy="23.3" r="14.53"></circle><circle class="cls-1" cx="34.2" cy="23.3" r="5.81"></circle><circle class="cls-1" cx="95.23" cy="23.3" r="14.53"></circle><circle class="cls-1" cx="95.23" cy="23.3" r="5.81"></circle></g></svg>