<svg viewBox="0 0 192 192" xmlns="http://www.w3.org/2000/svg" xmlns:xlink="http://www.w3.org/1999/xlink" width="192" height="192"><g transform="rotate(0 3.14 2.18) translate(30.373025531472038 26.899386051096272) scale(0.992468422964506)"><defs><style>.cls-1{isolation:isolate;}.cls-2{fill:#0095ff;stroke:#231f20;stroke-width:1.79px;}.cls-2,.cls-5{stroke-miterlimit:10;}.cls-3{fill:#58595b;}.cls-4,.cls-7,.cls-8{opacity:0.2;mix-blend-mode:screen;}.cls-4{fill:url(#a);}.cls-5{fill:#b6d876;stroke:#222426;stroke-width:2.15px;}.cls-6{fill:#222426;}.cls-7{fill:url(#c);}.cls-8{fill:url(#b);}</style><linearGradient id="a" x1="66.42" x2="80.67" y1="15.22" y2="49.26" gradientUnits="userSpaceOnUse"><stop stop-color="#fff" offset="0"></stop><stop offset="1"></stop></linearGradient><linearGradient id="c" x1="33.68" x2="40.86" y1="18.49" y2="18.49" xlink:href="#a"></linearGradient><linearGradient id="b" x1="96.11" x2="103.3" y1="20.64" y2="20.64" xlink:href="#a"></linearGradient></defs><title>-</title><g class="cls-1"><g data-name="Layer 2"><path class="cls-2" d="M33,88.1c0,3.36-.22,8.75,0,10.32s.22,6.28-6.28,8.3S7.42,110.52,2,121.51c0,0,14.13-7.62,29.83,16.82,0,0,5.38-13.46,23.1-10.54,0,0-10.32-17.27,4-19.74,0,0-13.46-2.24-15.47-5.61s-2-10.54-3.81-12.56S33,88.1,33,88.1Z"></path><path class="cls-2" d="m100.4 88.1c0 3.36 0.22 8.75 0 10.32s-0.22 6.28 6.28 8.3 19.29 3.81 24.67 14.8c0 0-14.13-7.62-29.83 16.82 0 0-5.38-13.46-23.1-10.54 0 0 10.32-17.27-4-19.74 0 0 13.46-2.24 15.47-5.61s2-10.54 3.81-12.56 6.7-1.79 6.7-1.79z"></path><path class="cls-3" d="M66.27,89.39c1.36-2.2,19.72-39.3,23.8-48.54,2.05-4.65,4.36-9.29,6.06-14.09C98.53,20,101,13.69,96.41,7.18A17.17,17.17,0,0,0,82.54,0L64.79,5,47,0A17.19,17.19,0,0,0,32.55,8.1c-4,6.51-1.49,11.8.8,18.43C35.74,33.44,60.08,86.86,60.7,88,62.81,92,65.77,90.21,66.27,89.39Z"></path><path class="cls-4" d="M65,7.08l17.5-5.31A15.31,15.31,0,0,1,95,8.21c3.93,5.52,2,10.94-.23,17.22l-.26.75C93.26,29.58,91.71,33,90.2,36.28c-.59,1.29-1.17,2.57-1.74,3.85C84.59,48.9,67.69,83.1,65,88Z"></path><circle class="cls-5" cx="34.2" cy="22.39" r="14.53"></circle><circle class="cls-6" cx="34.2" cy="22.39" r="5.81"></circle><circle class="cls-7" cx="37.27" cy="18.49" r="3.59"></circle><circle class="cls-5" cx="95.23" cy="22.39" r="14.53"></circle><circle class="cls-6" cx="95.23" cy="22.39" r="5.81"></circle><circle class="cls-8" cx="99.7" cy="20.64" r="3.59"></circle></g></g></g></svg>