<svg viewBox="0 0 192 192" xmlns="http://www.w3.org/2000/svg" width="192" height="192">



















<g transform="rotate(0 3.14 2.18) translate(10.790369664673378 52.66545809033455) scale(0.8981252209257088)"><defs>
<style>.cls-1{fill:none;stroke:#231f20;stroke-miterlimit:10;}</style>
</defs><title>56788520</title><path class="cls-1" d="M62.87,8.8c-3-.85-6-1.6-8.42-.59-4.84,2-6.28,10.67-10.72,13.41S30.92,21.8,27,25.22a7.21,7.21,0,0,0-1.86,2.7"></path><path class="cls-1" d="M140.89,14.93c-2.16-3.33-4.07-7.27-7.25-8.43-4.86-1.77-11.79,3.58-17,2.54a101.19,101.19,0,0,0-15-1.89C96.31,6.87,90.94,0,85.81.43,82,.78,78.85,5,75.5,7.72"></path><path class="cls-1" d="M48.42,71.86V83c0,7.69,22.22,13.92,49.63,13.92S147.69,90.71,147.69,83V71.86Z"></path><path class="cls-1" d="M15.7,43.64A99.14,99.14,0,0,0,1.4,63.79a5.45,5.45,0,0,0,4.74,8.08h168.3a5.45,5.45,0,0,0,4.74-8.08c-17.28-32.16-50.6-52.29-88.89-52.29q-2.79,0-5.54.14"></path><path class="cls-1" d="M92.31,11.49c-5.29,0-2.48.4-7.55,1.14A101.09,101.09,0,0,0,51.93,23.37,98.51,98.51,0,0,0,42.64,29c-1.49,1-2.94,2.08-4.37,3.18A98,98,0,0,0,21.58,48.47q-1.69,2.1-3.27,4.29a99.78,99.78,0,0,0-6.89,11,5.45,5.45,0,0,0,4.74,8.08h168.3a5.45,5.45,0,0,0,4.74-8.08,99.88,99.88,0,0,0-6-9.77c-1-1.43-2-2.84-3.08-4.21l-2.79-3.36M46.51,55a2.73,2.73,0,0,1-1.24.31A2.75,2.75,0,0,1,44,50.07a2.73,2.73,0,0,1,1.26-.32A2.75,2.75,0,0,1,46.51,55ZM165,59.76a2.27,2.27,0,1,1,1.17-3A2.27,2.27,0,0,1,165,59.76ZM70.59,26.54A4.55,4.55,0,1,1,66,31.09,4.55,4.55,0,0,1,70.59,26.54Zm2.07,38a3.45,3.45,0,1,1,3.45-3.45A3.45,3.45,0,0,1,72.66,64.59Zm28.56-14.52a2.27,2.27,0,1,1,1.17-3A2.27,2.27,0,0,1,101.22,50.07ZM121.1,33.94a4.55,4.55,0,1,1,4.55,4.55A4.55,4.55,0,0,1,121.1,33.94Zm10,29.28a2.27,2.27,0,1,1,1.17-3A2.27,2.27,0,0,1,131.11,63.22Z"></path><path class="cls-1" d="M45.27,49.75a2.81,2.81,0,0,0-2.76,2.76,2.76,2.76,0,0,0,2.76,2.76A2.83,2.83,0,0,0,48,52.51,2.76,2.76,0,0,0,45.27,49.75Z"></path><circle class="cls-1" cx="70.59" cy="31.09" r="4.55"></circle><circle class="cls-1" cx="125.6" cy="33.94" r="4.55"></circle><circle class="cls-1" transform="translate(-10.82 44.14) rotate(-23.58)" cx="100.3" cy="47.99" r="2.27"></circle><circle class="cls-1" transform="translate(-13.58 57.19) rotate(-23.58)" cx="130.2" cy="61.13" r="2.27"></circle><circle class="cls-1" transform="translate(-9.37 70.45) rotate(-23.58)" cx="164.1" cy="57.68" r="2.27"></circle><circle class="cls-1" cx="72.66" cy="61.13" r="3.45"></circle><path class="cls-1" d="M84.76,12.64a4.21,4.21,0,0,0-1-2.71c-1.59-1.59-5-.61-7.12-1.49s-3.74-4-6.09-4-4,3.14-6.09,4S59,8.33,57.38,9.92s-.61,5-1.49,7.12-4,3.74-4,6.09"></path><path class="cls-1" d="M159.26,27.32a5.23,5.23,0,0,1-.78-1.24c-.88-2.11.1-5.53-1.49-7.12s-5-.61-7.12-1.49-3.74-4-6.09-4-4,3.14-6.09,4-5.53-.1-7.12,1.49c-.29.29.15-.4,0,0"></path><path class="cls-1" d="M20.62,43.67a12.57,12.57,0,0,1,17.65-11.5C39.7,31.07,41.15,30,42.64,29A17.44,17.44,0,0,0,18.31,52.76q1.58-2.2,3.27-4.29A12.53,12.53,0,0,1,20.62,43.67Z"></path><path class="cls-1" d="m174 55.11a17.44 17.44 0 0 0 -14 -27.82h-0.69a17.35 17.35 0 0 0 -9.62 3.35"></path><path class="cls-1" d="m153.8 33.77a12.57 12.57 0 0 1 17.08 17.13"></path></g></svg>