<svg viewBox="0 0 192 192" xmlns="http://www.w3.org/2000/svg" width="192" height="192"><g transform="rotate(0 3.14 2.18) translate(11.06268792566874 52.35009657637016) scale(0.8999980087346359)"><defs><style>.cls-1{fill:#ecae51;}.cls-2,.cls-7{fill:#e58924;}.cls-3{fill:#643437;}.cls-4{fill:#11b482;}.cls-5{fill:#ee4155;}.cls-6{fill:#ec7c86;}.cls-7{opacity:0.31;}</style></defs><title>-</title><ellipse class="cls-1" cx="97.32" cy="82.62" rx="49.63" ry="13.92"></ellipse><rect class="cls-1" x="47.69" y="26.56" width="99.27" height="56.06"></rect><path class="cls-2" d="m89.56 11.09c-38.3 0-71.62 20.13-88.89 52.29a5.45 5.45 0 0 0 4.74 8.08h168.3a5.45 5.45 0 0 0 4.74 -8.08c-17.27-32.16-50.59-52.29-88.89-52.29z"></path><path class="cls-3" d="M183.33,45.31c-2.95-4.35-11.7-4.06-15.26-7.86s-2.72-12.53-6.85-15.74S148.87,21.5,144.27,19,137.86,7.9,132.91,6.1s-11.79,3.58-17,2.54a101.19,101.19,0,0,0-15-1.89C95.58,6.47,90.21-.45,85.08,0S75.82,8.31,70.8,9.55,58.51,5.8,53.72,7.8,47.44,18.47,43,21.21s-12.82.19-16.78,3.61-2.63,12.06-6,16.07"></path><path class="cls-4" d="m88.53 22.73c0 2.34-3.14 4-4 6.09s0.1 5.53-1.49 7.12-5 0.61-7.12 1.49-3.74 4-6.09 4-4-3.14-6.09-4-5.53 0.1-7.12-1.49-0.61-5-1.49-7.12-4-3.74-4-6.09 3.14-4 4-6.09-0.1-5.53 1.49-7.12 5-0.61 7.12-1.49 3.74-4 6.09-4 4 3.14 6.09 4 5.53-0.1 7.12 1.49 0.61 5 1.49 7.12 4 3.74 4 6.09z"></path><path class="cls-4" d="m170.9 30.67c0 2.34-3.14 4-4 6.09s0.1 5.53-1.49 7.12-5 0.61-7.12 1.49-3.74 4-6.09 4-4-3.14-6.09-4-5.53 0.1-7.12-1.49-0.61-5-1.49-7.12-4-3.74-4-6.09 3.14-4 4-6.09-0.1-5.53 1.49-7.12 5-0.61 7.12-1.49 3.74-4 6.09-4 4 3.14 6.09 4 5.53-0.1 7.12 1.49 0.61 5 1.49 7.12 4 3.75 4 6.09z"></path><circle class="cls-5" cx="32.46" cy="43.26" r="17.47"></circle><circle class="cls-6" cx="32.46" cy="43.26" r="12.58"></circle><circle class="cls-5" cx="168.4" cy="43.26" r="17.47"></circle><circle class="cls-6" cx="168.4" cy="43.26" r="12.58"></circle><path class="cls-1" d="m99.58 11.09c-38.3 0-71.62 20.13-88.89 52.29a5.45 5.45 0 0 0 4.74 8.08h168.3a5.45 5.45 0 0 0 4.74 -8.08c-17.28-32.16-50.6-52.29-88.89-52.29z"></path><circle class="cls-2" cx="44.54" cy="52.11" r="2.76"></circle><circle class="cls-2" cx="69.85" cy="30.69" r="4.55"></circle><circle class="cls-2" cx="124.9" cy="33.54" r="4.55"></circle><circle class="cls-2" transform="translate(-10.72 43.81) rotate(-23.58)" cx="99.58" cy="47.58" r="2.27"></circle><circle class="cls-2" transform="translate(-13.48 56.87) rotate(-23.58)" cx="129.5" cy="60.73" r="2.27"></circle><circle class="cls-2" transform="translate(-9.27 70.12) rotate(-23.58)" cx="163.3" cy="57.28" r="2.27"></circle><circle class="cls-2" cx="71.93" cy="60.73" r="3.45"></circle><path class="cls-7" d="m188.5 63.27a98.57 98.57 0 0 0 -60.2 -48.37c-4.48 24.7-23.63 47.24-50 56.33h105.5a5.36 5.36 0 0 0 4.74 -7.96z"></path></g></svg>