<svg viewBox="0 0 192 192" xmlns="http://www.w3.org/2000/svg" width="192" height="192"><g transform="rotate(0 3.14 2.18) translate(16.68623240484318 2.178907757931995) scale(0.8471430450751062)"><defs><style>.cls-1,.cls-10,.cls-2,.cls-7{fill:none;}.cls-2{stroke:#171717;stroke-width:4.81px;}.cls-10,.cls-2,.cls-7{stroke-miterlimit:10;}.cls-3{fill:#773c21;}.cls-4{fill:#442115;}.cls-5{fill:#a6a8ab;}.cls-12,.cls-6{fill:#fff;}.cls-6{opacity:0.65;}.cls-7{stroke:#ce8200;stroke-width:3.21px;}.cls-8{fill:#a86347;}.cls-9{clip-path:url(#a);}.cls-10{stroke:#825748;stroke-width:1.2px;}.cls-11{fill:#5c301e;}.cls-12{opacity:0.12;}</style><clipPath id="a"><path class="cls-1" d="m135.7 84.51c-7.62-25.57-27.94-39.68-51.82-39.68-24.17 0-44.69 14.57-52.09 40.63a78 78 0 0 0 -2.9 18.73c11.68 4.77 32.54 7.95 56.33 7.95 22.08 0 41.63-2.74 53.67-6.94a78 78 0 0 0 -3.19 -20.69z"></path></clipPath></defs><title>-</title><ellipse class="cls-2" transform="translate(2.55 79.91) rotate(-58.96)" cx="71.96" cy="37.7" rx="8.2" ry="12.1"></ellipse><ellipse class="cls-2" transform="translate(-5.91 54.11) rotate(-31.04)" cx="94.45" cy="37.7" rx="12.1" ry="8.2"></ellipse><path class="cls-3" d="m135.7 84.51c-7.62-25.57-27.94-39.68-51.82-39.68-24.17 0-44.69 14.57-52.09 40.63a78 78 0 0 0 -2.9 18.73c11.68 4.77 32.54 7.95 56.33 7.95 22.08 0 41.63-2.74 53.67-6.94a78 78 0 0 0 -3.19 -20.69z"></path><path class="cls-4" d="m138.9 103.6h-0.05s0 1.05 0.05 1.52c-12 4.21-31.58 7-53.67 7-23.79 0-44.65-3.15-56.33-7.92 0-0.49 0.07-0.54 0.09-1v0.43h-0.08s-29.3 28.85 55 28.85h1.74c84.29-0.03 53.25-28.88 53.25-28.88z"></path><rect class="cls-5" transform="translate(-74.05 136.1) rotate(-45)" x="125.5" y="150" width="3.45" height="14.8"></rect><circle class="cls-6" cx="106" cy="136.1" r="22.12"></circle><circle class="cls-7" cx="106" cy="136.1" r="22.12"></circle><path class="cls-3" d="M167.36,189.1l-6.23,6.23a3.13,3.13,0,0,1-4.57-.15L128.42,163.4a3.13,3.13,0,0,1,.14-4.28h0a3.13,3.13,0,0,1,4.28-.14l34.37,25.55A3.13,3.13,0,0,1,167.36,189.1Z"></path><path class="cls-8" d="M167.22,184.53,132.84,159a3.12,3.12,0,0,0-5,1.24,3.12,3.12,0,0,1,3.61.36l34.37,25.55a3.12,3.12,0,0,1,.69,3.8l.83-.83A3.13,3.13,0,0,0,167.22,184.53Z"></path><g class="cls-9"><rect class="cls-10" transform="translate(-5.48 73) rotate(-45)" x="55.5" y="13.23" width="59.77" height="59.77"></rect><line class="cls-10" x1="51.13" x2="93.4" y1="36.56" y2="78.82"></line><line class="cls-10" x1="58.42" x2="100.7" y1="29.27" y2="71.54"></line><line class="cls-10" x1="65.71" x2="108" y1="21.98" y2="64.25"></line><line class="cls-10" x1="72.99" x2="115.3" y1="14.7" y2="56.96"></line><line class="cls-10" x1="78.82" x2="121.1" y1="8.87" y2="51.13"></line><line class="cls-10" x1="121.1" x2="80.28" y1="38.01" y2="78.82"></line><line class="cls-10" x1="113.8" x2="72.99" y1="30.73" y2="71.54"></line><line class="cls-10" x1="106.5" x2="65.71" y1="23.44" y2="64.25"></line><line class="cls-10" x1="97.77" x2="56.96" y1="14.7" y2="55.5"></line><line class="cls-10" x1="91.94" x2="51.13" y1="8.87" y2="49.67"></line><rect class="cls-10" transform="translate(-22.69 114.5) rotate(-45)" x="97.03" y="55.8" width="59.77" height="57.71"></rect><line class="cls-10" x1="93.4" x2="134.2" y1="78.82" y2="119.6"></line><line class="cls-10" x1="100.7" x2="141.5" y1="71.54" y2="112.3"></line><line class="cls-10" x1="108" x2="148.8" y1="64.25" y2="105.1"></line><line class="cls-10" x1="115.3" x2="156.1" y1="56.96" y2="97.77"></line><line class="cls-10" x1="121.1" x2="161.9" y1="51.13" y2="91.94"></line><line class="cls-10" x1="161.9" x2="121.1" y1="78.82" y2="119.6"></line><line class="cls-10" x1="154.6" x2="113.8" y1="71.54" y2="112.3"></line><line class="cls-10" x1="147.3" x2="106.5" y1="64.25" y2="105.1"></line><line class="cls-10" x1="140" x2="99.23" y1="56.96" y2="97.77"></line><line class="cls-10" x1="134.2" x2="93.4" y1="51.13" y2="91.94"></line><rect class="cls-10" transform="translate(-47.75 55.5) rotate(-45)" x="13.23" y="55.5" width="59.77" height="59.77"></rect><line class="cls-10" x1="8.87" x2="51.13" y1="78.82" y2="121.1"></line><line class="cls-10" x1="16.15" x2="58.42" y1="71.54" y2="113.8"></line><line class="cls-10" x1="23.44" x2="65.71" y1="64.25" y2="106.5"></line><line class="cls-10" x1="29.27" x2="71.54" y1="58.42" y2="100.7"></line><line class="cls-10" x1="36.56" x2="78.82" y1="51.13" y2="93.4"></line><line class="cls-10" x1="78.82" x2="38.01" y1="80.28" y2="121.1"></line><line class="cls-10" x1="71.54" x2="30.73" y1="72.99" y2="113.8"></line><line class="cls-10" x1="64.25" x2="23.44" y1="65.71" y2="106.5"></line><line class="cls-10" x1="55.5" x2="14.7" y1="56.96" y2="97.77"></line><line class="cls-10" x1="49.67" x2="8.87" y1="51.13" y2="91.94"></line><rect class="cls-10" transform="translate(-64.95 97.03) rotate(-45)" x="54.77" y="98.06" width="59.77" height="57.71"></rect><line class="cls-10" x1="51.13" x2="91.94" y1="121.1" y2="161.9"></line><line class="cls-10" x1="58.42" x2="99.23" y1="113.8" y2="154.6"></line><line class="cls-10" x1="65.71" x2="106.5" y1="106.5" y2="147.3"></line><line class="cls-10" x1="71.54" x2="112.3" y1="100.7" y2="141.5"></line><line class="cls-10" x1="78.82" x2="119.6" y1="93.4" y2="134.2"></line><line class="cls-10" x1="119.6" x2="78.82" y1="121.1" y2="161.9"></line><line class="cls-10" x1="112.3" x2="71.54" y1="113.8" y2="154.6"></line><line class="cls-10" x1="105.1" x2="64.25" y1="106.5" y2="147.3"></line><line class="cls-10" x1="97.77" x2="56.96" y1="99.23" y2="140"></line><line class="cls-10" x1="91.94" x2="51.13" y1="93.4" y2="134.2"></line></g><path class="cls-11" d="m30.14 102.7s-11-5.48-3.17-11.83 11.82-13.26 13.26-17.91 8.94-18.85 18.46-21.68c0 0 6.06-6.3 0-4.85s-16.69 10.41-22.21 20.79-8.18 16.16-12.31 20.48-9.03 16.44 5.97 15z"></path><path class="cls-12" d="m118.5 91.53a84.48 84.48 0 0 1 3.24 17.82 106.8 106.8 0 0 0 17.16 -4.16 78 78 0 0 0 -3.18 -20.68c-7.62-25.57-27.94-39.68-51.82-39.68a55.19 55.19 0 0 0 -19.24 3.41c24.87 1.08 45.81 16.35 53.84 43.29z"></path><path class="cls-11" d="m137.7 104.1s11-5.48 3.17-11.83-11.83-13.3-13.27-17.88-8.94-18.85-18.46-21.68c0 0-6.06-6.3 0-4.85s16.73 10.38 22.21 20.77 8.19 16.15 12.31 20.48 9.04 16.44-5.96 14.99z"></path></g></svg>