<svg viewBox="0 0 192 192" xmlns="http://www.w3.org/2000/svg" width="192" height="192">
















<g transform="rotate(0 3.14 2.18) translate(17.242029348020225 23.551079066469867) scale(0.8412066291266198)"><defs>
<style>.cls-1{fill:none;stroke:#231f20;stroke-miterlimit:10;}</style>
</defs><title>58292305</title><path class="cls-1" d="M99.41,21.86c3.18-1.91,6.18-4.76,7.54-7.7a9.58,9.58,0,0,0-.08-9,9.58,9.58,0,0,0-8-4.3A17.75,17.75,0,0,0,89,3.51,18.78,18.78,0,0,0,83.2,8.84a18.78,18.78,0,0,0-5.78-5.33A17.76,17.76,0,0,0,67.49.81a9.57,9.57,0,0,0-8,4.3,9.58,9.58,0,0,0-.08,9,20.27,20.27,0,0,0,7.51,8m13.3-4.61c-1,1.58-3,1.92-4.09,2a13.14,13.14,0,0,1-7.2-2,13.14,13.14,0,0,1-5.15-5.42c-.47-1-1.12-3-.17-4.55s3-1.92,4.09-2h.49a13.45,13.45,0,0,1,6.71,2A13.14,13.14,0,0,1,80.1,13C80.57,14.07,81.22,16,80.26,17.59Zm22.32-5.46a13.14,13.14,0,0,1-5.15,5.42,13.14,13.14,0,0,1-7.2,2c-1.12-.06-3.14-.4-4.1-2s-.3-3.53.17-4.55a13.14,13.14,0,0,1,5.15-5.42,13.45,13.45,0,0,1,6.71-2h.49c1.12.06,3.14.4,4.1,2S103.06,11.12,102.59,12.14Z"></path><path class="cls-1" d="m138.9 78.44h-0.05s0 1.05 0.05 1.52c-12 4.21-31.58 7-53.67 7-23.79 0-44.65-3.15-56.33-7.92 0-0.49 0.07-0.54 0.09-1v0.43h-0.08s-29.3 28.85 55 28.85h1.74c84.29-0.02 53.25-28.88 53.25-28.88z"></path><rect class="cls-1" transform="translate(-55.54 126.9) rotate(-45)" x="123.7" y="125.7" width="3.45" height="9.63"></rect><circle class="cls-1" cx="106" cy="111" r="22.12"></circle><circle class="cls-1" cx="106" cy="111" r="22.12"></circle><path class="cls-1" d="M167.36,164l-6.23,6.23a3.13,3.13,0,0,1-4.57-.15L128.42,138.3a3.13,3.13,0,0,1,.14-4.28h0a3.13,3.13,0,0,1,4.28-.14l34.37,25.55A3.13,3.13,0,0,1,167.36,164Z"></path><path class="cls-1" d="M166.53,164.83l.83-.83a3.13,3.13,0,0,0-.15-4.57l-34.37-25.55a3.12,3.12,0,0,0-5,1.24"></path><path class="cls-1" d="m140.9 67.21a51.28 51.28 0 0 1 -4.15 -3.78 78.47 78.47 0 0 1 2.06 15c2.55-1.62 8.32-6.14 2.09-11.22z"></path><path class="cls-1" d="M27,65.81c-6.17,5-.58,9.51,2,11.15A77.86,77.86,0,0,1,31.4,61.73,51,51,0,0,1,27,65.81Z"></path><path class="cls-1" d="M138.81,78.41a78.47,78.47,0,0,0-2.06-15c-5.11-5.19-8-10.4-9.12-14.11-1.44-4.62-8.94-18.85-18.46-21.68a17,17,0,0,1-2.29-3,56.15,56.15,0,0,0-47.36.67c-.47.56-.84.94-.84.94-9.52,2.83-17,17.07-18.46,21.68a36.76,36.76,0,0,1-8.83,13.8A77.86,77.86,0,0,0,29,77"></path><path class="cls-1" d="m28.94 77.72c0 0.45-0.05 0.9-0.07 1.36 11.69 4.77 32.54 7.92 56.34 7.92 22.08 0 41.63-2.74 53.67-6.94v-1"></path><path class="cls-1" d="m58.69 21.39c-6.06 1.44-16.69 10.38-22.21 20.77s-8.18 16.15-12.31 20.48-8.76 15.77 4.77 15.08v-0.76c-2.59-1.65-8.19-6.13-2-11.15a51 51 0 0 0 4.44 -4.08 36.76 36.76 0 0 0 8.83 -13.8c1.44-4.62 8.94-18.85 18.46-21.68 0 0 0.37-0.39 0.84-0.94 1.44-1.71 3.74-5-0.82-3.92z"></path><path class="cls-1" d="m138.8 79.11c13.64 0.74 8.89-10.86 4.87-15.08s-6.83-10.1-12.31-20.48-16.15-19.33-22.21-20.77c-3-0.71-3 0.47-2.29 1.85m31.92 53.78a78.48 78.48 0 0 0 -2.06 -15 51.28 51.28 0 0 0 4.15 3.78c6.23 5.1 0.46 9.62-2.1 11.22z"></path><path class="cls-1" d="M138.84,79.11q0-.35,0-.7"></path></g></svg>