<svg viewBox="0 0 192 192" xmlns="http://www.w3.org/2000/svg" width="192" height="192">






<g transform="rotate(0 3.14 2.18) translate(23.480363874558037 34.018590156649026) scale(1.1092869770622098)"><defs>
<style>.cls-1{fill:none;stroke:#231f20;stroke-miterlimit:10;}</style>
</defs><title>65322148</title><path class="cls-1" d="M55.26,96.08c0-.19,0-.38,0-.57l3.48-1.46q-.09-.66-.23-1.31l-3.75-.18q-.17-.56-.4-1.09l2.76-2.55q-.31-.59-.67-1.15l-3.6,1.12q-.35-.46-.74-.88l1.73-3.35c-.33-.3-.67-.58-1-.85l-3,2.28q-.48-.31-1-.57l.47-3.74q-.61-.25-1.25-.46l-2,3.17c-.37-.08-.75-.15-1.13-.2L44,80.61l-.67,0-.67,0-.83,3.67c-.38,0-.76.11-1.13.2l-2-3.17q-.64.2-1.25.46l.47,3.74q-.51.26-1,.57l-3-2.28c-.35.27-.69.55-1,.85L34.62,88q-.39.42-.74.88l-3.6-1.12q-.36.56-.67,1.15l2.76,2.55q-.22.53-.4,1.09l-3.75.18q-.14.65-.23,1.31l3.48,1.46c0,.19,0,.38,0,.57s0,.38,0,.57L28,98.12q.09.66.23,1.31l3.75.18q.17.56.4,1.09l-2.76,2.55q.31.59.67,1.15l3.6-1.12q.35.46.74.88l-1.73,3.35c.33.3.67.58,1,.85l3-2.28q.48.31,1,.57l-.47,3.74q.61.25,1.25.46l2-3.17c.37.08.75.15,1.13.2l.83,3.67.67,0,.67,0,.83-3.67c.38,0,.76-.11,1.13-.2l2,3.17q.64-.2,1.25-.46l-.47-3.74q.51-.26,1-.57l3,2.28c.35-.27.69-.55,1-.85l-1.73-3.35q.39-.42.74-.88l3.6,1.12q.36-.56.67-1.15l-2.76-2.55q.22-.53.4-1.09l3.75-.18q.14-.65.23-1.31l-3.48-1.46C55.24,96.46,55.26,96.28,55.26,96.08Zm-11.91,9.27a9.27,9.27,0,1,1,9.27-9.27A9.27,9.27,0,0,1,43.35,105.35Z"></path><circle class="cls-1" cx="43.35" cy="96.08" r="5.24"></circle><path class="cls-1" d="M120.94,56.95H114.8a49.49,49.49,0,1,0-98.54-6.62,49.89,49.89,0,0,0,.45,6.62H10.58a9.72,9.72,0,1,0,0,19.43H120.94a9.72,9.72,0,1,0,0-19.43Z"></path><line class="cls-1" x1="16.25" x2="114.8" y1="57" y2="57"></line></g></svg>