<svg viewBox="0 0 192 192" xmlns="http://www.w3.org/2000/svg" width="192" height="192"><g transform="rotate(0 3.14 2.18) translate(23.57204823508802 33.91889848721831) scale(1.1185784056357062)"><defs><style>.cls-1{fill:#231f20;}.cls-2,.cls-3{opacity:0.2;}.cls-3,.cls-4{fill:#fff;}.cls-5{fill:#404041;}</style></defs><title>-</title><path class="cls-1" d="M54.53,95.25c0-.19,0-.38,0-.57L58,93.22q-.09-.66-.23-1.31L54,91.73q-.17-.56-.4-1.09l2.76-2.55q-.31-.59-.67-1.15l-3.6,1.12q-.35-.46-.74-.88l1.73-3.35c-.33-.3-.67-.58-1-.85l-3,2.28q-.48-.31-1-.57l.47-3.74q-.61-.25-1.25-.46l-2,3.17c-.37-.08-.75-.15-1.13-.2l-.83-3.67-.67,0-.67,0-.83,3.67c-.38,0-.76.11-1.13.2l-2-3.17q-.64.2-1.25.46l.47,3.74q-.51.26-1,.57l-3-2.28c-.35.27-.69.55-1,.85l1.73,3.35q-.39.42-.74.88l-3.6-1.12q-.36.56-.67,1.15l2.76,2.55q-.22.53-.4,1.09l-3.75.18q-.14.65-.23,1.31l3.48,1.46c0,.19,0,.38,0,.57s0,.38,0,.57l-3.48,1.46q.09.66.23,1.31l3.75.18q.17.56.4,1.09l-2.76,2.55q.31.59.67,1.15l3.6-1.12q.35.46.74.88l-1.73,3.35c.33.3.67.58,1,.85l3-2.28q.48.31,1,.57l-.47,3.74q.61.25,1.25.46l2-3.17c.37.08.75.15,1.13.2l.83,3.67.67,0,.67,0,.83-3.67c.38,0,.76-.11,1.13-.2l2,3.17q.64-.2,1.25-.46l-.47-3.74q.51-.26,1-.57l3,2.28c.35-.27.69-.55,1-.85l-1.73-3.35q.39-.42.74-.88l3.6,1.12q.36-.56.67-1.15l-2.76-2.55q.22-.53.4-1.09l3.75-.18q.14-.65.23-1.31l-3.48-1.46C54.51,95.63,54.53,95.44,54.53,95.25Zm-11.91,9.27a9.27,9.27,0,1,1,9.27-9.27A9.27,9.27,0,0,1,42.63,104.52Z"></path><circle class="cls-1" cx="42.63" cy="95.25" r="5.24"></circle><path class="cls-1" d="M120.22,56.11h-6.14A49.49,49.49,0,1,0,15.54,49.5,49.89,49.89,0,0,0,16,56.11H9.85a9.72,9.72,0,0,0,0,19.43H120.22a9.72,9.72,0,0,0,0-19.43Z"></path><g class="cls-2"><path class="cls-3" d="m65.6 0z"></path><path class="cls-4" d="m65.61 0z"></path><path class="cls-4" d="M115.1,49.5A49.49,49.49,0,0,0,65.86,0h-.29q-1.5,0-3,.1H62.5a50.69,50.69,0,0,0-8.71,1.37,63.15,63.15,0,0,1,39,54.44h21.88A49.72,49.72,0,0,0,115.1,49.5Z"></path></g><rect class="cls-5" y="55.92" width="130.4" height="19.46" rx="9.73" ry="9.73"></rect></g></svg>