<svg viewBox="0 0 192 192" xmlns="http://www.w3.org/2000/svg" width="192" height="192">




<g transform="rotate(0 3.14 2.18) translate(21.961541251313932 35.516077740710685) scale(1.0229838859922082)"><defs>
<style>.cls-1{fill:none;stroke:#231f20;stroke-miterlimit:10;}</style>
</defs><title>11581842</title><path class="cls-1" d="M23.33,54.48v51.14c0,6.39,24.76,11.57,49.27,11.57s49.27-5.18,49.27-11.57V54.48"></path><path class="cls-1" d="M144.58,25.26,120.52.81H24.67L.61,25.26,2,26.86.61,28.27l72,82.9,72-82.9-1.39-1.41ZM108.38,6.34a10.92,10.92,0,0,1-4.79,10c-1.15-2.92-4.92-7-8.19-10ZM10.93,27.06l-1.76-2L11,23.15l15.62-16,.83-.85H43.32C35,9.44,19.64,21,21.48,39ZM74.85,94.64,72.7,97.08l-2.15-2.44-17.62-20c15.58,2.84,28.55,2.2,40-.54ZM71,71.44c-7-10.83-25-11.79-26.65-3.49L28.69,50.21c8.51,4,25.14,4,37.24,4.48,21,.9,36.73,1.52,36.42,7.95C102.08,68.2,90.82,71.18,71,71.44Zm63.28-44.38L116.91,46.8c-7-16.05-33-15-47.3-14.71C57.42,32.36,43,30.84,42.08,21,41.2,11.41,57.7,7,67.32,7c10.52,0,27.4,1.75,29.92,19h21.84V7.74l15.08,15.41L136,25.06Z"></path></g></svg>