<svg viewBox="0 0 192 192" xmlns="http://www.w3.org/2000/svg" width="192" height="192"><g transform="rotate(0 3.14 2.18) translate(21.83722231562642 36.183044596541514) scale(1.0247015914939355)"><defs><style>.cls-1{isolation:isolate;}.cls-2,.cls-3{fill:#231f20;}.cls-3,.cls-4,.cls-5,.cls-6{fill-rule:evenodd;}.cls-4{fill:#9b0d1e;stroke:#9b0d1e;}.cls-4,.cls-5{stroke-linejoin:bevel;stroke-width:1.63px;}.cls-5{fill:#fb2d36;stroke:#fb2d36;}.cls-6{opacity:0.5;mix-blend-mode:screen;fill:url(#a);}.cls-7{fill:#fff;opacity:0.2;}</style><radialGradient id="a" cx="68.2" cy="3.53" r="76.48" gradientUnits="userSpaceOnUse"><stop stop-color="#fff" offset="0"></stop><stop stop-color="#fff" stop-opacity=".99" offset=".01"></stop><stop stop-color="#fff" stop-opacity=".73" offset=".17"></stop><stop stop-color="#fff" stop-opacity=".51" offset=".34"></stop><stop stop-color="#fff" stop-opacity=".33" offset=".49"></stop><stop stop-color="#fff" stop-opacity=".18" offset=".64"></stop><stop stop-color="#fff" stop-opacity=".08" offset=".78"></stop><stop stop-color="#fff" stop-opacity=".02" offset=".9"></stop><stop stop-color="#fff" stop-opacity="0" offset="1"></stop></radialGradient></defs><title>-</title><g class="cls-1"><g data-name="Layer 2"><path class="cls-2" d="M23.33,43.92v61.71c0,6.39,24.76,11.57,49.27,11.57s49.27-5.18,49.27-11.57V43.92L73.08,100.84Z"></path><polygon class="cls-3" points="8.38 26.03 72.7 98.94 136.8 26.03 120 8.82 25.23 8.82"></polygon><path class="cls-4" d="M.61,28.27l72,82.9,72-82.9L120.52,3.83H24.67L.61,28.27ZM119.08,10.76l15.08,15.41L136,28.07l-1.76,2L116.91,49.82c-7-16.05-33-15-47.3-14.71C57.42,35.38,43,33.86,42.08,24,41.2,14.43,57.7,10,67.32,10c10.52,0,27.4,1.75,29.92,19h21.84V10.76ZM92.89,77.14l-18,20.51-2.15,2.44-2.15-2.44-17.62-20c15.58,2.84,28.55,2.2,40-.54ZM44.35,67.95,28.69,50.21c8.51,4,25.14,4,37.24,4.48,21,.9,36.73,1.52,36.42,7.95-.27,5.57-11.53,8.55-31.35,8.81-7-10.83-25-11.79-26.65-3.49ZM21.48,42l-10.55-12-1.76-2L11,26.17l15.62-16,.83-.85H43.32C35,12.45,19.64,24,21.48,42ZM95.41,9.36h13a10.92,10.92,0,0,1-4.79,10C102.45,16.44,98.67,12.38,95.41,9.36Z"></path><path class="cls-5" d="M.61,25.26l72,82.9,72-82.9L120.52.81H24.67L.61,25.26ZM119.08,7.74l15.08,15.41L136,25.06l-1.76,2L116.91,46.8c-7-16.05-33-15-47.3-14.71C57.42,32.36,43,30.84,42.08,21,41.2,11.41,57.7,7,67.32,7c10.52,0,27.4,1.75,29.92,19h21.84V7.74ZM92.89,74.12l-18,20.51L72.7,97.08l-2.15-2.44-17.62-20c15.58,2.84,28.55,2.2,40-.54ZM44.35,64.93,28.69,47.19c8.51,4,25.14,4,37.24,4.48,21,.9,36.73,1.52,36.42,7.95-.27,5.57-11.53,8.55-31.35,8.81-7-10.83-25-11.79-26.65-3.49ZM21.48,39l-10.55-12-1.76-2L11,23.15l15.62-16,.83-.85H43.32C35,9.44,19.64,21,21.48,39ZM95.41,6.34h13a10.92,10.92,0,0,1-4.79,10C102.45,13.42,98.67,9.37,95.41,6.34Z"></path><path class="cls-6" d="M.61,25.26l72,82.9,72-82.9L120.52.81H24.67L.61,25.26ZM119.08,7.74l15.08,15.41L136,25.06l-1.76,2L116.91,46.8c-7-16.05-33-15-47.3-14.71C57.42,32.36,43,30.84,42.08,21,41.2,11.41,57.7,7,67.32,7c10.52,0,27.4,1.75,29.92,19h21.84V7.74ZM92.89,74.12l-18,20.51L72.7,97.08l-2.15-2.44-17.62-20c15.58,2.84,28.55,2.2,40-.54ZM44.35,64.93,28.69,47.19c8.51,4,25.14,4,37.24,4.48,21,.9,36.73,1.52,36.42,7.95-.27,5.57-11.53,8.55-31.35,8.81-7-10.83-25-11.79-26.65-3.49ZM21.48,39l-10.55-12-1.76-2L11,23.15l15.62-16,.83-.85H43.32C35,9.44,19.64,21,21.48,39ZM95.41,6.34h13a10.92,10.92,0,0,1-4.79,10C102.45,13.42,98.67,9.37,95.41,6.34Z"></path><polygon class="cls-7" points="47.87 115.5 33.23 112.7 33.23 73.87 47.87 90.74"></polygon></g></g></g></svg>