<svg viewBox="0 0 192 192" xmlns="http://www.w3.org/2000/svg" width="192" height="192">








































<g transform="rotate(0 3.14 2.18) translate(44.13996073335841 15.432919642533577) scale(0.535329437591139)"><defs>
<style>.cls-1{fill:none;stroke:#231f20;stroke-miterlimit:10;}</style>
</defs><title>82439941</title><path class="cls-1" d="M162.14,125.67a54.75,54.75,0,0,1,7.34.41c10,1.26,13.4,6,13.4,6a34.6,34.6,0,0,0-9.19-1.17c-4.43.17-11,3.69-11,3.69s10.07-.86,15.74,1.08,12.19,6.57,13.76,10.18c0,0-11.06-5-18.81-4.36a46.42,46.42,0,0,1,14,11.18,22.23,22.23,0,0,1,5.31,15,31.22,31.22,0,0,1-1.4,10.42c-1.73,5.37-1.57,9.8-3.34,12.55,0,0,2.17-16.77-11.78-19.28,0,0,4.39,10.62,2.74,21.23a14.18,14.18,0,0,1-11.61,12s-5,7.13-10.26,8.52c0,0,11.23-17.4-3.34-27.67,0,0-3.81,21.33-18.84,21.15,0,0,25.57-27.26,3.52-32,0,0,6.7-12,4.25-21a14,14,0,0,0-1.83-3.94"></path><path class="cls-1" d="M31.32,125.68a57.1,57.1,0,0,0-6.54.4c-10,1.26-13.4,6-13.4,6A34.6,34.6,0,0,1,20.58,131c4.43.17,11,3.69,11,3.69s-10.07-.86-15.74,1.08S3.67,142.3,2.11,145.9c0,0,11.06-5,18.81-4.36a46.42,46.42,0,0,0-14,11.18C.89,160.1.88,167.45.88,167.45A53.19,53.19,0,0,0,3,178.17c1.73,5.37,1.57,9.8,3.34,12.55,0,0-2.17-16.77,11.78-19.28,0,0-4.39,10.62-2.74,21.23a14.18,14.18,0,0,0,11.61,12s5,7.13,10.26,8.52c0,0-11.23-17.4,3.34-27.67,0,0,3.81,21.33,18.84,21.15,0,0-25.57-27.26-3.52-32,0,0-6.7-12-4.25-21a11.69,11.69,0,0,1,1.83-3.94"></path><path class="cls-1" d="M101.77,147.3c4.43-4.73,4.23-6.2,12.5-5.91s11.65-.73,16.67-3.39c0,0,.48,2.91-2.18,3.5s4,.46,11.35-4,18.46-5.59,21.71-5.3c0,0-6.8,1.48-8.86,5,0,0,1.77-.89,7.68-.59a23,23,0,0,1,9.16,2.07s-13.3,2.36-18.61,5c0,0,4.31,3.52,7.27,6.18a34.23,34.23,0,0,0-12-.9c-7.39.59-15.07,3-22.75,3.55S101.77,147.3,101.77,147.3Z"></path><path class="cls-1" d="M92.5,147.3c-4.43-4.73-4.23-6.2-12.5-5.91s-11.65-.73-16.67-3.39c0,0-.48,2.91,2.18,3.5s-4,.46-11.35-4-18.46-5.59-21.71-5.3c0,0,6.8,1.48,8.86,5,0,0-1.77-.89-7.68-.59a23,23,0,0,0-9.16,2.07s13.3,2.36,18.61,5c0,0-4.31,3.52-7.27,6.18a34.23,34.23,0,0,1,12-.9c7.39.59,15.07,3,22.75,3.55S92.5,147.3,92.5,147.3Z"></path><path class="cls-1" d="M86.67,238.79a63.34,63.34,0,0,1-26.48-11.17c-1.58,8.91-1.64,14.24-.78,23.3-11.12.36-21.31,0-25-2-4.08-2.29,16.19,50.54,16.19,50.54s28-28,38-33.15"></path><path class="cls-1" d="M106,266.51c10.42,5.69,36.4,33.33,36.4,33.33s21.67-52.22,17.45-50.31c-5.45,2.48-14.9,3-24.82,2.67l.18-.12c1.29-9.27,1.55-14.91-.67-24.45a63,63,0,0,1-27.09,11.28"></path><path class="cls-1" d="m109.5 251.4c0 13.8-1.61 16.88-12.15 16.88-10 0-12.15-3.08-12.15-16.88s0.91-16.26 12.15-16.35c9.14-0.1 12.15 2.55 12.15 16.35z"></path><path class="cls-1" d="M142.13,80.63c1.36-13.63,3.93-35.2,6.73-42.67,5.05-13.47,16.84-16.16,17.85-20.54,0,0,3.37-4.38-13.81-11.45C136.3-.88,58-.88,41.36,6,24.19,13,27.55,17.41,27.55,17.41c1,4.38,13.4,6.87,18.45,20.34C47.61,42,50.63,57,50.63,57"></path><path class="cls-1" d="M86.51,263.14A70.33,70.33,0,0,1,59.4,250.93"></path><path class="cls-1" d="m135.2 252.1a64.28 64.28 0 0 1 -27 11.54"></path><path class="cls-1" d="M141,112.3c.91-.51.43-7.91-.26-9.43"></path><path class="cls-1" d="m48.83 126.6s32.72 4.75 45.45 4.75 49.72-4.21 50.85-4.71-3.63-2.74-2.51-6.62"></path><path class="cls-1" d="m72.17 78.5c-3.89 1-8.52 1.68-12.08 3.08"></path><path class="cls-1" d="M20.4,87.65c-.46-2.51,3.42-5,7.29-3.42C30.41,85.35,46.45,93.66,56,98.58"></path><path class="cls-1" d="m26.18 81.68c0-2.38 4-4.08 7.25-2 2.34 1.51 15.88 12.55 23.83 18.42"></path><path class="cls-1" d="M32,75.71c.42-2.25,4.51-3.13,7.21-.52,2,1.91,13,15.67,19.35,22.49"></path><path class="cls-1" d="M37.75,69.74c.86-2.12,5-2.17,7.17.93C46.51,73,55,89.47,59.79,97.24"></path><path class="cls-1" d="m43.54 63.77c1.3-2 5.56-1.2 7.12 2.38 1.2 2.74 7.24 21.92 10.39 30.64"></path><path class="cls-1" d="M49.32,57.79c1.74-1.86,6.06-.23,7.08,3.83.79,3.15,4.35,25,5.91,34.71"></path><line class="cls-1" x1="143.4" x2="158.2" y1="84.75" y2="70.68"></line><path class="cls-1" d="m158.4 70.91l14.47-6.45s-0.37-7.19-11.56-9.23z"></path><line class="cls-1" x1="172.9" x2="182.3" y1="64.46" y2="60.24"></line><line class="cls-1" x1="171.6" x2="180" y1="60.96" y2="54.24"></line><line class="cls-1" x1="168.8" x2="176.2" y1="57.44" y2="49.47"></line><line class="cls-1" x1="165" x2="169.9" y1="55.92" y2="45.73"></line><line class="cls-1" x1="161.7" x2="163.9" y1="54.73" y2="44.53"></line><path class="cls-1" d="M142.75,74.88c.16-.63,16.13-22.5,16.13-22.5"></path><path class="cls-1" d="m169 47.57c-2 3.51-10.28 5.32-10.28 5.32s-2.39-8-0.36-11.47 5.66-3.75 8.6-2 4.11 4.64 2.04 8.15z"></path><path class="cls-1" d="M49,125s25.78,4,41.5,4,18.87-.48,18.87-.48-14.29-3.33-14.77-5.72,1-3.81,12.86-3.81,35.14,1,35.14,1l-1.43-6.19s-1.79-5.24-9.89-4.76-24.3-.48-32.87-2.86a71.74,71.74,0,0,1-15.72-6.67s27.15-4.76,32.87-3.81,23.59,4.37,25,7.23l-.13-6.27,2.38-6.19s1.07-8.58-1.31-10.48c-.51-.41-2.38-.86-5.06-1.31"></path><path class="cls-1" d="m52 112.3s6.87-4.78 14-5.25 11-2.38 17.15-0.48 7.15 2.86 4.76 3.81-11 2.86-17.63 3.33-20.06 2-20.06 2"></path><path class="cls-1" d="M112.13,76.34c-5.33-.22-9.94-.18-12.28.26-7.62,1.43-4.12-1.95-13.65-1s-14.14,3-14.14,3c6.67,1,33,11.3,33,11.3s-31,1.13-52.39,9.7c0,.83.31,1,.32,2.15l-.41,6.13-.25,3.71-.72,1.94a2.28,2.28,0,0,0-1.08,2.09,25.9,25.9,0,0,1-.54,4.81l-.74,1.26-.21,3.88-.14.69-.23.2a67.57,67.57,0,0,1-6.65-2c-8.42-3.12-21.22-16-23.24-14.92s1.26,6.19,3,8.33c17.51,21.23,70.86,18.64,74.9,18.41,4,.23,57.39,2.83,74.9-18.41,1.77-2.14,5.05-7.29,3-8.33s-14.82,11.8-23.24,14.92c-1.49.55-3.48,1.15-5.8,1.75"></path><polygon class="cls-1" points="116.8 43.67 124.7 42.85 126.3 35.14 119.5 31.2 113.6 36.47"></polygon><line class="cls-1" x1="117" x2="103" y1="43.63" y2="76.38"></line><polygon class="cls-1" points="111.9 64.7 136.1 64.65 136.1 83.01 124.3 94.82 111.8 82.1"></polygon><line class="cls-1" x1="116.7" x2="131" y1="71.11" y2="71.11"></line><line class="cls-1" x1="116.7" x2="124.2" y1="76.89" y2="76.89"></line><line class="cls-1" x1="118" x2="136.9" y1="64.88" y2="37.16"></line><polygon class="cls-1" points="137.1 27.88 143.2 26.31 142.6 21.1 154.4 12.91 149.5 25.36 136.9 37.34 136.7 37.16"></polygon></g></svg>