<svg viewBox="0 0 192 192" xmlns="http://www.w3.org/2000/svg" xmlns:xlink="http://www.w3.org/1999/xlink" width="192" height="192"><g transform="rotate(0 3.14 2.18) translate(44.06890813025025 15.61443680783556) scale(0.5381460297383394)"><defs><style>.cls-1,.cls-10,.cls-11,.cls-12,.cls-13,.cls-15,.cls-16,.cls-21,.cls-7,.cls-8,.cls-9{fill:none;}.cls-2{isolation:isolate;}.cls-24,.cls-3{fill:#8c813b;}.cls-4{fill:#231f20;}.cls-5{fill:#2e3192;}.cls-6{fill:#ef6100;}.cls-10,.cls-11,.cls-12,.cls-14,.cls-16,.cls-17,.cls-7,.cls-8,.cls-9{stroke-linejoin:bevel;}.cls-10,.cls-11,.cls-12,.cls-13,.cls-14,.cls-16,.cls-17,.cls-18,.cls-7,.cls-8,.cls-9{stroke-width:2.52px;}.cls-7{stroke:url(#a);}.cls-8{stroke:url(#g);}.cls-9{stroke:url(#f);}.cls-10{stroke:url(#e);}.cls-11{stroke:url(#d);}.cls-12{stroke:url(#c);}.cls-13,.cls-14,.cls-15,.cls-18{stroke:#e68a24;}.cls-13,.cls-15,.cls-18,.cls-21{stroke-miterlimit:10;}.cls-14,.cls-18{fill:#eedc00;}.cls-15{stroke-width:2.71px;}.cls-16,.cls-17,.cls-21{stroke:#2e3192;}.cls-17{fill:url(#b);}.cls-19{fill:#22116d;}.cls-20{fill:#f1f2f2;}.cls-21{stroke-width:2.72px;}.cls-22,.cls-26{fill:#fff;}.cls-23{clip-path:url(#h);}.cls-24{opacity:0.53;mix-blend-mode:multiply;}.cls-25{fill:#c7b000;}.cls-26{opacity:0.2;}.cls-27{fill:#404041;}</style><linearGradient id="a" x1="19.1" x2="63.82" y1="92.91" y2="92.91" gradientUnits="userSpaceOnUse"><stop stop-color="#2e3192" offset="0"></stop><stop stop-color="#c7b000" offset="1"></stop></linearGradient><linearGradient id="g" x1="24.92" x2="63.96" y1="90.24" y2="90.24" xlink:href="#a"></linearGradient><linearGradient id="f" x1="30.73" x2="64.1" y1="87.44" y2="87.44" xlink:href="#a"></linearGradient><linearGradient id="e" x1="36.58" x2="64.21" y1="84.53" y2="84.53" xlink:href="#a"></linearGradient><linearGradient id="d" x1="42.48" x2="64.28" y1="81.51" y2="81.51" xlink:href="#a"></linearGradient><linearGradient id="c" x1="48.4" x2="64.29" y1="78.44" y2="78.44" xlink:href="#a"></linearGradient><linearGradient id="b" x1="155.3" x2="163.9" y1="56.94" y2="44.17" gradientUnits="userSpaceOnUse"><stop stop-color="#eeda23" offset="0"></stop><stop stop-color="#2e3192" offset="1"></stop></linearGradient><clipPath id="h"><path class="cls-1" d="M159,248.7c-5.45,2.48-14.9,3-24.82,2.67l.18-.12c1.29-9.27,1.55-14.91-.67-24.45a63.24,63.24,0,0,1-74.35,0c-1.58,8.91-1.64,14.24-.78,23.3-11.12.36-21.31,0-25-2-4.08-2.29,16.19,50.54,16.19,50.54s32.12-32.18,39.86-33.85c1.46-.31,2.53-.57,3.44-.77a59.46,59.46,0,0,0,6.35,0c1,.19,2.16.46,3.65.8,8.24,1.91,38.5,34.19,38.5,34.19S163.19,246.78,159,248.7Z"></path></clipPath></defs><title>-</title><g class="cls-2"><g data-name="Layer 2"><path class="cls-3" d="m134.3 251.2c-23.58 17.13-52.12 17.13-75.7 0-1-9.78-1-15.17 0.67-24.45a63.24 63.24 0 0 0 74.35 0c2.23 9.54 1.97 15.21 0.68 24.45z"></path><path class="cls-3" d="m89.59 264.8c-7.73 1.67-39.86 33.85-39.86 33.85s-20.28-52.82-16.19-50.54c9.51 5.33 62.62-0.84 62.62-0.84h0.19s47.23 8.48 62.63 1.48c4.22-1.92-17.45 50.3-17.45 50.3s-30.26-32.28-38.5-34.19c-7.77-1.81-7.16-1.42-13.44-0.06z"></path><path class="cls-4" d="m152 5.13c-16.6-6.84-94.94-6.84-111.5 0-17.15 7.07-13.79 11.45-13.79 11.45 1 4.38 12.8 7.07 17.85 20.54s8.42 55.88 7.75 58.93 1.68 26.6-5.05 30c0 0 15.75 5 48.9 5h0.27c33.15 0 48.9-5 48.9-5-6.74-3.37-4.38-26.94-5.05-30s2.69-45.46 7.75-58.93 16.83-16.12 17.84-20.54c0 0 3.37-4.38-13.83-11.45z"></path><path class="cls-5" d="m71.71 78.46c-5.56 1.4-10.45 1.77-15.22 5.3s-5 5.3-5 5.3a7.26 7.26 0 0 1 1.59 4.55 47.6 47.6 0 0 0 0.23 4.8s0.91 10.61-0.45 12.38-3.41 2.27-3.18 4-1.87 11.79-1.87 11.79 33.75 4.71 46.47 4.71 49.72-4.21 50.85-4.71-2.47-2.27-2-4-2.11-3.7-2.11-3.7-0.91-6.06 0-6.57 0.68-3 0-4.55 1.82-4.8-2.27-6.57-3-2-2.73-6.31 1.58-13.88-1.38-15.41c0 0-55.88-2.78-62.93-1.01z"></path><path class="cls-6" d="m129.2 133.2c8-7.78 29.45-9.19 39.45-7.92s13.4 6 13.4 6a34.6 34.6 0 0 0 -9.19 -1.17c-4.43 0.17-11 3.69-11 3.69s10.07-0.86 15.74 1.08 12.19 6.57 13.76 10.18c0 0-11.06-5-18.81-4.36a46.42 46.42 0 0 1 14 11.18c6.06 7.37 6.07 14.73 6.07 14.73a53.19 53.19 0 0 1 -2.16 10.72c-1.73 5.37-1.57 9.8-3.34 12.55 0 0 2.17-16.77-11.78-19.28 0 0 4.39 10.62 2.74 21.23a14.18 14.18 0 0 1 -11.61 12s-5 7.13-10.26 8.52c0 0 11.23-17.4-3.34-27.67 0 0-3.81 21.33-18.84 21.15 0 0 25.57-27.26 3.52-32 0 0 6.7-12 4.25-21s-9.44-6.27-11-5.13-1.6-14.5-1.6-14.5z"></path><path class="cls-6" d="M63.36,133.17c-8-7.78-29.45-9.19-39.45-7.92s-13.4,6-13.4,6a34.6,34.6,0,0,1,9.19-1.17c4.43.17,11,3.69,11,3.69S20.66,133,15,134.89,2.8,141.46,1.23,145.07c0,0,11.06-5,18.81-4.36a46.42,46.42,0,0,0-14,11.18C0,159.26,0,166.62,0,166.62a53.19,53.19,0,0,0,2.16,10.72c1.73,5.37,1.57,9.8,3.34,12.55,0,0-2.17-16.77,11.78-19.28,0,0-4.39,10.62-2.74,21.23a14.18,14.18,0,0,0,11.61,12s5,7.13,10.26,8.52c0,0-11.23-17.4,3.34-27.67,0,0,3.81,21.33,18.84,21.15,0,0-25.57-27.26-3.52-32,0,0-6.7-12-4.25-21s9.44-6.27,11-5.13S63.36,133.17,63.36,133.17Z"></path><path class="cls-7" d="M20.4,87.65c-.46-2.51,3.42-5,7.29-3.42s35.54,18,35.54,18"></path><path class="cls-8" d="M26.18,81.68c0-2.38,3.95-4.06,7.25-2S63.2,102,63.2,102"></path><path class="cls-9" d="M32,75.71c.42-2.25,4.48-3.1,7.21-.52s24,26.51,24,26.51"></path><path class="cls-10" d="M37.75,69.74c.86-2.12,5-2.14,7.17.93s18.21,30.77,18.21,30.77"></path><path class="cls-11" d="m43.54 63.77c1.3-2 5.53-1.19 7.12 2.38s12.43 35 12.43 35"></path><path class="cls-12" d="M49.32,57.79c1.74-1.86,6.06-.23,7.08,3.83S63,100.91,63,100.91"></path><line class="cls-13" x1="139.8" x2="158.2" y1="87.81" y2="70.68"></line><path class="cls-14" d="m158.4 70.91l14.47-6.45s-0.37-7.19-11.56-9.23z"></path><line class="cls-13" x1="172.9" x2="182.3" y1="64.46" y2="60.24"></line><line class="cls-13" x1="171.6" x2="180" y1="60.96" y2="54.24"></line><line class="cls-13" x1="168.8" x2="176.2" y1="57.44" y2="49.47"></line><line class="cls-13" x1="165.1" x2="170" y1="55.55" y2="45.36"></line><line class="cls-15" x1="161.4" x2="163.6" y1="54.61" y2="44.4"></line><path class="cls-16" d="M137,83.08c.16-.63,22.85-31.37,22.85-31.37"></path><path class="cls-17" d="m169 47.57c-2 3.51-10.28 5.32-10.28 5.32s-2.39-8-0.36-11.47 5.66-3.75 8.6-2 4.11 4.64 2.04 8.15z"></path><path class="cls-3" d="M94.6,122.8c-.48-2.38,1-3.81,12.86-3.81s35.14,1,35.14,1l-1.43-6.19s-1.79-5.24-9.89-4.76-24.3-.48-32.87-2.86a71.74,71.74,0,0,1-15.72-6.67s27.15-4.76,32.87-3.81,23.59,4.37,25,7.23l-.13-6.27,2.38-6.19s1.07-8.58-1.31-10.48-34.06-4.76-41.68-3.33-4.12-1.95-13.65-1-14.14,3-14.14,3c6.67,1,33,11.3,33,11.3s-31.44,1.43-52.88,10l-.48,7.15-.25,3.71L50.67,113l1.77-.28s6.44-5.14,13.59-5.62,11-2.38,17.15-.48,7.15,2.86,4.76,3.81-11,2.86-17.63,3.33-18.8,1.84-18.8,1.84l-3.12,5.31-.25,4.54s26.93,4,42.65,4,18.58-1,18.58-1S95.08,125.18,94.6,122.8Z"></path><polygon class="cls-18" points="116.8 43.67 124.7 42.85 126.3 35.14 119.5 31.2 113.6 36.47"></polygon><line class="cls-13" x1="117.6" x2="100.6" y1="42.05" y2="81.99"></line><polygon class="cls-19" points="117.7 42.19 121.2 37.88 122.2 40.94"></polygon><polygon class="cls-19" points="117.8 42.26 120.7 35.53 116.5 36.17"></polygon><polygon class="cls-20" points="111.9 64.7 136.1 64.65 136.1 83.01 124.3 94.82 111.8 82.1"></polygon><line class="cls-21" x1="116.7" x2="131" y1="71.11" y2="71.11"></line><line class="cls-21" x1="116.7" x2="124.2" y1="76.89" y2="76.89"></line><line class="cls-13" x1="106.4" x2="136.4" y1="81.63" y2="37.5"></line><polygon class="cls-14" points="137.1 27.88 143.2 26.31 142.6 21.1 154.4 12.91 149.5 25.36 136.9 37.34 136.1 36.55"></polygon><polygon class="cls-3" points="112.1 83.7 98.49 83.85 100 76.72 111.6 76.21"></polygon><path class="cls-6" d="m121.6 152.2c-7.85 0-20.36-5.13-20.89-5.35l-0.51-0.21 0.38-0.41c0.66-0.71 1.22-1.34 1.72-1.9 2.6-2.94 3.67-4.16 9.23-4.16h1.85 2.56c6.42 0 9.48-1 13.92-3.39l0.47-0.25 0.09 0.53a3.7 3.7 0 0 1 -0.89 3.11 32.08 32.08 0 0 0 9.49 -3.85c6.55-3.93 16.22-5.39 20.78-5.39h1.17l2.49 0.23-2.45 0.53c-0.06 0-5.51 1.23-8 4a22.39 22.39 0 0 1 4.42 -0.36c0.69 0 1.45 0 2.3 0.06a23.22 23.22 0 0 1 9.32 2.11l1 0.52-1.08 0.19c-0.13 0-12.45 2.23-18 4.73 1.2 1 4.45 3.68 6.81 5.8l1.33 1.19-1.7-0.54a31 31 0 0 0 -8.49 -1c-1.12 0-2.27 0-3.41 0.14a101.8 101.8 0 0 0 -11 1.73 103.8 103.8 0 0 1 -11.72 1.82c-0.4 0.1-0.82 0.12-1.19 0.12z"></path><path class="cls-22" d="m159.8 131.4h1.14s-6.8 1.48-8.86 5c0 0 1.3-0.65 5.4-0.65 0.68 0 1.44 0 2.29 0.06a23 23 0 0 1 9.16 2.07s-13.3 2.36-18.61 5c0 0 4.31 3.52 7.27 6.18a31 31 0 0 0 -8.61 -1c-1.07 0-2.21 0-3.44 0.14-7.39 0.59-15.07 3-22.75 3.55h-1.15c-7.86 0-20.74-5.32-20.74-5.32 4.07-4.35 4.23-5.95 10.66-5.95h1.84 2.57c6.47 0 9.63-1.07 14.1-3.44 0 0 0.48 2.91-2.18 3.5-0.67 0.15-0.75 0.25-0.38 0.25a29.09 29.09 0 0 0 11.73 -4.22c6.68-4 16.38-5.34 20.58-5.34m0-0.77c-4.6 0-14.35 1.48-21 5.45a32.58 32.58 0 0 1 -8.38 3.58 4.43 4.43 0 0 0 0.37 -2.57l-0.17-1.05-0.94 0.5c-4.38 2.32-7.4 3.35-13.74 3.35h-2.54-1.87c-5.73 0-6.91 1.35-9.51 4.29-0.49 0.56-1.05 1.19-1.71 1.89l-0.76 0.81 1 0.43c0.53 0.22 13.11 5.38 21 5.38h1.21a104.2 104.2 0 0 0 11.76 -1.82 100 100 0 0 1 11 -1.72c1.13-0.09 2.27-0.14 3.38-0.14a30.69 30.69 0 0 1 8.38 1l3.39 1.08-2.64-2.38c-2.09-1.88-4.89-4.22-6.34-5.42 5.71-2.38 17.18-4.43 17.31-4.46l2.16-0.38-1.92-1a23.61 23.61 0 0 0 -9.49 -2.16c-0.81 0-1.6-0.06-2.32-0.06a28.09 28.09 0 0 0 -3.24 0.17 20 20 0 0 1 6.87 -3l4.88-1.07-5-0.45h-1.21z"></path><path class="cls-6" d="m70.88 152.2q-0.61 0-1.18 0a103.8 103.8 0 0 1 -11.7 -1.86 101.8 101.8 0 0 0 -11 -1.73c-1.14-0.09-2.29-0.14-3.41-0.14a30.91 30.91 0 0 0 -8.49 1l-1.7 0.54 1.33-1.2c2.36-2.12 5.61-4.82 6.81-5.8-5.52-2.5-17.84-4.71-18-4.73l-1.08-0.19 1-0.52a23.22 23.22 0 0 1 9.32 -2.11c0.85 0 1.61-0.06 2.3-0.06a22.39 22.39 0 0 1 4.42 0.36c-2.46-2.74-7.91-4-8-4l-2.5-0.49 2.49-0.23h1.17c4.56 0 14.22 1.46 20.77 5.39a32.3 32.3 0 0 0 9.57 3.82 3.69 3.69 0 0 1 -0.9 -3.12l0.09-0.53 0.47 0.25c4.43 2.35 7.5 3.4 13.92 3.39h2.56 1.85c5.56 0 6.63 1.22 9.23 4.16 0.5 0.57 1.06 1.2 1.72 1.9l0.38 0.41-0.51 0.21c-0.58 0.11-13.08 5.28-20.93 5.28z"></path><path class="cls-22" d="m32.7 131.4c4.2 0 13.9 1.33 20.58 5.34a29.09 29.09 0 0 0 11.72 4.22c0.37 0 0.29-0.1-0.38-0.25-2.66-0.59-2.18-3.5-2.18-3.5 4.47 2.37 7.63 3.44 14.1 3.44h2.57 1.84c6.43 0 6.58 1.6 10.66 5.95 0 0-12.88 5.32-20.74 5.32h-1.15c-7.68-0.59-15.36-3-22.75-3.55-1.22-0.1-2.37-0.14-3.44-0.14a31 31 0 0 0 -8.61 1c3-2.66 7.27-6.18 7.27-6.18-5.32-2.66-18.61-5-18.61-5a23 23 0 0 1 9.16 -2.07c0.84 0 1.6-0.06 2.29-0.06 4.09 0 5.4 0.65 5.4 0.65-2.07-3.55-8.86-5-8.86-5h1.14m0-0.77h-1.21l-5 0.45 4.88 1.07a20 20 0 0 1 6.87 3 28.07 28.07 0 0 0 -3.25 -0.27c-0.73 0-1.51 0-2.32 0.06a23.61 23.61 0 0 0 -9.49 2.16l-1.92 1 2.16 0.38c0.12 0 11.6 2.08 17.31 4.46-1.45 1.2-4.25 3.53-6.34 5.42l-2.64 2.38 3.39-1.08a30.69 30.69 0 0 1 8.38 -1c1.11 0 2.25 0 3.38 0.14a100 100 0 0 1 11 1.72 104.2 104.2 0 0 0 11.76 1.82h1.21c7.93 0 20.5-5.16 21-5.38l1-0.43-0.76-0.81c-0.66-0.7-1.21-1.33-1.71-1.89-2.6-2.95-3.79-4.29-9.51-4.3h-1.87-2.54c-6.34 0-9.36-1-13.74-3.35l-0.94-0.5-0.12 1.2a4.43 4.43 0 0 0 0.37 2.57 32.49 32.49 0 0 1 -8.39 -3.57c-6.62-4-16.37-5.45-21-5.45z"></path><g class="cls-23"><path class="cls-5" d="m48.23 250.1c9.3-3 14-3.38 17.34 2.11s3.81 7.61-1.27 11.84-18.61 1.69-18.61-1.27 2.54-12.68 2.54-12.68z"></path><path class="cls-5" d="m141.3 260.7c9.3-3 14-3.38 17.34 2.11s3.81 7.61-1.27 11.84-18.61 1.69-18.61-1.27 2.54-12.68 2.54-12.68z"></path><path class="cls-5" d="M55.57,225c9.3-3,14-3.38,17.34,2.11s3.81,7.61-1.27,11.84S53,240.61,53,237.65,55.57,225,55.57,225Z"></path><path class="cls-5" d="m137.2 240.2c-9.24 3.16-13.88 3.68-17.38-1.74s-4-7.53 1-11.86 18.56-2.09 18.63 0.87-2.25 12.73-2.25 12.73z"></path><path class="cls-5" d="M64,290.18c-4-8.92-4.89-13.5.21-17.46s7.15-4.61,11.91,0,3.72,18.31.77,18.63S64,290.18,64,290.18Z"></path><path class="cls-5" d="m33.64 287.7c2.5-9.44 4.64-13.59 11.09-13.49s8.46 0.88 9.31 7.43-8.57 16.6-11.06 15-9.34-8.94-9.34-8.94z"></path><path class="cls-5" d="m110.6 288.1c2.5-9.44 4.64-13.59 11.09-13.49s8.46 0.88 9.31 7.43-8.57 16.6-11.06 15-9.34-8.94-9.34-8.94z"></path><path class="cls-5" d="m95.32 253.8c-9.24 3.16-13.88 3.68-17.38-1.74s-4-7.53 1-11.86 18.56-2.09 18.63 0.87-2.25 12.73-2.25 12.73z"></path><path class="cls-5" d="m117.3 265.7c-4-8.92-4.89-13.5 0.21-17.46s7.15-4.61 11.91 0 3.72 18.31 0.77 18.63-12.89-1.17-12.89-1.17z"></path></g><path class="cls-24" d="m134.3 251c-24.1 17.13-51.55 16.36-75.65-0.77-0.14-2.28-0.51-4-0.51-6 9.49 10.9 25.13 18.08 38.47 18.08s29.24-6.67 38.47-18.08a30.63 30.63 0 0 1 -0.78 6.77z"></path><path class="cls-25" d="m108.6 250.6c0 13.8-1.61 16.88-12.15 16.88-10 0-12.15-3.08-12.15-16.88s0.91-16.26 12.15-16.35c9.13-0.08 12.15 2.55 12.15 16.35z"></path><path class="cls-26" d="M63.65,128.81l2.49,1.33,15.94,5.38C91.87,80.8,88.19,41.36,76.77.4A180.87,180.87,0,0,0,57,1.87c-13.85,1.54-19.11,4.3-20.84,5C65.48,11.92,74,84.45,63.65,128.81Z"></path><path class="cls-27" d="m173.8 108.8c-2-1-14.82 11.8-23.24 14.92s-32.67 7.64-43.11 6.59c-8.24-0.82-10.85-0.35-11.59-0.11-0.74-0.24-3.35-0.71-11.59 0.11-10.44 1-34.69-3.47-43.11-6.59s-21.22-16-23.24-14.92 1.26 6.19 3 8.33c17.51 21.23 70.86 18.64 74.9 18.41 4 0.23 57.39 2.83 74.9-18.41 1.82-2.1 5.1-7.29 3.08-8.33z"></path></g></g></g></svg>