<svg viewBox="0 0 192 192" xmlns="http://www.w3.org/2000/svg" width="192" height="192">









<g transform="rotate(0 3.14 2.18) translate(27.86734814341864 29.3955571570242) scale(1.0188060090703754)"><defs>
<style>.cls-1{fill:none;stroke:#231f20;stroke-miterlimit:10;}</style>
</defs><title>71583513</title><path class="cls-1" d="M35.31,99.59l1.32-.22.4-.07L38.65,99l.29-.06,1.77-.37.16,0,1.54-.35c.09.44.17.86.23,1.27a39.83,39.83,0,0,1-2.22,8.6s.69.2,1.92.51c-.28.92-.6,1.73-.88,2.53a21,21,0,0,0-.21,4.07c.54.15,1.75.48,3.47.9a6.44,6.44,0,0,0,.09,1c0,.16-.05.32-.07.49-.06.52-.1,1-.18,1.47a7,7,0,0,0-.12,1.59,1.85,1.85,0,0,0,.33.91,1.16,1.16,0,0,0,.43.37,1.92,1.92,0,0,0,.44.16,6.26,6.26,0,0,0,1.6.11,6.89,6.89,0,0,0,1.54-.25c.41-.09,1.09-.46,1-.93a.12.12,0,0,0,0-.08s0,0,0,0a11.48,11.48,0,0,0,.56-3q0-.31,0-.63c.9.18,1.84.35,2.83.52,0,.85,0,1.7-.06,2.54a30,30,0,0,0,.16,3.72,11.24,11.24,0,0,0,.92,3.59,4.39,4.39,0,0,0,2.75,2.39,14.52,14.52,0,0,0,3.69.67,8.21,8.21,0,0,0,3.79-.59A3.54,3.54,0,0,0,66,128.83a4.15,4.15,0,0,0,.59-2,20.3,20.3,0,0,0-.28-3.77c-.16-1.07-.23-2.14-.33-3.24,0-.17.09-.35.12-.52,1.35.07,2.7.11,4.07.12h.21a91.91,91.91,0,0,0,11.09-.76c0,.11.06.22.09.33-.1.88-.14,1.71-.27,2.55a14.55,14.55,0,0,0-.22,2.7,3.14,3.14,0,0,0,.44,1.45,2.52,2.52,0,0,0,1.2,1,6.33,6.33,0,0,0,2.74.34,12.19,12.19,0,0,0,2.64-.46,3,3,0,0,0,2-1.7,13.32,13.32,0,0,0,.79-5.21c0-.86,0-1.68-.05-2.53,5.51-1.12,9.2-2.23,9.2-2.23a22.84,22.84,0,0,0-.31-4.21c-.26-.75-.58-1.49-.87-2.31l1.29-.35A43.13,43.13,0,0,1,98,100.52c.08-.71.19-1.46.35-2.28l1.27.29.16,0,1.77.37.29.06,1.63.31.4.07,1.51.25.48.07,1.39.2.55.07,1.26.15.6.06,1.15.1.65,0,1,.05.67,0h1.6l.82,0,.67-.05.72-.07.65-.1.62-.1.61-.15.52-.13c.2-.06.38-.14.57-.21l.42-.16a5.71,5.71,0,0,0,.54-.3c.09-.06.2-.1.29-.16a4,4,0,0,0,.65-.54h0A11.06,11.06,0,0,0,124.48,95,11.22,11.22,0,0,0,125.77,91c.17-.72.31-1.45.42-2.18a31.4,31.4,0,0,0,.31-3.14c.07-1,.11-2,.21-3.06,0-.52.1-1,.15-1.57a1.75,1.75,0,0,0,1.39-.26c2.61-1.91,5.49-4.82,5-8.5a13,13,0,0,0-4.14-7.46c0-.15,0-.3.07-.45a57.83,57.83,0,0,0,.51-6.31,43.54,43.54,0,0,0-.39-6.41A55.36,55.36,0,0,0,120,28.33a49.9,49.9,0,0,0-11-11.39,44.35,44.35,0,0,0-5.43-3.73q-.76-.44-1.52-.83c-.63-.32-1.3-.63-2-.92a9.13,9.13,0,0,1,5.28-4.14,7.79,7.79,0,0,1,4.37-.05,8.11,8.11,0,0,0-4.5-.57,10.14,10.14,0,0,0-4.35,1.76,10.77,10.77,0,0,0-2.41,2.37A54.94,54.94,0,0,0,91,8.73c-1.71-.37-3.48-.67-5.26-.93a3.22,3.22,0,0,0-.39-.69,2.89,2.89,0,0,0-1.6-1,2.55,2.55,0,0,1,1,1.33,2.38,2.38,0,0,1,.05.24l-.21,0c-3.23-.44-6.47-.71-9.5-.86l0-.1a5.06,5.06,0,0,1,.57-1.09,3.08,3.08,0,0,1,.87-.86,1.43,1.43,0,0,1,1.24-.16,1.75,1.75,0,0,0-1.42-.45,4,4,0,0,0-1.51.5,6.64,6.64,0,0,0-1.29.94,5.07,5.07,0,0,0-.93,1.14c-.81,0-1.62,0-2.38,0h-1c0-.12.06-.25.1-.37A11,11,0,0,1,71,3,8,8,0,0,1,73.84.6a8.29,8.29,0,0,0-3.3,2,12,12,0,0,0-2.31,3.22c-.14.29-.28.58-.4.88-1.11,0-2.24.07-3.41.13L62.33,7l-2,.18A17.78,17.78,0,0,0,59.28,5,7.51,7.51,0,0,0,57.46,3a3.46,3.46,0,0,0-2.56-.71A3.14,3.14,0,0,1,57,3.42a6.6,6.6,0,0,1,1.1,2.16,14.93,14.93,0,0,1,.43,1.74c-.87.1-1.75.2-2.62.31s-2,.29-3,.46A7.67,7.67,0,0,0,52.33,7a3.24,3.24,0,0,0-1.16-1.1,1.79,1.79,0,0,0-1.47-.08,1.46,1.46,0,0,1,1.08.58,2.36,2.36,0,0,1,.38,1.09,6.09,6.09,0,0,1,0,.93,48,48,0,0,0-12.62,4c-1,.52-2,1.11-3.05,1.76l-.91.6.1-1.49a14.08,14.08,0,0,0-1.15,2.21c-.37.26-.74.52-1.1.8a50.79,50.79,0,0,0-6,5.34q-1.44,1.51-2.8,3.17a54.06,54.06,0,0,0-3.84,5.34l-.2.34c-.22.34-.42.69-.62,1l-.5.86a59.73,59.73,0,0,0-3.3,6.74A52.22,52.22,0,0,0,11.9,51.3c-.17,1.32-.28,2.64-.32,4,0,.08,0,.17,0,.24s0,.22,0,.34,0,.21,0,.31c0,.46,0,.9,0,1.3,0,.58,0,1.09.06,1.53s.08.89.17,1.51.14,1,.22,1.48c.11.67.23,1.4.36,2.2a12.69,12.69,0,0,0-5,8.13c-.46,3.68,2.42,6.59,5,8.5a2.24,2.24,0,0,0,2.32,0c.06.81.09,1.59.1,2.32l-.35,1.41a9.31,9.31,0,0,0-.33,2.86m28.71-3.15A18.11,18.11,0,1,1,60.6,66.12,17.95,17.95,0,0,1,42.82,84.23Zm55.74,2.86C87,87.09,77.61,77.3,77.61,65.24S87,43.39,98.55,43.39s20.94,9.78,20.94,21.85S110.12,87.09,98.55,87.09Z"></path><ellipse class="cls-1" cx="102.4" cy="67.51" rx="3.94" ry="4.11"></ellipse><path class="cls-1" d="m65.72 87.66c-0.92 1.89-2.53 3-3.59 2.41s-1.17-2.55-0.24-4.45 2.53-3 3.59-2.41 1.17 2.56 0.24 4.45z"></path><path class="cls-1" d="M76.53,85c.75,2.27.37,4.46-.84,4.9s-2.8-1.05-3.55-3.32-.37-4.46.84-4.9S75.78,82.75,76.53,85Z"></path><path class="cls-1" d="M22.19,87.17c.94-1.32,2.77-4.05,1.84-5.76s-3.64-1.08-3,1a4,4,0,0,0,3.67,2.47c2,.15,3.37-1.41,3.72-3.38a6.14,6.14,0,0,0-.07-2.64c-.21-.79-1.11-2.24-1.85-1.08a3.06,3.06,0,0,0-.2,2.06,3,3,0,0,0,4,2.44A5,5,0,0,0,33.73,78c.14-1,.2-2.8-.67-3.55a1.58,1.58,0,0,0-1.85,0A1.79,1.79,0,0,0,31,76.83c3,5.28,11.08,2.28,13.16-2.84.34-.84.76-1.92-.1-2.61-1.12-.89-3.88.68-1.54,4.38,1.1,1.73,6.18,2.37,7.95-2.1S49.94,62.61,42.72,64"></path><path class="cls-1" d="M.61,103.63A18.08,18.08,0,0,0,17.09,123a17.82,17.82,0,0,0,19-16.71A18.08,18.08,0,0,0,19.61,86.92,17.82,17.82,0,0,0,.61,103.63Z"></path><path class="cls-1" d="m17.65 104.7a2.87 2.87 0 0 1 -3 2.73 2.91 2.91 0 0 1 -2.65 -3.16 2.87 2.87 0 0 1 3 -2.73 2.91 2.91 0 0 1 2.65 3.16z"></path></g></svg>