<svg viewBox="0 0 192 192" xmlns="http://www.w3.org/2000/svg" width="192" height="192"><g transform="rotate(0 3.14 2.18) translate(37.65913159646952 20.30214977785691) scale(0.6116997997748936)"><defs><style>.cls-1{fill:#231f20;}.cls-2,.cls-6,.cls-8{fill:#fff;}.cls-3{fill:#d0b383;}.cls-4{fill:#331809;}.cls-5{fill:#b98b53;}.cls-6{opacity:0.2;}.cls-7{fill:#8e6942;}.cls-8{opacity:0.1;}.cls-9{fill:#f77d10;}.cls-10{fill:#ffd633;opacity:0.62;}.cls-11{fill:#2e3192;}</style></defs><title>59878844</title><path class="cls-1" d="m141.6 71.43c3.2 4.15 7 7.85 8.89 12.83 4.08 10.68 4.5 22.4 6.31 33.58 2.49 15.44 14.34 41.14 27.57 39s3.36-40.83 0-50.25-20.55-50.15-50.26-48.06c0.94 0 4 7.45 4.43 8.32a32.75 32.75 0 0 0 3.06 4.58z"></path><ellipse class="cls-2" cx="67.71" cy="92.2" rx="19.88" ry="20.19"></ellipse><ellipse class="cls-1" cx="65.86" cy="93.62" rx="10.82" ry="11.26"></ellipse><ellipse class="cls-2" cx="123.9" cy="92.2" rx="19.88" ry="20.19"></ellipse><ellipse class="cls-1" cx="125.7" cy="93.62" rx="10.82" ry="11.26"></ellipse><ellipse class="cls-3" cx="95.79" cy="129.8" rx="30.88" ry="32.25"></ellipse><path class="cls-1" d="m49.47 71.43c-3.2 4.15-7 7.85-8.89 12.83-4.08 10.68-4.5 22.4-6.31 33.58-2.49 15.44-14.34 41.14-27.57 39s-3.36-40.83 0-50.25 20.52-50.15 50.23-48.07c-0.94 0-4 7.45-4.43 8.32a32.75 32.75 0 0 1 -3.03 4.59z"></path><path class="cls-4" d="M146.59,58.19c0,5.09-24.33.3-52.63.3s-49.85,4.79-49.85-.3S67,49,95.35,49,146.59,53.11,146.59,58.19Z"></path><path class="cls-5" d="m147.4 53.21c-2.25-1.12-9.37-7.12-15.36-9 0 0-12.74-34.85-14.24-37.47s-11.88-6.74-21.94-6.74h-0.16c-10.07 0-20.46 4.14-21.95 6.74s-14.24 37.47-14.24 37.47c-6 1.87-13.11 7.87-15.36 9s-2.62 4.5 1.5 6.37a412.4 412.4 0 0 1 50.13 -3.37 412.4 412.4 0 0 1 50.13 3.37c4.08-1.88 3.74-5.25 1.49-6.37z"></path><path class="cls-1" d="m59.75 43.72l2.14-6.91c23.72-3 44.52-2.56 67.76 0.38l2.26 7.15c-22.52-2.85-49.16-3.57-72.16-0.62z"></path><polygon class="cls-6" points="79.39 3.07 71.91 42.5 81.13 42.1 85.41 1.07"></polygon><path class="cls-7" d="m147.8 53.21c2.25 1.12 2.62 4.5-1.5 6.37a412.4 412.4 0 0 0 -50.13 -3.37 412.4 412.4 0 0 0 -50.13 3.37c-4.12-1.87-3.95-5.81-1.5-6.37 5.36-1.22 42.45-2 52.47-2s50.79 2 50.79 2z"></path><path class="cls-8" d="m60.06 44.08c-6 1.87-13.11 7.87-15.36 9 0 0 32.16-2 48.46-2s54.79 2 54.79 2c-2.25-1.12-9.37-7.12-15.36-9 0 0-33-2.25-38.5-2.38-10.69-0.27-34.03 2.38-34.03 2.38z"></path><polygon class="cls-6" points="73.38 108.1 83 114.1 87.41 108.9 83 99.69"></polygon><ellipse class="cls-1" cx="95.79" cy="119.9" rx="14.29" ry="14.87"></ellipse><path class="cls-9" d="m163.8 248s24.48-12.69 17.84-41 5.87-32.93 5.87-32.93-17.78 9.22-17.78 25c0 0 0.66-13.83-12.51-25 0 0 2.63 24.37 0 31.62 0 0-12.51-6.59-14.49-15.81s-18.44 33.95 4 58.14z"></path><path class="cls-10" d="m169.9 232.2s6.79-10.34 6.13-23.08c0 0-2.35-9.23-1.36-14.4 0 0-5.91 7.35-4.77 14.6 0 0-2.26-17.44-8.63-23.54 0 0 1.87 21.26-2.42 29 0 0-13.83-5.12-17.46-15 0 0-2.34 17.56 7.21 33.94z"></path><path class="cls-9" d="m134.1 247.1c15.27-16.49 4-45.92 2.69-39.63s-9.88 10.78-9.88 10.78c-1.8-4.94 0-21.55 0-21.55-9 7.63-8.53 17.06-8.53 17.06 0-10.78-12.12-17.06-12.12-17.06s8.53 3.14 4 22.45 12.16 28 12.16 28z"></path><path class="cls-10" d="M132.79,237.29a40.11,40.11,0,0,0,4.91-23.14c-2.47,6.74-11.9,10.22-11.9,10.22-2.92-5.27-1.65-19.76-1.65-19.76-4.34,4.16-5.88,16-5.88,16,.78-4.94-3.25-9.95-3.25-9.95.67,3.52-.93,9.82-.93,9.82a29,29,0,0,0,4.18,15.74Z"></path><path class="cls-11" d="M123,245c-3.88-8.36-3.88-13.73-2.39-16.71a16.61,16.61,0,0,1,6.27,8.66c2.24,8.3-1.49,10.15-1.49,10.15H123Z"></path><path class="cls-11" d="M127,245.45c2.5-5.39,2.5-8.86,1.54-10.78a10.72,10.72,0,0,0-4,5.58c-1.45,5.35,1,6.55,1,6.55H127Z"></path><path class="cls-9" d="M46.5,247c20.12-21.73,5.32-60.51,3.55-52.23S37,209,37,209c-2.37-6.51,0-28.4,0-28.4C25.2,190.68,25.79,203.1,25.79,203.1c0-14.2-16-22.48-16-22.48s11.24,4.14,5.28,29.58,16,36.84,16,36.84Z"></path><path class="cls-10" d="M44.76,234.18c8.58-14.71,6.47-30.48,6.47-30.48-3.25,8.87-15.68,13.47-15.68,13.47-3.85-6.94-2.17-26-2.17-26-5.72,5.48-7.75,21.14-7.75,21.14,1-6.51-4.28-13.11-4.28-13.11.89,4.64-1.22,12.93-1.22,12.93-.59,11.44,5.51,20.74,5.51,20.74Z"></path><path class="cls-11" d="m31.91 244.4c-5.11-11-5.11-18.09-3.15-22 0 0 6.29 4.13 8.26 11.4 3 10.93-2 13.37-2 13.37h-3.11z"></path><path class="cls-11" d="m37.15 244.9c3.3-7.1 3.3-11.67 2-14.21a14.12 14.12 0 0 0 -5.33 7.36c-1.91 7.05 1.27 8.63 1.27 8.63h2z"></path><path class="cls-11" d="m159.1 245.5c5.08-10.94 5.08-18 3.13-21.89 0 0-6.25 4.1-8.21 11.33-2.94 10.86 2 13.29 2 13.29h3.13z"></path><path class="cls-11" d="M156.3,239.34c1-7.71-.3-12-2.25-14.08a14,14,0,0,0-2.89,8.55c.27,7.26,3.74,7.82,3.74,7.82l1.93-.6Z"></path><path class="cls-9" d="M50.72,247.54c-8.6-9.29-3.1-25.77-2.35-22.23s6,4.56,6,4.56c2.4-6.41-.76-15.31-.76-15.31,5.06,4.3,6,14.2,6,14.2,1.07-4.86,3.79-5.84,3.79-5.84s-.33,1.63.78,8.87a15.22,15.22,0,0,1-6.85,15.74Z"></path><path class="cls-10" d="M51.47,242a22.58,22.58,0,0,1-2.77-13c1.39,3.79,6.7,5.76,6.7,5.76,1.64-3,.93-11.13.93-11.13,2.44,2.34,3.31,9,3.31,9-.44-2.78,1.83-5.6,1.83-5.6-.38,2,.52,5.53.52,5.53a16.34,16.34,0,0,1-2.35,8.86Z"></path><path class="cls-11" d="M56.4,246c.76-5.61-.22-8.77-1.64-10.25a10.21,10.21,0,0,0-2.1,6.22c.19,5.28,2.72,5.69,2.72,5.69l1.4-.43Z"></path></g></svg>