<svg viewBox="0 0 192 192" xmlns="http://www.w3.org/2000/svg" width="192" height="192">




















<g transform="rotate(0 3.14 2.18) translate(37.5022024290152 20.301425163971743) scale(0.6061947934817078)"><defs>
<style>.cls-1,.cls-2{fill:none;stroke:#231f20;}.cls-1{stroke-linecap:round;stroke-linejoin:round;}.cls-2{stroke-miterlimit:10;}</style>
</defs><title>59878844</title><path class="cls-1" d="m148.6 53.79s-9.23-7.25-15.23-9.13h-0.6c-0.92-2.53-12.73-34.77-14.17-37.29s-11.88-6.74-21.94-6.78h-0.16c-10.07 0.04-20.46 4.13-21.95 6.74s-14.24 37.47-14.24 37.47c-6 1.87-13.11 7.87-15.36 9s-2.62 4.5 1.5 6.37h0.32 0.08a412.7 412.7 0 0 1 49.93 -3.37 412.7 412.7 0 0 1 49.93 3.37h0.08 0.32c4.12-1.88 3.74-5.26 1.49-6.38z"></path><path class="cls-2" d="M142.47,72c3.2,4.15,7,7.85,8.89,12.83,4.08,10.68,4.5,22.4,6.31,33.58,2.49,15.44,14.34,41.14,27.57,39s3.36-40.83,0-50.25S164.72,57,135,59.11c.94,0,4,7.45,4.43,8.32A32.75,32.75,0,0,0,142.47,72Z"></path><path class="cls-2" d="M70.71,112.85a7.88,7.88,0,0,1-2.16.12A20.19,20.19,0,1,1,88.43,92.78,17.47,17.47,0,0,1,87,99.72"></path><ellipse class="cls-2" cx="66.7" cy="94.2" rx="10.82" ry="11.26"></ellipse><path class="cls-2" d="M122.55,112.85a14.91,14.91,0,0,0,2.16.12,20.19,20.19,0,1,0-19.88-20.19A16.85,16.85,0,0,0,106,99.65"></path><ellipse class="cls-2" cx="126.6" cy="94.2" rx="10.82" ry="11.26"></ellipse><ellipse class="cls-2" cx="96.63" cy="130.4" rx="30.88" ry="32.25"></ellipse><path class="cls-2" d="M50.31,72c-3.2,4.15-7,7.85-8.89,12.83-4.08,10.68-4.5,22.4-6.31,33.58-2.49,15.44-14.34,41.14-27.57,39s-3.36-40.83,0-50.25S28.06,57,57.77,59.11c-.94,0-4,7.45-4.43,8.32A32.75,32.75,0,0,1,50.31,72Z"></path><path class="cls-1" d="m132.8 44.62c-22.52-2.86-49.24-3.27-72.24-0.32"></path><path class="cls-1" d="M63.08,37.4c23.72-3,44-2.56,67.23.37"></path><ellipse class="cls-2" cx="96.63" cy="120.5" rx="14.29" ry="14.87"></ellipse><path class="cls-2" d="m108 197.7a4.46 4.46 0 0 0 -0.9 -0.51s0.35 0.18 0.9 0.51z"></path><path class="cls-2" d="M136,211.65c-2.87,4.38-8.26,7.13-8.26,7.13-1.8-4.94,0-21.55,0-21.55-9,7.63-8.53,17.06-8.53,17.06,0-9-8.43-14.85-11.23-16.55,2.06,1.46,6.71,6.59,3.11,21.94-4.53,19.31,12.16,28,12.16,28h.6v-2c-3.88-8.36-3.88-13.73-2.39-16.71a16.84,16.84,0,0,1,6.07,8,10.69,10.69,0,0,1,1.84-1.66c1,1.93,1,5.39-1.54,10.78v1.6h7.09a28.73,28.73,0,0,0,5.69-9.35"></path><path class="cls-2" d="m11.83 181.9a5.88 5.88 0 0 0 -1.18 -0.68s0.45 0.23 1.18 0.68z"></path><path class="cls-2" d="M57.75,219.68c.51-16.07-5.74-29.49-6.86-24.28-1.78,8.28-13,14.2-13,14.2-2.37-6.51,0-28.4,0-28.4-11.44,9.72-11.27,21.65-11.24,22.44,0-11.82-11.11-19.53-14.79-21.76,2.72,1.93,8.84,8.69,4.1,28.91-6,25.44,16,36.84,16,36.84h.79v-2.7c-5.11-11-5.11-18.09-3.15-22a22.12,22.12,0,0,1,8.08,10.85A13.79,13.79,0,0,1,40,231.64c1.24,2.48,1.24,7-2,13.91v2.08h9.29c.74-.8,1.42-1.6,2.07-2.45"></path><path class="cls-2" d="m187.1 175.4c0.82-0.5 1.31-0.76 1.31-0.76a6.54 6.54 0 0 0 -1.31 0.76z"></path><path class="cls-2" d="M187.07,175.41c-4.1,2.49-16.44,11.07-16.47,24.23,0-.86.22-14.15-12.52-25,0,0,2.63,24.37,0,31.62,0,0-12.52-6.59-14.49-15.81-1.1-5.16-6.74,6.07-7.58,21.19-.45,8.06.47,17.23,4.15,25.61q.22.51.46,1a40.41,40.41,0,0,0,6.92,10.32h8.95c-.77-.56-4.38-10.65-4.51-14.21a14,14,0,0,1,2.89-8.55,9.44,9.44,0,0,1,2.19,4.63,22.76,22.76,0,0,1,6-6.31c2,3.91,2,10.94-3.13,21.89v2.55h4.77s24.48-12.69,17.84-41C177.24,185.08,184.05,177.56,187.07,175.41Z"></path><path class="cls-2" d="M65,232.38c-1.11-7.25-.78-8.87-.78-8.87s-2.71,1-3.79,5.84c0,0-.93-9.9-6-14.2,0,0,3.16,8.89.76,15.31,0,0-5.21-1-6-4.56S43,238.84,51.56,248.13h3.31c-.7-.33-1.22-1.51-1.37-5.56a10.21,10.21,0,0,1,2.1-6.22C57,237.82,59,241,58.24,246.59l-.11,1.54A15.22,15.22,0,0,0,65,232.38Z"></path></g></svg>