<svg viewBox="0 0 192 192" xmlns="http://www.w3.org/2000/svg" width="192" height="192">



<g transform="rotate(0 3.14 2.18) translate(30.945223905936203 25.414530933008365) scale(0.5530692972927846)"><defs>
<style>.cls-1{isolation:isolate;}.cls-2,.cls-5{fill:none;stroke:#231f20;stroke-miterlimit:10;}.cls-3{opacity:0.13;mix-blend-mode:screen;}.cls-4{fill:#231f20;}.cls-5{fill-rule:evenodd;}</style>
</defs><title>78278539</title><g class="cls-1">
<g data-name="Layer 2">
<path class="cls-2" d="m149 93.7a67.29 67.29 0 0 1 -5.67 19.43c50.16-54.84 14.48-141.8-57.88-102.6-10-3.22-61.82-6.3-29 83.32 0 0 0.26-3.05 1.15-8.57"></path>
<path class="cls-2" d="M61.39,66.46c.79-3.34,1.69-6.93,2.74-10.75C70.71,31.59,87.8,30.07,87.8,30.07s33.53,7.37,51.11,29"></path>
<path class="cls-2" d="m149.3 93.73c-0.5 6.12-2.36 11.33-6 19.4 45.09-49.32 20.78-124-37.2-110.7"></path>
<path class="cls-2" d="m120.2 60.43a22.41 22.41 0 1 0 30.62 8.2 22.41 22.41 0 0 0 -30.62 -8.2zm17.46 34.73a15.89 15.89 0 1 1 5.82 -21.71 15.89 15.89 0 0 1 -5.82 21.71z"></path>
<path class="cls-2" d="M60,68.63a22.41,22.41,0,1,0,30.62-8.2A22.41,22.41,0,0,0,60,68.63Zm7.34,4.82a15.89,15.89,0,1,1,5.82,21.71A15.89,15.89,0,0,1,67.3,73.45Z"></path>
<path class="cls-2" d="M109.64,76.36c-2.12,1.68-6.25,1.64-8.45.06"></path>
<path class="cls-2" d="m101.2 84.24c2-1.7 6.82-1.62 8.8-0.07"></path>
<g class="cls-3">
<path class="cls-4" d="M101.16,77.37A23,23,0,0,0,99,69.81a21.45,21.45,0,0,0-11.17-10.4,23,23,0,0,0-7.69-1.63c.66,0,1.33-.08,2-.1s1.34.07,2,.11,1.33.23,2,.35,1.3.37,2,.55a19.38,19.38,0,0,1,11.6,10.8c.23.64.48,1.27.69,1.91s.35,1.3.49,2,.19,1.33.26,2S101.16,76.7,101.16,77.37Z"></path>
</g>
<path class="cls-5" d="M7.36,198.28c4.65-.53-8.79,9.08-1.79,9-2.43,2.07-5.41,21.65-3.66,24.86,2-1.77,3.22,1,2,4.34,3.41-3.53,2.42-6.36,3.74-9.55.88,4,1.55,8,0,11.78,1.85-.75,4.31,1.34,3.47,4.49,1.25-4.67,1.81-9.69,3.78-14.14a10.51,10.51,0,0,1,4.44-5c1.38-.79,2.85,2.42,3.29,3.26,1.18,2.27,2.16,4.64,3.24,7A58.14,58.14,0,0,0,30.11,242a18.33,18.33,0,0,0,5.57,5.75,9.36,9.36,0,0,0,7.38,1,17.26,17.26,0,0,0,5.87-3.15,69.38,69.38,0,0,0,5.24-13.64C60,240.37,62.95,243,71,240.37c-4.07-.71-4.31-6.36-4.72-10.26.46.59,10.18,9.13,11.38,9.46-.31-2.08-.83-5.17-.91-7.24,3.37,4.28,4.66,7,10.11,7.32a16.69,16.69,0,0,1-4.76-5c7.78,2.12,9.28.74,12.79-1.7-5.07,10.88,2.93,10.55,6.89,7.34.17,3.88,3.67,11.54,10.32,13.39a34.61,34.61,0,0,0,2.72-9.69c4.29-.2,11.24,9.6,11.15-3.1,3,.35,4.6,2.24,8.71,2.52-1.67-1.9-2.29-2.85-3.85-4.84,3.67-1.13,5.07-.09,7.15,3.31,4.38-1,5.25-.17,8.58.85a11.63,11.63,0,0,0-1.74-10.12c.77,0,24.58,9.32,28.33,21,1.31-.06,3.21-12.28,4-12.59,9.6-.45,14.21,7.45,14.57,7.34-1-3.5-2.14-8.27,2-11.34,6.83,1.25,13.21-3.7,10.88-11.39,4.59-2.81,13.27,20.25,14,23.5,3.72-11-1.58-16.39,6.86-12.06,1-4.62-5.11-9.14-3.09-13.86,1.95,3.06,3.53,3,4.75.24,1.25.66,3.15.64,3.69,2-.9-4.38-3.4-9.3-1.56-10.08.72-.53,4.12,1.16,4.21,1.77-.55-5.2-2.28-9.11-2.35-14.34,6.66-1.19-8.21-9.58-4.29-20.28L220,175.71a5.09,5.09,0,0,0,2.78-4.56,17.61,17.61,0,0,0,6,4.51c1.86-11.92-31-19.74-20.09-26.41-3.48,2.1-12.77,1.69-20.86-1.74-1.47-.62,9-10.07,6.55-13.36-6.79,10.88-22.56,14.83-27.43,16.4.3-3.22-2.47-9-9.75-9.41-3.14,8.13-42.6,32.07-46.11,32.93-3.83.89-3.21-4.35-4.37-6.44a.8.8,0,0,0-1.24-.21c-4.21,3.89-32.31,25.64-39.72,12.62-2.33,1.77-1.15,7.34-1.12,7.38-.9-.63-6.73-7.32-9.72-4,4.65,4-21.93,7.79-26.12,3.89,5.15-3.72-10.62-2.27-14.29-2.16,10.1,3.51-.13,3.8-1.94,3.44C14.41,190.46,16,191,18.75,192,14.45,195,11,190.42,7.36,198.28Z"></path>
</g>
</g></g></svg>