<svg viewBox="0 0 192 192" xmlns="http://www.w3.org/2000/svg" width="192" height="192"><g transform="rotate(0 3.14 2.18) translate(30.165764482304354 25.487887768403297) scale(0.5503384369295352)"><defs><style>.cls-1{isolation:isolate;}.cls-2{fill:#b9bdc1;}.cls-3{fill:#e6e7e8;}.cls-4{fill:#2e3192;}.cls-5{opacity:0.19;}.cls-6{fill:#fff;}.cls-7{opacity:0.13;mix-blend-mode:screen;}.cls-8{opacity:0.3;}.cls-9{fill:#58595b;}.cls-10{fill:#ec008c;fill-rule:evenodd;}</style></defs><title>WinterBash_Hats</title><g class="cls-1"><g data-name="Layer 2"><path class="cls-2" d="m143.3 113.1c50.15-54.84 14.47-141.8-57.89-102.6-10-3.22-61.82-6.3-29 83.32 0 0 1.28-14.8 7.65-38.13 6.61-24.11 23.7-25.63 23.7-25.63s84.49 18.57 55.54 83.06z"></path><path class="cls-3" d="m106.2 2.44c40.7-1.38 60.43 45.65 43.32 88 0 7.68-1.88 13.2-6.13 22.67 45.1-49.3 20.78-124-37.19-110.7z"></path><path class="cls-4" d="m120.2 60.43a22.41 22.41 0 1 0 30.62 8.2 22.41 22.41 0 0 0 -30.62 -8.2zm17.46 34.73a15.89 15.89 0 1 1 5.82 -21.71 15.89 15.89 0 0 1 -5.82 21.71z"></path><path class="cls-4" d="M60,68.63a22.41,22.41,0,1,0,30.62-8.2A22.41,22.41,0,0,0,60,68.63Zm7.34,4.82a15.89,15.89,0,1,1,5.82,21.71A15.89,15.89,0,0,1,67.3,73.45Z"></path><g class="cls-5"><path class="cls-6" d="M130.83,61.58A10.2,10.2,0,0,1,137,60a12.94,12.94,0,0,1,10.77,6.87,10.16,10.16,0,0,1,1.13,6.3,35,35,0,0,0-3.63-4.55,22.75,22.75,0,0,0-4.07-3.34A22.47,22.47,0,0,0,136.49,63,34.42,34.42,0,0,0,130.83,61.58Z"></path></g><path class="cls-4" d="m101.2 84.24l-1.81-2.93c2.82-1.76 9.82-1.77 12.48 0l-1.89 2.87c-2-1.56-6.8-1.64-8.78 0.06z"></path><path class="cls-4" d="m110.3 76.12l2 2.82c-3.14 2-10.92 2-13.88 0l2.08-2.78c2.55 1.84 7.34 1.9 9.8-0.04z"></path><rect class="cls-4" x="100.4" y="79" width="10.66" height="2.51"></rect><g class="cls-7"><path class="cls-6" d="M101.16,77.37a41.09,41.09,0,0,0-3.46-7,28.21,28.21,0,0,0-4.56-5.5,28.5,28.5,0,0,0-5.81-4.15,41.66,41.66,0,0,0-7.19-3,14,14,0,0,1,8.46-.43A17.53,17.53,0,0,1,101,68.9,14.06,14.06,0,0,1,101.16,77.37Z"></path></g><g class="cls-8"><path class="cls-9" d="M55.82,92.19a120.75,120.75,0,0,1,1.9-19.25c.53-3.18,1.18-6.34,1.87-9.49s1.49-6.28,2.34-9.39c1.7-6.33,4.7-12.56,9.44-17.28s11-7.9,17.49-8.11A30,30,0,0,0,73,38.35a35.76,35.76,0,0,0-5,7.75,46.33,46.33,0,0,0-3.19,8.75C64,57.94,63.13,61,62.38,64.12s-1.54,6.2-2.33,9.3C58.58,79.65,57.12,85.88,55.82,92.19Z"></path></g><path class="cls-10" d="M236.55,196.57c-.07-.67-.55-.9-.55-1.63a10.94,10.94,0,0,0-.23-1.67c0-.06,0-.15-.06-.16-.44-.18-.22-1-.57-1.34s-.12-1.14-.58-1.32a.9.9,0,0,1-.07-.4,3.11,3.11,0,0,0-.48-1.42,6.12,6.12,0,0,1-.49-1.2,2.56,2.56,0,0,0-.65-1.23c-.23-.22-.45-.48-.68-.73l.17-.49c-.11-.14-.3-.28-.3-.41a1.55,1.55,0,0,0-.62-1.29,3.5,3.5,0,0,1-.64-1c-.2-.37-.54-.53-.77-.88s-.82-.33-1-.84-.77-.57-.78-1.37c0,0-.08-.13-.11-.12-.4.19-.45-.45-.66-.71s-.46-.47-.67-.74a1,1,0,0,1-.2-.5,1.13,1.13,0,0,0-.5-.92c-.1-.09-.24,0-.37-.07a.18.18,0,0,1-.11-.12c-.13-.9-.84-.87-1-1.57s-.63-.57-.73-1.16-.49-.55-.68-1c.43-.52.68.3,1,.44a1,1,0,0,0-.3-1l.46-.54a4,4,0,0,1-.78-1.14c-.18-.44-.59-.65-.87-1a2.7,2.7,0,0,1-.07-.74l.94,1c.22.23.41.57.71.41.15.25.41.28.49.69a.86.86,0,0,0,.6.7c.08,0,.21,0,.24,0,.4,1.14,1.2,1.45,1.76,2.24a8,8,0,0,1,.62,1c0,.08-.06.32-.11.6l.79.65.21-1.35c-.26-.28-.51-.58-.77-.83a8.17,8.17,0,0,1-.75-1.12c-.33-.46-.2-1.06-.4-1.53l-1.8-1.94-.91-.95c-.46.34-.38-.62-.65-.74,0,0-.08-.08-.11-.12s-.08-.13-.11-.11c-.43.16-.67-.62-1.06-.65-.08,0-.23,0-.23-.06-.09-.6-.41-.55-.66-.72s-.49-.49-.82-.57-.52-.54-.79-.8-.48-.1-.72-.41a10.13,10.13,0,0,0-1-1c-.42.2-.63-.86-1.07-.57-.33-.51-.8-.51-1.16-.89a1.52,1.52,0,0,0-.71-.43,1.61,1.61,0,0,1-.81-.54c-.26-.35-.57-.29-.84-.47l-.19-.13a1.52,1.52,0,0,0,.05-.35,5.48,5.48,0,0,0-.65-.05l0,0a12.68,12.68,0,0,0-1.64-.8c.17-.16.33-.32.49-.49.33-.34.77-.52.86-1.22a1.3,1.3,0,0,1-1.14-1.21c-.59.64-.48,1.56-.76,2.32a1.4,1.4,0,0,1-.14.27,2.11,2.11,0,0,0-1-.36,1.4,1.4,0,0,1,0-.25,8.92,8.92,0,0,1,.5-1.54c.12-.32.28-.63.42-.94a4.5,4.5,0,0,1-.81.38c-.13,0-.27-.1-.38-.21a.67.67,0,0,1,.09-.38c.34-.34.73-.59.6-1.3a2.87,2.87,0,0,1,0-1.11c.31-1.33-.37-1.2-.89-1.33a8,8,0,0,0,.16-.8c.08-.73-.13-1.26-.44-1.07a1.67,1.67,0,0,0-.66.75c-.23.66-.35,1.37-.52,2.05-.45.27-.79,1.06-1.39.94.07-.35.27-.91.18-1-.27-.37-.86-.17-1-.91,0-.07-.49.18-.75.24s-.47.12-.5,0c-.21-.7-.48-.74-1.08-.34a4,4,0,0,1-1.74.32,3.94,3.94,0,0,1,1.26-2.44,1,1,0,0,0,.28-1c-.13-.54-.41-.61-.88-.16s-.73.52-.85,1.19a15.18,15.18,0,0,1-.42,1.62c-.14.46-.85.82-.93.43-.27-1.16-.9-.23-1.49-.2l-.94-2.68c-.48-.08-.87-.36-1.18-.17-1,.61-1.45.14-2-.75a2.78,2.78,0,0,0-2.14-1.51l-.35,1.1a11.38,11.38,0,0,1-1.83-.47c-.9-.39-.93,1-1.4,1.45a4,4,0,0,1-.55-.15c-.64-.27-.68-.42-.47-1.3.09-.37.23-.73.33-1.08l.75.09.58-2c.32-.25.83.49,1-.66.09-.68.58-.77.9-1.09.48-.47.83-.14.77.72,0,.25-.17.53-.19.79,0,.07.26.08.41.11l1.41-2.59a3.45,3.45,0,0,0-.24-.62c-.17-.26-.81.25-.58-.72a6.77,6.77,0,0,0,1-1c.25-.34.19-.65-.16-.69-.12,0-.22-.18-.41-.35.62-.63,1.2-1.2,1.74-1.83a1.23,1.23,0,0,0,0-.72c0-.2-.2-.31-.32-.46a1.92,1.92,0,0,0-.3.5c-.11.48-.25.63-.56.53-.61-.21-.41.66-.57.88-.41.34-.68-.29-1.07.25a2.86,2.86,0,0,1-1.33,2.87c-.39.25-.86-.29-1.29.38s-1,.07-1.58.53c-.21.18-.51,0-.78.1-.5.11-.28.9-.62,1.15s-.82,1-1.31.72-1.27.11-1.81,0c-.75-.12-.68.56-.91,1a2.48,2.48,0,0,1-.41-.33c-.55-.67-.61-.68-1.17.44-.19.37-.27.64-.58.47s-.48.1-.49.51a7.91,7.91,0,0,0,.11,1.06c-1.18-.3-1.16-.32-1.48-1.08-.19-.44-.12-1.21-.73-1.16-.28.75.11,1.15.23,1.68a2.69,2.69,0,0,1-1.23,3.05c-.16.08-.48.06-.49,0-.12-1.18-.88-.23-1.28-.39-.7-.29-.75.36-.94,1-.4-.22-1.05-.28-1.12-.68-.21-1.2-1.54-1.06-1.5-2.47,0-.05-.33-.09-.49,0a1.4,1.4,0,0,0-.46.48c-.19.29-.1.37.17.43.76.15.87.9.68,1.89l-.76-.18-.38,1c-.32.11-.5-.48-.92.29-.65,1.17-.73,1.1-2.06,1.53a7.65,7.65,0,0,0,.11-1.35,13.21,13.21,0,0,0-.34-1.28,2.2,2.2,0,0,1,.08-.65l2.07-.1.5-1.47c-.09,0-.2-.11-.26-.06-.57.52-1.08,0-1.59.29a2,2,0,0,1-1.62.45c-.5-.12-.71.77-.93,1.33-.83-.23-.45-1-.18-1.74-1.17.39-2.09-.21-3.08-.49-.3.6-.37,1.6-1.22,1.28a1.38,1.38,0,0,0-.19-1.2,11.48,11.48,0,0,1-1.25-1.35c-.32-.45-.12-1.48-.75-1.56s-.36-1.49-1.11-1.54a3,3,0,0,0-.36,2.35c.16.37.55.82.05,1.47-.63,0-1-.79-1.85-.21-.26.19-.48-.07-.57-.42s-.19-.62-.53-.1l.18,1.84c-.5.49-1.08.47-1.41,1.29a9.25,9.25,0,0,0,.32,1.1c.05.14.27.15.41.22,0-.22.09-.44.1-.66s-.08-.51,0-.63c.33-.45.38-.05.53.16a3,3,0,0,0,.58.53.81.81,0,0,1,.26,1.08l-1.22,3.39-.85-1.85c-.12.82-.74,1.68-.49,2.36a3,3,0,0,1-.36,2.32,5,5,0,0,1-.5-.15c-.75-.31-1.63-.41-1.7-1.7,0-.34-.69-.2-1,.26s-.35,1-.79,1-1.12,0-1.34-.74c-.12-.38-.1-.9-.56-1-.07,1-.58,2.15-.18,3.15.11.27-.17.62-.5.76a1.63,1.63,0,0,0-1.11,1.16,10.36,10.36,0,0,0-1.27.15c-.1,0-.19.34-.26.47.48.27,1,.51,1.44.83.1.07.08.4.05.61s-.16.28-.41.19c-.91-.3-1.64.4-2.45,1,.57.32.64.48.51,1.07a2.61,2.61,0,0,0-.1.32c0,.32,0,.63,0,.94-.52,0-.46-.48-.6-.81a7.48,7.48,0,0,0-.43-.75c-.7,1.13.66,1.77,0,2.82-.09,0-.21,0-.26-.12-.19-.33-.29-.7-.68-.86s-.75-.17-.76.49-.34.84-.41,1.26c-.15,1-1.09,1.37-1.49,2.16-.3.59-.88.58-1.34.81-.87.44-1.75.81-2.64,1.17-.17.07-.36,0-.55,0-.06-1.15-1.06-.42-1.53-.74.2-.68.8-.6,1.21-.89a.61.61,0,0,0,.28-.82c-.09-.16-.23-.42-.35-.4a7.65,7.65,0,0,1-2.47-.18,1.28,1.28,0,0,0-.85.16c-.57.29-1,.3-1.09-.42-.07-.37-.06-.84-.69-.86.05.62.1,1.21.18,2.06-.61-.14-1.06.66-1.71.23-.14-.58-.28-1.19-.46-1.77,0-.08-.28-.07-.43-.05a.39.39,0,0,0-.13.28c.08.4.19.8.33,1.4-1,.3-1.28,1.63-2.45,1.68-.36,1.13-1.8,1-2.21,2.09a1.06,1.06,0,0,1-.8,0,1.28,1.28,0,0,0-1.64.33c-.69,1.11-1.78,1-2.69,1.38-.34.15-1.23-.53-1.33-.94-.24-1-.46-2-.71-3,0-.16-.24-.27-.37-.4-.7.15-1.39.31-1.68,1.11l-.75-.36a1.58,1.58,0,0,0,.36,1.76c.33-.1.7-.23,1.09-.32a.62.62,0,0,1,.68.72c-.1.29-.47.62-.4.82.31.94-.35,1-.95,1.18a2.61,2.61,0,0,1-.57,0c-.54-1.29-.54-1.29-1.58-1.9-.3.54-.55,1.21-1.4.7-.44-1.92-.88-3.87-1.34-5.81,0-.08-.13-.13-.22-.17s-.14,0-.22,0c-.4,1,.61,1.85.17,3a8.08,8.08,0,0,0-1.09.31.5.5,0,0,0-.28.73c.08.16.21.38.35.4a4.57,4.57,0,0,0,1-.05c.09.9.48,1.7.48,2.6,0,.09-.1.18-.16.26-.67.23-1.35.5-2-.09-.25.53-.84.94-.58,1.64,0,.06-.2.24-.33.33s-.22-.08-.24-.15c-.09-.38-.11-.75-.69-.77a2.69,2.69,0,0,1-2.66-2.25c0-.06-.16-.08-.24-.11-.35.36-.1.74,0,1.11s.16.74.24,1.09c-1.52.5-1.63.51-2.31-.05-.28-.23-.38-.68-.67-.86s-.78-.07-1.08-.25-.45.12-.63.27c-.44.38-.53.45-1,.2s-.9-.42-1.32.13l1.45,1a1.22,1.22,0,0,0-.35,1.32,1.15,1.15,0,0,1-.08.77c-1,.1-1,1.07-1.62,1.51l-.72-.4c-.41.41-.5,1-1.1,1.21a2.48,2.48,0,0,0-1.26-.89c-.09,0-.17-.1-.27-.13-1.47-.5-1.92-.31-2.4,1,.31.9-.81.57-1,1.05s-.59-.07-.89-.09a3.53,3.53,0,0,0-1.19.07c-.27.07-.44.31,0,.54s.47.42.12.57a1,1,0,0,1-.82-.12c-.41-.7-1-1.24-1.44-2-.43.57.08,1.08,0,1.49-.21.65-1.1.19-1.53.55s-.78.59-1.14.86c.19.22.52.44.51.61s-.75.33-1,0-.08-.74-.43-.8c-.52.25-.94.42-1.3.65-.12.07-.09.32-.13.48.29,0,.57,0,.56.35,0,.09-.29.15-.44.22s0,.44-.12.47a1.66,1.66,0,0,1-1.68-.12,1.3,1.3,0,0,0-.45-.13,2.91,2.91,0,0,1-.07.5c-.17.55-.21,1.23-.59,1.61s-1-.55-1.62-.48a5.87,5.87,0,0,1-.9,0c-.08,0-.25-.14-.24-.18s.06-.34.16-.36c.64-.12,1.42.18,2-.26a3.59,3.59,0,0,0-1.43-.94c-.77-.29-1.54-.36-2.25-.63s-.8-.36-1.09.07c-.07.1-.37.12-.54.06-.76-.26-1.18-1.22-2.13-1.13-.06,0-.2-.1-.25-.18-.19-.31-.37-.63-.56-1a2,2,0,0,0-.81,1.53c-.07.74-1.42.33-1.4,1.18,1.1.08,1.13.07,1.35.76.11.36.12.7.53,1,.64.46-.13.5-.13.79l.68.59c-.5.6-1,.12-1.54-.32l-.58.54c-.14-.27-.41-.57-.36-.74a4.68,4.68,0,0,1,.65-1.52c.26-.36-.15-.42-.29-.61s-.21-.32-.31-.48-.49-.12-.53-.22c-.24-.55-.41-1.1-1.25-1a1.44,1.44,0,0,1-1.11-.46.68.68,0,0,0-1,0l1.37,1.19c0,.29-.75.34-.1.8.34.24.31.4.1.59-.45.42.32.52.44.81-.56.79-.56.79.33,1.72,0,0-.11.12-.17.18a2.06,2.06,0,0,1-1.56-.4c.35-.35.74-.7,0-1.28l-.53.46c-.69-.52-.69-.52-.93-.32a3.83,3.83,0,0,1-3.93,1,2,2,0,0,1-.8-.44c-.52-.42-1-.21-1.46-.35-.3.63-1.08.35-1.72.35-.11,0-.18.24-.17.39a.75.75,0,0,0,.24.49,10.47,10.47,0,0,0,1.15.51c-.18.11-.28.25-.43.25-.73,0-1.67-.51-2.1.16a3.22,3.22,0,0,1-2.53-.84c-.2.36-.42.72-.6,1.09s.21.83.76,1.29L45,191c-.89-.65-.33-1.15-.89-1.72s-1.26-.68-1.82-1.31c.78,0,1.51.09,2.24.11a1.51,1.51,0,0,0,0-.31,31.75,31.75,0,0,1-3.46-.82c-.24-.46-.15-1-.93-1.13a4.16,4.16,0,0,1-1-.64l-.9.74a3.55,3.55,0,0,0-.69-.58c-.25-.11-.66-.18-.75-.06s-.15.54-.21.81c-.56-.13-1.06-.28-1.55-.37-.64-.11-.91.52-1.73.07a12.44,12.44,0,0,0-2,1c.48.14,1,.25,1.45.41.29.09.62.81.42.92-.36.2-1.07-.1-1.26.35a5.94,5.94,0,0,0-.48-.45,5.28,5.28,0,0,0-.53-.32,3.72,3.72,0,0,1,.09.51c0,.41-.24.57-.58.35-.6-.39-1.19-.82-1.92-1.34.76-.17,1.65.35,2.41.48.1-.17.2-.33.28-.51a3.08,3.08,0,0,0,.12-.38c-.18-.11-.43-.2-.52-.33a7.64,7.64,0,0,1-.48-.89c-.35.06-.64.25-1,.13a5,5,0,0,0-3.7-.13c-.7-.29-.74,0-.62.54,0,0-.31.06-.36,0-.91-.94-1.62-1.11-2.19-.67-1-.42-1.08.29-1.62.42-.63-.15-1.45-.79-1.87-.5s-1-.17-1.31.13-1.16-.59-1.46-.24-1.07-.35-1.48-.28c-.11,0-.09.22-.13.34a6.32,6.32,0,0,0,2,.77,2.12,2.12,0,0,1,1.45.16c.56.28,1.12.26,1.71.87-.35.45-1.55-.66-1.79,0,0,.07-.33,0-.5-.12-1.47-.84-2.17-.11-3.37-.42-.49-.12-.32,1,.23,1.5a3.86,3.86,0,0,0,.86.49c-.1.14-.13.27-.23.3a8.28,8.28,0,0,1-3.34-.11.72.72,0,0,0-1,.32c1.08.66,1.07.63,1.75.66.45,0,.89,0,1.32,0a5.94,5.94,0,0,1,1.42.59c.42.17.65-.53,1.27.5l.54-.18a4,4,0,0,0,2.13,1.34l-.31.11-.5.25c-.17.08-.34,0-.51.2a.81.81,0,0,1-.33.19c-.84-.36-1.68-.72-2.53-1.1,0,.29,0,.51,0,.73s-.7,0-.28.53c.39.37.82.35,1.17.58-.11.1-.22.22-.33.14a5.79,5.79,0,0,0-.65.5c-.15.15-.3.07-.44.17l0,0-2.2-1c-.07,0-.11.05-.21.1l1.24,1c0,.16.08.34.12.51-.14,0-.28,0-.36.33,0,0-.09,0-.14,0a.34.34,0,0,0-.21.09,2.91,2.91,0,0,0-.48-.22c-.15,0-.24,0-.43.09l.49.33h0s0,0-.07.06,0,.05-.07.06-.19.59-.43.37l-.59.46-1.17,1c-.15.25-.12.6-.35.83a4.65,4.65,0,0,1-.52.57c-.17.12-.33.27-.5.41,0,.32,0,.58,0,.78l.5-.3c0-.16,0-.3,0-.34a4.51,4.51,0,0,1,.43-.54c.38-.4.85-.52,1.17-1.13,0,0,.09,0,.14,0a.49.49,0,0,0,.39-.35c.08-.22.23-.22.33-.35.15.11.29-.07.43-.18l.61-.49a1.55,1.55,0,0,1-.1.42c-.19.18-.44.27-.57.5a2.3,2.3,0,0,1-.53.58l.22.34a.56.56,0,0,0-.25.53c.2,0,.4-.5.61-.17-.15.25-.37.22-.47.52s-.37.26-.51.6-.56.31-.7.81a.1.1,0,0,1-.07.06c-.07,0-.15,0-.21,0a.64.64,0,0,0-.36.48.57.57,0,0,1-.15.27c-.14.14-.3.23-.44.37s-.22.49-.43.35c0,0-.07,0-.07.06-.07.45-.39.37-.55.71s-.41.17-.62.4-.36.25-.5.44a2,2,0,0,1-.44.52.89.89,0,0,0-.45.68c0,.07-.13.14-.2.21l.06.29c-.15.12-.29.25-.44.36a1.46,1.46,0,0,0-.46.64,3.5,3.5,0,0,1-.37.64,1.77,1.77,0,0,0-.38.77.51.51,0,0,1-.07.22c-.27.07-.23.57-.43.7s-.16.64-.43.71c0,0,0,.05,0,.09a6.25,6.25,0,0,0-.26.92c-.06.41-.35.5-.44.88-.16.66-.38,1.31-.57,2,0,0,0,.1,0,.16a2.05,2.05,0,0,0,.28-.75c.08-.22.13-.46.21-.69s.1-.59.28-.75.22-.47.31-.71.15-.63.39-.76c0-.42.35-.52.42-.88s.41-.65.51-1.08c.18,0,.2-.37.36-.48s.19-.4.36-.47c0-.29.24-.29.32-.53a1.67,1.67,0,0,1,.33-.51.14.14,0,0,1,.2,0,.49.49,0,0,1,0,.31c0,.09-.15.12-.19.21a1.32,1.32,0,0,0-.07.32s.09,0,.12,0,.2-.05.28,0a.8.8,0,0,1,.14.17c-.19.65-.19.65-.1.87l.24-.83a2.19,2.19,0,0,1,.72-1.06.63.63,0,0,1,0,.21c-.18.41-.14,1-.52,1.23a.82.82,0,0,1,0,.54c-.15.45-.28.92-.41,1.36-.2.19-.2.19-.15.41,0,.07,0,.13.06.2.2-.23.2-.58.32-.86s.34-.4.39-.77a3.93,3.93,0,0,1,.24-.8,1.6,1.6,0,0,1,.23-.34l-.06-.27a.6.6,0,0,0,.28-.43c.06-.23.13-.46.2-.69a1.12,1.12,0,0,1,.29-.58,2.4,2.4,0,0,0,.29-.64c0,.27,0,.43,0,.61.33-.24.54-.79.91-.87,0,.06,0,.17.06.27a.38.38,0,0,1-.09.4.6.6,0,0,0-.22.35c-.06.23-.13.46-.2.69-.29.15-.3.57-.43.9a1,1,0,0,0-.55.82,7.55,7.55,0,0,1-.94,1.45,1.78,1.78,0,0,0-.61,1.36l.29-.43a.66.66,0,0,1-.09.55,1.45,1.45,0,0,0-.34.66c-.05.34-.34.4-.39.76s-.25.26-.32.53-.11.82-.41,1c-.12.37-.24.75-.37,1.11,0,.09-.13.14-.18.23a.43.43,0,0,0-.09.19c0,.11.06.23,0,.31s-.17.19-.21.31c-.18.57-.35,1.15-.52,1.72,0,.11-.05.22-.07.33.22.14.24.15.27.05a1.21,1.21,0,0,0,0-.33.85.85,0,0,0,0-.2c.31-.19.31-.66.45-1a2.54,2.54,0,0,0,.13-.46c0-.27.21-.36.31-.54s.09-.56.33-.74c0,.31-.22.64-.07.9a2.57,2.57,0,0,1-.33,1,2.47,2.47,0,0,0-.35.83c.16.39-.11.75-.17,1.12,0,.15-.13.29-.07.45a.94.94,0,0,1-.12.65c-.23.07-.09.4-.17.47-.27.23-.26.6-.36.89l.06.11a.3.3,0,0,1,0,.48c-.11.1-.23.19-.34.28.15.46-.17.85-.19,1.26.08.19,0,.58.34.36.11-.37.22-.76.34-1.14,0-.11.08-.26.14-.29s.19-.29.25-.48.07-.21.19-.11l-.19.65c-.07.23-.15.46-.2.69a1.45,1.45,0,0,0-.13.72c.06-.1.11-.18.15-.26s.07-.22.12-.32.12-.13.16-.21,0-.13-.06-.27L4,222c.24-.37.21-.7.4-.89,0,0,.11,0,.14,0s.1.14,0,.23a.71.71,0,0,0-.11.13.84.84,0,0,1-.06.66,1.06,1.06,0,0,0,0,.55c0,.3-.23.3-.29.53s-.12.28-.09.34a1.24,1.24,0,0,1-.07.78.15.15,0,0,0,0,.1s.1,0,.12-.07c.08-.22.14-.45.2-.66l.29-.23.27.47c-.05.17-.11.36-.16.55s-.13.46-.31.54c-.17.37-.14.9-.49,1.11,0,0,0,.07,0,.11l-.64,2.19s0,.07,0,.11c.18,0,.16-.28.22-.43s.34-.21.18-.5c.07-.16.2-.2.27-.41s0-.49.25-.55c.06.16,0,.31-.07.45s-.13.38-.16.58.07.17.13.19.14,0,.18-.19.08-.17.11-.16.27,0,.35-.31.23-.36.32-.14.05.21.09.35-.16.58-.26.88.06.66-.13,1a3.72,3.72,0,0,0-.21.68l-.24.81a5.48,5.48,0,0,0-.2.69c-.05.32-.27.41-.35.65-.16.49-.3,1-.44,1.5,0,0,0,.08.07.14a5.15,5.15,0,0,0,.31-.89,2,2,0,0,1,.25-.64c.17-.19.29-.49.48-.56l.42,1-.28,1c-.09.31-.19.61-.27.92a2.22,2.22,0,0,0-.17.9,4.16,4.16,0,0,1-.2,1,3.1,3.1,0,0,0,.45-1.61.8.8,0,0,1,.24-.6c.24-.18.12-.39.08-.59s.18-.11.21-.2a.91.91,0,0,0,.11-.56c0-.09-.06-.19.06-.25a.48.48,0,0,0,.19-.38c0-.18,0-.36,0-.54s.11-.45.15-.68a.57.57,0,0,0,0-.21l.2-.18c-.15-.34.06-.66.15-1,.26-.12.24-.55.38-.76a5.47,5.47,0,0,0,.39-.77c.15-.33.34-.71.63-.8l.06.26c.11-.1.27-.17.31-.31s.25-.3.38-.42c.09.32-.1.41-.24.53,0,.18.11.26.2.17s.2,0,.25.14.11.1.19.16c-.09.32-.19.62-.27.92a1.43,1.43,0,0,1-.39.76,2.62,2.62,0,0,1-.59,1.13.93.93,0,0,0-.14.29,7.87,7.87,0,0,0-.27.92,2.4,2.4,0,0,1-.39.77,3.33,3.33,0,0,0-.18.56c-.26.12-.3.48-.38.77a2.6,2.6,0,0,0-.21.9c.28-.1.45-.44.62-.74a1.92,1.92,0,0,1,.33-.36c.27.15.36-.39.56-.48,0-.28.25-.29.33-.53s.21-.24.33-.33.26-.28.41-.28c0,.15,0,.3,0,.44a1.67,1.67,0,0,0,0,.19c-.26.07-.22.54-.43.71a.74.74,0,0,0-.2.68,3,3,0,0,0,.31-.26s0-.15.07-.22.06-.07.07-.06.07.1.06.13a1.81,1.81,0,0,0-.14,1c-.16.53-.32,1.06-.49,1.59,0,.06-.13.08-.14.12s0,.29,0,.39a3.47,3.47,0,0,1-.27.43.24.24,0,0,0,0,.29l.15.16c-.07.22-.13.42-.18.61a1.28,1.28,0,0,0,0,.25c.06,0,.14.07.19,0s0-.17,0-.26a1.45,1.45,0,0,1,0-.22c.08-.27.16-.54.24-.81a2.14,2.14,0,0,1,.72-1c0,.08.07,1,.06,1.07a6.2,6.2,0,0,0,0,1.62c.09.24,0,.52,0,.76s0,.43,0,.65a1.86,1.86,0,0,1,.06.74,2.88,2.88,0,0,0,.15,1.09,1.83,1.83,0,0,0,.14-.41c0-.14-.1-.25,0-.43a2.25,2.25,0,0,0,.13-1.11c0-.24,0-.31.14-.42a.49.49,0,0,0,.06-.3c-.13-.3.22-.71,0-1,.09-.31.18-.62.27-.92s.16-.7.42-.88l.29-.9s0,0,.07-.06c.19-.1.15-.48.29-.57s.26-.44.33-.69.3-.25.32-.53c0-.48.45-.63.49-1.11a.55.55,0,0,0,.28-.42c0-.29.29-.28.31-.54s.31-.42.4-.76a2.57,2.57,0,0,1,.43-.68l.68-1c0-.06.1-.17.11-.16.18.12.38,0,.57,0,0,0,.1.09.09.12-.09.34-.19.67-.29,1-.26.14-.26.51-.36.8,0,0,0,.11,0,.16s.06,0,.07-.06c.05-.34.31-.5.38-.76s.44-.54.47-1c.19-.08.22-.34.32-.54a2.6,2.6,0,0,0,.35-.65c0-.17.25-.18.27-.42s.25-.32.31-.54.2-.18.24-.31a.81.81,0,0,1,.22-.35c.06-.05.09-.21.15-.28a2.22,2.22,0,0,1,.29-.25l.29-.24a3.13,3.13,0,0,0,.51-.43c.17-.2.38,0,.48-.26a1,1,0,0,1,.46-.49,2.44,2.44,0,0,0,.36-.48s.1,0,.14,0a.23.23,0,0,1,.06.17c0,.16-.09.31-.13.46s-.16.36-.11.58c.27-.18.18-.78.48-.89a3.07,3.07,0,0,1,.57-1l.07,0c.22,0,.29.27.29.52a.81.81,0,0,1-.26.59,1.28,1.28,0,0,0-.38.59c-.09.37-.42.46-.43.88a3.68,3.68,0,0,0-.56.84c-.28.08-.27.58-.49.79a3.6,3.6,0,0,0-.44.67A2.13,2.13,0,0,0,17,230c.23-.34.47-.65.68-1a2.09,2.09,0,0,0,.37-.64,1.94,1.94,0,0,1,.37-.56l.27.46a6.57,6.57,0,0,0-.29,1,4.06,4.06,0,0,1-.18,1.12s0,.16.06.16a.36.36,0,0,0,.2,0c0-.35.29-.5.38-.77a1,1,0,0,1,.42-.57c.12.37-.18.41-.26.62s-.18.6-.25.85l.15.58c-.08.16-.06.43-.22.51s-.19.42-.36.48a.4.4,0,0,0,0,.17s.1.09.13.06a1.39,1.39,0,0,0,.16-.25c.14-.21.22-.14.3,0l-.21.2c-.1.32-.21.65-.28,1,.1.14.22-.19.3.08s.21.27.3-.06.41-.47.43-.88a1.08,1.08,0,0,0,.35-.65c.21-.11.28-.51.5-.61,0-.29.26-.28.32-.53,0-.07.06-.18.12-.13s-.06.12-.09.18a1.33,1.33,0,0,1-.19.36.2.2,0,0,0,0,.07h0l.07,0c0-.12.08-.17.11-.26l-.08.44c.08-.09.15-.14.16-.2.06-.42.43-.55.46-1a3.83,3.83,0,0,0,.34-.31v0c-.11.17-.16.38-.28.54s0,.1,0,.17l.12-.11.07.23h.19l.41-.87a.5.5,0,0,1,0,.44,3.27,3.27,0,0,1-.23.45c-.07.1,0,.23-.08.31l-.17.19c0,.15-.15.19-.12.35s-.06.23-.11.35-.18.4-.29.59,0,.06,0,.08.06,0,.08,0a.49.49,0,0,0,.14-.13c0-.08,0-.24.17-.18a1.76,1.76,0,0,0,.15-.32.4.4,0,0,1,.1-.17l.07,0s0,.08,0,.1a.76.76,0,0,0-.12.4c0,.15-.15.22-.12.4a2.13,2.13,0,0,1,0,.46,1,1,0,0,1,.15.31c0,.15.12.2.16.32a.15.15,0,0,1,0,.11c-.11.08-.1.22-.11.35a.32.32,0,0,1,0,.15.32.32,0,0,0,0,.43l.06.09c0,.27,0,.55,0,.82.07.06.16.07.16,0s.18-.25.26-.39c.09.17,0,.36,0,.54,0,0,0,0,.07,0s.16,0,.19-.19,0-.15.17,0a4.48,4.48,0,0,0,.05-.52l.14-.14c.16.21.16.21.06.44l0,0c-.06.13,0,.3-.09.42s0,.26-.07.37.12.21.07.36.13.07.17.14,0,.18,0,.26,0,.19,0,.28a.16.16,0,0,0,0,.1c0,.06,0,.11.08.09a.12.12,0,0,0,.08,0,.25.25,0,0,0,0-.1c0-.08,0-.15,0-.23a.07.07,0,0,1,0,0c.13-.07,0-.25.12-.34a.34.34,0,0,0,.08-.19.08.08,0,0,1,.15,0c0,.07.11.11.11.23s0,.22,0,.32a1.32,1.32,0,0,1,.08.24c.11-.12,0-.3.1-.43s.09.11.15.15a3.53,3.53,0,0,1,0,.45A.71.71,0,0,0,24,238c.07.19.07.41.14.6,0,0,0,0,0,0a.14.14,0,0,0,.07,0,.12.12,0,0,0,.07,0c0-.21.17-.35.15-.57s.17-.27.12-.46l.18-.16.16-.09.08.1.14-.16a3.66,3.66,0,0,0,0-.56c0-.16.16-.19.12-.35.25-.21.37-.59.63-.8h0a.33.33,0,0,1,0,.1c0,.11-.13.16-.11.29s-.09.14-.1.23a.59.59,0,0,1-.1.3c0,.07,0,.25,0,.32a.65.65,0,0,0-.11.46c0,.16-.15.19-.13.35a.31.31,0,0,1-.08.31s0,.1,0,.15,0,.3,0,.45-.05.3-.12.4a1,1,0,0,0-.12.52c0,.13-.14.19-.12.35a2.38,2.38,0,0,1,0,.4c0,.07-.12.06-.07.16s.06.1,0,.14c0,.21,0,.46-.13.63l-.05.78c0,.11.2,0,.17.21a1,1,0,0,0,0,.28c0,.26-.15.44-.16.68-.1.07-.07.19-.09.3s.05.17.06.25,0,.26.08.35l0,.34,0,.45a1.7,1.7,0,0,1,.14.22.9.9,0,0,1,0,.2c.12-.08,0-.25.12-.35s.17-.06.23-.14.1-.08.11-.17,0-.22.05-.32a1.61,1.61,0,0,0,.11-.23h.18s0,.06,0,.08,0,.31-.1.41a1.61,1.61,0,0,1,0,.33c0,.09-.13.15,0,.26a.23.23,0,0,1,0,.14c-.09.09-.07.2-.07.31s.25,0,.29.19a.94.94,0,0,0,.27-.54c0-.13.12-.21.19-.32l-.05.73a1.05,1.05,0,0,1,.16.09.13.13,0,0,1,0,.1c0,.06-.09.11-.1.18,0,.22,0,.45-.05.67s.1-.06.15-.06.12,0,.12.11,0,.12.05.11,0-.1,0-.15,0,0,0,0,.1.23.17.33c.16-.09.18-.33.31-.46a.24.24,0,0,1,.3,0c0,.16,0,.32,0,.49s0,0,.07.05a.14.14,0,0,0,.08,0,.06.06,0,0,0,0,0c0-.27.17-.48.14-.74a.44.44,0,0,0,.11-.29.45.45,0,0,1,.1-.3c0-.07,0-.22,0-.33s.31-.12.31-.4c0-.1.13-.15.12-.28a.29.29,0,0,0,.1-.24.42.42,0,0,1,.06-.26c.1-.13.14-.31.23-.45s.23-.19.25-.38a1.44,1.44,0,0,1,.27-.13c.08,0,.08-.08.1-.15s0-.06.05-.05l.2.17c0,.13.09.18.07.3s0,.19,0,.26.15,0,.17.16a1.43,1.43,0,0,1,.06.53.42.42,0,0,0,0,.37c.07.1.17,0,.24.1s0,.17,0,.26,0,.25,0,.33.05.2.1.31c.05-.07.14-.13.14-.19a.93.93,0,0,1,.12-.35c0-.07,0-.2.08-.24a.47.47,0,0,1,.19,0,.45.45,0,0,1,0,.16c-.07.18,0,.31.07.47a.21.21,0,0,0,.23.2.72.72,0,0,1,.17,0c0-.12,0-.15-.07-.19s-.09,0-.11-.06a.24.24,0,0,1,0-.15c0-.07.1-.11.14-.06s.15.14.25,0,.14,0,.22,0l0,.61.21.32c.13,0,.28-.06.35.14l.15-.17,0-.23.38-.42c0-.08-.1-.13-.06-.24a.17.17,0,0,1,.06-.08c.11-.07,0-.3.12-.31s.15-.11.22-.18a1,1,0,0,0,.22-.33c.05-.13.18-.2.27-.31s.18-.11.26-.19.17,0,.23-.14a.81.81,0,0,1,.17-.19.16.16,0,0,1,.12,0s.06.06.05.13,0,.27-.09.36,0,.1,0,.15c0,.21,0,.42,0,.66l-.15.17a.15.15,0,0,0,0,.19c.07.13.08.31.21.42,0,.27,0,.55,0,.83l.24.19.16-.24.1.33c-.09.1-.22.19-.2.4l-.19.25c0,.17-.08.36.11.52l.17-.3a1.3,1.3,0,0,1,0,.22s0,.06,0,.09-.2.16-.25.32a2.13,2.13,0,0,1-.15.32c-.08.15-.08.15,0,.28l.09.13c0,.16,0,.34-.11.46l.16.25a.46.46,0,0,0,0,.32c.07.1.16.08.24.1s.16-.3.37-.14l-.33.32c0,.11,0,.21,0,.3s.12.24.17.22a3,3,0,0,0,.27-.14c0-.16.09-.14.16-.19a1.48,1.48,0,0,0,.37-.29c.08-.11.16-.22.29-.24a.21.21,0,0,0,.14-.2c0-.07,0-.11.08-.1s.13-.08.18-.14.1-.1.16-.06,0,.13,0,.2a.24.24,0,0,1,0,.06c-.06.19.1.18.18.29a2.27,2.27,0,0,1-.22.19c-.09.06-.08.19-.14.27-.17-.1-.11.33-.29.21-.1.11-.2.23-.31.34s-.15.1-.22.16,0,.07,0,.11,0,.06.06,0,.13-.07.2-.06c0-.19.19-.06.23-.2s.18-.08.26-.18.15-.17.25-.28c0,.08,0,.16,0,.18a.88.88,0,0,1-.28.27c-.11,0-.16.16-.25.22h-.22l0,.28c.06,0,.14.07.16.14s-.06.15-.09.22.19.11.28,0,.19-.11.26-.18.17-.05.25,0,.28-.09.4-.16.2-.26.32-.32a.88.88,0,0,0,.29-.23c.12-.16.29-.25.37-.48s.28-.23.31-.46c0,0,0,0,0,0a5,5,0,0,0,.38-.42,2,2,0,0,1,.29-.42c.11-.09.18-.23.33-.27s.15-.13.2-.22a1.24,1.24,0,0,1,.15-.27c.26-.27.51-.55.76-.83.08-.09.19-.07.27-.18s.13-.22.26-.2,0-.08.06-.13a1.24,1.24,0,0,0,0-.15c.08-.08.15,0,.22,0a2.13,2.13,0,0,1,.18-.31c.27-.28.53-.58.8-.87l.09.11c.08,0,0-.28.2-.22s.12-.1.15-.21.16-.25.33-.2c.12-.13.24-.29.37-.41a1.77,1.77,0,0,0,.42-.69h.19l.62-.68c.11-.13.23-.26.35-.38s.21-.33.4-.34.23-.26.35-.38.11,0,.16-.07.12-.05.1,0,.06.24.07.36,0,.27,0,.4,0,.09.07.13l-.09.11.24.36v.15c0,.25,0,.49-.06.74s.05.2.1.29a.93.93,0,0,0,.19-.49l.16-.38a.21.21,0,0,1,.09,0,.1.1,0,0,1,0,.08c0,.05-.09.08,0,.17s0,.14.06.19a3.23,3.23,0,0,0,.19.28l.28,0c0,.21,0,.4.18.49l-.11.13c.32.17.33.18.45.55h.19s0,.1,0,.15,0,.11,0,.16c.23.16.32-.1.46-.22l0-.68a.81.81,0,0,0,.22-.34c0-.06.09-.16.18-.14a.27.27,0,0,1,.15.23c0,.2.13.33.06.53,0,0,0,0,0,0s.05,0,.06-.06,0-.23.09-.3,0-.13,0-.15a.35.35,0,0,0,.08-.19.27.27,0,0,1,0-.15.19.19,0,0,0,0-.28.21.21,0,0,1,0-.15.36.36,0,0,0,.1-.3c0-.06,0-.14,0-.16s.06-.24.12-.34.09-.1.09-.19,0,0,0,0,.24-.08.25-.19.14-.19.21-.4l.06-.83.21-.23,0-.58c.08,0,.16,0,.21-.11l.18-.36a.55.55,0,0,1,.08-.25,1,1,0,0,0,.16-.56c0-.1,0-.16.09-.24l.11-.23a.81.81,0,0,0,0-.28c0-.47.06-.95.1-1.42,0-.23-.06-.5.13-.69,0-.34,0-.68.07-1,0,0,0-.08-.07-.13s.17-.29.33-.26a2.44,2.44,0,0,0,.15-.32.74.74,0,0,0,0-.28.73.73,0,0,1,.12-.4,1.33,1.33,0,0,0,.1-.23,1.68,1.68,0,0,0,0-.28c.13-.1.23-.07.32.1l0-.16c0-.06.05-.07.1-.08s.11-.09.07-.19a.48.48,0,0,0-.06-.09l.37-.38c.17,0,.26.11.29.35.08,0,.11-.1.17-.14s.13-.07.17.09,0,.1.16.08a2,2,0,0,0-.13-.37.33.33,0,0,1,.1-.34l.07,0c0,.16.19.06.26.14l.06.08c.1-.1.08-.25.06-.36a1.11,1.11,0,0,1-.06-.36c0-.13,0-.26,0-.38h0l.08.1c0,.13.06.21.06.33s0,.27,0,.4c.15.15,0,.36.06.53a1.65,1.65,0,0,1,.07.41c0,.06.07.12.1.17a.22.22,0,0,0,.06-.21,2.88,2.88,0,0,0,0-.86,1.17,1.17,0,0,0,.67.37c.24.05.55.4.87.65l1.26-1.36c1,.34,1.73.18,2.49.75l.47,1.49a8.88,8.88,0,0,1,3.22,1.51,2.59,2.59,0,0,0,2.56.44s0-.19-.05-.28l-1.61-.26a7.94,7.94,0,0,1-1-1c-.15-.21-.07-.51-.09-.77.16.07.36.1.46.2A2,2,0,0,0,65,235c.79.21.8.23,1.06,1.31.41.13.49-.09.54-.37a1.21,1.21,0,0,1,.23-.64c.08-.08.41,0,.6.12s.24.37.2.41c-.54.45-.33,1.08.09,1.77.94.58,1.45.06,2.12,0a2.6,2.6,0,0,0,.27.24c.48.32.76.91,1.39,1,.87.16.35-.63.57-.91A12.88,12.88,0,0,1,73,237a18.5,18.5,0,0,0-1.65-1c-.16-.07-.4.2-.61.31-.36-.45-.76-.92-1.13-1.41-.25-.34-.38-.83-.68-1a.67.67,0,0,0-1,.25c0,.05-.13.06-.19.09-.63-1-1.62-.48-2.32-1.14-.19-.7-.46-1.45.27-1.71s.21-1,.58-1.3c.41.16.62.72,1.11.69-.18-.51.27-.6.49-.82s.73-.26,1.31.26a2.19,2.19,0,0,1,.78,1c.15.54-.11,1.13.65,1.64.82-.64.82-.64,1.74.1l.54.45c-.28.49-1.14.11-1.42.66-.19.37-1.27-.49-1.43.2.88,1.28,2,1,3,1.23l3,2.59c.75-.54.75-.54,1.74,0a2.63,2.63,0,0,0,.6.23c.34.09.62-.17.47-.47a4.67,4.67,0,0,0-.55-.78c-.69-.84-.68-1.5,0-2l-1.55-.75c.27-.61-.53-1.41.06-2a3.66,3.66,0,0,0,.6,1c.31.26.84.28,1.15.54.72.61,1.08.46,1.57,0s1,0,1.26.77a1.1,1.1,0,0,1-.38,1.2c.5.5,1.6.29,1.62,1.33a.44.44,0,0,0,.26.21c1,0,1.52.93,2.3,1.35.82.15,1.56-.15,2.51.5a2.33,2.33,0,0,0,2.36,0l-.77-.67c.21-.77,1.53.24,1.68-.65-1.4-1.06-1.4-1.06-2.3-.31l-1.38-1.1c-.59.68-1.57.45-2.47.43-.76-.7-1.91-.68-2.55-1.55a.81.81,0,0,1-.1-.78.9.9,0,0,1,.8-.09c.95.34,1,.37,1.14.07a1.28,1.28,0,0,0,.24-.73c-.07-.58.35-.61.77-.5.2.06.43.43.55.68s.06.8.57,1.1c.3-.31.54-.79,1.18-.53s.43.7.56,1.08c.06.19.15.48.27.53.28.11.77.23.85.12.19-.27.09-.73.28-1,.48-.68,1.05-1.3,1.62-2l1.06.91s0,.09,0,.16c0,.23-.63.29-.14.63.21.14.58,0,.86,0,.08,0,.19-.16.17-.21-.66-1.15.94-.64,1-1.26l-.71-.62a1.66,1.66,0,0,1,1.78-.1c-.29.79-.3,1.23.07,1.61,0,.28,0,.56-.06.84a1,1,0,0,0,0,.34l.1.3c0,.1.1.19.07.31a1.18,1.18,0,0,0,.1.71.67.67,0,0,1,.06.32l.16.48c0,.12.15.11.24.17l-.05.72.21.31-.07,1c.06.27.19.32.19.53s.15.23.28.27,0,0,0,.06,0,.16.07.24,0,.32.09.44,0,.13,0,.2a.45.45,0,0,0,.08.38.26.26,0,0,1,0,.18.23.23,0,0,0,0,.35.33.33,0,0,1,0,.19.43.43,0,0,0,.06.25s-.08.17-.07.18.06.25.06.39,0,.06.06.08,0,0,0,0c-.05-.25.18-.39.17-.64a.33.33,0,0,1,.22-.26c.11,0,.18.13.19.21a1,1,0,0,0,.22.46l-.06.84c.14.18.22.51.52.35,0-.06,0-.13,0-.19s0-.12.05-.18l.24,0c.21-.43.23-.44.65-.59l-.11-.18c.22-.08.26-.31.3-.56l.35,0a3.92,3.92,0,0,0,.27-.31c0-.06.05-.18.1-.23s0-.14,0-.21a.12.12,0,0,1,0-.09.25.25,0,0,1,.11,0l.13.49a1.15,1.15,0,0,0,.14.63c.08-.1.17-.16.17-.34s0-.61.06-.91v-.19l.36-.39-.09-.15s.1-.09.11-.15,0-.33,0-.49.16-.24.14-.43,0-.1.13,0,.13.06.18.12.24.35.36.52.29.31.43.48.24.35.36.52l.64.94.23,0a2.19,2.19,0,0,0,.39.91c.14.18.26.38.38.57.21,0,.35,0,.37.3s.1.18.14.28c.21-.05.11.23.21.3l.12-.12c.28.41.54.81.83,1.21a2.63,2.63,0,0,1,.16.41c.08,0,.19,0,.27.08a1.56,1.56,0,0,0,0,.19c0,.06,0,.17,0,.17s.22.16.28.29.21.15.29.26c.26.39.52.77.79,1.15a1.54,1.54,0,0,1,.14.35c0,.12.12.27.21.31s.24.26.36.38a2.46,2.46,0,0,1,.28.56,6.13,6.13,0,0,0,.39.58s0,0,0,.05c0,.29.25.39.29.62s.24.44.37.66a1.08,1.08,0,0,0,.32.34c.13.1.2.34.33.45s.26.28.46.27.21,0,.3.09.22.12.29.27.21.14.34.07c0-.1-.14-.18-.08-.29s.15-.1.23-.14,0-.23,0-.35l-.28,0c-.1-.09-.14-.24-.27-.31a1.09,1.09,0,0,1-.29-.38s0-.12,0-.22c.1.15.18.26.26.38s.25.09.29.27.26.06.25.29c.09,0,.18,0,.23.11s.05.06.08,0,0-.11,0-.13-.17-.14-.24-.23-.22-.31-.32-.47c-.24.11-.09-.41-.32-.31-.06-.11,0-.27-.13-.35a2.83,2.83,0,0,1-.24-.27c.13-.12.31-.08.28-.33a.29.29,0,0,1,0-.07c0-.09,0-.2.07-.24s.13,0,.18.11.09.2.2.2.09.05.08.14a.26.26,0,0,0,.14.27c.16,0,.24.2.32.34s.27.28.41.41.21.06.17.26a3.69,3.69,0,0,0,.31.22c.06,0,.23-.14.24-.24s0-.23,0-.37l-.35-.45c.27-.15.3.15.42.24s.2,0,.31-.08.09-.24.11-.38l.24-.28c-.16-.17-.07-.38-.06-.58l.13-.14c.12-.14.12-.14,0-.34a2.64,2.64,0,0,1-.12-.42c0-.2-.18-.28-.25-.44s0-.08,0-.11a1.6,1.6,0,0,1,.08-.27l.16.4c.26-.16.22-.41.23-.62l-.19-.34c.07-.25-.08-.38-.17-.52l.18-.39.15.33.33-.19c.05-.34,0-.69.09-1,.17-.11.21-.33.32-.47a.19.19,0,0,0,0-.24l-.16-.23c0-.3,0-.56.06-.81,0-.07,0-.16,0-.19s0-.3-.05-.46,0-.14.09-.15a.19.19,0,0,1,.14.07,1,1,0,0,1,.18.26c.06.14.19.1.26.21s.21.14.29.27.23.26.27.43a1.28,1.28,0,0,0,.22.45c.07.09.11.23.24.25s0,.3.1.41a.21.21,0,0,1,.06.11c0,.13-.08.19-.12.28l.39.58,0,.28.16.23c.12-.24.29-.1.45-.12l.31-.36.05-.75c.11,0,.23,0,.27.06s.2.15.32,0,.17,0,.16.09a.3.3,0,0,1-.07.17s-.11,0-.15,0-.14.07-.12.22a.89.89,0,0,1,.21,0,.26.26,0,0,0,.32-.2c.05-.19.21-.33.17-.56a.56.56,0,0,1,0-.19.58.58,0,0,1,.23,0c.11.06,0,.21.05.31a1.15,1.15,0,0,1,.09.44c0,.08.09.17.14.26.08-.13.11-.25.18-.36s0-.27,0-.41,0-.25.06-.32.21,0,.32-.08a.52.52,0,0,0,.12-.44,1.77,1.77,0,0,1,.16-.64c0-.15.17,0,.24-.16s0-.21,0-.32.17-.19.14-.36L121,244s.06,0,.06.07,0,.17.09.21a1.77,1.77,0,0,1,.31.21c0,.23.16.34.24.51s.11.41.2.59a.52.52,0,0,1,0,.33.36.36,0,0,0,.08.31c0,.15.12.24.1.36-.06.34.14.41.31.54,0,.14-.06.31,0,.41a.56.56,0,0,1,.07.38.55.55,0,0,0,.09.37c-.07.32.13.61,0,.93a.07.07,0,0,0,0,.06.17.17,0,0,0,.09,0s.09,0,.09-.05c0-.2,0-.41.06-.6a.29.29,0,0,1,.36.1c.15.18.13.47.31.61.09-.12.1-.34.26-.38,0,0,0,0,0,.05s0,.16,0,.19.08-.05.08-.12.09-.13.16-.12.05.18.17.1c0-.27,0-.55.05-.83,0-.08-.06-.15-.09-.23a.16.16,0,0,1,0-.12,1.33,1.33,0,0,1,.21-.08l.06-.9a1.11,1.11,0,0,1,.18.42,1.17,1.17,0,0,0,.23.71c.09-.24.28,0,.39-.18s.06-.27,0-.39a.29.29,0,0,1,0-.18c.16-.1,0-.2,0-.32a2,2,0,0,1,0-.41c-.15-.14-.06-.34-.06-.52s0-.06.06-.09l.22,0a2,2,0,0,0,.1.3c.07.13,0,.27,0,.4s.06.16.1.23.18.11.26.21,0,.33.09.45a1.12,1.12,0,0,1,.09-.24,2.13,2.13,0,0,1,.21-.24l0-.56,0-.42c.14-.1.11-.28.15-.42s.13-.16.12-.29.05-.28-.06-.38c0-.29-.16-.55-.08-.85a1.24,1.24,0,0,0,0-.35c0-.23.17-.11.24-.23l.07-1c-.18-.24,0-.53-.05-.79,0-.05.05-.11.08-.17s-.07-.13-.06-.21a2.93,2.93,0,0,1,0-.49.28.28,0,0,0,0-.11c.72-1,1.88-.17,2.84-.14s1.37,1.24,2.41.83c.06,0,.19.09.29.14.32.19.4,1,.05,1.09-.81.14-.94.82-1.31,1.3a1.76,1.76,0,0,0,.52.26c.69.06.7-.71,1.19-.93.67-.3,1.18.66,1.87.27a5.23,5.23,0,0,1,.85-.3c0-.17,0-.3,0-.32l-2.35-1.41.44-.81c-1-.7-1.06-.73-.76-1.45s.17-.71-.47-.66a2.11,2.11,0,0,1-.9-.25c-.42-.18-.82-.44-.8-.94s.53-.57.95-.65c.21,0,.42-.05.64-.08l2.34,1.38a3.41,3.41,0,0,1,.88-2.21,1.2,1.2,0,0,1,.87,0,4.22,4.22,0,0,0,1.36,2.1c.14.14.11.43.19.63a.58.58,0,0,1-.3.8l-.78.47c.73.77,1.7.59,2.47.94.3.14.4.2.49-.24,0-.22-.11-.54-.19-.85s-.23-.82-.33-1.19c.29-.19.47-.3.64-.42s.31-.27.47-.41c-.16-.09-.33-.27-.48-.26-.33,0-.65.18-1,.24a.56.56,0,0,1-.72-.46c-.14-.51,0-.72.63-.9a2,2,0,0,1,1.56.17c.41.18,1.16-.31,1.24.55s.62,1,1,1.47a2.26,2.26,0,0,1-.49.37,8.41,8.41,0,0,1-1,.28,9.4,9.4,0,0,1-.32,1.51c-.1.27-.21.43,0,.48s.5.09.61,0a4.89,4.89,0,0,0,.77-1c.23-.39.42-.82.94-.82s.58.53.74.92.44.76.51.74c1.26-.48,1.19.54,1.46,1.21.07.17.3.27.47.41.46-.7-.18-1.28-.2-1.92,0-.3.08-.85.16-.85,1.13-.1.45-1.08.77-1.51.59-.8-.18-.83-.51-1.11a1.51,1.51,0,0,0,.12-1.87c-.23-.44-.92-.75-1-1.17-.07-.77-.81-.88-1.13-1.69.93,0,1.58-.8,2.68-.37-.89.69-.35,1.4-.12,2.44l2.43,1.13a1.11,1.11,0,0,1,.08.16v0a.53.53,0,0,1,0,.17.3.3,0,0,0,.09.2c.19.56.31,1.1-.71,1.31-.07,0-.14.19-.16.29s.08.2.13.2a3.2,3.2,0,0,0,.95-.12l.36-.12a.62.62,0,0,0,.11.52.37.37,0,0,1-.06.26.33.33,0,0,0,0,.5.47.47,0,0,1,0,.28.61.61,0,0,0,.09.36s-.11.25-.1.26.09.36.09.56c0,0,.05.08.09.11s.06,0,.06-.06c-.07-.36.26-.56.24-.91a.47.47,0,0,1,.32-.38c.16,0,.27.18.28.29a1.43,1.43,0,0,0,.31.66l-.08,1.2c.21.26.31.74.75.51,0-.08,0-.18,0-.27s.05-.18.07-.26l.34,0c.3-.61.33-.64.93-.85l-.15-.26a.52.52,0,0,0,.31-.3,1.73,1.73,0,0,0,1,.55l.53-1.22a1.63,1.63,0,0,0,.2.62c.11-.14.25-.23.25-.48,0-.44.05-.87.08-1.31l0-.27.51-.56-.13-.22c.06-.07.15-.13.16-.21,0-.23,0-.48.06-.7a1.06,1.06,0,0,1,.12-.28.85.85,0,0,1,.23.06.73.73,0,0,0,.47,0l.34.49c.32.07.42.45.62.69s.34.5.51.75l.92,1.35.33,0a3.14,3.14,0,0,0,.57,1.31c.2.25.37.55.55.81.3,0,.5.07.52.43,0,.2.15.26.21.4.3-.08.16.33.3.43l.18-.18c.4.58.78,1.17,1.19,1.73a3.79,3.79,0,0,1,.24.58c.12.05.27,0,.38.11a2.19,2.19,0,0,0,0,.27c0,.09,0,.25.07.25.23,0,.31.24.4.41s.31.21.42.38c.37.55.74,1.11,1.13,1.65a2.21,2.21,0,0,1,.19.5c.07.17.18.39.3.44s.34.37.51.55a3.53,3.53,0,0,1,.4.8,8.84,8.84,0,0,0,.56.83s0,.05,0,.08c0,.42.36.55.42.89s.35.63.53.94a1.56,1.56,0,0,0,.45.48c.19.15.29.48.48.64s.38.4.66.39.31-.05.44.13.31.18.41.39.3.2.48.1c0-.14-.2-.26-.11-.41s.21-.14.32-.2,0-.34,0-.5l-.4,0c-.14-.13-.2-.35-.39-.45a1.56,1.56,0,0,1-.42-.54s0-.17.06-.32c.14.21.27.37.37.55s.37.13.41.38.38.08.36.41c.13,0,.27,0,.34.16s.08.08.11,0,0-.16,0-.18-.24-.2-.34-.33-.31-.45-.46-.67c-.34.15-.13-.59-.46-.45-.09-.15,0-.38-.19-.51a4.07,4.07,0,0,1-.34-.38c.19-.18.45-.11.4-.47a.42.42,0,0,1,0-.1c0-.13,0-.29.11-.35s.19,0,.26.15.13.29.29.29.13.08.12.2a.37.37,0,0,0,.2.38c.24.06.35.28.45.49s.39.4.58.59.3.09.24.38a5.26,5.26,0,0,0,.44.32c.08,0,.33-.19.35-.34s0-.33,0-.53l-.5-.65c.39-.22.44.21.61.34s.29.05.44-.11.13-.35.15-.55l.34-.4c-.22-.25-.1-.55-.08-.83l.18-.2c.18-.2.17-.2.07-.49a3.8,3.8,0,0,1-.18-.6c0-.29-.26-.4-.36-.63,0-.05-.07-.11-.07-.16a2.32,2.32,0,0,1,.12-.38l.23.57c.37-.23.31-.59.32-.89l-.27-.49c.1-.36-.12-.54-.25-.74L176,246l.21.47.47-.27c.08-.48,0-1,.13-1.47.25-.15.31-.47.46-.68a.27.27,0,0,0,0-.35l-.23-.33c0-.43.06-.8.08-1.17,0-.09,0-.24,0-.28-.18-.19-.06-.44-.08-.66s0-.21.12-.21a.28.28,0,0,1,.2.11,1.43,1.43,0,0,1,.25.38c.08.2.27.15.38.3s.3.2.41.39.32.38.39.61a1.83,1.83,0,0,0,.31.64c.1.14.16.32.34.37s0,.44.14.58a.3.3,0,0,1,.09.15c0,.19-.11.27-.17.4l.57.83,0,.4.22.33c.17-.34.42-.15.65-.17l.45-.52.08-1.08c.15,0,.32,0,.39.08s.28.22.46,0,.24,0,.23.13a.43.43,0,0,1-.09.25c-.05.05-.16,0-.21.07s-.19.1-.17.32a1.27,1.27,0,0,1,.3,0,.37.37,0,0,0,.46-.29c.07-.27.31-.47.24-.81a.8.8,0,0,1,.06-.28.83.83,0,0,1,.33,0c.16.09,0,.3.07.44a1.65,1.65,0,0,1,.12.64c0,.11.13.24.2.37.12-.18.16-.37.26-.52s0-.39.06-.59,0-.36.08-.46.3,0,.45-.11a.75.75,0,0,0,.18-.63,2.53,2.53,0,0,1,.23-.92c.06-.22.25-.05.34-.23s0-.3,0-.46.25-.27.2-.51c.13-.09.26-.18.4-.25s.08.07.08.1,0,.24.13.3a2.55,2.55,0,0,1,.45.3c0,.34.22.49.34.73s.15.59.29.84a.75.75,0,0,1,0,.47.51.51,0,0,0,.11.44c0,.22.17.34.14.52-.08.48.21.59.44.78,0,.2-.09.45,0,.58a.81.81,0,0,1,.1.55.78.78,0,0,0,.13.53c-.11.46.18.88.07,1.34a.11.11,0,0,0,0,.08.24.24,0,0,0,.14.06s.13,0,.13-.07c0-.29.06-.58.09-.86a.42.42,0,0,1,.52.14c.21.25.19.68.44.88.14-.17.14-.49.38-.55,0,0,0,0,0,.08s-.05.23,0,.27.11-.08.11-.17.13-.18.23-.17.08.25.25.14c0-.39.07-.79.08-1.19,0-.11-.09-.21-.12-.33a.22.22,0,0,1,0-.17,1.89,1.89,0,0,1,.31-.12l.09-1.29a1.6,1.6,0,0,1,.26.61,1.67,1.67,0,0,0,.33,1c.13-.34.4-.06.56-.25s.08-.39-.06-.56a.41.41,0,0,1,0-.26c.22-.15.06-.29,0-.45a2.86,2.86,0,0,1,0-.59c-.21-.21-.08-.49-.08-.74,0,0,.06-.09.09-.14l.32,0a2.89,2.89,0,0,0,.14.43c.1.19,0,.39,0,.58s.09.23.15.33.26.15.37.3-.06.48.13.65a1.61,1.61,0,0,1,.13-.34,3,3,0,0,1,.31-.35l.06-.8,0-.6c.2-.14.16-.4.22-.6s.18-.22.17-.42.07-.4-.09-.55c0-.42-.23-.78-.11-1.23a1.79,1.79,0,0,0,0-.5c0-.33.25-.16.35-.33l.1-1.38c-.26-.34-.06-.76-.07-1.14,0-.08.07-.16.12-.24s-.1-.18-.09-.3a4.22,4.22,0,0,1,.06-.7c.07-.27-.14-.4-.13-.64a1.79,1.79,0,0,0-.08-.95c-.09-.19.11-.53-.11-.73,0-.27,0-.53,0-.8,0-.09,0-.23,0-.28a.55.55,0,0,1-.06-.56c.08-.28-.2-.36-.14-.64a1.15,1.15,0,0,0-.08-.84c-.07-.13.07-.44,0-.57a1,1,0,0,1-.1-.55c0-.16-.19-.24-.12-.43s-.11-.34-.12-.53a.59.59,0,0,1,.05-.18s0,0,.06,0c.4.42.52,1.12.91,1.55-.11.26.19.35.13.64a6.5,6.5,0,0,0-.08,1l.21.31.16-.16a2.27,2.27,0,0,1,.26.19c.1.1.19.21.28.32-.14.32.17.54.1.83s.2.66.12,1a.21.21,0,0,0,.12.08.25.25,0,0,0,.14-.05s0-.05,0-.08c.16-.32.22-.7.39-1a1.25,1.25,0,0,0,.22-.71,6.3,6.3,0,0,1,0-.8c.1-.07.16-.25.29-.24.11.25-.1.54.07.77a2.35,2.35,0,0,1,.2-.4c.13-.17.09-.38.1-.57s.15-.27.24-.38a.15.15,0,0,1,.25.08.6.6,0,0,0,.1.35c.11.17-.09.48.13.63a.12.12,0,0,1,0,.08c0,.13,0,.27,0,.4a.44.44,0,0,0,0,.19.22.22,0,0,0,.13.09c.1,0,.15,0,.17-.14a.28.28,0,0,0,0-.18c-.12-.17-.17-.32,0-.49s0-.34.1-.46.21-.14.32-.21c-.06-.27.27-.33.21-.61s.11-.47,0-.67,0-.52-.06-.76c0,0,0,0,0-.08-.11-.43-.11-.43.22-.76l.21.27a7.87,7.87,0,0,0,0,.93c.27-.21.28-.21.29.06s0,.36.29.38c0,0,.09,0,.14-.06.11-.29,0-.65.17-.93.11.27.37.38.36.75,0,.12.15.14.29,0,.06-.45.06-.93.11-1.4a1.92,1.92,0,0,0,.33.59c-.07.71.44,1,.53,1.63s.29.66.51.17.34.15.54-.07c-.05-.57-.16-1.17-.25-1.75l-.31-.39c.18-.31.34-.42.53,0a2.44,2.44,0,0,0,.22.48c0,.06.18,0,.24-.07a.71.71,0,0,0,0-.29c-.29-.14-.25-.73-.51-.92s-.14-.64-.25-.94l.4-1c-.06-.39-.12-.87-.2-1.34h0c.08,0,0-.06,0-.14-.13-.36-.25-.73-.36-1.11v0l0,0a1.82,1.82,0,0,1,.58,1.09c.08.48.48.81.47,1.43a.63.63,0,0,0,.35.1c.06,0,.15-.21.14-.27a7.13,7.13,0,0,1,0-2,11.46,11.46,0,0,0-.25-1.82l.14-.17a.29.29,0,0,1,0,0c0,.2.2.3.14.53,0,0,.08.06.12.09s.06,0,.08,0a.35.35,0,0,0,.07-.12,2.36,2.36,0,0,1-.24-.68l0-.07.29-.36a3.4,3.4,0,0,1,.51,1.06,3.66,3.66,0,0,0,.48,1.2c.28.66.62,1.27.94,1.91a3.74,3.74,0,0,0-.42-2.24,6.3,6.3,0,0,0-.61-1.26c-.33-.43-.19-1.29-.65-1.5a6.44,6.44,0,0,0-.77-1.59,1.64,1.64,0,0,0-.34-1.06.85.85,0,0,0,.29-.63c0-.24.33-.29.36-.62s-.11-.36-.13-.55c.47.3.18,1.29.6,1.65.15-.37,0-.7,0-1s-.1-.55-.11-.83a.4.4,0,0,1,.15-.27c.07,0,.2-.06.24,0a4.26,4.26,0,0,0,.51.92,1.69,1.69,0,0,1,.69,1c.11.46.54.17.78.56a5.49,5.49,0,0,0,.78.87l.45.49a3.88,3.88,0,0,1,.45.5c.09.13.1.41.19.51a1.43,1.43,0,0,1,.3.66c.05.23.3.25.35.59s.44.5.41,1,.34.49.37.8a4.56,4.56,0,0,0,.45,1.22c.12.37.12.83.42,1,0,.77.49,1.09.59,1.81.06.47.46.81.47,1.42,0,0,.1.12.1.11s.13-.2.11-.27c-.11-.51,0-1.17-.43-1.47-.09-.6-.19-1.2-.26-1.82,0-.05.14-.21.19-.18.33.17.64.36,1,.2,0,0,.1.2.15.3l.93,1.91a4.52,4.52,0,0,1,.59,1.28c.08.6.54.77.52,1.42,0,.45.43.49.42,1a1,1,0,0,0,.38.8c-.05.84.63,1.2.58,2,0,.5.37.55.43,1a1.9,1.9,0,0,0,.4,1.28c.22.19,0,.84.36,1.06,0,0,.1.07.11.12.1.54.19,1.09.28,1.64.41.37.42,1,.51,1.63s.17,1.11.25,1.66c-.41.43.11,1.22-.2,1.72a.87.87,0,0,0,0,.54c.21.22.23.35.15.77a3.94,3.94,0,0,0,0,2c.09.32-.11.49-.14.74a3.22,3.22,0,0,0,.15.74,5,5,0,0,0,.52-1.85,3.27,3.27,0,0,1,.28-1.27c.16-.36.09-.8.21-1.11s0-.91.25-1.31a10.88,10.88,0,0,0,.37-2.81c0-.1.32-1.7.37-1.84a3.76,3.76,0,0,1,1,2c.07.48.15,1,.22,1.46a2.53,2.53,0,0,1,0,.39c0,.17-.24.27-.05.46s.23,0,.34,0a2.25,2.25,0,0,0,0-.43c0-.35-.1-.69-.16-1.1.1-.08.2-.15.31-.25a.42.42,0,0,0,.11-.49,6.05,6.05,0,0,1-.37-.81c0-.19.08-.45.09-.68,0-.07-.19-.14-.21-.25-.17-1-.32-1.92-.47-2.88a3.17,3.17,0,0,0,0-1.78c0-.07.08-.16.14-.22s.09.06.1.11,0,.33.07.41a5.36,5.36,0,0,0,.47.52,1.29,1.29,0,0,0-.18-1.23c-.32-.33-.14-1.14-.57-1.33a2.92,2.92,0,0,0,.08-.33c0-.25.05-.51.08-.78.27,0,.44.38.65.59s.45.39.5.66c.09.44.46.5.44,1,.33.21.35,1.18.86,1a3.36,3.36,0,0,1,.48.7c.22.55.43,1.19.9,1.43a4.55,4.55,0,0,0-.15-1.62c-.07-.52,0-1.16-.47-1.43a5.84,5.84,0,0,0-.17-1,4.21,4.21,0,0,1-.48-1.43,13.77,13.77,0,0,0-.24-1.66,1.64,1.64,0,0,0-.18-.53,4.6,4.6,0,0,1-.74-2.11,2.51,2.51,0,0,1-.48-1.42c-.06-.55-.16-1.09-.25-1.67.16-.09.32-.1.37-.23.13-.31.2-.51.46-.18.14.18.32.05.39-.25-.22-.24-.51-.43-.28-1,.2.24.46.32.56.82,0,.24.3.41.47.61l.17-.44c.49.23.72.93.91,1.54a9.59,9.59,0,0,0,.49,1.43c.2.41.05,1.14.48,1.41.07.59.36,1.2,0,1.76l.31.36a1,1,0,0,0-.13.36c0,.41.1.82.1,1.22s-.1.63-.11.94a.84.84,0,0,0,.24.7c.19.13.11.3,0,.45a1.6,1.6,0,0,0,.05,1c0,.16.2.26.31.39-.12.33-.37.67,0,1a1.4,1.4,0,0,1,.28,1.1,5.43,5.43,0,0,0,.39,2.9,7.28,7.28,0,0,1-.1-1.8,3.9,3.9,0,0,0-.07-1.61c-.06-.56-.16-1.11-.24-1.67l-.26-1.73,1-1.71c.3.18.45.72.7,1.09a3.43,3.43,0,0,1,.27,1.16,9,9,0,0,0,.32,1.62c.06-.09.16-.17.16-.22-.13-.91-.24-1.81-.41-2.71-.08-.44-.44-.65-.45-1.22a9.53,9.53,0,0,0-.18-1.25l-.22-1.46a6.52,6.52,0,0,0-.2-1.24c-.25-.66.15-1.17,0-1.79s-.17-1.09-.24-1.58c.1-.24.15-.43.23-.58.19-.37.45-.25.51.31s.24.67.54.62c0,0,.13.19.14.31s.13.4.26.37.28-.19.28-.3c0-.35-.1-.69-.14-1s-.16-.54,0-.81c.37.15.25.68.29,1s.28.48.36.78c-.36.47.12.61.18.91s0,.71.27.8c0-.07.08-.13.07-.18q-.28-2-.58-4c0-.07,0-.18,0-.2-.55-.45-.38-1.37-.58-2-.3-.18-.36-.58-.41-1s-.1-.68-.15-1l.59-.76.44.48c.06.38.11.79.19,1.2,0,.07.12.12.18.15a.26.26,0,0,0,.06-.16,2.18,2.18,0,0,1,.06-1.37c.05-.1-.05-.4-.08-.61-.05-.4-.52-.47-.38-1a1.85,1.85,0,0,0,.09-1,1.48,1.48,0,0,1,.05-1.16,1.24,1.24,0,0,0-.16-.26c-.2-.18-.08-.32,0-.4s.16,0,.25,0c.28.37.15.94.47,1.64l.49.36c-.09.23-.19.38-.17.45s.17.25.23.41.08.4.13.58.12.3.19.49a2.54,2.54,0,0,0,0-1.28c0-.42-.12-.83-.18-1.25l-.18-1.18c.24-.15.27,0,.3.23a1.31,1.31,0,0,0,.31.89,1.18,1.18,0,0,1,.16.54c.11.69.21,1.38.31,2.05.46.45.5-.25.67-.55.06-.72-.39-1.48,0-2.24-.18-.19-.36-.37-.53-.57a.53.53,0,0,1,.13-.84,1.69,1.69,0,0,0,.13-.17c-.1-.53,0-1.17-.41-1.63-.12-.13.21-.68-.17-.85a1.65,1.65,0,0,1,0-1.16c.14-.26,0-.53,0-.8,0-.66-.4-1.35,0-2a4.33,4.33,0,0,0-.4-1.52,4.49,4.49,0,0,1-.34-1.77c.32-.42,0-1,.1-1.58.38.37.23,1,.4,1.36s.4.54.41,1a4.47,4.47,0,0,0,.12.83c.15.63,0,1.44.53,1.85a1.48,1.48,0,0,0-.11.34,2.13,2.13,0,0,0,0,.58c0,.17.06.17.48,0,0-.19,0-.39,0-.58-.15-1-.3-2.09-.48-3.12,0-.22-.24-.37-.29-.59s.11-.34.13-.53a.76.76,0,0,0-.1-.36c-.08-.16-.23-.27-.27-.44-.14-.66-.26-1.34-.38-2-.48-.46-.37-1.26-.46-1.91-.07-.49-.43-.57-.43-1,0-.64-.48-.83-.49-1.42a2.54,2.54,0,0,0-.43-1.24,1.15,1.15,0,0,1,0-1l.39.82a3.11,3.11,0,0,0-.72-2.5,13.23,13.23,0,0,1-1.28-2.75,1.81,1.81,0,0,0-.76-1.56c-.14-.61-.06-1.33-.52-1.66-.06-.42-.14-.83-.18-1.25a1.06,1.06,0,0,0-.3-.66.67.67,0,0,1-.06-.72c.07-.17.13-.35.17-.46.63.24.86,1.24,1.37,1.73l.14-1.05a4.2,4.2,0,0,0,.34,1.19,2,2,0,0,1,.36,1.08c.07.42.14.83.18,1.25a1,1,0,0,0,.39.81l-.16.46a2.79,2.79,0,0,1,.32.64,6.89,6.89,0,0,1,.21,1.45c0,.65.35.93.49,1.42a5.58,5.58,0,0,0,.36,1.56c.05-.12.1-.23.15-.34.15-.37.15-.37-.16-.74-.12-.81-.23-1.64-.38-2.46a1.44,1.44,0,0,1,.13-.94c-.59-.52-.39-1.51-.6-2.26a1.1,1.1,0,0,1,.05-.37,3.84,3.84,0,0,1,1,2c.07.47.14.94.22,1.49.2-.37.2-.37,0-1.54a1.39,1.39,0,0,1,.29-.25c.16-.07.33-.16.49.07,0,.06.13,0,.19.07a2.31,2.31,0,0,0,0-.57c-.06-.17-.24-.25-.28-.41a.87.87,0,0,1,0-.55.24.24,0,0,1,.35,0,2.93,2.93,0,0,1,.45,1c.09.43.47.49.43,1,.27.16.3.69.51.9s.22.79.51.92c.07.76.59,1.2.62,2,0,.64.6.9.51,1.63.38.3.38.9.48,1.42a2.62,2.62,0,0,0,.36,1.31c.27.31.21.9.3,1.36s.11.84.19,1.25a3.6,3.6,0,0,0,.3,1.38c0-.09.13-.19.12-.27C236.89,198.93,236.67,197.76,236.55,196.57ZM155.32,239a.31.31,0,0,1,.05-.11c.13-.14,0-.2,0-.3a.18.18,0,0,1,.06-.13.37.37,0,0,1,.16,0l.19.7c0,.09,0,.17,0,.24Z"></path></g></g></g></svg>