<svg viewBox="0 0 192 192" xmlns="http://www.w3.org/2000/svg" width="192" height="192">










<g transform="rotate(0 3.14 2.18) translate(35.792953216383886 21.675438798156662) scale(1.1072560328021355)"><defs>
<style>.cls-1{fill:none;stroke:#231f20;stroke-miterlimit:10;}.cls-2{clip-path:url(#a);}</style>
<clipPath id="a">
<path class="cls-1" d="M79.94,20.06a61,61,0,0,0-64,0A60.94,60.94,0,0,1,54.91,71.27a60.94,60.94,0,0,1-28.72,57.6A60.95,60.95,0,0,0,87.91,25.93M58.54,63.46c11.31-11,23.15-7.81,27.88-6.11A21.47,21.47,0,0,1,73.45,68,14.09,14.09,0,0,1,58.54,63.46Z"></path>
</clipPath>
</defs><title>2044009</title><polygon class="cls-1" points="101.9 7.47 103.5 11.66 108 11.91 104.5 14.74 105.7 19.09 101.9 16.65 98.13 19.09 99.28 14.74 95.79 11.91 100.3 11.66"></polygon><circle class="cls-1" cx="55.95" cy="3.21" r="2.5"></circle><circle class="cls-1" cx="32.71" cy="52.43" r="2.5"></circle><polygon class="cls-1" points="6.61 29.3 8.02 32.97 11.94 33.18 8.89 35.65 9.9 39.45 6.61 37.31 3.31 39.45 4.32 35.65 1.28 33.18 5.2 32.97"></polygon><polygon class="cls-1" points="83.28 12.83 86.09 20.11 93.87 20.53 87.82 25.44 89.83 32.98 83.28 28.74 76.74 32.98 78.74 25.44 72.69 20.53 80.48 20.11"></polygon><g class="cls-2">
<circle class="cls-1" transform="translate(-12.26 21.09) rotate(-24.1)" cx="43.27" cy="39.25" r="9.46"></circle>
<path class="cls-1" d="M111.22,86.72a14.84,14.84,0,1,0-28.48,7.1,9.91,9.91,0,1,0,5.81,6.85,14.82,14.82,0,0,0,22.67-14Z"></path>
<circle class="cls-1" transform="translate(-42.61 25.6) rotate(-20.49)" cx="49.51" cy="130.7" r="9.78"></circle>
</g><path class="cls-1" d="M79.94,20.06a61,61,0,0,0-64,0A60.94,60.94,0,0,1,54.91,71.27a60.94,60.94,0,0,1-28.72,57.6A60.95,60.95,0,0,0,87.91,25.93M58.54,63.46c11.31-11,23.15-7.81,27.88-6.11A21.47,21.47,0,0,1,73.45,68,14.09,14.09,0,0,1,58.54,63.46Z"></path><path class="cls-1" d="M90.34,50.36c-17.66-2.69-29.17.7-38.58,5.89,0,0-1.71-4.23-2.79-6.5-.66-1.39,14.11-6.29,20.25-5.91S90.34,50.36,90.34,50.36Z"></path></g></svg>