<svg viewBox="0 0 192 192" xmlns="http://www.w3.org/2000/svg" width="192" height="192"><g transform="rotate(0 3.14 2.18) translate(27.89776814001172 29.237484176601654) scale(0.893144024393289)"><defs><style>.cls-1{isolation:isolate;}.cls-2{fill:#fdd101;}.cls-3{opacity:0.85;mix-blend-mode:multiply;fill:url(#a);}.cls-4,.cls-5{fill:#fff;stroke:#fdd101;stroke-miterlimit:10;}.cls-4{stroke-width:1px;}.cls-5{stroke-width:0.97px;}</style><radialGradient id="a" cx="77" cy="87.48" r="70" gradientUnits="userSpaceOnUse"><stop stop-color="#fff" offset="0"></stop><stop stop-color="#eedc00" offset="1"></stop></radialGradient></defs><title>-</title><g class="cls-1"><g data-name="Layer 2"><path class="cls-2" d="M148.6,101.92c4.54-4.72,5.44-7.44,4.54-8.35s-8.53,1.45-12.52.54-10.34-2.72-10.34-4,8-3.08,10.7-5.44S151.5,71.62,150,69.26s-7.62,1.45-10.52,1.63S130.27,72,126.64,69.8s-6.71-3.45-6.71-5.08,6.53-8.89,7.08-12.88-.36-12.16-2.36-14.15-5.08,9.07-12.16,10.16-9.43,2.54-9.25-1.81c.54-13.06-9.67-23.09-22.68-21.23,4.17,4,8.53,8.35,2.36,14.52C78.28,44,77.23,45.52,77,46c-.24-.49-1.29-2.05-5.92-6.69-6.17-6.17-1.81-10.52,2.36-14.52C60.42,22.95,50.21,33,50.75,46c.18,4.35-2.18,2.9-9.25,1.81S31.34,35.69,29.34,37.69,26.44,47.85,27,51.84s7.08,11.25,7.08,12.88S31,67.62,27.35,69.8s-10,1.27-12.88,1.09-9.07-4-10.52-1.63S10.29,82.32,13,84.68s10.7,4.17,10.7,5.44-6.35,3.08-10.34,4S1.77,92.66.86,93.57s0,3.63,4.54,8.35,16.33,8,16.87,9.07-3.81,4.54-8.53,6.17-7.08-.73-8,.73,1.27,4.17,4.9,6.53A36.3,36.3,0,0,0,21.18,129c2,.36,4.54,1.63,3.45,2.54a8.17,8.17,0,0,0-2.9,4.54c-.73,2.54-3.81,4.54-4.9,4.9s-7.8,3.27.18,5.81a18.11,18.11,0,0,0,14.51-1.81c-1.35.9-.21,3.89,1,4.3a19.39,19.39,0,0,0,14.38-.48c5.41-2.54,7.63-8.25,11.93-12,4.62-4.07,10.22-7.26,13.7-12.48a5.32,5.32,0,0,1,8.94,0c3.48,5.22,9.08,8.41,13.7,12.48,4.29,3.78,6.52,9.49,11.93,12a19.39,19.39,0,0,0,14.38.48c1.21-.41,2.35-3.4,1-4.3A18.11,18.11,0,0,0,137,146.73c8-2.54,1.27-5.44.18-5.81s-4.17-2.36-4.9-4.9a8.17,8.17,0,0,0-2.9-4.54c-1.09-.91,1.45-2.18,3.45-2.54a36.3,36.3,0,0,0,10.52-4.54c3.63-2.36,5.81-5.08,4.9-6.53s-3.27.91-8-.73-9.07-5.08-8.53-6.17S144.06,106.63,148.6,101.92Zm-85.51,5.45c-3,1.46-11.66.61-15.91-2.06s-3.4-5.83-3.4-5.83c1.7-2.55,4.13-6.56,11.42-5.83s9.72,5.1,11.78,7.53C67,101.17,66.12,105.91,63.09,107.37Zm43.45-2.06c-4.25,2.67-12.88,3.52-15.91,2.06s-3.89-6.19-3.89-6.19c2.06-2.43,4.49-6.8,11.78-7.53s9.72,3.28,11.42,5.83C109.94,99.47,110.79,102.63,106.54,105.3Z"></path><path class="cls-3" d="M148.6,101.92c4.54-4.72,5.44-7.44,4.54-8.35s-8.53,1.45-12.52.54-10.34-2.72-10.34-4,8-3.08,10.7-5.44S151.5,71.62,150,69.26s-7.62,1.45-10.52,1.63S130.27,72,126.64,69.8s-6.71-3.45-6.71-5.08,6.53-8.89,7.08-12.88-.36-12.16-2.36-14.15-5.08,9.07-12.16,10.16-9.43,2.54-9.25-1.81c.54-13.06-9.67-23.09-22.68-21.23,4.17,4,8.53,8.35,2.36,14.52C78.28,44,77.23,45.52,77,46c-.24-.49-1.29-2.05-5.92-6.69-6.17-6.17-1.81-10.52,2.36-14.52C60.42,22.95,50.21,33,50.75,46c.18,4.35-2.18,2.9-9.25,1.81S31.34,35.69,29.34,37.69,26.44,47.85,27,51.84s7.08,11.25,7.08,12.88S31,67.62,27.35,69.8s-10,1.27-12.88,1.09-9.07-4-10.52-1.63S10.29,82.32,13,84.68s10.7,4.17,10.7,5.44-6.35,3.08-10.34,4S1.77,92.66.86,93.57s0,3.63,4.54,8.35,16.33,8,16.87,9.07-3.81,4.54-8.53,6.17-7.08-.73-8,.73,1.27,4.17,4.9,6.53A36.3,36.3,0,0,0,21.18,129c2,.36,4.54,1.63,3.45,2.54a8.17,8.17,0,0,0-2.9,4.54c-.73,2.54-3.81,4.54-4.9,4.9s-7.8,3.27.18,5.81a18.11,18.11,0,0,0,14.51-1.81c-1.35.9-.21,3.89,1,4.3a19.39,19.39,0,0,0,14.38-.48c5.41-2.54,7.63-8.25,11.93-12,4.62-4.07,10.22-7.26,13.7-12.48a5.32,5.32,0,0,1,8.94,0c3.48,5.22,9.08,8.41,13.7,12.48,4.29,3.78,6.52,9.49,11.93,12a19.39,19.39,0,0,0,14.38.48c1.21-.41,2.35-3.4,1-4.3A18.11,18.11,0,0,0,137,146.73c8-2.54,1.27-5.44.18-5.81s-4.17-2.36-4.9-4.9a8.17,8.17,0,0,0-2.9-4.54c-1.09-.91,1.45-2.18,3.45-2.54a36.3,36.3,0,0,0,10.52-4.54c3.63-2.36,5.81-5.08,4.9-6.53s-3.27.91-8-.73-9.07-5.08-8.53-6.17S144.06,106.63,148.6,101.92Zm-85.51,5.45c-3,1.46-11.66.61-15.91-2.06s-3.4-5.83-3.4-5.83c1.7-2.55,4.13-6.56,11.42-5.83s9.72,5.1,11.78,7.53C67,101.17,66.12,105.91,63.09,107.37Zm43.45-2.06c-4.25,2.67-12.88,3.52-15.91,2.06s-3.89-6.19-3.89-6.19c2.06-2.43,4.49-6.8,11.78-7.53s9.72,3.28,11.42,5.83C109.94,99.47,110.79,102.63,106.54,105.3Z"></path><circle class="cls-2" cx="131.3" cy="24.59" r="3.83"></circle><path class="cls-4" d="M121.33,8.56a7.29,7.29,0,0,1-7.14-7.14A7.29,7.29,0,0,1,107,8.56a7.29,7.29,0,0,1,7.14,7.14A7.29,7.29,0,0,1,121.33,8.56Z"></path><circle class="cls-2" transform="translate(-27.84 14.58) rotate(-45)" cx="3.68" cy="40.9" r="3.68"></circle><path class="cls-5" d="M30,24a7,7,0,0,0,6.87-6.87A7,7,0,0,0,43.73,24a7,7,0,0,0-6.87,6.87A7,7,0,0,0,30,24Z"></path><path class="cls-5" d="m1.46 11.11a11.33 11.33 0 0 0 11.11 -11.11 11.33 11.33 0 0 0 11.1 11.11 11.33 11.33 0 0 0 -11.1 11.1 11.33 11.33 0 0 0 -11.11 -11.1z"></path></g></g></g></svg>